<svg xmlns="http://www.w3.org/2000/svg" xmlns:xlink="http://www.w3.org/1999/xlink" width="47.274" height="51.023" viewBox="0 0 47.274 51.023">
  <defs>
    <clipPath id="clip-path">
      <rect id="Rectangle_542" data-name="Rectangle 542" width="47.274" height="51.023" transform="translate(0 0)" fill="#141944"/>
    </clipPath>
  </defs>
  <g id="Group_1291" data-name="Group 1291" transform="translate(0 -0.002)">
    <g id="Group_1290" data-name="Group 1290" transform="translate(0 0.002)" clip-path="url(#clip-path)">
      <path id="Path_1798" data-name="Path 1798" d="M47.257,626.427l-.008-.262a7.234,7.234,0,0,0-3.471-6.308l-.879-.549c-3.74-2.336-7.607-4.751-11.477-7.026A1.486,1.486,0,0,0,30,612.209a15.4,15.4,0,0,1-12.7-.006,1.5,1.5,0,0,0-1.485.077q-2.229,1.386-4.464,2.764c-2.455,1.517-4.993,3.085-7.478,4.648a7.73,7.73,0,0,0-3.517,4.217,10.823,10.823,0,0,0-.019,5.454,5.647,5.647,0,0,0,5.772,4.289c4.146.006,8.36,0,12.436,0H33.67c2.46,0,4.941,0,7.4-.008a5.937,5.937,0,0,0,6.114-5.189,9.9,9.9,0,0,0,.077-2.034m-39.449-4.61c.5-.3,1.011-.61,1.514-.922l.378-.234c2.226-1.381,4.529-2.809,6.779-4.24a.753.753,0,0,1,.782-.079,18.244,18.244,0,0,0,6.83,1.182,18.993,18.993,0,0,0,5.892-1.156.869.869,0,0,1,.884.109q1.171.727,2.339,1.459c2.555,1.6,5.2,3.249,7.851,4.791a3.977,3.977,0,0,1,2.115,2.3,6.828,6.828,0,0,1,.117,2.984,1.962,1.962,0,0,1-2.126,1.752q-6.348,0-12.7,0H23.706q-8.623,0-17.246,0h0a3.2,3.2,0,0,1-1.125-.159,1.949,1.949,0,0,1-1.339-1.791,8.3,8.3,0,0,1,.066-2.55,3.371,3.371,0,0,1,1.609-2.133c.7-.45,1.435-.891,2.142-1.318" transform="translate(0 -582.634)" fill="#141944"/>
      <path id="Path_1799" data-name="Path 1799" d="M493.347,980.895h0Z" transform="translate(-469.641 -933.762)" fill="#141944"/>
      <path id="Path_1800" data-name="Path 1800" d="M129.239,14.655l1.077,1.572c.856,1.248,1.74,2.538,2.6,3.811a1.023,1.023,0,0,0,.81.518h0a1.007,1.007,0,0,0,.808-.518c.819-1.215,1.657-2.447,2.468-3.639l1.222-1.8.02-.025a.834.834,0,0,0-.751-1.4l-.029,0c-.355,0-.71,0-1.065,0h-.613a10.478,10.478,0,0,1,1.455-3.857,10.693,10.693,0,0,1,9.88-5.355h.012a9.826,9.826,0,0,1,6.841,3.137,10.733,10.733,0,0,1,3.2,8.457,10.761,10.761,0,0,1-3.753,8.079,10.552,10.552,0,0,1-15.662-1.891,1.146,1.146,0,0,0-.794-.532,1.1,1.1,0,0,0-.852.364,14.006,14.006,0,0,1-1.209,1,1.052,1.052,0,0,0-.22,1.631,15.84,15.84,0,0,0,2.28,2.474,13.55,13.55,0,0,0,11.659,3.353,14.263,14.263,0,0,0,11.406-9.244,15.086,15.086,0,0,0-.712-12.936A14.485,14.485,0,0,0,135.9,4.575a14.909,14.909,0,0,0-3.992,8.6c-.523-.017-1.047-.011-1.555-.005l-.342,0-.038,0a.864.864,0,0,0-.9.461.91.91,0,0,0,.142.988l.025.035" transform="translate(-122.781 -0.002)" fill="#141944"/>
    </g>
  </g>
</svg>
