<svg id="Group_1355" data-name="Group 1355" xmlns="http://www.w3.org/2000/svg" xmlns:xlink="http://www.w3.org/1999/xlink" width="87.551" height="77.007" viewBox="0 0 87.551 77.007">
  <defs>
    <clipPath id="clip-path">
      <rect id="Rectangle_605" data-name="Rectangle 605" width="87.551" height="77.007" fill="#ffc331"/>
    </clipPath>
  </defs>
  <g id="Group_1354" data-name="Group 1354" clip-path="url(#clip-path)">
    <path id="Path_2259" data-name="Path 2259" d="M182.593,47.878c-1.208-.647-2.329-1.237-3.438-1.85-.346-.191-.655-.45-.986-.671-3.19-2.132-1.9-6.384.464-7.659.859-.463,1.71-.939,2.712-1.49-1.181-.431-2.24-.815-3.3-1.2-1.545-.568-3.095-1.122-4.629-1.716a6.25,6.25,0,0,1-2.907-2.014,2.833,2.833,0,0,1,.744-4.334,8.917,8.917,0,0,1,4.692-1.321A7.613,7.613,0,0,0,178.5,25.2a2.55,2.55,0,0,1,2.665.617,3.9,3.9,0,0,0,1.669,1.018c.611.154.716.576.539,1.108a2.7,2.7,0,0,1-1.8,1.673,6.673,6.673,0,0,1-4.075.03,2.855,2.855,0,0,0-1.173-.166c-.19.03-.377.091-.437.293-.073.242.14.335.3.408.623.293,1.246.591,1.888.839,2.031.783,4.069,1.547,6.106,2.314.807.3.916.249.9-.56-.106-6.529-.143-13.061-.408-19.583a10.407,10.407,0,0,0-.9-3.766,1.192,1.192,0,0,0-.206-.335c-.766-.8-.649-1.329.358-1.6q-2.922-4.224,0-6.569a4.153,4.153,0,0,1,5.686.443,4.2,4.2,0,0,1-.615,6.152c.351.182.99-.094.968.629a2.016,2.016,0,0,1-.5,1.08,4.382,4.382,0,0,0-.686,2.329c0,.375.061.733-.267,1.027-.245.219-.177.542-.182.829-.061,3.477-.071,6.955-.192,10.43-.1,2.919-.1,5.839-.145,8.758-.014,1.031.044,1.06,1.032.684q3.423-1.3,6.847-2.605a4.883,4.883,0,0,0,.8-.357c.21-.128.591-.2.512-.52-.1-.387-.494-.368-.8-.318-.706.113-1.4.282-2.109.4a5.534,5.534,0,0,1-2.894-.322A2.87,2.87,0,0,1,189.9,28.39c-.548-.867-.373-1.358.608-1.653a2.7,2.7,0,0,0,1.268-.772,2.791,2.791,0,0,1,3.14-.634,3.542,3.542,0,0,0,1.551.274,11.53,11.53,0,0,1,3.762.562,6.047,6.047,0,0,1,.81.329c2.82,1.4,2.987,4.075.387,5.857a13.814,13.814,0,0,1-3.1,1.434c-1.966.729-3.942,1.431-5.911,2.152-.193.071-.426.078-.6.349.761.4,1.522.8,2.275,1.21a4.915,4.915,0,0,1,2.7,4.465,3.443,3.443,0,0,1-1.01,2.59,15.088,15.088,0,0,1-4.466,2.864,1.79,1.79,0,0,0-.782.472c.553.41,1.109.8,1.644,1.221,2.417,1.894,3.032,4.439,2.591,7.336a4.277,4.277,0,0,1-1.967,2.608,37.628,37.628,0,0,1-3.2,2.232c-.645.4-.823.687-.184,1.261a5.134,5.134,0,0,1,1.122,1.631,3.409,3.409,0,0,1-.562,4.119c-.612.662-1.243,1.311-1.907,1.92-.441.4-.567.744-.188,1.278a3.991,3.991,0,0,1,.669,1.772,2.655,2.655,0,0,1-.859,2.593c-.426.351-.474,1.094-1.128,1.143-.724.054-.744-.74-1.134-1.1-1.177-1.094-1.328-2.49-.37-4.131a1.173,1.173,0,0,0-.294-1.789,14.448,14.448,0,0,1-1.872-1.95,3.286,3.286,0,0,1-.359-3.861,7.322,7.322,0,0,1,1.336-1.874c.328-.333.323-.507-.089-.779a34.207,34.207,0,0,1-3.327-2.324c-.935-.789-2-1.508-2.165-2.836a7.9,7.9,0,0,1,.78-5.176,10.229,10.229,0,0,1,3.525-3.306m2.947,11.457c.047-3.02-.036-5.845-.134-8.669-.013-.386-.206-.448-.521-.288a8.5,8.5,0,0,0-3.543,2.722,2.242,2.242,0,0,0,.13,2.932,18.925,18.925,0,0,0,4.068,3.3m2.114-3.433h-.149q0,1.429,0,2.859c0,.314.036.577.435.3a18.244,18.244,0,0,0,3.5-2.844,2.341,2.341,0,0,0,.037-3.43A10.163,10.163,0,0,0,188.4,50.45c-.576-.331-.753-.141-.751.452.007,1.666,0,3.333,0,5m.05-11.8c0,.435.012.7,0,.964-.025.447.135.58.562.394a28.934,28.934,0,0,0,4.488-2.191c1.247-.823,1.243-1.623.069-2.553A13.66,13.66,0,0,0,188.6,38.74c-.56-.193-.767-.078-.768.533,0,1.666.019,3.334-.132,4.827m-2.345.474c-.163-1.769-.087-3.544-.139-5.316-.008-.29.076-.76-.456-.59A11.843,11.843,0,0,0,180,40.928c-.9.839-.909,1.382.066,2.118a18.876,18.876,0,0,0,4.29,2.212c1.037.427,1.04.419,1-.684m.289,24.039V64.191c-2.156,1.338-2.036,2.665,0,4.421m1.724.065a3.513,3.513,0,0,0,1-1.072c.95-1.284.8-2.222-.5-3.182-.12-.089-.247-.266-.408-.144-.078.06-.092.237-.092.361-.006,1.3,0,2.594,0,4.037" transform="translate(-142.761 0)" fill="#ffc331"/>
    <path id="Path_2260" data-name="Path 2260" d="M322.271,25.9a2.58,2.58,0,0,0,.94.378c.813.291.878.446.379,1.176a4.317,4.317,0,0,1-3.52,1.708c-.684.054-1.376.009-2.058.009-.06.117.029.137.088.169.266.146.767.019.79.39s-.4.575-.712.783a6.7,6.7,0,0,1-4.621,1.089,5.074,5.074,0,0,0-.555,0c.02.062.021.123.052.153.255.246.853.208.8.644-.044.377-.568.42-.9.559a8.179,8.179,0,0,1-4.223.459c-.307-.037-.611-.177-.921-.024-.108.383.617.372.37.754-.177.274-.552.294-.855.377a7.364,7.364,0,0,1-4.606-.312,2.266,2.266,0,0,0-.9-.189c.327.356.648.717.983,1.065.359.373.3.567-.219.668a6.373,6.373,0,0,1-3.663-.4c-.093-.037-.182-.122-.326,0a4.35,4.35,0,0,1,.278.361c.145.232.569.383.39.7-.142.248-.534.194-.816.193a8.416,8.416,0,0,1-3.273-.647,1.277,1.277,0,0,0-.01.3c.082.292.525.512.316.833-.228.349-.678.231-1.038.214a4.2,4.2,0,0,1-2.56-1.162,14.468,14.468,0,0,1-3.257-4.478,2.436,2.436,0,0,1-.172-1.167c0-1.168.021-2.336-.008-3.5-.014-.564.2-.843.76-.879a7.258,7.258,0,0,0,.791-.085,4.854,4.854,0,0,0,4.355-4.223c.022-.1.042-.208.065-.312,1.114-5.072,5.724-7.573,10.616-5.7,2.427.928,4.779,2.045,7.247,2.873a26.654,26.654,0,0,0,4.2,1.109c.019.377-.386.273-.489.537a1.154,1.154,0,0,0,.247.143c4.387,1.244,8.746,2.623,13.361,2.764.153,0,.359-.042.424.131.1.26-.149.381-.309.492a10.853,10.853,0,0,1-4.438,1.656c-.986.171-1.984.268-3,.4" transform="translate(-242.487 -12.759)" fill="#ffc331"/>
    <path id="Path_2261" data-name="Path 2261" d="M28.278,34.364a8.965,8.965,0,0,1-5.206.659c-.026-.006-.054,0-.079-.013-.394-.128-.977-.083-1.1-.509s.548-.471.8-.91c-.489.084-.907.161-1.327.226a8.452,8.452,0,0,1-4.53-.524c-.266-.108-.64-.187-.677-.49-.044-.366.4-.349.618-.511.084-.061.179-.107.423-.251-.927-.062-1.7.08-2.467-.025a6.466,6.466,0,0,1-3.131-1.275c-.2-.156-.522-.311-.474-.591.052-.3.415-.257.657-.336.095-.031.185-.079.476-.205a15.873,15.873,0,0,1-3.326-.177,3.821,3.821,0,0,1-2.637-1.748c-.27-.482-.228-.782.357-.933.375-.1.734-.252,1.292-.448a20.6,20.6,0,0,1-6.007-1.177A6.419,6.419,0,0,1,.407,24.3c-.177-.134-.49-.244-.386-.527.085-.233.373-.128.574-.135,4.642-.169,9.008-1.619,13.432-2.8-.008-.388-.424-.262-.476-.553.03-.032.071-.119.126-.128a41.7,41.7,0,0,0,9.912-3.4,9.344,9.344,0,0,1,8.357-.18,6,6,0,0,1,3.3,3.869c.195.661.339,1.337.507,2.006a4.839,4.839,0,0,0,4.6,4.043c1.241.142,1.241.142,1.242,1.387q0,1.075,0,2.15c-.008,3.406-2.062,5.527-4.634,7.294a2.753,2.753,0,0,1-1.76.406c-.75-.052-.835-.217-.432-.865.121-.195.25-.385.48-.738a6.836,6.836,0,0,1-3.676.868c-.267-.012-.662.1-.777-.234-.091-.262.241-.441.384-.657.057-.086.119-.169.286-.4-.5.154-.851.274-1.208.369a6.073,6.073,0,0,1-2.838.1c-.477-.1-.513-.3-.2-.633.36-.383.708-.778,1.061-1.168" transform="translate(-0.001 -13.173)" fill="#ffc331"/>
  </g>
</svg>
