<svg id="Group_1348" data-name="Group 1348" xmlns="http://www.w3.org/2000/svg" xmlns:xlink="http://www.w3.org/1999/xlink" width="68.283" height="72" viewBox="0 0 68.283 72">
  <defs>
    <clipPath id="clip-path">
      <rect id="Rectangle_603" data-name="Rectangle 603" width="68.283" height="72" fill="#71c556"/>
    </clipPath>
  </defs>
  <g id="Group_1347" data-name="Group 1347" clip-path="url(#clip-path)">
    <path id="Path_2256" data-name="Path 2256" d="M56.732,199.331c.021-.1-.093-.3.092-.373.159-.059.224.138.311.241q3.851,4.566,7.694,9.137a.585.585,0,0,0,.669.217q3.089-.751,6.182-1.484,5.4-1.285,10.792-2.566,2.117-.5,4.23-1.023c.115-.028.291-.005.311-.166.015-.119-.128-.173-.213-.246-1.367-1.179-2.731-2.364-4.1-3.536a1.007,1.007,0,0,1-.376-.852c.015-1.565,0-3.131.009-4.7,0-.133-.065-.315.1-.384s.251.1.358.181q4.9,3.913,9.8,7.835a1.1,1.1,0,0,0,1.052.23c4.577-1.1,9.159-2.187,13.738-3.28,1.411-.337,2.82-.683,4.229-1.026.6-.145.638-.1.59.493-.159,1.97-.3,3.941-.46,5.911-.239,2.919-.49,5.837-.734,8.755-.095,1.133-.193,2.267-.269,3.4a.561.561,0,0,1-.47.563q-5.63,1.651-11.257,3.314c-2.033.6-4.067,1.193-6.095,1.808a.715.715,0,0,1-.824-.212c-1.438-1.46-2.892-2.9-4.346-4.347-.124-.123-.233-.367-.426-.287-.164.068-.074.309-.076.472-.023,1.863,0,3.727-.075,5.59a.572.572,0,0,1-.483.625q-5.878,1.718-11.747,3.462c-2.769.819-5.54,1.632-8.3,2.481a.68.68,0,0,1-.908-.324q-2.672-3.912-5.372-7.805c-.679-.984-1.356-1.968-2.044-2.944a1.7,1.7,0,0,1-.308-.908c-.178-2.638-.376-5.275-.564-7.913q-.186-2.616-.363-5.233c-.114-1.688-.224-3.376-.338-5.11" transform="translate(-46.181 -157.627)" fill="#71c556"/>
    <path id="Path_2257" data-name="Path 2257" d="M194.543,62.247q0-4.973,0-9.947c0-.608.055-.633.588-.36,3.2,1.643,6.45,3.2,9.589,4.959a4.978,4.978,0,0,0,3.517.343q5.857-.928,11.719-1.828,3.057-.474,6.115-.936c.559-.085.646-.016.6.536q-.4,4.846-.813,9.69-.275,3.315-.535,6.632c-.121,1.5-.246,3-.354,4.507a.621.621,0,0,1-.568.656c-2.614.562-5.224,1.144-7.835,1.724-2.43.54-4.858,1.088-7.287,1.629-1.138.253-2.282.485-3.417.753a.96.96,0,0,1-.866-.2q-2.771-2.066-5.555-4.116c-1.465-1.082-2.925-2.17-4.4-3.234a1.081,1.081,0,0,1-.505-.989c.019-3.273.01-6.546.01-9.819" transform="translate(-158.399 -42.157)" fill="#71c556"/>
    <path id="Path_2258" data-name="Path 2258" d="M32.761,32.191c0,.9.207.841-.917.966-4,.443-8,.894-12,1.33-3.335.364-6.673.709-10.009,1.069a.8.8,0,0,1-.6-.144Q4.907,32.341.559,29.286a.928.928,0,0,1-.433-.853c0-3.33.026-6.66-.028-9.989C.022,13.877.054,9.31.02,4.743c0-.085,0-.171-.005-.256-.045-.86-.045-.857.792-.976q6.251-.891,12.5-1.785Q19.326.869,25.345.011a.529.529,0,0,1,.623.3q2.341,4.288,4.7,8.567A.816.816,0,0,0,30.727,9a5.844,5.844,0,0,1,.926,3.554c.139,2.768.323,5.534.485,8.3.064,1.093.116,2.186.176,3.279.146,2.654.294,5.309.447,8.061M2.009,11.962H2.1q0,6.722,0,13.443c0,.313.02.627,0,.939-.028.4.155.483.516.438,1.693-.208,3.389-.4,5.083-.6q5.358-.63,10.716-1.263c2.076-.246,4.15-.5,6.226-.739.279-.032.379-.107.359-.421-.109-1.774-.189-3.549-.277-5.324q-.169-3.386-.336-6.772c-.147-2.982-.3-5.963-.429-8.945-.016-.366-.091-.5-.5-.438-3.067.452-6.137.879-9.205,1.316-3.913.557-7.826,1.122-11.741,1.666-.394.055-.518.2-.515.592.018,2.035.008,4.069.008,6.1" transform="translate(0 0)" fill="#71c556"/>
  </g>
</svg>
