<svg id="Group_1353" data-name="Group 1353" xmlns="http://www.w3.org/2000/svg" xmlns:xlink="http://www.w3.org/1999/xlink" width="69.001" height="69.382" viewBox="0 0 69.001 69.382">
  <defs>
    <clipPath id="clip-path">
      <rect id="Rectangle_601" data-name="Rectangle 601" width="69.001" height="69.382" fill="#141944"/>
    </clipPath>
  </defs>
  <g id="Group_1343" data-name="Group 1343" clip-path="url(#clip-path)">
    <path id="Path_2248" data-name="Path 2248" d="M3.312,50.574c0,.469-.035.94.006,1.406a3.254,3.254,0,0,0,2.241,3.082c2.508.919,4.968,1.97,7.463,2.928,6.478,2.489,12.948,5,19.224,7.974a1.322,1.322,0,0,0,1.591-.21Q41.045,59.962,48.282,54.2L63.338,42.178c1.007-.8,2.011-1.614,3.027-2.408A1.509,1.509,0,1,1,68.224,42.1Q56.381,51.556,44.54,61.016c-3.054,2.448-6.187,4.8-9.071,7.456a3.2,3.2,0,0,1-3.637.6c-8.546-3.317-17-6.854-25.483-10.331-1.276-.523-2.491-1.2-3.721-1.827A3.075,3.075,0,0,1,.995,54.745,20.4,20.4,0,0,1,.857,44.589a3.658,3.658,0,0,0-.173-1.732A19.1,19.1,0,0,1,.677,35.04a6.358,6.358,0,0,0-.322-2.492,17.771,17.771,0,0,1,.393-8.69,5.417,5.417,0,0,1,2.029-2.785q7.733-5.751,15.7-11.171c3.959-2.683,7.931-5.347,11.879-8.047A8.35,8.35,0,0,1,34.322.022a7.546,7.546,0,0,1,3.037.432C42.8,2.236,48.1,4.383,53.417,6.494c3.094,1.229,6.195,2.441,9.292,3.662.711.28,1.414.588,1.538,1.47A2.068,2.068,0,0,1,63.139,13.6q-4.751,3.569-9.508,7.132-9.192,6.909-18.379,13.824c-.637.479-1.3.93-1.894,1.457a2.239,2.239,0,0,1-2.463.39c-4.263-1.519-8.448-3.24-12.663-4.885q-6.552-2.557-13.1-5.132c-1.025-.4-1.622-.079-1.833,1.01a12.9,12.9,0,0,0-.123,5.028A2.788,2.788,0,0,0,4.988,34.66c1.969.758,3.921,1.561,5.883,2.337.176.07.381.246.556-.025.026-.04.05-.26.13-.061.3.738,1.048.727,1.615.957,4.476,1.812,9.019,3.456,13.443,5.4,1.717.755,3.442,1.5,5.117,2.335a1.648,1.648,0,0,0,2.026-.252c2.6-2.113,5.233-4.192,7.852-6.284Q51.2,31.409,60.785,23.749q2.445-1.954,4.879-3.92c.183-.147.369-.29.56-.425a1.536,1.536,0,0,1,2.2.193,1.493,1.493,0,0,1-.377,2.167q-3.344,2.688-6.7,5.36-11.207,8.957-22.42,17.908c-1.285,1.024-2.521,2.1-3.739,3.2a3.061,3.061,0,0,1-3.308.675c-3.529-1.212-6.937-2.729-10.391-4.128Q14.154,41.81,6.837,38.8c-.93-.383-1.831-.842-2.728-1.3-.383-.2-.568-.129-.63.286a13.79,13.79,0,0,0-.032,4.686,2.723,2.723,0,0,0,1.724,2.14c3.593,1.5,7.235,2.87,10.862,4.279,5.4,2.1,10.783,4.227,16,6.743A1.614,1.614,0,0,0,34,55.385q8.036-6.5,16.122-12.946,8.1-6.475,16.231-12.922a1.557,1.557,0,0,1,2.261,0,1.5,1.5,0,0,1-.329,2.274Q64.5,34.817,60.7,37.84,49.408,46.863,38.124,55.894c-.914.732-1.785,1.519-2.648,2.312a3.068,3.068,0,0,1-3.436.673c-8.67-3.321-17.225-6.925-25.807-10.464a18.764,18.764,0,0,1-2.013-1c-.41-.23-.592-.257-.677.294a12.655,12.655,0,0,0-.23,2.865" transform="translate(0 0)" fill="#141944"/>
  </g>
</svg>
