<svg xmlns="http://www.w3.org/2000/svg" xmlns:xlink="http://www.w3.org/1999/xlink" width="106.3" height="34.352" viewBox="0 0 106.3 34.352">
  <defs>
    <clipPath id="clip-path">
      <rect id="Rectangle_537" data-name="Rectangle 537" width="106.3" height="34.352" fill="#141944"/>
    </clipPath>
  </defs>
  <g id="Group_1280" data-name="Group 1280" transform="translate(0 0)">
    <g id="Group_1279" data-name="Group 1279" transform="translate(0 0)" clip-path="url(#clip-path)">
      <path id="Path_1781" data-name="Path 1781" d="M225.672,34.856c-1.917,0-3.834-.01-5.752.007-.465,0-.68-.137-.765-.623-.214-1.208-.478-2.408-.749-3.606-.14-.622-.291-.738-.929-.74-3.23-.01-6.46,0-9.69-.015a.8.8,0,0,0-.82.659c-.386,1.132-.777,2.263-1.164,3.4-.282.827-.41.926-1.271.926q-3.717,0-7.435,0c-.684,0-.688-.038-.418-.674q1.963-4.627,3.905-9.263Q204.963,14.51,209.344,4.1a3.83,3.83,0,0,1,3.589-2.43c2.351-.143,4.7.067,7.046,0,.244-.007.41.018.467.33.848,4.693,1.895,9.346,2.866,14.013q1.862,8.946,3.74,17.888c.2.947.208.946-.756.947h-.624v.01M213.215,23.051v-.017c1.006,0,2.013.005,3.019,0,.54,0,.574-.06.46-.6q-.739-3.483-1.475-6.967c-.288-1.372-.564-2.747-.855-4.119-.026-.123,0-.333-.189-.336-.139,0-.162.18-.2.3-.2.57-.4,1.145-.6,1.715q-1.735,4.814-3.478,9.625c-.121.333-.04.416.3.41,1.006-.017,2.013-.006,3.019-.006" transform="translate(-120.858 -0.993)" fill="#141944"/>
      <path id="Path_1782" data-name="Path 1782" d="M7.9,1.536c2.223,0,4.445-.02,6.667.007A4.005,4.005,0,0,1,18.21,3.452,5.465,5.465,0,0,1,18.845,5.3q1.4,7.4,2.8,14.8c.189,1,.38,2.005.586,3,.039.189.007.5.243.517.2.016.2-.286.271-.453q2.4-6.027,4.782-12.059,1.8-4.54,3.58-9.085a.664.664,0,0,1,.7-.5c2.67.011,5.34,0,8.01.01.515,0,.569.08.362.573C39.258,4.282,38.32,6.449,37.4,8.625q-2.283,5.427-4.548,10.862Q29.8,26.793,26.738,34.1a.982.982,0,0,1-.85.656,15.694,15.694,0,0,1-1.577-.027c-1.98.1-3.96-.114-5.939.043-.867.069-1.087-.125-1.308-.98Q14.68,24.55,12.295,15.307q-.938-3.636-1.882-7.272a4.349,4.349,0,0,0-2.6-2.949A34.344,34.344,0,0,0,1.9,3.025C1.4,2.9.908,2.764.415,2.63c-.21-.057-.4-.151-.413-.4A.546.546,0,0,1,.3,1.72a1.681,1.681,0,0,1,.926-.189H7.9Z" transform="translate(0 -0.937)" fill="#141944"/>
      <path id="Path_1783" data-name="Path 1783" d="M152.1.015a23.218,23.218,0,0,1,7.436,1.318.416.416,0,0,1,.338.567c-.437,1.977-.858,3.958-1.294,5.936-.129.584-.176.566-.741.4a19.744,19.744,0,0,0-6.506-1.253,6.956,6.956,0,0,0-3.88,1.045,2,2,0,0,0-1.069,1.8,1.93,1.93,0,0,0,.62,1.308,13.764,13.764,0,0,0,2.944,2.124c1.352.756,2.717,1.494,4.035,2.307a8.457,8.457,0,0,1,4.347,6.474,9.69,9.69,0,0,1-1.537,6.482,11.66,11.66,0,0,1-6.717,4.869,25.654,25.654,0,0,1-5.039.883,26.55,26.55,0,0,1-10.515-1.438c-.686-.218-.678-.254-.521-.957.441-1.976.865-3.956,1.293-5.935.129-.6.183-.636.714-.38a17.911,17.911,0,0,0,8.981,1.747,5.933,5.933,0,0,0,3.353-1.283,2.289,2.289,0,0,0,.2-3.62,11.288,11.288,0,0,0-2.812-1.975,27.774,27.774,0,0,1-4.836-2.91,8.445,8.445,0,0,1-3.418-5.771,8.563,8.563,0,0,1,1.17-5.284,11.779,11.779,0,0,1,7.61-5.621A18.8,18.8,0,0,1,152.1.015" transform="translate(-82.358 0)" fill="#141944"/>
      <path id="Path_1784" data-name="Path 1784" d="M103.822,34.832c-2.575-.157-4.874-.042-7.174.015-.615.015-.627-.02-.5-.621q1.586-7.388,3.167-14.778,1.766-8.207,3.546-16.41c.03-.14.059-.281.088-.421.2-.99.2-1.005,1.24-1.012,2.028-.013,4.056-.01,6.084-.005.351,0,.7.067,1.051.06.385-.008.465.144.385.5q-.5,2.168-.966,4.342-1.44,6.735-2.869,13.472-1.5,7.016-3,14.03c-.149.693-.413.846-1.051.831" transform="translate(-59.093 -0.982)" fill="#141944"/>
    </g>
  </g>
</svg>
