<svg id="Group_1282" data-name="Group 1282" xmlns="http://www.w3.org/2000/svg" xmlns:xlink="http://www.w3.org/1999/xlink" width="61.094" height="59.965" viewBox="0 0 61.094 59.965">
  <defs>
    <clipPath id="clip-path">
      <rect id="Rectangle_538" data-name="Rectangle 538" width="61.094" height="59.965" fill="#141944"/>
    </clipPath>
  </defs>
  <g id="Group_1281" data-name="Group 1281" clip-path="url(#clip-path)">
    <path id="Path_1785" data-name="Path 1785" d="M40.931,14.622a5.628,5.628,0,0,0-1.654-2.079,6.74,6.74,0,0,1-1.815-2.292C35.146,4.892,26.821,3.077,22.2,7.065c-2.482,2.141-4.434,4.791-4.35,8.382a11.918,11.918,0,0,1-.056,2.256,2.138,2.138,0,0,1-2.17,1.882,2.108,2.108,0,0,1-2.381-1.578c-.715-2.165-1.056-2.289-3.153-1.252A8.839,8.839,0,0,0,5,25.844c.32,3.748,2.63,6.046,5.935,7.488,1.364.595,2.3.462,3.008-1.147a9.276,9.276,0,0,1,7.993-5.609c1.723-.2,2.946.587,3.17,1.98.244,1.521-.663,2.548-2.521,2.852-2.58.423-4.22,1.854-4.641,4.05a4.7,4.7,0,0,0,2.5,5.111c1.7.875,3.6.75,5.455.7,2.587-.075,5.1.14,7.308,1.708a9.867,9.867,0,0,1,4.42,7.72c.136,2.2.088,4.408.021,6.609-.055,1.808-.979,2.7-2.527,2.663-1.466-.039-2.3-.911-2.363-2.649-.066-1.854-.007-3.711-.032-5.567a5.322,5.322,0,0,0-5.486-5.681c-1.563-.068-3.132.011-4.7-.025A9.061,9.061,0,0,1,14,40.524a3.366,3.366,0,0,0-2.663-2.1,13.8,13.8,0,0,1,.686-27.266A2.592,2.592,0,0,0,14.3,9.4a15.338,15.338,0,0,1,24.966-4.91,10.714,10.714,0,0,1,2.274,2.594,1.618,1.618,0,0,0,1.577.845c3.416.183,6.191,1.66,8.921,3.746,3.247,2.481,3.745,5.843,4.048,9.369A5.128,5.128,0,0,0,57.612,24.7a11.783,11.783,0,0,1,2.41,13.333,11.955,11.955,0,0,1-11.334,6.922,11.637,11.637,0,0,1-10.637-7.89,2.47,2.47,0,0,0-2.257-1.975,8.3,8.3,0,0,1-5.062-2.835,2.75,2.75,0,0,1-.211-3.769c.981-1.009,2.485-.969,3.676.287A4.053,4.053,0,0,0,38.915,30c1.9-.748,2.551-2.353,2.525-4.344s.825-2.94,2.407-2.941c1.395,0,2.383,1.048,2.5,2.8A8.656,8.656,0,0,1,43.243,33.1a1.9,1.9,0,0,0-.584,2.556,7.009,7.009,0,1,0,12.906-5.467c-.443-.928-.823-1.854-2.094-.654a2.216,2.216,0,0,1-3.039-.021,2.321,2.321,0,0,1-.463-3.141c1.937-3.846,1.85-7.488-1.252-10.737-.825-.864-1.7-1.854-3.139-1.071a2.366,2.366,0,0,1-.416-.595,1.476,1.476,0,0,0-2.662-.353c-.074.094.07.368-.258.256-1.069-.367-1.072-.357-1.309.749" transform="translate(0.001 0)" fill="#141944"/>
  </g>
</svg>
