<svg id="Group_1346" data-name="Group 1346" xmlns="http://www.w3.org/2000/svg" xmlns:xlink="http://www.w3.org/1999/xlink" width="71.369" height="71.364" viewBox="0 0 71.369 71.364">
  <defs>
    <clipPath id="clip-path">
      <rect id="Rectangle_602" data-name="Rectangle 602" width="71.369" height="71.364" fill="#00ade5"/>
    </clipPath>
  </defs>
  <g id="Group_1345" data-name="Group 1345" clip-path="url(#clip-path)">
    <path id="Path_2249" data-name="Path 2249" d="M162.335,147.729q-5.531,0-11.062,0a1.81,1.81,0,0,1-1.65-.791,1.926,1.926,0,0,1-.277-1.1c0-1.92-.095-3.844.062-5.759a12.991,12.991,0,0,1,21.344-8.8,12.718,12.718,0,0,1,4.374,7.472,10.072,10.072,0,0,1,.214,2.019c-.007,1.741,0,3.482,0,5.224a1.609,1.609,0,0,1-1.52,1.705,4.36,4.36,0,0,1-.536.027q-5.473,0-10.947,0" transform="translate(-126.677 -108.75)" fill="#00ade5"/>
    <path id="Path_2250" data-name="Path 2250" d="M311.916,361.223H300.777a1.639,1.639,0,0,1-1.859-1.695c-.076-1.7-.042-3.4-.007-5.106a11.994,11.994,0,0,1,.861-4.382,12.7,12.7,0,0,1,9.966-8.14,12.957,12.957,0,0,1,15.06,11.312,62.775,62.775,0,0,1,.07,6.563,1.6,1.6,0,0,1-1.7,1.446c-2.164.005-4.328,0-6.492,0h-4.763" transform="translate(-253.552 -289.87)" fill="#00ade5"/>
    <path id="Path_2251" data-name="Path 2251" d="M13.02,361.342c-3.713,0-7.427-.016-11.14.011a1.764,1.764,0,0,1-1.868-1.706C0,358.43-.007,357.215.012,356a23.4,23.4,0,0,1,.1-2.834,12.87,12.87,0,0,1,3.721-7.536,12.435,12.435,0,0,1,7.16-3.652,12.69,12.69,0,0,1,11.284,3.744,12.642,12.642,0,0,1,3.261,5.614,10.779,10.779,0,0,1,.447,2.873c.014,1.793.01,3.585.005,5.378a1.636,1.636,0,0,1-1.754,1.752q-5.609,0-11.217,0" transform="translate(0 -289.988)" fill="#00ade5"/>
    <path id="Path_2252" data-name="Path 2252" d="M192.331,8.039a13.184,13.184,0,0,1,.224-3.238,6.518,6.518,0,0,1,12.71.6,33.517,33.517,0,0,1,.1,4.485,5.126,5.126,0,0,1-.138,1.217,6.52,6.52,0,0,1-12.833-.38,9.843,9.843,0,0,1-.064-1.3c0-.422,0-.845,0-1.387" transform="translate(-163.166 0)" fill="#00ade5"/>
    <path id="Path_2253" data-name="Path 2253" d="M341.811,221.889a14.46,14.46,0,0,1,.233-3.44,6.529,6.529,0,0,1,12.812,1.878c-.018,1.011,0,2.022,0,3.034a6.522,6.522,0,0,1-12.966,1.09c-.128-.881-.025-1.764-.076-2.562" transform="translate(-289.98 -181.289)" fill="#00ade5"/>
    <path id="Path_2254" data-name="Path 2254" d="M55.811,221.959a17.019,17.019,0,0,1-.145,2.885,6.576,6.576,0,0,1-5.5,5.053,6.384,6.384,0,0,1-5.817-2.206,6.1,6.1,0,0,1-1.572-3.993c-.029-1.216-.015-2.434,0-3.65a6.518,6.518,0,0,1,13.035.234v1.676" transform="translate(-36.279 -181.28)" fill="#00ade5"/>
    <path id="Path_2255" data-name="Path 2255" d="M190.439,289.058a1.63,1.63,0,0,1-2.138,1.584c-.981-.33-1.932-.75-2.895-1.134-1.462-.583-2.925-1.164-4.383-1.76a.9.9,0,0,0-.734.032q-3.455,1.392-6.916,2.771a1.68,1.68,0,0,1-2.107-.48,1.624,1.624,0,0,1,.591-2.475c1.156-.518,2.342-.966,3.518-1.44,1.092-.44,2.184-.882,3.282-1.307a.492.492,0,0,0,.367-.537c-.012-1.639-.018-3.279,0-4.918a1.667,1.667,0,1,1,3.332.025c.007,1.614.01,3.227,0,4.841a.539.539,0,0,0,.389.6c2.179.858,4.351,1.736,6.525,2.608a1.644,1.644,0,0,1,1.17,1.588" transform="translate(-145.007 -235.576)" fill="#00ade5"/>
  </g>
</svg>
