<svg xmlns="http://www.w3.org/2000/svg" xmlns:xlink="http://www.w3.org/1999/xlink" width="96.321" height="90.125" viewBox="0 0 96.321 90.125">
  <defs>
    <clipPath id="clip-path">
      <rect id="Rectangle_536" data-name="Rectangle 536" width="78.338" height="68.344" fill="#141944"/>
    </clipPath>
  </defs>
  <g id="Group_1278" data-name="Group 1278" transform="matrix(0.946, 0.326, -0.326, 0.946, 22.251, 0)">
    <g id="Group_1277" data-name="Group 1277" clip-path="url(#clip-path)">
      <path id="Path_1780" data-name="Path 1780" d="M78.3,17.967c-.35-1.926-.761-4.165-1.216-6.38a2.022,2.022,0,0,0-1.1-1.554,2.066,2.066,0,0,0-1.936.193c-.478.267-.94.557-1.387.837q-.275.173-.552.344l-1.036.636c-.93.57-1.892,1.16-2.834,1.75a2.09,2.09,0,0,0-.965,1.288,1.848,1.848,0,0,0,.251,1.4,1.81,1.81,0,0,0,2.622.587c.231-.133.462-.269.69-.406q-3.077,6.682-6.155,13.363L58.175,44.156l-.038.084-.025.055c-.911.316-1.823.63-2.767.955a5.146,5.146,0,0,0-.768-5.214c.569-.193,1.172-.406,1.764-.643A1.791,1.791,0,0,0,57.4,37.047a1.833,1.833,0,0,0-2.213-1.216,5.019,5.019,0,0,0-.654.2l-.158.056-7.629,2.6q-8.865,3.024-17.732,6.045a1.837,1.837,0,0,1-2.491-.92c-.419-.709-.836-1.438-1.24-2.143q-.368-.644-.739-1.286l5.484-1.873L42.46,34.263q1.42-.485,2.842-.966c2.352-.8,4.783-1.621,7.165-2.468A5.565,5.565,0,0,0,56.1,25.078c-.212-1.788-.446-3.6-.672-5.353q-.108-.833-.215-1.667-.353-2.754-.707-5.508Q53.84,7.372,53.18,2.193A2.523,2.523,0,0,0,52.219.255a2.516,2.516,0,0,0-2.16-.014L31.407,6.6,10.536,13.709c-.19.065-.371.142-.546.217a3.745,3.745,0,0,1-.622.226,3.732,3.732,0,0,1-.182-.369,4.118,4.118,0,0,0-.374-.7C7,10.509,4.119,9.825,1.1,11.254A1.777,1.777,0,0,0,.16,13.646a1.815,1.815,0,0,0,2.274,1.105c.183-.053.358-.111.527-.168.113-.038.226-.076.34-.111a1.94,1.94,0,0,1,2.516.972c.281.475.56.966.83,1.441q.23.4.461.809l4.034,7.017c3.966,6.9,8.068,14.036,12.11,21.049a5.6,5.6,0,0,0,5.835,2.854,5.49,5.49,0,0,0,2.589,4.695c-1.217.416-2.468.841-3.7,1.237a3.789,3.789,0,0,0-2.027,1.514c-.9,1.3-1.829,2.616-2.73,3.887q-.712,1-1.421,2.01c-.725,1.03-1.463,2.092-2.258,3.247a1.91,1.91,0,0,0,.281,2.741,1.855,1.855,0,0,0,1.129.4,2.158,2.158,0,0,0,1.656-.883c.083-.1.154-.2.217-.294l.038-.055,1.507-2.142c1.416-2.012,2.881-4.092,4.307-6.15a1.919,1.919,0,0,1,1.075-.836c.994-.306,1.984-.652,2.941-.986.46-.161.921-.322,1.382-.478l4.344-1.476c6.913-2.349,14.062-4.778,21.1-7.15a3.173,3.173,0,0,0,2-1.806c1.026-2.276,2.091-4.584,3.12-6.815q.611-1.324,1.221-2.649l2.179-4.742c2.045-4.452,4.16-9.055,6.253-13.577q.071-.153.138-.306c.046.235.095.472.147.708a1.884,1.884,0,0,0,2.132,1.6,1.776,1.776,0,0,0,1.243-.712,2.094,2.094,0,0,0,.352-1.627M48.566,43.336A1.676,1.676,0,0,1,50.234,41.6h.024a1.642,1.642,0,0,1,1.13.5,1.723,1.723,0,0,1,.536,1.215,1.65,1.65,0,0,1-1.68,1.636h0a1.6,1.6,0,0,1-1.676-1.616M38.933,45.36c2.038-.684,4.049-1.373,5.829-1.986a5.45,5.45,0,0,0,2.59,4.6l-7.67,2.611a5.3,5.3,0,0,0,.294-1.1,5.221,5.221,0,0,0-1.043-4.121m-2.663,3.261a1.657,1.657,0,0,1-.483,1.186,1.7,1.7,0,0,1-1.217.5h0a1.637,1.637,0,0,1-1.193-.453,1.7,1.7,0,0,1-.455-1.243,1.673,1.673,0,0,1,1.671-1.664h.016a1.649,1.649,0,0,1,1.121.51,1.717,1.717,0,0,1,.543,1.168M20.9,21.675l.918,1.914-1.686.574c-1.353.46-2.75.935-4.126,1.413l-.391-.684c-1.4-2.443-2.841-4.964-4.276-7.448,2.358-.791,4.667-1.583,6.484-2.209,1.021,2.153,2.066,4.331,3.078,6.44M31.067,34.153q-1.5-3.156-3.018-6.307l-.983-2.051c1.394-.467,2.8-.947,4.164-1.413l1.61-.55q1.121,3.274,2.233,6.552l.389,1.145c.05.148.1.3.148.444.061.186.123.376.189.567-1.862.625-3.346,1.131-4.732,1.613m-1.235-13.31q-2.205.753-4.418,1.512c-1.575-3.325-2.816-5.922-3.987-8.344,1.813-.607,3.646-1.233,5.421-1.839l1.808-.617c.688,2.026,1.389,4.075,2.069,6.062l.9,2.616Zm8.519,7.385q-.584-1.725-1.168-3.449l-.106-.313c-.206-.608-.418-1.234-.638-1.854,1.937-.652,3.837-1.3,5.623-1.92q.671,3.14,1.347,6.278L44,29.735l-.972.329c-1.19.4-2.417.817-3.636,1.243q-.522-1.539-1.043-3.079m11.18-.392c-.628.213-1.274.433-1.914.661-.7-3.3-1.4-6.531-1.943-9.033,1.544-.522,3.106-1.061,4.618-1.584l1.006-.347c.25,1.957.5,3.9.737,5.711l.235,1.818c.008,1.531-.469,1.989-1.345,2.3-.464.162-.93.32-1.395.478m.225-13.789q-2.443.834-4.885,1.673c-.653-3.087-1.3-6.128-1.94-9.052,2.058-.694,4.254-1.44,6.691-2.273l1.191,9.293ZM40.35,17.263c-1.683.573-3.42,1.164-5.133,1.756-.891-2.621-1.929-5.667-2.979-8.7,2.512-.844,4.834-1.635,7.081-2.412.486,2.3.987,4.623,1.472,6.876l.467,2.17ZM23.465,27.038q1.443,3.044,2.894,6.084l1.073,2.254-1.663.569c-1.052.359-2.1.719-3.164,1.085-1.591-2.769-3.156-5.49-4.665-8.105q2.763-.94,5.525-1.887" transform="translate(0.001 0.001)" fill="#141944"/>
    </g>
  </g>
</svg>
