<svg id="Group_1288" data-name="Group 1288" xmlns="http://www.w3.org/2000/svg" xmlns:xlink="http://www.w3.org/1999/xlink" width="54.515" height="63.918" viewBox="0 0 54.515 63.918">
  <defs>
    <clipPath id="clip-path">
      <rect id="Rectangle_541" data-name="Rectangle 541" width="54.515" height="63.918" fill="#141944"/>
    </clipPath>
  </defs>
  <g id="Group_1287" data-name="Group 1287" clip-path="url(#clip-path)">
    <path id="Path_1793" data-name="Path 1793" d="M54.2.315C53.887,0,53.48,0,52.866,0H1.513c-.545,0-.9,0-1.2.285s-.3.669-.3,1.19Q.006,22.089,0,42.7c0,.129,0,.259,0,.388,0,.206,0,.4,0,.6a.981.981,0,0,0,.263.73.973.973,0,0,0,.717.282l.171,0c.083,0,.166,0,.249,0l6.141,0,10.02-.005.891,0c.342,0,.693,0,1.044,0-.028.17-.051.339-.074.5s-.048.342-.075.508l-.149.9c-.825,4.994-1.679,10.157-2.527,15.234a1.1,1.1,0,0,0,.156.841,1.078,1.078,0,0,0,.742.4c.544.078,1.1.17,1.692.281a.93.93,0,0,0,1.155-.808c.031-.19.06-.381.089-.571.034-.219.067-.438.1-.657q.325-1.954.651-3.908.541-3.246,1.079-6.492c.207-1.254.414-2.53.614-3.763q.2-1.212.394-2.424l.007-.043h.456q.768,0,1.536,0h0v0q0,8.436,0,16.873c0,.116,0,.233,0,.349,0,.27.007.526-.008.776a1.17,1.17,0,0,0,.289.92,1.076,1.076,0,0,0,.793.292q.053,0,.109,0c.327-.02.657-.015,1.007-.009l.409,0a1.2,1.2,0,0,0,.946-.255,1.212,1.212,0,0,0,.26-.964v-16.5c0-.17,0-.341,0-.511,0-.319.007-.648,0-.978.447.01.895.007,1.329,0l.594,0h.07l.008.049q.179,1.072.351,2.145.145.893.292,1.787.466,2.819.934,5.638.378,2.279.755,4.558l.065.391c.172,1.038.35,2.111.515,3.167a1.133,1.133,0,0,0,.447.792,1.1,1.1,0,0,0,.891.12c.49-.113.989-.192,1.545-.276a1.074,1.074,0,0,0,.733-.4,1.038,1.038,0,0,0,.154-.808c-.275-1.64-.548-3.309-.813-4.923q-.18-1.1-.361-2.2-.351-2.131-.7-4.261-.476-2.889-.951-5.777l18.214,0a1.263,1.263,0,0,0,1.007-.271,1.3,1.3,0,0,0,.265-1.015q0-20.883.006-41.766c0-.614,0-1.02-.314-1.334M50.7,3.947q0,18.453,0,36.906v.037H3.82V4.067q0-.127,0-.253H28.8q10.514,0,21.027,0c.2,0,.394.009.6.019l.272.012c0,.034,0,.067,0,.1" fill="#141944"/>
  </g>
</svg>
