<svg id="Group_1286" data-name="Group 1286" xmlns="http://www.w3.org/2000/svg" xmlns:xlink="http://www.w3.org/1999/xlink" width="56.304" height="65.674" viewBox="0 0 56.304 65.674">
  <defs>
    <clipPath id="clip-path">
      <rect id="Rectangle_540" data-name="Rectangle 540" width="56.304" height="65.674" fill="none"/>
    </clipPath>
  </defs>
  <g id="Group_1285" data-name="Group 1285" clip-path="url(#clip-path)">
    <path id="Path_1791" data-name="Path 1791" d="M27.212,12.9a1.812,1.812,0,0,0,.317-.516Q29.3,8.845,31.067,5.3,32.032,3.373,33,1.447A2.406,2.406,0,0,1,34.941.015a2.815,2.815,0,0,1,1.469.3q2.776,1.2,5.551,2.4,4.5,1.933,9,3.859c.548.235,1.11.443,1.641.713a2.3,2.3,0,0,1,1.079,3.191c-.66,1.388-1.34,2.766-2.008,4.15q-.914,1.892-1.821,3.788c-.152.316-.127.352.227.352,1.257,0,2.514-.006,3.771,0a2.35,2.35,0,0,1,2.333,1.613,2.882,2.882,0,0,1,.062,1.474c-.21,1.512-.327,3.034-.517,4.548-.195,1.55-.352,3.1-.519,4.656-.186,1.723-.394,3.444-.572,5.168-.225,2.182-.5,4.359-.744,6.54-.182,1.651-.328,3.306-.509,4.957-.16,1.454-.352,2.9-.52,4.357-.139,1.2-.262,2.405-.394,3.608a14.922,14.922,0,0,1-.637,3.646,9.266,9.266,0,0,1-6.119,5.919,9.654,9.654,0,0,1-2.965.421c-9.9,0-19.8.016-29.7-.016a8.814,8.814,0,0,1-5.921-2.347,9.276,9.276,0,0,1-3-5.273c-.192-.958-.23-1.936-.348-2.9-.17-1.4-.319-2.8-.475-4.2s-.3-2.782-.458-4.173q-.2-1.79-.4-3.581c-.139-1.256-.274-2.513-.414-3.769-.126-1.131-.259-2.26-.386-3.391-.125-1.113-.244-2.226-.369-3.339-.192-1.713-.391-3.426-.579-5.14Q.45,25.4.233,23.256C.159,22.538.044,21.825,0,21.1a2.346,2.346,0,0,1,2.289-2.341c.777-.013,1.554.03,2.332-.026.2-.015.287-.087.3-.289a36.426,36.426,0,0,1,.524-4.164A26.266,26.266,0,0,1,8.825,4.647,9.985,9.985,0,0,1,13.09.713,8.123,8.123,0,0,1,17.508.069a8.908,8.908,0,0,1,6.335,4.083,19.853,19.853,0,0,1,2.685,6.042,23.3,23.3,0,0,1,.6,2.586.134.134,0,0,0,.084.122m.915,48.025v0q7.514,0,15.028,0a4.592,4.592,0,0,0,4.244-3.19,9.676,9.676,0,0,0,.275-1.762c.146-1.383.311-2.763.464-4.144.172-1.552.336-3.105.51-4.658.17-1.525.366-3.047.518-4.574.192-1.923.445-3.838.63-5.762.208-2.165.49-4.323.736-6.484.128-1.121.255-2.242.37-3.365.112-1.1.27-2.186.348-3.286.014-.193-.049-.236-.22-.232-.343.007-.686,0-1.029,0H6.41a11.309,11.309,0,0,1-1.19,0c-.131-.013-.225.013-.2.194.079.663.141,1.329.215,1.993.114,1.023.236,2.045.349,3.068.136,1.238.262,2.478.4,3.716.134,1.2.282,2.4.415,3.605.137,1.238.257,2.479.4,3.717.189,1.687.392,3.372.582,5.059.122,1.085.225,2.173.346,3.259.169,1.516.348,3.032.52,4.548.167,1.48.295,2.966.5,4.44a4.548,4.548,0,0,0,4.494,3.859H28.127m8.9-42.162v0h.38c2.188,0,4.376-.005,6.563,0a.627.627,0,0,0,.679-.432c.294-.689.646-1.353.972-2.028q1.3-2.7,2.607-5.395c.14-.291.115-.342-.179-.468l-5.931-2.54q-2.778-1.19-5.556-2.383c-.185-.08-.3-.082-.409.132q-2.51,5.05-5.033,10.093c-.447.9-.946,1.77-1.34,2.694-.136.32-.128.324.222.324h7.024m-20.62,0h6.348q.122,0,.244,0a.166.166,0,0,0,.183-.187c0-.1,0-.2-.014-.3-.135-1.293-.292-2.584-.532-3.863a21.705,21.705,0,0,0-2.167-6.7,6.8,6.8,0,0,0-1.765-2.175A3.583,3.583,0,0,0,15.725,4.8a3.733,3.733,0,0,0-1.781.987,8.171,8.171,0,0,0-1.777,2.476,22.6,22.6,0,0,0-1.862,5.789c-.275,1.419-.452,2.854-.627,4.289-.048.4-.039.422.357.422h6.375" transform="translate(0 -0.001)"/>
    <path id="Path_1792" data-name="Path 1792" d="M56.106,137.893c0-1.221,0-2.441,0-3.662,0-.225-.043-.326-.3-.362a2.357,2.357,0,0,1-.212-4.644,4.634,4.634,0,0,1,.916-.078q1.98-.011,3.96,0a2.835,2.835,0,0,1,1.558.38,2.312,2.312,0,0,1,1.067,2.52,2.377,2.377,0,0,1-2.016,1.832c-.209.025-.289.093-.272.3.1,1.209,0,2.42.017,3.631q.025,1.625.039,3.252a8.942,8.942,0,0,0,3.193,6.916,8.813,8.813,0,0,0,6.764,2.242,9.085,9.085,0,0,0,8.063-5.885,8.989,8.989,0,0,0,.662-3.52c.009-2.161,0-4.322,0-6.483,0-.28-.04-.418-.375-.473a2.39,2.39,0,0,1-1.967-2.3,2.348,2.348,0,0,1,1.907-2.337,5.255,5.255,0,0,1,.971-.075c1.275-.008,2.55,0,3.825,0a2.634,2.634,0,0,1,1.888.6,2.242,2.242,0,0,1,.726,2.378,2.3,2.3,0,0,1-1.9,1.724c-.32.064-.34.2-.34.446.006,2.025.02,4.051.005,6.076a16.115,16.115,0,0,1-.473,4.053,14.091,14.091,0,0,1-3.925,6.67,13.931,13.931,0,0,1-6.69,3.564,12.927,12.927,0,0,1-5.006.177,13.906,13.906,0,0,1-11.069-8.7A12.984,12.984,0,0,1,56.1,140.8c.01-.967,0-1.935,0-2.9Z" transform="translate(-42.038 -101.035)"/>
  </g>
</svg>
