<svg id="Group_1284" data-name="Group 1284" xmlns="http://www.w3.org/2000/svg" xmlns:xlink="http://www.w3.org/1999/xlink" width="61.465" height="61.481" viewBox="0 0 61.465 61.481">
  <defs>
    <clipPath id="clip-path">
      <rect id="Rectangle_539" data-name="Rectangle 539" width="61.465" height="61.481" fill="none"/>
    </clipPath>
  </defs>
  <g id="Group_1283" data-name="Group 1283" clip-path="url(#clip-path)">
    <path id="Path_1786" data-name="Path 1786" d="M30.766.006q10.9,0,21.8,0a8.457,8.457,0,0,1,8.9,8.9q.008,9.553,0,19.106a6.625,6.625,0,0,1-.037.984,1.994,1.994,0,0,1-3.965-.015,7.609,7.609,0,0,1-.035-1.074q0-9.508,0-19.016c0-3.085-1.755-4.84-4.829-4.846-1.884,0-3.768.02-5.651-.011-.656-.011-.905.205-.89.876.035,1.524.024,3.05,0,4.574a1.881,1.881,0,0,1-2.1,2.113q-13.231.014-26.461,0a2.021,2.021,0,0,1-2.217-2.24q-.04-2.242,0-4.485c.011-.619-.218-.846-.839-.838-2,.025-4.007-.008-6.01.015a4.319,4.319,0,0,0-4.369,4.4c-.019,6.189-.007,12.378-.008,18.568q0,12.737,0,25.475c0,3.2,1.724,4.926,4.928,4.927q9.463,0,18.927,0c.3,0,.6-.008.9.006A2.056,2.056,0,0,1,30.944,59.4,2.016,2.016,0,0,1,28.8,61.446c-6.937.016-13.875.083-20.81-.028A8.26,8.26,0,0,1,.029,53.248Q-.029,30.734.03,8.219a8.35,8.35,0,0,1,8.4-8.2C15.876-.013,23.321.007,30.766.006m-.038,4.04H21.671c-2.374,0-2.374,0-2.364,2.34,0,1.187,0,1.192,1.2,1.192,6.367,0,12.735.017,19.1-.006,2.832-.01,2.362.453,2.444-2.483.024-.845-.294-1.065-1.1-1.057-3.408.036-6.816.015-10.224.015" transform="translate(0 0)"/>
    <path id="Path_1787" data-name="Path 1787" d="M97.591,193.982c2.989,0,5.978.008,8.967-.005a2.339,2.339,0,0,1,2.136.878c.353.5.6.123.861-.095a13.917,13.917,0,0,1,6.823-3.16,13.486,13.486,0,1,1-11.012,16.471c-.221-.889-.591-1.117-1.452-1.111-5.051.036-10.1.018-15.155.017a4.276,4.276,0,0,1-1.333-.122,2.071,2.071,0,0,1-1.475-2.1,1.987,1.987,0,0,1,1.92-1.793c1.553-.04,3.108-.018,4.663-.018,3.826,0,7.652-.02,11.478.015.79.007,1.2-.179,1.325-1.025a9.332,9.332,0,0,1,1.152-3.189c.351-.618.187-.73-.453-.728-4.812.017-9.625.009-14.438.009-1.136,0-2.272.016-3.407-.007a2.023,2.023,0,1,1-.017-4.024c3.139-.02,6.277-.006,9.416-.009m20.88,1.517a9.35,9.35,0,0,0-9.489,9.4,9.461,9.461,0,1,0,9.489-9.4" transform="translate(-70.494 -157.017)"/>
    <path id="Path_1788" data-name="Path 1788" d="M93.788,159.821c-1.85,0-3.7.01-5.55,0A2.021,2.021,0,1,1,88.2,155.8q5.594-.038,11.189,0a2.027,2.027,0,1,1-.055,4.022c-1.85.01-3.7,0-5.55,0" transform="translate(-70.531 -127.776)"/>
    <path id="Path_1789" data-name="Path 1789" d="M89.864,105.881a20.355,20.355,0,0,1,2.046.135,1.87,1.87,0,0,1,1.69,1.971,1.848,1.848,0,0,1-1.716,1.941,15.383,15.383,0,0,1-4.276-.018,1.97,1.97,0,0,1-1.637-1.863,2,2,0,0,1,1.575-2.009,14.309,14.309,0,0,1,2.318-.157" transform="translate(-70.514 -86.847)"/>
    <path id="Path_1790" data-name="Path 1790" d="M245.7,239.789a5.841,5.841,0,1,1-11.682.067,5.841,5.841,0,0,1,11.682-.067" transform="translate(-191.951 -191.928)"/>
  </g>
</svg>
