<svg id="Group_1340" data-name="Group 1340" xmlns="http://www.w3.org/2000/svg" xmlns:xlink="http://www.w3.org/1999/xlink" width="770.379" height="523.405" viewBox="0 0 770.379 523.405">
  <defs>
    <clipPath id="clip-path">
      <rect id="Rectangle_590" data-name="Rectangle 590" width="770.379" height="523.405" fill="none"/>
    </clipPath>
    <clipPath id="clip-path-3">
      <rect id="Rectangle_569" data-name="Rectangle 569" width="674.386" height="417.664" fill="none"/>
    </clipPath>
    <clipPath id="clip-path-4">
      <rect id="Rectangle_566" data-name="Rectangle 566" width="669.129" height="358.63" fill="none"/>
    </clipPath>
    <clipPath id="clip-path-5">
      <rect id="Rectangle_567" data-name="Rectangle 567" width="18.602" height="20.022" fill="none"/>
    </clipPath>
    <clipPath id="clip-path-6">
      <rect id="Rectangle_568" data-name="Rectangle 568" width="24.486" height="24.486" fill="none"/>
    </clipPath>
    <clipPath id="clip-path-7">
      <rect id="Rectangle_570" data-name="Rectangle 570" width="655.496" height="395.58" fill="none"/>
    </clipPath>
    <clipPath id="clip-path-8">
      <path id="Path_2100" data-name="Path 2100" d="M299.073,22.208c0,103.446.053,103.31.053,104.182l-.053,142.861c0,.874,0,0,1.634-5l319.674-.01-.042-242.035Z" transform="translate(-299.073 -22.208)" fill="none"/>
    </clipPath>
    <clipPath id="clip-path-10">
      <rect id="Rectangle_577" data-name="Rectangle 577" width="4.728" height="3.882" fill="none"/>
    </clipPath>
  </defs>
  <g id="Group_1339" data-name="Group 1339" clip-path="url(#clip-path)">
    <g id="Group_1331" data-name="Group 1331">
      <g id="Group_1330" data-name="Group 1330" clip-path="url(#clip-path)">
        <g id="Group_1326" data-name="Group 1326" transform="translate(69.456 1.808)" opacity="0.8">
          <g id="Group_1325" data-name="Group 1325">
            <g id="Group_1324" data-name="Group 1324" clip-path="url(#clip-path-3)">
              <g id="Group_1317" data-name="Group 1317" transform="translate(0 59.035)" opacity="0.5">
                <g id="Group_1316" data-name="Group 1316">
                  <g id="Group_1315" data-name="Group 1315" clip-path="url(#clip-path-4)">
                    <path id="Path_1972" data-name="Path 1972" d="M412.261,141.071a180.557,180.557,0,0,1-82.3-34.879c-36.352-27.439-112.426-74.129-185-50.872C44.866,87.4,44.418,180.2,70.491,230.6S281.455,428.631,521.151,405.142C735.644,384.124,777.443,143.535,663.046,100c-99.219-37.76-133.07,58.45-250.785,41.071" transform="translate(-55.966 -49.026)" fill="#ccd3e6"/>
                  </g>
                </g>
              </g>
              <g id="Group_1320" data-name="Group 1320" transform="translate(655.785 105.459)" opacity="0.5">
                <g id="Group_1319" data-name="Group 1319">
                  <g id="Group_1318" data-name="Group 1318" clip-path="url(#clip-path-5)">
                    <path id="Path_1973" data-name="Path 1973" d="M602.987,96.444c0,5.53-4.164,10.01-9.3,10.01s-9.3-4.48-9.3-10.01,4.164-10.009,9.3-10.009,9.3,4.481,9.3,10.009" transform="translate(-584.385 -86.434)" fill="#ccd3e6"/>
                  </g>
                </g>
              </g>
              <path id="Path_1974" data-name="Path 1974" d="M103.576,41.383a6.032,6.032,0,0,1,6.746,3.776c1.713,4.645-2.774,9.848-8.815,7.514-5.21-3.858-2.942-10.37,2.069-11.291" transform="translate(-45.704 8.142)" fill="#ccd3e6"/>
              <path id="Path_1975" data-name="Path 1975" d="M585.888,24.755A12.116,12.116,0,1,1,573.773,12.64a12.115,12.115,0,0,1,12.115,12.115" transform="translate(65.921 1.238)" fill="#ccd3e6"/>
              <g id="Group_1323" data-name="Group 1323" transform="translate(70.57 31.033)" opacity="0.8">
                <g id="Group_1322" data-name="Group 1322">
                  <g id="Group_1321" data-name="Group 1321" clip-path="url(#clip-path-6)">
                    <path id="Path_1976" data-name="Path 1976" d="M136.858,35.4a12.239,12.239,0,1,1-15.088-8.481A12.24,12.24,0,0,1,136.858,35.4" transform="translate(-112.83 -26.463)" fill="#ccd3e6"/>
                  </g>
                </g>
              </g>
              <path id="Path_1977" data-name="Path 1977" d="M523.153,327.557a6.033,6.033,0,0,1,7.331,2.456c2.548,4.246-.895,10.191-7.263,9.022-5.838-2.822-4.82-9.642-.068-11.478" transform="translate(55.69 77.045)" fill="#ccd3e6"/>
              <path id="Path_1978" data-name="Path 1978" d="M554.539,315.733a12.24,12.24,0,1,1-16.4-5.528,12.239,12.239,0,0,1,16.4,5.528" transform="translate(58.612 72.653)" fill="#ccd3e6"/>
              <path id="Path_1979" data-name="Path 1979" d="M561.928,8.909a7.453,7.453,0,1,1-7.452-7.451,7.452,7.452,0,0,1,7.452,7.451" transform="translate(62.394 -1.457)" fill="#ccd3e6"/>
            </g>
          </g>
        </g>
        <g id="Group_1329" data-name="Group 1329" transform="translate(58.134)" opacity="0.8">
          <g id="Group_1328" data-name="Group 1328">
            <g id="Group_1327" data-name="Group 1327" clip-path="url(#clip-path-7)">
              <path id="Path_1980" data-name="Path 1980" d="M702.339,144.282C702.329,77.7,646.89,4.739,577.893.331q-1.817-.115-3.672-.2c-98.915-4.61-106.452,116.034-195.946,129.639S220.435,74.684,113.347,119.5C17.17,159.752-8.879,385.928,273.706,395c226.092,7.256,428.663-52.061,428.634-250.716" transform="translate(-46.843 0)" fill="#ccd3e6"/>
            </g>
          </g>
        </g>
        <path id="Path_1981" data-name="Path 1981" d="M692.581,376.414c0,6.213-97.628,11.249-218.057,11.249s-218.058-5.036-218.058-11.249,97.628-11.249,218.058-11.249,218.057,5.036,218.057,11.249" transform="translate(61.816 88.016)" fill="#ccd3e6"/>
        <path id="Path_1982" data-name="Path 1982" d="M557.054,348.858H526.836v31.427h35.335v-26.31a5.117,5.117,0,0,0-5.117-5.117" transform="translate(126.984 84.086)" fill="#ccd3e6"/>
        <rect id="Rectangle_571" data-name="Rectangle 571" width="104.892" height="67.34" transform="translate(492.172 365.604)" fill="#ccd3e6"/>
        <path id="Path_1983" data-name="Path 1983" d="M601.928,380.284H312.558V368.619a19.761,19.761,0,0,1,19.761-19.76H582.168a19.76,19.76,0,0,1,19.76,19.76Z" transform="translate(75.336 84.086)" fill="#fff"/>
        <rect id="Rectangle_572" data-name="Rectangle 572" width="104.892" height="67.34" transform="translate(479.317 365.604)" fill="#fff"/>
        <path id="Path_1984" data-name="Path 1984" d="M386.225,315.275l104.892-8.4.016-12.279H386.363Z" transform="translate(93.092 71.007)" fill="#ccd3e6"/>
        <path id="Path_1985" data-name="Path 1985" d="M713.184,73.255V337.329a14.017,14.017,0,0,1-14.015,14.015H251.308a14.016,14.016,0,0,1-14.015-14.015V73.255A14.016,14.016,0,0,1,251.308,59.24H699.169a14.017,14.017,0,0,1,14.015,14.015" transform="translate(57.195 14.279)" fill="#ccd3e6"/>
        <path id="Path_1986" data-name="Path 1986" d="M629.172,73.255V317.8H585.845V59.24h29.312a14.017,14.017,0,0,1,14.015,14.015" transform="translate(141.207 14.279)" fill="#575759"/>
        <path id="Path_1987" data-name="Path 1987" d="M695.364,73.255V337.329a14.016,14.016,0,0,1-14.015,14.015H251.308a14.016,14.016,0,0,1-14.015-14.015V73.255A14.016,14.016,0,0,1,251.308,59.24H681.349c.21,0,.416,0,.622.015.154.006.3.014.454.027h.017c.109.007.217.017.325.031.182.015.36.038.542.063.118.014.233.031.352.056.056.007.112.017.168.029.115.017.227.038.342.066a14.019,14.019,0,0,1,11.192,13.728" transform="translate(57.195 14.279)" fill="#fff"/>
        <path id="Path_1988" data-name="Path 1988" d="M684.173,59.526c-.115-.027-.227-.048-.343-.066-.056-.01-.112-.021-.169-.029-.118-.024-.233-.041-.352-.056-.181-.024-.36-.048-.541-.063-.109-.014-.217-.024-.325-.032h-.017c-.15-.012-.3-.02-.454-.027-.206-.01-.412-.012-.622-.012H251.308a14.015,14.015,0,0,0-14.015,14.014V317.8H695.364V73.255a14.018,14.018,0,0,0-11.19-13.728M677.2,293.373a3.811,3.811,0,0,1-3.812,3.814H259.274a3.811,3.811,0,0,1-3.812-3.814V81.222a3.811,3.811,0,0,1,3.812-3.814H673.383a3.811,3.811,0,0,1,3.813,3.814Z" transform="translate(57.195 14.279)" fill="#141944"/>
        <path id="Path_1989" data-name="Path 1989" d="M673.666,77.692V289.844a3.81,3.81,0,0,1-3.812,3.812H255.745a3.81,3.81,0,0,1-3.812-3.812V77.692a3.81,3.81,0,0,1,3.812-3.812H669.854a3.81,3.81,0,0,1,3.813,3.812" transform="translate(60.724 17.807)" fill="#ccd3e6"/>
        <path id="Path_1990" data-name="Path 1990" d="M673.666,77.692V97.714H251.933V77.692a3.81,3.81,0,0,1,3.812-3.812H669.854a3.81,3.81,0,0,1,3.813,3.812" transform="translate(60.724 17.807)" fill="#fff"/>
        <path id="Path_1991" data-name="Path 1991" d="M566.695,83.854a3.238,3.238,0,1,1-3.238-3.239,3.238,3.238,0,0,1,3.238,3.239" transform="translate(135.03 19.431)" fill="#f7536e"/>
        <path id="Path_1992" data-name="Path 1992" d="M575.152,83.854a3.238,3.238,0,1,1-3.238-3.239,3.238,3.238,0,0,1,3.238,3.239" transform="translate(137.068 19.431)" fill="#0592f5"/>
        <path id="Path_1993" data-name="Path 1993" d="M614.09,87.317H284.629a3.031,3.031,0,0,1-3.022-3.022v-.809a3.03,3.03,0,0,1,3.022-3.021H614.09a3.03,3.03,0,0,1,3.022,3.021v.809a3.031,3.031,0,0,1-3.022,3.022" transform="translate(67.876 19.395)" fill="#cedcec"/>
        <path id="Path_1994" data-name="Path 1994" d="M265.5,83.954v3.171a.581.581,0,0,1-.872.5l-2.746-1.585-2.746-1.586a.582.582,0,0,1,0-1.008l2.746-1.586,2.746-1.585a.581.581,0,0,1,.872.5Z" transform="translate(62.389 19.331)"/>
        <path id="Path_1995" data-name="Path 1995" d="M268.091,83.954v3.171a.581.581,0,0,0,.872.5l2.746-1.585,2.746-1.586a.582.582,0,0,0,0-1.008l-2.746-1.586-2.746-1.585a.581.581,0,0,0-.872.5Z" transform="translate(64.618 19.331)"/>
        <path id="Path_1996" data-name="Path 1996" d="M577.485,86.547l-.145-.145a.813.813,0,0,1,0-1.148l4.35-4.35a.81.81,0,0,1,1.148,0l.145.145a.81.81,0,0,1,0,1.148l-4.349,4.35a.812.812,0,0,1-1.149,0" transform="translate(139.1 19.443)" fill="#141944"/>
        <path id="Path_1997" data-name="Path 1997" d="M582.838,86.547l.145-.145a.813.813,0,0,0,0-1.148l-4.35-4.35a.81.81,0,0,0-1.148,0l-.145.145a.81.81,0,0,0,0,1.148l4.349,4.35a.812.812,0,0,0,1.149,0" transform="translate(139.1 19.443)" fill="#141944"/>
        <path id="Path_1998" data-name="Path 1998" d="M607.635,279.553H298.316a7.97,7.97,0,0,1-7.97-7.97V104.949a7.97,7.97,0,0,1,7.97-7.97h309.32a7.97,7.97,0,0,1,7.97,7.97V271.583a7.97,7.97,0,0,1-7.97,7.97" transform="translate(69.982 23.375)" fill="#fff"/>
        <path id="Path_1999" data-name="Path 1999" d="M380.441,173.021H309.128a1.981,1.981,0,1,1,0-3.961h71.313a1.981,1.981,0,1,1,0,3.961" transform="translate(74.032 40.749)" fill="#ccd3e6"/>
        <path id="Path_2000" data-name="Path 2000" d="M380.441,159.514H309.128a1.981,1.981,0,0,1,0-3.961h71.313a1.981,1.981,0,1,1,0,3.961" transform="translate(74.032 37.493)" fill="#ccd3e6"/>
        <path id="Path_2001" data-name="Path 2001" d="M380.441,186.527H309.128a1.981,1.981,0,1,1,0-3.961h71.313a1.981,1.981,0,1,1,0,3.961" transform="translate(74.032 44.004)" fill="#ccd3e6"/>
        <path id="Path_2002" data-name="Path 2002" d="M557.006,173.021H485.692a1.981,1.981,0,1,1,0-3.961h71.315a1.981,1.981,0,0,1,0,3.961" transform="translate(116.59 40.749)" fill="#ccd3e6"/>
        <path id="Path_2003" data-name="Path 2003" d="M557.006,159.514H485.692a1.981,1.981,0,1,1,0-3.961h71.315a1.981,1.981,0,0,1,0,3.961" transform="translate(116.59 37.493)" fill="#ccd3e6"/>
        <path id="Path_2004" data-name="Path 2004" d="M557.006,186.527H485.692a1.981,1.981,0,1,1,0-3.961h71.315a1.981,1.981,0,0,1,0,3.961" transform="translate(116.59 44.004)" fill="#ccd3e6"/>
        <path id="Path_2005" data-name="Path 2005" d="M290.346,221.247H615.607v26.666a1.691,1.691,0,0,1-1.69,1.687H292.035a1.689,1.689,0,0,1-1.689-1.687Z" transform="translate(69.982 53.327)" fill="#141944"/>
        <path id="Path_2006" data-name="Path 2006" d="M527.107,230.6v-2.4h3.008v-2.14h-4.078a1.07,1.07,0,0,0-1.07,1.07V230.6Z" transform="translate(126.534 54.486)" fill="#fff"/>
        <path id="Path_2007" data-name="Path 2007" d="M527.107,233.163h-2.14v3.656a1.07,1.07,0,0,0,1.07,1.07h4.078v-2.14h-3.008Z" transform="translate(126.534 56.2)" fill="#fff"/>
        <path id="Path_2008" data-name="Path 2008" d="M534.713,230.6h2.14v-3.474a1.07,1.07,0,0,0-1.07-1.07h-3.922v2.14h2.852Z" transform="translate(128.195 54.486)" fill="#fff"/>
        <path id="Path_2009" data-name="Path 2009" d="M534.713,233.163v2.586h-2.852v2.14h3.922a1.07,1.07,0,0,0,1.07-1.07v-3.656Z" transform="translate(128.195 56.2)" fill="#fff"/>
        <path id="Path_2010" data-name="Path 2010" d="M305.614,233.2v-6.756l5.85,3.378,5.851,3.378-5.851,3.378-5.85,3.377Z" transform="translate(73.662 54.579)" fill="#fff"/>
        <path id="Path_2011" data-name="Path 2011" d="M332.248,239.286h-1.538a1.047,1.047,0,0,1-1.044-1.044v-10.21a1.047,1.047,0,0,1,1.044-1.045h1.538a1.047,1.047,0,0,1,1.044,1.045v10.21a1.047,1.047,0,0,1-1.044,1.044" transform="translate(79.46 54.711)" fill="#fff"/>
        <path id="Path_2012" data-name="Path 2012" d="M338.352,239.286h-1.538a1.048,1.048,0,0,1-1.044-1.044v-10.21a1.048,1.048,0,0,1,1.044-1.045h1.538a1.047,1.047,0,0,1,1.044,1.045v10.21a1.047,1.047,0,0,1-1.044,1.044" transform="translate(80.931 54.711)" fill="#fff"/>
        <rect id="Rectangle_573" data-name="Rectangle 573" width="325.259" height="5.331" transform="translate(360.328 269.245)" fill="#ccd3e6"/>
        <rect id="Rectangle_574" data-name="Rectangle 574" width="166.894" height="5.331" transform="translate(360.33 269.247)" fill="#f7536e"/>
        <path id="Path_2013" data-name="Path 2013" d="M510.525,200.236h3.67v8.038h4.913v2.846h-8.583Z" transform="translate(123.053 48.263)" fill="#141944"/>
        <rect id="Rectangle_575" data-name="Rectangle 575" width="3.67" height="10.884" transform="translate(643.171 248.499)" fill="#141944"/>
        <path id="Path_2014" data-name="Path 2014" d="M534.5,200.236l-4.6,10.884H526.29l-4.6-10.884h3.95l2.6,6.359,2.658-6.359Z" transform="translate(125.743 48.263)" fill="#141944"/>
        <path id="Path_2015" data-name="Path 2015" d="M541.347,208.352v2.768H532.3V200.236h8.847V203h-5.24v1.275h4.6v2.643h-4.6v1.431Z" transform="translate(128.3 48.263)" fill="#141944"/>
        <path id="Path_2016" data-name="Path 2016" d="M507.4,205.419a4.475,4.475,0,1,1-4.475-4.475,4.475,4.475,0,0,1,4.475,4.475" transform="translate(120.141 48.434)" fill="#f7536e"/>
        <path id="Path_2017" data-name="Path 2017" d="M324.587,208.792c0,2.485-2.357,4.092-5.736,4.092s-5.736-1.607-5.736-4.092a3.341,3.341,0,0,1,1.718-2.941,3.113,3.113,0,0,1-1.261-2.521c0-2.321,2.174-3.819,5.279-3.819s5.279,1.5,5.279,3.819a3.11,3.11,0,0,1-1.261,2.521,3.341,3.341,0,0,1,1.718,2.941m-4.329-.145a1.409,1.409,0,1,0-1.407,1.333,1.3,1.3,0,0,0,1.407-1.333m-2.43-5.134a1.025,1.025,0,1,0,1.023-1.1,1,1,0,0,0-1.023,1.1" transform="translate(75.471 48.089)" fill="#141944"/>
        <path id="Path_2018" data-name="Path 2018" d="M323.005,206.2c0-4.237,2.411-6.685,5.792-6.685s5.791,2.449,5.791,6.685-2.411,6.687-5.791,6.687-5.792-2.447-5.792-6.687m7.253,0c0-2.466-.62-3.233-1.461-3.233s-1.462.767-1.462,3.233.62,3.234,1.462,3.234,1.461-.767,1.461-3.234" transform="translate(77.854 48.089)" fill="#141944"/>
        <path id="Path_2019" data-name="Path 2019" d="M308.6,202.77a3.931,3.931,0,1,1-3.93-3.93,3.93,3.93,0,0,1,3.93,3.93" transform="translate(72.488 47.927)" fill="#f7536e"/>
        <path id="Path_2020" data-name="Path 2020" d="M312.683,210.93h-14.7a7.6,7.6,0,0,1,7.236-4.67c.041,0,.076,0,.112,0s.071,0,.112,0a7.6,7.6,0,0,1,7.236,4.67" transform="translate(71.824 49.715)" fill="#f7536e"/>
      </g>
    </g>
    <g id="Group_1333" data-name="Group 1333" transform="translate(371.159 27.561)">
      <g id="Group_1332" data-name="Group 1332" clip-path="url(#clip-path-8)">
        <path id="Path_2021" data-name="Path 2021" d="M347.278,135.273s-1.966,11.99-10.8,14.138c-7.131,1.731-13.852-5.117-16.177-7.814-.555-.647-.858-1.052-.858-1.052a12.59,12.59,0,0,1-1.324.043c-1.858-.025-5.164-.4-6.458-2.691-1.844-3.258,4.869-5.483,4.869-5.483s-3.443-3.074-2.58-5.308c.849-2.2,5.466-2.657,5.466-2.657s-4.97-3.227-3.307-6.041c2.5-4.232,7.645.423,8.054.68-.325-.372-6.765-7.035-3.24-8.234,3.077-1.046,8.135,2.415,11.462,5.844.527.542.825.858.825.858s.2-.151.55-.383c1.664-1.113,6.77-4.093,10.024-1.376,3.933,3.283,3.491,19.477,3.491,19.477" transform="translate(-296.115 -0.887)" fill="#ff9b79"/>
        <path id="Path_2022" data-name="Path 2022" d="M334.317,139.384a.7.7,0,0,1-.889-1.021,6.31,6.31,0,0,0,1.069-5.25c-1.165-4.49-7.171-7.6-7.232-7.627a.7.7,0,1,1,.637-1.248c.269.138,6.63,3.43,7.951,8.525a7.646,7.646,0,0,1-1.262,6.383.713.713,0,0,1-.274.24" transform="translate(-292.37 2.366)" fill="#f56c63"/>
        <path id="Path_2023" data-name="Path 2023" d="M330.616,123.122a2.176,2.176,0,0,1-.989,1.909,2.392,2.392,0,0,1-.454.231,5.026,5.026,0,0,1-1.263.285,4.991,4.991,0,0,1,.9.733,2.408,2.408,0,0,1,.541.823,1.829,1.829,0,0,1-.31,1.768c-1.126,1.49-3.721,2.1-5.835,2.349a7.41,7.41,0,0,1,3.266,3.32,2.2,2.2,0,0,1-.272,2.137,4.137,4.137,0,0,1-1.519,1.114,22.868,22.868,0,0,1-5.688,1.574c-.56-.645-.859-1.054-.859-1.054a11.992,11.992,0,0,1-1.328.047.673.673,0,0,1,.364-.148c2.6-.3,7.038-1.212,7.912-2.375a.808.808,0,0,0,.068-.827c-.48-1.339-3-3.11-5.179-3.649a.7.7,0,0,1,.177-1.379c1.731.034,6.5-.263,7.77-1.956.184-.246.136-.379.108-.448a2.336,2.336,0,0,0-1.061-.97,17.271,17.271,0,0,0-4.15-1.559.666.666,0,0,1-.361-.22.681.681,0,0,1-.159-.625.7.7,0,0,1,.848-.519c.242.057.743.184,1.368.379a15.706,15.706,0,0,0,3.17.115,2.791,2.791,0,0,0,1.188-.325.8.8,0,0,0,.35-.747,4.478,4.478,0,0,0-.755-2.126.686.686,0,0,1,.057-.782.081.081,0,0,0,.015-.019.686.686,0,0,1,1.129.072,5.87,5.87,0,0,1,.953,2.869" transform="translate(-294.799 1.343)" fill="#f56c63"/>
        <path id="Path_2024" data-name="Path 2024" d="M325.59,122.267a19.14,19.14,0,0,1,3.284,2.413c1,.949,1.626,1.428,2.31,2.055.047-.079-.047.074,0,0L317.71,69.572a.693.693,0,0,0-1.356.278l9.237,52.416h0" transform="translate(-294.911 -10.921)" fill="#141944"/>
        <path id="Path_2025" data-name="Path 2025" d="M334.976,140.972c-4.67,3.013-5.981.783-5.981.783l-2.367-13.425c.068-.072.133-.151.195-.231a1.832,1.832,0,0,0,.31-1.768,2.444,2.444,0,0,0-.541-.823,4.136,4.136,0,0,0-.546-.48l-.05-.292a4.89,4.89,0,0,0,.959-.246,2.56,2.56,0,0,0,.455-.231,2.068,2.068,0,0,0,.866-1.133,3.475,3.475,0,0,0,2.1.942,4.743,4.743,0,0,0,.679.021Z" transform="translate(-292.583 2.116)" fill="#141944"/>
        <path id="Path_2026" data-name="Path 2026" d="M338.875,121.842a23.076,23.076,0,0,1-4.6,3.089,7.88,7.88,0,0,1-4.057.969,3.5,3.5,0,0,1-2.535-1.432c-2.221-2.985-.32-6.882,1.014-8.94.527.542.825.858.825.858s.2-.151.55-.385c-1.148,1.7-3.067,5.212-1.265,7.629a2.1,2.1,0,0,0,1.556.876c2.471.261,6.314-2.593,7.585-3.713a.7.7,0,0,1,.927,1.05" transform="translate(-292.423 0.285)" fill="#f56c63"/>
        <path id="Path_2027" data-name="Path 2027" d="M411.282,109.451l0-.026s0-.027,0,0l-.016.076-.036.17-.084.412-.186.911c-.062.309-.132.627-.2.951s-.143.643-.221.97c-.3,1.3-.624,2.635-.979,3.96-.726,2.653-1.5,5.323-2.4,7.948s-1.834,5.236-2.9,7.785c-.541,1.271-1.073,2.544-1.652,3.79-.546,1.263-1.155,2.491-1.741,3.729-1.229,2.442-2.512,4.846-3.9,7.166-.328.594-.7,1.155-1.05,1.731s-.694,1.158-1.073,1.711c-.747,1.114-1.469,2.249-2.254,3.327-1.514,2.207-3.186,4.265-4.851,6.321-1.729,1.992-3.482,3.958-5.36,5.782-.468.457-.927.926-1.4,1.376l-1.453,1.314-.724.66-.181.165.092-.084.127-.107a4.884,4.884,0,0,1,.541-.382,8.5,8.5,0,0,1,2.612-1.211c.223-.056.41-.118.622-.154.1-.02.207-.035.311-.047l.263-.045a4.158,4.158,0,0,1,.519-.04,2.8,2.8,0,0,1,.408-.016c.062,0,.146.012.192.01s.1,0,.143,0a2.655,2.655,0,0,1,.276.034.787.787,0,0,1,.17.021l.079.022a.163.163,0,0,1,.035,0c.2.066-.2,0-.809-.262a20.563,20.563,0,0,1-2.337-1.221c-.9-.532-1.868-1.174-2.862-1.883-2-1.41-4.09-3.1-6.185-4.9s-4.2-3.74-6.3-5.75-4.2-4.078-6.259-6.21-4.141-4.29-6.174-6.492c-1.025-1.092-2.044-2.194-3.046-3.3l-2.925-3.2L325.491,151.42l.753,1.139.715,1.056,1.428,2.075q1.445,2.048,2.921,4.058c1.986,2.671,4.02,5.312,6.134,7.914s4.306,5.17,6.6,7.709c1.149,1.265,2.316,2.525,3.521,3.779s2.444,2.49,3.719,3.723a104.838,104.838,0,0,0,8.327,7.271c1.533,1.186,3.15,2.362,4.921,3.517a50.168,50.168,0,0,0,5.954,3.352,35.975,35.975,0,0,0,8.139,2.781l.614.124c.213.04.443.073.664.108q.672.1,1.344.185c.465.052.972.084,1.456.115l.735.038c.242.012.524.006.784.006q.8-.006,1.592-.042c.556-.038,1.132-.1,1.7-.169.285-.037.563-.072.851-.118s.593-.112.89-.174c.6-.128,1.174-.249,1.773-.424a24.421,24.421,0,0,0,6.886-3.208c.506-.354,1-.722,1.482-1.1l.36-.287.325-.268.259-.231,1.038-.923,2.069-1.854c.675-.632,1.332-1.282,2-1.925,2.674-2.558,5.129-5.312,7.523-8.1,2.329-2.836,4.578-5.737,6.617-8.755,2.086-2.992,3.959-6.1,5.745-9.242l1.294-2.377c.428-.794.82-1.6,1.23-2.4s.812-1.6,1.186-2.419l1.142-2.435a132.019,132.019,0,0,0,7.182-20.08c.907-3.428,1.724-6.878,2.348-10.394.314-1.76.609-3.526.845-5.336.061-.449.117-.906.17-1.365s.107-.918.155-1.391.1-.949.139-1.435l.13-1.726Z" transform="translate(-292.705 -1.19)" fill="#ffc331"/>
        <path id="Path_2028" data-name="Path 2028" d="M337.4,140.894a1.95,1.95,0,1,0,1.777-2.109,1.95,1.95,0,0,0-1.777,2.109" transform="translate(-289.836 5.889)" fill="#dc7f21"/>
        <path id="Path_2029" data-name="Path 2029" d="M370.233,170.57a.834.834,0,0,0,.808-.63A62.733,62.733,0,0,0,372.4,155.5a.833.833,0,1,0-1.665.046,62.182,62.182,0,0,1-1.308,13.991.833.833,0,0,0,.607,1.01.867.867,0,0,0,.2.025" transform="translate(-282.122 9.724)" fill="#dc7f21"/>
        <path id="Path_2030" data-name="Path 2030" d="M375.3,164.321a.834.834,0,0,0,.745-1.205,67.6,67.6,0,0,0-4.081-7.218.833.833,0,1,0-1.3,1.035,68.754,68.754,0,0,1,3.894,6.927.834.834,0,0,0,.746.46" transform="translate(-281.861 9.94)" fill="#dc7f21"/>
        <path id="Path_2031" data-name="Path 2031" d="M332.735,157.494a.831.831,0,0,0,.6-.253c6.976-7.194,22.721-18.56,22.878-18.674a.833.833,0,1,0-.973-1.351c-.16.114-16.024,11.566-23.1,18.865a.833.833,0,0,0,.6,1.414" transform="translate(-291.16 5.474)" fill="#dc7f21"/>
        <path id="Path_2032" data-name="Path 2032" d="M339.8,150.855a.833.833,0,0,0,.639-1.366l-8.419-10.1a.833.833,0,0,0-1.279,1.067l8.419,10.1a.833.833,0,0,0,.64.3" transform="translate(-291.487 5.963)" fill="#dc7f21"/>
        <path id="Path_2033" data-name="Path 2033" d="M419.394,323.871l11.288-66.622.926-5.446-32.5-11.471-1.854-.652-7.739-2.73s-.619,2.848-1.58,7.748c-.115.592-.237,1.214-.361,1.863-3.049,15.755-8.768,48.228-10.324,77.31Z" transform="translate(-280.229 29.552)" fill="#141944"/>
        <path id="Path_2034" data-name="Path 2034" d="M406.915,320.325c4.883-26.564,11.161-65.384,11.525-67.647a.877.877,0,1,0-1.732-.279c-.089.557-6.606,40.857-11.584,67.927Z" transform="translate(-273.511 33.097)" fill="#575759"/>
        <path id="Path_2035" data-name="Path 2035" d="M482.789,223.308s2.446,23.2-2.833,36.12-73.614,6.27-91.028-5.356C381.783,249.3,397,205.3,397,205.3Z" transform="translate(-277.875 21.923)" fill="#141944"/>
        <path id="Path_2036" data-name="Path 2036" d="M385.571,249.922a19.768,19.768,0,0,0,3.024-.778,20.365,20.365,0,0,0,4.5-2.174A23.863,23.863,0,0,0,397.1,243.7c7.533-7.6,9.751-19.088,9.856-19.65a.878.878,0,0,0-1.726-.321c-.025.137-2.333,12.084-9.982,19.314a21.078,21.078,0,0,1-3.12,2.461,18.562,18.562,0,0,1-4.292,2.045,18.318,18.318,0,0,1-1.909.511c-.115.594-.238,1.215-.361,1.867" transform="translate(-278.224 26.191)" fill="#575759"/>
        <path id="Path_2037" data-name="Path 2037" d="M419.545,258.842a.863.863,0,0,0,.829.887h.006a.862.862,0,0,0,.917-.8c.155-3.173.341-6.421.546-9.666.036-.571.071-1.142.11-1.713.69-10.6,1.566-21.014,2.226-28.364.055-.594.105-1.172.158-1.725.146-1.613.28-3.043.395-4.254-.582-.091-1.163-.185-1.737-.282-.114,1.211-.248,2.656-.4,4.285-.052.553-.1,1.131-.156,1.724-.654,7.286-1.525,17.605-2.215,28.145-.04.581-.076,1.165-.115,1.746-.211,3.363-.4,6.734-.566,10.018" transform="translate(-270.036 23.761)" fill="#575759"/>
        <path id="Path_2038" data-name="Path 2038" d="M417.626,247.448a22.994,22.994,0,0,0,3.065,1.174c.546.166,1.131.318,1.732.437a12.78,12.78,0,0,0,1.66.216,6.058,6.058,0,0,0,2.943-.462,3.588,3.588,0,0,0,2-2.679c.638-3.27,1.977-16.779,2.878-26.332q.086-.881.163-1.718c.144-1.528.272-2.918.38-4.1-.58-.071-1.163-.14-1.745-.217-.109,1.188-.238,2.595-.385,4.143-.052.553-.107,1.127-.16,1.718-.9,9.53-2.238,23.019-2.857,26.188a1.884,1.884,0,0,1-1.056,1.481,6.2,6.2,0,0,1-3.707.048c-.591-.128-1.178-.294-1.728-.47a20.919,20.919,0,0,1-2.406-.943.89.89,0,0,0-1.174.381.836.836,0,0,0,.4,1.136" transform="translate(-270.616 23.964)" fill="#575759"/>
        <path id="Path_2039" data-name="Path 2039" d="M465.55,325.121c2.7-24.726,5.829-57.813,7.6-76.985.057-.6.109-1.18.16-1.755.779-8.458,1.26-13.784,1.26-13.784-4.193-1.747-11.8-.546-19.89,1.75-.586.164-1.17.331-1.759.51A241.732,241.732,0,0,0,423.3,246.433v78.688Z" transform="translate(-269.13 28.301)" fill="#141944"/>
        <path id="Path_2040" data-name="Path 2040" d="M454.359,320.325c2.336-27.488,5.1-67.2,5.14-67.727a.878.878,0,1,0-1.751-.122c-.037.524-2.813,40.384-5.15,67.848Z" transform="translate(-262.069 33.097)" fill="#575759"/>
        <path id="Path_2041" data-name="Path 2041" d="M443.264,224.047a45.948,45.948,0,0,0,4.845,12.919,28.335,28.335,0,0,0,9.025,10,20.519,20.519,0,0,0,11.207,3.278c.056-.6.109-1.183.161-1.755a18.885,18.885,0,0,1-10.417-3,26.277,26.277,0,0,1-8.213-9.038,45.135,45.135,0,0,1-4.881-12.729.878.878,0,1,0-1.726.319" transform="translate(-264.322 26.191)" fill="#575759"/>
        <path id="Path_2042" data-name="Path 2042" d="M386.626,249.654c18.917,17.657,63.65,27.047,98.131,10.257,3.781-10.337,7.941-47.227,9.056-58.254.225-2.2.4-4.391.547-6.591a289.127,289.127,0,0,0,.037-32.379q-.045-.908-.088-1.822c-.449-9.168-1.124-18.681-1.76-28.775-1.26-19.988-7.93-32.3-19.519-34.146a47.325,47.325,0,0,1-12.8-3.858c-.385-.182-.747-.36-1.1-.541a36.272,36.272,0,0,1-5.854-3.623H427.432a19.7,19.7,0,0,1-8.047,6.726c-.334.159-.671.312-1.013.46-9.175,3.96-19.875,3.172-22.082,14.238-1.386,6.947,3.934,21.24,3.376,50.217q-.06,3.191-.221,6.617-.153,3.211-.407,6.642c-.156,2.127-.349,4.326-.573,6.584q-.294,2.967-.671,6.087-.387,3.2-.867,6.561c-1.72,12.043-6.337,40.11-10.3,55.6" transform="translate(-277.97 -5.887)" fill="#ffc331"/>
        <path id="Path_2043" data-name="Path 2043" d="M458.167,244.565a.776.776,0,0,1-.75-.98c14.357-52.642,11.46-106.149,11.429-106.684a.776.776,0,1,1,1.549-.089c.031.537,2.942,54.3-11.48,107.182a.777.777,0,0,1-.748.572" transform="translate(-260.914 5.239)" fill="#dc7f21"/>
        <path id="Path_2044" data-name="Path 2044" d="M395.4,177.607a.832.832,0,0,0,.827-.74c1.718-15.225,1.737-45.515,1.737-45.819a.833.833,0,0,0-1.665,0c0,.3-.02,30.5-1.728,45.633a.834.834,0,0,0,.735.921.818.818,0,0,0,.094,0" transform="translate(-276.055 3.825)" fill="#dc7f21"/>
        <path id="Path_2045" data-name="Path 2045" d="M423.777,215.019a1.95,1.95,0,1,0,1.777-2.109,1.95,1.95,0,0,0-1.777,2.109" transform="translate(-269.017 23.756)" fill="#dc7f21"/>
        <path id="Path_2046" data-name="Path 2046" d="M423.527,222.616a1.95,1.95,0,1,0,1.777-2.109,1.95,1.95,0,0,0-1.777,2.109" transform="translate(-269.077 25.587)" fill="#dc7f21"/>
        <path id="Path_2047" data-name="Path 2047" d="M405.868,142.57c-5.075-5.894-3.172-19.014-3.088-19.57a.832.832,0,0,1,.823-.709h17.216a.834.834,0,0,1,.824.709c.083.556,1.986,13.676-3.089,19.57a8.539,8.539,0,0,1-12.686,0m-1.53-18.613c-.318,2.771-1.163,12.932,2.792,17.526a6.875,6.875,0,0,0,10.16,0c3.953-4.589,3.11-14.756,2.794-17.528Z" transform="translate(-274.177 1.915)" fill="#dc7f21"/>
        <path id="Path_2048" data-name="Path 2048" d="M452,41.565c-4.82-3.117-19.988-4.684-19.988-4.684s-2.5-6.559-5.309-8.433c-6.393-4.26-7.183,4.373-7.183,4.373s-6.246-8.746-11.868-6.247,1.561,10.62,1.561,10.62-8.433-1.561-7.5,5.622,9.057,10.306,9.057,10.306-2.5,4.061-1.248,10.62,4.059,6.87,4.059,6.87l34.98,3.124s7.183,0,9.057-9.057-4.372-12.8-4.372-12.8S457.307,45,452,41.565" transform="translate(-274.351 -21.264)" fill="#141944"/>
        <path id="Path_2049" data-name="Path 2049" d="M419.194,89.53V96.1a20.469,20.469,0,0,0,2.326,1.629c11.41,6.853,23.719-1.629,23.719-1.629V73.318L422.3,87.6Z" transform="translate(-270.12 -9.889)" fill="#ff9b79"/>
        <path id="Path_2050" data-name="Path 2050" d="M419.194,87.326v6.76a20.469,20.469,0,0,0,2.326,1.629c9.715-3.846,16.786-14.039,16.786-14.039l-16.006,3.9Z" transform="translate(-270.12 -7.874)" fill="#141944"/>
        <path id="Path_2051" data-name="Path 2051" d="M443.05,86.3a13,13,0,0,1,9.786,10.073c-7.48,7.826-14.094,14.612-24.8,16.594V97.244A27.7,27.7,0,0,0,443.05,86.3" transform="translate(-267.989 -6.761)" fill="#ffc331"/>
        <path id="Path_2052" data-name="Path 2052" d="M420.851,88.127s-6.858,1.472-9.524,10.246c6.914,8.413,10.606,11.578,20.738,14.15V96.8s-5.648-.091-11.214-8.676" transform="translate(-272.016 -6.319)" fill="#ffc331"/>
        <path id="Path_2053" data-name="Path 2053" d="M415.887,204.743l4.445,10.732v0l2,4.821,5.641,13.624,2.723-5.261.966-1.863,2.185-4.218.963-1.862,2.187-4.218.962-1.863,2.187-4.218v0l.966-1.859,2.053-3.965-.043-.429-.32-3.146-.726-7.13-.32-3.148-.726-7.131-.32-3.145-.726-7.131-.32-3.145-.726-7.133-.32-3.146-.726-7.13-.32-3.145-.726-7.131-.32-3.149-.726-7.127-.32-3.149-.726-7.13-.32-3.146-.75-7.37-5.448-.212-.159,1.226-.33,2.494-.746,5.658-.33,2.5-.747,5.658-.33,2.5-.746,5.658-.33,2.5-.746,5.658-.33,2.5-.746,5.66-.33,2.5-.747,5.658-.329,2.5-.747,5.658-.329,2.5-.747,5.658-.33,2.5-.746,5.658-.33,2.5-.746,5.658-.33,2.5-.746,5.658-.33,2.5Z" transform="translate(-270.917 -0.753)" fill="#141944"/>
        <path id="Path_2054" data-name="Path 2054" d="M425.436,114.7l7.007,7.007-.32-3.145-6.357-6.358Z" transform="translate(-268.615 -0.515)" fill="#575759"/>
        <path id="Path_2055" data-name="Path 2055" d="M424.569,121.273l9.129,9.133-.319-3.148-8.48-8.48Z" transform="translate(-268.824 1.068)" fill="#575759"/>
        <path id="Path_2056" data-name="Path 2056" d="M423.7,127.845,434.955,139.1l-.32-3.15-10.6-10.6Z" transform="translate(-269.033 2.652)" fill="#575759"/>
        <path id="Path_2057" data-name="Path 2057" d="M422.835,134.415l13.375,13.375-.32-3.146-12.724-12.724Z" transform="translate(-269.242 4.236)" fill="#575759"/>
        <path id="Path_2058" data-name="Path 2058" d="M421.968,140.984l15.5,15.5-.32-3.146L422.3,138.489Z" transform="translate(-269.451 5.819)" fill="#575759"/>
        <path id="Path_2059" data-name="Path 2059" d="M421.1,147.557l17.619,17.619-.319-3.145-16.97-16.97Z" transform="translate(-269.66 7.403)" fill="#575759"/>
        <path id="Path_2060" data-name="Path 2060" d="M420.233,154.126l19.741,19.741-.319-3.145-19.092-19.092Z" transform="translate(-269.87 8.987)" fill="#575759"/>
        <path id="Path_2061" data-name="Path 2061" d="M419.366,160.7l21.863,21.865-.319-3.148L419.7,158.2Z" transform="translate(-270.079 10.57)" fill="#575759"/>
        <path id="Path_2062" data-name="Path 2062" d="M418.5,167.268l23.987,23.987-.32-3.145-23.336-23.338Z" transform="translate(-270.288 12.155)" fill="#575759"/>
        <path id="Path_2063" data-name="Path 2063" d="M417.632,173.842l22.087,22.084.967-1.859-22.723-22.725Z" transform="translate(-270.497 13.738)" fill="#575759"/>
        <path id="Path_2064" data-name="Path 2064" d="M416.765,180.41l20.015,20.015.963-1.863-20.648-20.648Z" transform="translate(-270.706 15.322)" fill="#575759"/>
        <path id="Path_2065" data-name="Path 2065" d="M415.9,186.984l17.943,17.939.962-1.863-18.574-18.576Z" transform="translate(-270.915 16.906)" fill="#575759"/>
        <path id="Path_2066" data-name="Path 2066" d="M419.468,195.229l2,4.821,8.363,8.363.967-1.863Z" transform="translate(-270.054 19.495)" fill="#575759"/>
        <path id="Path_2067" data-name="Path 2067" d="M431.373,111.433l-2.712,4.031-2.736-4.244-.478,3.626,3.172,3.228,3.039-3.834Z" transform="translate(-268.613 -0.753)" fill="#575759"/>
        <path id="Path_2068" data-name="Path 2068" d="M436.657,107.687l-7.268,10.8-6.965-10.8,6.965-9.022Z" transform="translate(-269.341 -3.779)" fill="#141944"/>
        <path id="Path_2069" data-name="Path 2069" d="M443.711,116.264a.832.832,0,0,0,.519-.181c7.2-5.737,13.322-20.564,13.579-21.192a.833.833,0,1,0-1.541-.63c-.06.144-5.829,14.1-12.413,19.961L432.911,99.358a.821.821,0,0,0-.679-.339.833.833,0,0,0-.673.352l-10.21,14.5c-1.559-2.812-5.657-10.288-9.1-17.218a.833.833,0,0,0-1.492.741c4.346,8.748,9.728,18.354,9.783,18.449a.833.833,0,0,0,1.407.072l10.308-14.634,10.786,14.649a.83.83,0,0,0,.561.331.809.809,0,0,0,.109.007" transform="translate(-272.175 -4.966)" fill="#dc7f21"/>
        <path id="Path_2070" data-name="Path 2070" d="M428.213,100.382a.833.833,0,0,0,.833-.833V95.829a.833.833,0,1,0-1.665,0v3.721a.833.833,0,0,0,.833.833" transform="translate(-268.147 -4.664)" fill="#dc7f21"/>
        <path id="Path_2071" data-name="Path 2071" d="M413.884,63.3s-3.732-4.409-5.842,0-.486,13.334,5.192,11.873Z" transform="translate(-273.022 -12.777)" fill="#f56c63"/>
        <path id="Path_2072" data-name="Path 2072" d="M409.37,83.386s-.02,13.586,14.112,13.555c14.044-.026,23.613-11.055,24.111-11.565l.015-.014.154-2.856.8-14.819.428-7.92S450.781,45.5,437.226,42.9c-9.9-1.9-19.19-.257-23.876,4.91-.151.168-.3.339-.437.514a12.182,12.182,0,0,0-2.666,6.642L409.808,69.2l-.107,3.486Z" transform="translate(-272.488 -17.404)" fill="#ff9b79"/>
        <path id="Path_2075" data-name="Path 2075" d="M421.4,77.27a5.882,5.882,0,0,0,4.04-1.3.625.625,0,0,0-.814-.948,4.321,4.321,0,0,1-4.341.675.625.625,0,1,0-.508,1.142,5.106,5.106,0,0,0,1.623.427" transform="translate(-270.07 -9.513)" fill="#f56c63"/>
        <path id="Path_2076" data-name="Path 2076" d="M428.464,68.99s-8.621,1.735-12.976,1.345c0,0,1.62,6.416,8.036,4.8a6.425,6.425,0,0,0,4.94-6.142" transform="translate(-271.013 -10.932)" fill="#fff"/>
        <path id="Path_2077" data-name="Path 2077" d="M412.226,48.326c2.216-.784,3.817-.055,7.271,1.463,4.994,2.193,10.577.218,15.51-2.3s7.9.987,6.213,3.29-1.5,4.166.367,7.1-3.527,4.3-.549,6.6c1.255.969,1.179,2.418.673,3.769A2.032,2.032,0,0,0,444,70.944c1.607-.408,3.873-3.256,3.873-3.256l.427-7.92S450.094,45.5,436.539,42.9c-9.9-1.9-19.19-.256-23.876,4.911-.151.166-.3.338-.437.513" transform="translate(-271.8 -17.404)" fill="#141944"/>
        <path id="Path_2078" data-name="Path 2078" d="M424.574,65.7c0,.989,2.038,1.791,4.551,1.791s4.55-.8,4.55-1.791-2.038-1.791-4.55-1.791-4.551.8-4.551,1.791" transform="translate(-268.823 -12.157)" fill="#f56c63"/>
        <path id="Path_2079" data-name="Path 2079" d="M409.637,67.436c.35.035.717.052,1.1.052,2.511,0,4.547-.8,4.547-1.791s-2.037-1.792-4.547-1.792c-.34,0-.671.015-.989.043Z" transform="translate(-272.424 -12.158)" fill="#f56c63"/>
        <path id="Path_2082" data-name="Path 2082" d="M436.6,72.536c.065.151,1.852,4.3,4.423,5.514l.014-.014.154-2.856a9.747,9.747,0,0,1-4.591-2.645" transform="translate(-265.923 -10.077)" fill="#141944"/>
        <path id="Path_2083" data-name="Path 2083" d="M438.61,65.664s5.432-7.3,9.411-1.562c3.28,4.725-2.92,17.037-9.411,12.819Z" transform="translate(-265.44 -12.64)" fill="#ff9b79"/>
        <path id="Path_2084" data-name="Path 2084" d="M439.317,74a.559.559,0,0,0,.555-.5,9.338,9.338,0,0,1,5.426-7.527.559.559,0,0,0-.414-1.037,10.455,10.455,0,0,0-6.122,8.443.558.558,0,0,0,.494.616.522.522,0,0,0,.062,0" transform="translate(-265.405 -11.918)" fill="#141944"/>
        <path id="Path_2085" data-name="Path 2085" d="M444.183,69.968a.559.559,0,0,0,.354-.992c-.223-.182-2.228-1.76-3.906-1.332a.559.559,0,0,0,.277,1.083c.964-.247,2.437.721,2.924,1.114a.551.551,0,0,0,.351.125" transform="translate(-265.055 -11.274)" fill="#141944"/>
        <path id="Path_2087" data-name="Path 2087" d="M529.846,115.062s7.523,7.6,14.953,4.636c6-2.4,7.327-10.736,7.619-13.855.068-.747.078-1.193.078-1.193a10.7,10.7,0,0,0,.972-.644c1.322-.966,3.5-2.924,3.26-5.223-.339-3.278-6.287-1.451-6.287-1.451s.9-3.96-.856-5.123c-1.73-1.143-5.276.882-5.276.882s1.92-4.85-.709-6.021c-3.954-1.759-5.268,4.2-5.431,4.6.043-.432,1.925-18.71-1.215-17.772-2.739.818-5.263,16.094-5.9,20.25-.1.659-.155,1.036-.155,1.036s-.22-.006-.592,0c-1.761.051-6.942.518-7.891,4.125-1.148,4.36,7.429,15.751,7.429,15.751" transform="translate(-245.265 -9.758)" fill="#ff9b79"/>
        <path id="Path_2088" data-name="Path 2088" d="M542.063,97.751a6.526,6.526,0,0,0-.648,4.049,1.923,1.923,0,0,0,1.284,1.394,3.646,3.646,0,0,0,1.657.025,20.2,20.2,0,0,0,4.883-1.772c.071-.748.078-1.193.078-1.193a10.192,10.192,0,0,0,.974-.644.6.6,0,0,0-.335.079c-2.015,1.106-5.665,2.719-6.885,2.329a.713.713,0,0,1-.472-.555c-.338-1.205.565-3.763,1.854-5.258a.616.616,0,0,0-.83-.9c-1.227.906-4.8,3.124-6.57,2.559-.258-.083-.293-.2-.308-.266a2.072,2.072,0,0,1,.267-1.239,15.171,15.171,0,0,1,2.183-3.234.621.621,0,0,0-.057-.87.619.619,0,0,0-.874.057,16.748,16.748,0,0,0-2.223,3.213,5.266,5.266,0,0,0-.519,1.539,2.1,2.1,0,0,0,.032.867,1.6,1.6,0,0,0,1.123,1.108c1.57.5,3.742-.388,5.384-1.291" transform="translate(-242.088 -5.361)" fill="#f56c63"/>
        <path id="Path_2089" data-name="Path 2089" d="M533.34,92.531a.606.606,0,0,1,.441.531,3.97,3.97,0,0,0,.542,1.911.7.7,0,0,0,.633.356,2.413,2.413,0,0,0,1.015-.372,18.145,18.145,0,0,0,3.3-2.74.6.6,0,0,1-.148.34,15.132,15.132,0,0,0-2.182,3.235c-.124.081-.249.155-.37.225a4.669,4.669,0,0,1-1.121.479,2.141,2.141,0,0,1-.443.066,1.921,1.921,0,0,1-1.684-.866,5.145,5.145,0,0,1-.778-2.542.6.6,0,0,1,.773-.628l.02,0" transform="translate(-242.799 -5.334)" fill="#f56c63"/>
        <path id="Path_2090" data-name="Path 2090" d="M526.175,99.926a20.33,20.33,0,0,0,4.876-.13,6.944,6.944,0,0,0,3.4-1.374,3.075,3.075,0,0,0,1.087-2.321c.072-3.274-3.279-5.1-5.286-5.9-.1.659-.155,1.036-.155,1.036s-.22-.006-.591,0c1.688.632,4.859,2.174,4.8,4.828a1.851,1.851,0,0,1-.669,1.422c-1.641,1.447-5.852,1.359-7.336,1.2a.616.616,0,0,0-.129,1.226" transform="translate(-244.467 -5.819)" fill="#f56c63"/>
        <path id="Path_2091" data-name="Path 2091" d="M537.7,110.339a.618.618,0,0,0,.117-1.186,5.545,5.545,0,0,1-3.443-3.219c-1.454-3.816,1.27-9.107,1.3-9.159a.617.617,0,0,0-1.093-.572c-.124.237-3.007,5.842-1.356,10.17a6.73,6.73,0,0,0,4.16,3.934.615.615,0,0,0,.319.032" transform="translate(-242.758 -4.453)" fill="#f56c63"/>
        <path id="Path_2092" data-name="Path 2092" d="M467.03,99.914l12.861,11.169q3.085,2.88,6.19,5.716t6.192,5.652c2.075,1.855,4.133,3.713,6.2,5.528s4.135,3.588,6.183,5.291,4.078,3.359,5.989,4.779c.947.7,1.868,1.348,2.615,1.835l.5.318.2.127a.364.364,0,0,1,.073.065,1.211,1.211,0,0,1,.16.169c.067.087.057.155.141.222a.958.958,0,0,0,.637.1,9.778,9.778,0,0,0,3.606-1.4,31.056,31.056,0,0,0,4.942-3.692,66.852,66.852,0,0,0,5.08-5.1,125.683,125.683,0,0,0,9.588-12.353c3.055-4.407,5.214-7.809,7.972-12.5A20.65,20.65,0,0,0,564.9,113a167.011,167.011,0,0,1-7.248,16.727,129.948,129.948,0,0,1-9.537,16.2,82.76,82.76,0,0,1-6.19,7.879,58.061,58.061,0,0,1-8.059,7.527,40.554,40.554,0,0,1-5.25,3.407,34.407,34.407,0,0,1-6.513,2.714,29.739,29.739,0,0,1-7.861,1.242,28.634,28.634,0,0,1-8.329-1.062,30.1,30.1,0,0,1-3.852-1.365l-.894-.4-.752-.366c-.261-.127-.474-.241-.709-.361s-.47-.243-.678-.357c-1.739-.942-3.229-1.848-4.655-2.751-2.831-1.8-5.377-3.592-7.872-5.4s-4.862-3.649-7.218-5.489-4.665-3.692-6.934-5.577-4.525-3.767-6.752-5.672-4.422-3.836-6.611-5.767-4.347-3.9-6.494-5.871l-3.211-2.981-1.595-1.513c-.539-.511-1.051-1-1.617-1.554Z" transform="translate(-263.643 -3.478)" fill="#ffc331"/>
        <path id="Path_2093" data-name="Path 2093" d="M477.6,146.329a.775.775,0,0,1-.444-.14c-8.49-5.943-23.588-18.465-23.74-18.591a.776.776,0,0,1,.99-1.194c.151.125,15.2,12.606,23.639,18.514a.776.776,0,0,1-.446,1.411" transform="translate(-261.939 2.864)" fill="#dc7f21"/>
        <path id="Path_2094" data-name="Path 2094" d="M460.009,131.982a.7.7,0,0,1-.113-.009l-5.982-.869a.776.776,0,0,1,.223-1.535l5.982.87a.775.775,0,0,1-.11,1.543" transform="translate(-261.911 3.667)" fill="#dc7f21"/>
        <path id="Path_2095" data-name="Path 2095" d="M542.135,120.241a.79.79,0,0,0-.534-1.473c-11.264,2.454-16.873-8.29-16.928-8.4a.792.792,0,0,0-1.064-.346l-.006,0a.789.789,0,0,0-.339,1.059c.061.12,6.23,11.936,18.673,9.226a.746.746,0,0,0,.2-.071" transform="translate(-245.057 -1.062)" fill="#dc7f21"/>
        <path id="Path_2096" data-name="Path 2096" d="M534.011,120.378a.785.785,0,0,0,.361-.39l3.708-8.659a.79.79,0,0,0-1.452-.622l-3.708,8.659a.79.79,0,0,0,1.091,1.011" transform="translate(-242.724 -0.992)" fill="#dc7f21"/>
        <path id="Path_2097" data-name="Path 2097" d="M528.466,112.087a1.369,1.369,0,1,0,.583-1.845,1.367,1.367,0,0,0-.583,1.845" transform="translate(-243.819 -1.026)" fill="#dc7f21"/>
        <path id="Path_2098" data-name="Path 2098" d="M499.858,142.549a.786.786,0,0,0,.416-.572,34.113,34.113,0,0,1,2.306-7.864.79.79,0,1,0-1.407-.717,34.994,34.994,0,0,0-2.457,8.324.79.79,0,0,0,1.143.83" transform="translate(-250.956 4.487)" fill="#dc7f21"/>
        <path id="Path_2099" data-name="Path 2099" d="M504.558,140.634a.879.879,0,0,0,.144-.1.792.792,0,0,0,.1-1.113,14.5,14.5,0,0,1-2.746-5.258.79.79,0,1,0-1.549.315,15.9,15.9,0,0,0,3.084,5.958.79.79,0,0,0,.969.194" transform="translate(-250.525 4.625)" fill="#dc7f21"/>
      </g>
    </g>
    <g id="Group_1338" data-name="Group 1338">
      <g id="Group_1337" data-name="Group 1337" clip-path="url(#clip-path)">
        <path id="Path_2101" data-name="Path 2101" d="M359.5,415.06C359.5,421.1,279.026,426,179.752,426S0,421.1,0,415.06s80.478-10.938,179.752-10.938S359.5,409.019,359.5,415.06" transform="translate(0 97.406)" fill="#ccd3e6"/>
        <path id="Path_2102" data-name="Path 2102" d="M141.151,169.606,159.308,236l-6.473-7.461a32.989,32.989,0,0,0,8.244,2.942A59.641,59.641,0,0,0,171,232.748c3.5.181,7.152.15,10.881,0s7.545-.436,11.416-.766h.021a10.377,10.377,0,0,1,2.516,20.586c-3.992.637-8.053,1.239-12.218,1.721s-8.434.843-12.856.942a82.608,82.608,0,0,1-13.734-.756,57.031,57.031,0,0,1-14.417-3.984,11.294,11.294,0,0,1-6.242-6.772l-.231-.689-21.783-65.291a14.009,14.009,0,0,1,26.578-8.867c.077.231.159.506.223.738" transform="translate(27.387 38.394)" fill="#ff9b79"/>
        <path id="Path_2103" data-name="Path 2103" d="M160.379,369.131a2.4,2.4,0,0,1-.814-.143L64.447,334.694a2.4,2.4,0,1,1,1.627-4.514l95.118,34.293a2.4,2.4,0,0,1-.813,4.656" transform="translate(15.151 79.549)" fill="#dc7f21"/>
        <path id="Path_2104" data-name="Path 2104" d="M62.076,369.24a2.4,2.4,0,0,1-.817-4.655l96.247-34.858a2.4,2.4,0,0,1,1.634,4.511L62.893,369.1a2.381,2.381,0,0,1-.817.144" transform="translate(14.384 79.44)" fill="#dc7f21"/>
        <path id="Path_2105" data-name="Path 2105" d="M171.217,438.123a4.108,4.108,0,0,1-4.064-3.562L149.972,306.282H78.079L61.166,434.554a4.106,4.106,0,0,1-8.141-1.075l17.383-131.84a4.106,4.106,0,0,1,4.071-3.569h79.086a4.106,4.106,0,0,1,4.069,3.56l17.657,131.841a4.112,4.112,0,0,1-4.074,4.651" transform="translate(12.772 71.844)" fill="#ffc331"/>
        <path id="Path_2106" data-name="Path 2106" d="M133.278,328.866H81.914c-16.274,0-33.7-8.906-36.2-24.986a304.993,304.993,0,0,1-3.234-61.432,74.8,74.8,0,0,1,28.364-55.115s10.26,44.713-2.642,106.426c4.927,23.449,65.073,35.108,65.073,35.108" transform="translate(10.153 45.153)" fill="#ffc331"/>
        <path id="Path_2107" data-name="Path 2107" d="M116.165,92.453S110.055,77.74,93.893,80.51c-11.3,1.937-16.111,16.014-15.446,37.747.968,31.634-9.732,50.695-9.732,50.695l14.2,3.229s36.152-54.228,33.247-79.729" transform="translate(16.562 19.322)" fill="#141944"/>
        <path id="Path_2108" data-name="Path 2108" d="M240.055,396.041H217.113s-5.309-25.465-7.09-39.745-2.707-48.131-2.707-48.131-18.284,5.937-56.555,3.7c-84.8-4.953-52.645-67.254-52.645-67.254,2.864,3.958,20.414,1.212,32.41,3.1,36.818,3.533,68.746,17.984,87.908,26.25a95.4,95.4,0,0,1,12.309,6.312c4.62,2.847,7.511,11.487,9.252,22.851,5.236,34.154.06,92.914.06,92.914" transform="translate(22.208 58.959)" fill="#141944"/>
        <path id="Path_2109" data-name="Path 2109" d="M218.791,383.579a.821.821,0,0,1-.8-.659c-3.309-16.382-4.419-36.771-5.313-53.153-.741-13.584-1.44-26.415-3.184-27.958-1.414-1.249-7.282-.274-14.712.959-14.779,2.454-37.114,6.162-61.745.431-13.417-3.122-23.279-9.639-29.316-19.371-10.409-16.781-5.663-37.588-5.614-37.8a.821.821,0,0,1,1.6.376c-.047.2-4.633,20.372,5.42,36.566,5.8,9.341,15.314,15.607,28.284,18.625,24.312,5.657,46.453,1.981,61.1-.452,8.774-1.456,14.07-2.336,16.069-.57,2.159,1.909,2.766,11.291,3.737,29.1.891,16.329,2,36.653,5.283,52.918a.826.826,0,0,1-.805.984" transform="translate(23.375 59.149)" fill="#575759"/>
        <path id="Path_2110" data-name="Path 2110" d="M216.793,357.516h-.017l-25.512-.547a.821.821,0,1,1,.035-1.642l25.512.549a.821.821,0,0,1-.017,1.642" transform="translate(45.907 85.644)" fill="#575759"/>
        <path id="Path_2111" data-name="Path 2111" d="M214.9,396.023H198.706l-3.119-19-1.708-10.395H214l.319,10.395Z" transform="translate(46.731 88.369)" fill="#ff9b79"/>
        <path id="Path_2112" data-name="Path 2112" d="M214.567,394H198.374l-2.323-14.144-.8-4.855h18.73l.155,5.034Z" transform="translate(47.063 90.388)" fill="#ffc331"/>
        <path id="Path_2113" data-name="Path 2113" d="M214.141,380.038l-18.089-.177-.8-4.855h18.73Z" transform="translate(47.063 90.388)" fill="#dc7f21"/>
        <path id="Path_2114" data-name="Path 2114" d="M255.079,416.763H193.83a8.577,8.577,0,0,1-.8-3.4c-.383-5.181,1.267-13.449,2.077-18.661.1-.611.184-1.178.248-1.692a18.006,18.006,0,0,0,.184-2.131c0-4.253,3.765-3.525,3.765-3.525,6.2,6.079,13.214-3.034,17.314-.046,0,0,.166.122.541.416.345.271.866.691,1.592,1.3,1.044.872,2.509,2.14,4.494,3.923,4.86,4.376,13.13,7.263,20.172,10.206.9.376,1.73.751,2.5,1.123.587.283,1.139.568,1.662.85,5.755,3.108,7.588,6.077,8,8.235a4.776,4.776,0,0,1-.5,3.4" transform="translate(46.512 93.204)" fill="#00ade5"/>
        <path id="Path_2115" data-name="Path 2115" d="M244.108,404.925c-1.577,1.256-5.086,3.768-7.9,3.768-.124,0-.248,0-.37-.014-1.987-.166-9.285-3.754-15.225-7.017-3.4-1.871-6.51-3.712-8.747-5.187-3.666-2.416-4.3-3.34-4.445-3.98-.536-2.416,3.461-4.1,6.263-4.973.344.271.866.691,1.592,1.3-3.48.948-6.339,2.436-6.208,3.283.343.717,3.966,3.48,12.634,8.224,6.613,3.619,12.886,6.546,14.277,6.662,1.885.153,4.658-1.564,6.466-2.916.587.283,1.141.568,1.663.85" transform="translate(49.983 93.405)" fill="#004ecb"/>
        <path id="Path_2116" data-name="Path 2116" d="M255.068,411.583H193.822a8.558,8.558,0,0,1-.807-3.4H255.57a4.779,4.779,0,0,1-.5,3.4" transform="translate(46.523 98.384)" fill="#004ecb"/>
        <path id="Path_2117" data-name="Path 2117" d="M199.666,415.536h-1.819a13.443,13.443,0,0,0,3.292-9.807,17.267,17.267,0,0,0-6.45-12.256c.1-.609.182-1.178.248-1.692a18.764,18.764,0,0,1,7.66,13.875,14.869,14.869,0,0,1-2.931,9.88" transform="translate(46.926 94.431)" fill="#004ecb"/>
        <path id="Path_2118" data-name="Path 2118" d="M216.721,395.219a1.009,1.009,0,0,1-.242-1.989l3.826-.949a1.009,1.009,0,1,1,.485,1.958l-3.825.951a1.038,1.038,0,0,1-.244.03" transform="translate(51.993 94.544)" fill="#fff"/>
        <path id="Path_2119" data-name="Path 2119" d="M213.657,392.653a1.01,1.01,0,0,1-.242-1.989l3.826-.949a1.009,1.009,0,1,1,.485,1.958l-3.825.951a1.039,1.039,0,0,1-.245.03" transform="translate(51.255 93.926)" fill="#fff"/>
        <path id="Path_2120" data-name="Path 2120" d="M219.8,397.011a1.009,1.009,0,0,1-.242-1.989l3.826-.949a1.009,1.009,0,1,1,.485,1.958l-3.825.951a1.038,1.038,0,0,1-.244.03" transform="translate(52.736 94.976)" fill="#fff"/>
        <path id="Path_2121" data-name="Path 2121" d="M222.887,398.734a1.01,1.01,0,0,1-.242-1.989l3.826-.949a1.009,1.009,0,1,1,.485,1.958l-3.825.951a1.038,1.038,0,0,1-.245.03" transform="translate(53.48 95.392)" fill="#fff"/>
        <path id="Path_2122" data-name="Path 2122" d="M226.248,400.327a1.009,1.009,0,0,1-.242-1.988l3.825-.951a1.009,1.009,0,1,1,.486,1.958l-3.825.951a1.037,1.037,0,0,1-.244.03" transform="translate(54.29 95.776)" fill="#fff"/>
        <path id="Path_2123" data-name="Path 2123" d="M229.893,401.686a1.009,1.009,0,0,1-.242-1.989l3.826-.949a1.009,1.009,0,1,1,.486,1.958l-3.826.951a1.037,1.037,0,0,1-.244.03" transform="translate(55.168 96.103)" fill="#fff"/>
        <path id="Path_2124" data-name="Path 2124" d="M62.74,230.041s-.726,4.946,5.9,6.337l69.1,2.3a7.792,7.792,0,0,0,3.827-8.134s-29.174-16.385-78.827-.508" transform="translate(15.117 53.777)" fill="#004ecb"/>
        <path id="Path_2125" data-name="Path 2125" d="M138.5,252.624c-35.866,19.729-75.028,3.842-75.028,3.842a108.953,108.953,0,0,0,4.365-16.483c1.2-6.237,1.865-11.748,2.171-14.644,15.257-.838,52.653-2.427,67.307,1.047l.117,5.873Z" transform="translate(15.299 54.049)" fill="#ff9b79"/>
        <path id="Path_2126" data-name="Path 2126" d="M103.138,240.176c-.266,1.849-1.1,3.259-1.865,3.15s-1.17-1.7-.9-3.547,1.1-3.26,1.865-3.15,1.17,1.7.9,3.547" transform="translate(24.172 57.034)" fill="#f56c63"/>
        <path id="Path_2127" data-name="Path 2127" d="M136.587,232.257c-15.272-.928-45.326-1.25-69.595,7.724,1.2-6.237,1.867-11.748,2.171-14.644,15.258-.836,52.654-2.427,67.307,1.049Z" transform="translate(16.147 54.048)" fill="#f56c63"/>
        <path id="Path_2128" data-name="Path 2128" d="M155.2,223a8.485,8.485,0,0,1-.515,1.246c-.073.146-.149.293-.228.436a33.9,33.9,0,0,1-7.384,8.847c-.519.454-1.015.872-1.476,1.247-.92.746-1.7,1.325-2.236,1.709-.494.354-.783.537-.783.537,0,.034-.006.067-.01.107-.027.264-.048.545-.073.84-.084,1.128-.161,2.475-.216,4.009-.048,1.234-.082,2.588-.115,4.041-.019,1.078-.04,2.207-.052,3.379-20.27-9.055-62.013-3.34-78.827-.509q.462-2.18.848-4.263a132.6,132.6,0,0,0,2.121-17.357c.4-7.7-.274-19.266-1.907-31.216-.1-.777-.213-1.549-.326-2.326-.073-.506-.149-1.009-.231-1.514-.573-3.752-1.241-7.509-2-11.154-3.316-15.905-.987-32.6,15.138-34.575,1.17-.144,2.324-.274,3.444-.393,7.6-.81,13.854-1.088,15.591-1.155l.482-.017,31.173,9.055,2.966.859q2.554.823,4.736,1.6c.622.226,1.225.444,1.8.661q2.267.851,4.126,1.669a34.421,34.421,0,0,1,6.038,3.292c6.839,4.855,5.778,10.34,5.6,21.174,0,.048,0,.1,0,.146,0,.137,0,.274-.006.417,0,.061,0,.125,0,.186-.006.442-.006.884,0,1.325q.015,2.1.144,4.185c.115,2.045.3,4.078.521,6.071.088.8.18,1.593.277,2.379.092.741.186,1.478.284,2.207,1.248,9.484,2.794,17.8,1.1,22.857" transform="translate(14.577 34.93)" fill="#00ade5"/>
        <path id="Path_2129" data-name="Path 2129" d="M136.48,175.9c0,.138,0,.274-.006.417,0,.062,0,.125,0,.186-.006.442-.006.884,0,1.327l-6.55,4.11a.914.914,0,1,1-.972-1.548l6.945-4.358a.918.918,0,0,1,.586-.134" transform="translate(30.978 42.397)" fill="#004ecb"/>
        <path id="Path_2130" data-name="Path 2130" d="M100.31,205.6A.914.914,0,0,1,99.7,204l6.095-5.487a.915.915,0,0,1,1.224,1.36l-6.095,5.485a.91.91,0,0,1-.612.235" transform="translate(23.957 47.792)" fill="#004ecb"/>
        <path id="Path_2131" data-name="Path 2131" d="M137.022,189.846l-4.175,3.758a.915.915,0,1,1-1.226-1.359l5.118-4.605c.091.741.185,1.478.283,2.207" transform="translate(31.652 45.227)" fill="#004ecb"/>
        <path id="Path_2132" data-name="Path 2132" d="M90.2,186.682a.914.914,0,0,1,.961-1.411l7.982,1.88a.914.914,0,1,1-.419,1.78l-7.982-1.88a.911.911,0,0,1-.541-.369" transform="translate(21.703 44.65)" fill="#004ecb"/>
        <path id="Path_2133" data-name="Path 2133" d="M67.4,200.44a.914.914,0,0,1-.612-1.593l6.095-5.487a.915.915,0,0,1,1.224,1.36l-6.1,5.485a.907.907,0,0,1-.611.235" transform="translate(16.026 46.549)" fill="#004ecb"/>
        <path id="Path_2134" data-name="Path 2134" d="M124.4,198.088a.914.914,0,0,1,1.705-.076l3.275,7.518a.914.914,0,1,1-1.677.73l-3.274-7.518a.905.905,0,0,1-.03-.654" transform="translate(29.973 47.595)" fill="#004ecb"/>
        <path id="Path_2135" data-name="Path 2135" d="M137.934,208.128a8.485,8.485,0,0,1-.515,1.246c-.073.146-.149.293-.228.436l-4.453-1.4a.919.919,0,0,1-.6-1.147.912.912,0,0,1,1.145-.6Z" transform="translate(31.839 49.802)" fill="#004ecb"/>
        <path id="Path_2136" data-name="Path 2136" d="M117.751,208.364a.914.914,0,0,1,.769,1.524l-5.51,6.072a.914.914,0,1,1-1.354-1.229l5.51-6.072a.907.907,0,0,1,.585-.3" transform="translate(26.855 50.221)" fill="#004ecb"/>
        <path id="Path_2137" data-name="Path 2137" d="M114.053,198.28a.914.914,0,0,1-.33-1.675l6.946-4.36a.914.914,0,1,1,.972,1.549l-6.945,4.36a.911.911,0,0,1-.643.127" transform="translate(27.308 46.303)" fill="#004ecb"/>
        <path id="Path_2138" data-name="Path 2138" d="M119.365,176.034a.914.914,0,0,1-.781,1.518l-8.152-.887a.914.914,0,0,1,.2-1.818l8.152.889a.907.907,0,0,1,.582.3" transform="translate(26.421 42.142)" fill="#004ecb"/>
        <path id="Path_2139" data-name="Path 2139" d="M107.926,161.689a.914.914,0,0,1,1.693-.216L113.5,168.7a.914.914,0,1,1-1.611.865l-3.879-7.224a.9.9,0,0,1-.083-.649" transform="translate(26.007 38.804)" fill="#004ecb"/>
        <path id="Path_2140" data-name="Path 2140" d="M130.758,216.85c-.519.454-1.015.871-1.476,1.246l-1.072-2.73a.914.914,0,1,1,1.7-.67Z" transform="translate(30.887 51.609)" fill="#004ecb"/>
        <path id="Path_2141" data-name="Path 2141" d="M69.874,205.387a.914.914,0,0,1,1.114-1.293l7.717,2.776a.915.915,0,1,1-.619,1.721l-7.715-2.777a.9.9,0,0,1-.5-.427" transform="translate(16.816 49.18)" fill="#004ecb"/>
        <path id="Path_2142" data-name="Path 2142" d="M74.271,213.528a.914.914,0,0,1,.6,1.6l-6.142,5.434a.914.914,0,0,1-1.211-1.37l6.142-5.433a.91.91,0,0,1,.613-.23" transform="translate(16.199 51.467)" fill="#004ecb"/>
        <path id="Path_2143" data-name="Path 2143" d="M83.752,220.816a.914.914,0,0,1-.87,1.468L74.8,220.908a.915.915,0,1,1,.307-1.8l8.084,1.378a.91.91,0,0,1,.563.334" transform="translate(17.845 52.808)" fill="#004ecb"/>
        <path id="Path_2144" data-name="Path 2144" d="M87.319,158.845a.914.914,0,0,1,1.378-1.008l6.891,4.445a.914.914,0,0,1-.992,1.536l-6.89-4.445a.911.911,0,0,1-.387-.529" transform="translate(21.039 38.008)" fill="#004ecb"/>
        <path id="Path_2145" data-name="Path 2145" d="M125.823,162.864a.914.914,0,0,1,1.3,1.109l-2.743,7.728a.914.914,0,1,1-1.723-.612l2.741-7.728a.909.909,0,0,1,.426-.5" transform="translate(29.551 39.228)" fill="#004ecb"/>
        <path id="Path_2146" data-name="Path 2146" d="M123.371,154.853l-4.236,5.431a.914.914,0,0,1-1.442-1.124l3.873-4.968c.622.226,1.225.446,1.8.661" transform="translate(28.321 37.165)" fill="#004ecb"/>
        <path id="Path_2147" data-name="Path 2147" d="M88.867,215.674a.748.748,0,0,0,.562.5.727.727,0,0,0,.381-.022,43.079,43.079,0,0,1,27.355,1.442,46.659,46.659,0,0,0,18.493,3.96c.022-.3.045-.576.072-.841,0-.037.006-.071.01-.1,0,0,.288-.185.783-.539-5.011.246-11.436-.813-18.784-3.856a43.8,43.8,0,0,0-28.4-1.478.744.744,0,0,0-.473.943" transform="translate(21.411 51.35)" fill="#004ecb"/>
        <path id="Path_2148" data-name="Path 2148" d="M120.718,153.972c-1.745,2.708-5.351,5.776-12.647,5.246-10.067-.73-16.693-10.334-19.006-14.283.314-.012.48-.016.48-.016Z" transform="translate(21.467 34.93)" fill="#004ecb"/>
        <path id="Path_2149" data-name="Path 2149" d="M110.062,171.936a7.331,7.331,0,0,0,.891.127,7.765,7.765,0,0,0,6.7-2.4c4.841-5.289,2.853-17.346,2.766-17.856a.747.747,0,1,0-1.472.251c.02.118,1.953,11.848-2.4,16.6a6.266,6.266,0,0,1-5.479,1.917c-9.757-.786-20.684-25.56-20.793-25.811a.746.746,0,0,0-1.368.6c.448,1.025,10.812,24.479,21.151,26.574" transform="translate(21.415 34.785)" fill="#fff"/>
        <path id="Path_2150" data-name="Path 2150" d="M130.446,158.723c-.643,7.153,1.117,18.953,5.732,27.434-.108-1.831-.159-3.667-.139-5.51,0-.061,0-.125,0-.186l.011-.562c.174-10.834,1.232-16.322-5.6-21.176" transform="translate(31.411 38.257)" fill="#ff9b79"/>
        <path id="Path_2151" data-name="Path 2151" d="M89.936,174.407c-3.577,13.8-16.652,24.873-25.6,21.418-.105-.776-.216-1.548-.329-2.324-.072-.505-.149-1.008-.23-1.515-.572-3.752-1.242-7.508-2-11.154-3.314-15.9-.985-32.6,15.138-34.574,1.172-.143,2.324-.274,3.445-.393,8.074,3.44,13.692,12.654,9.575,28.544" transform="translate(14.577 35.158)" fill="#ff9b79"/>
        <path id="Path_2152" data-name="Path 2152" d="M91.869,162.7l20.955,76.62-7.47-8.61a38.052,38.052,0,0,0,9.514,3.4,68.865,68.865,0,0,0,11.446,1.467c4.041.21,8.253.174,12.558-.006s8.708-.5,13.175-.882l.024,0a11.976,11.976,0,0,1,2.9,23.758c-4.608.735-9.294,1.43-14.1,1.986s-9.736.973-14.838,1.088a95.35,95.35,0,0,1-15.85-.872,65.793,65.793,0,0,1-16.64-4.6,13.033,13.033,0,0,1-7.2-7.816l-.266-.794L60.939,172.077a16.167,16.167,0,1,1,30.672-10.232c.088.266.184.585.258.851" transform="translate(14.487 36.345)" fill="#ff9b79"/>
        <path id="Path_2153" data-name="Path 2153" d="M93.377,220.969a.62.62,0,0,1-.308-1.159,26.132,26.132,0,0,1,9.57-3.069.62.62,0,1,1,.1,1.237,25.358,25.358,0,0,0-9.051,2.909.611.611,0,0,1-.307.082" transform="translate(22.357 52.241)" fill="#f56c63"/>
        <path id="Path_2154" data-name="Path 2154" d="M100.813,218.569a.61.61,0,0,1-.321-.091,16.347,16.347,0,0,0-6.422-2.022.62.62,0,1,1,.088-1.237,17.4,17.4,0,0,1,6.978,2.2.621.621,0,0,1-.323,1.152" transform="translate(22.534 51.874)" fill="#f56c63"/>
        <path id="Path_2155" data-name="Path 2155" d="M119.373,189.3c9.273,1.879,13.33-7.711,13.37-7.807a.746.746,0,1,0-1.38-.567c-.15.362-3.644,8.543-11.693,6.911-8.448-1.711-24.208-18.335-24.365-18.5a.746.746,0,1,0-1.086,1.024c.659.7,16.248,17.137,25.154,18.942" transform="translate(22.661 40.758)" fill="#004ecb"/>
        <path id="Path_2156" data-name="Path 2156" d="M106.767,148.152s-14.881-2.8-19.077-17.82c-3.995-14.3-.92-21.716,3.235-29.44,3.129-5.817,13.053-13.679,26.971-10.858,14.053,2.847,24.558,10.06,26.11,21.614,2.905,21.621-14.539,48-37.24,36.5" transform="translate(20.688 21.559)" fill="#141944"/>
        <path id="Path_2157" data-name="Path 2157" d="M88.689,132.8a.774.774,0,0,1-.674-.391c-.269-.473-6.534-11.731-1.334-26.551a24.285,24.285,0,0,1,14.442-15.241,26.063,26.063,0,0,1,9.733-1.8.775.775,0,0,1-.076,1.549,25.045,25.045,0,0,0-9.158,1.718c-6.5,2.521-11.036,7.327-13.478,14.286a32.744,32.744,0,0,0,1.217,25.269.776.776,0,0,1-.674,1.159" transform="translate(20.397 21.406)" fill="#ffc331"/>
        <path id="Path_2158" data-name="Path 2158" d="M126.315,124.723s4.843-3.824,6.116,1.241-2.318,14.063-7.955,11.331Z" transform="translate(30.003 29.729)" fill="#f56c63"/>
        <path id="Path_2159" data-name="Path 2159" d="M123.162,131.977a7.7,7.7,0,0,0-5.073,5.577,7.292,7.292,0,1,0,11.271-4.565,7.218,7.218,0,0,0-2.676-1.134l-.071-.012a1.2,1.2,0,0,0,.2,1.206,6.089,6.089,0,0,1,2.143,1.046,6.159,6.159,0,1,1-9.758,3.683,5.981,5.981,0,0,1,4.536-4.68Z" transform="translate(28.428 31.778)" fill="#ffc331"/>
        <path id="Path_2160" data-name="Path 2160" d="M119.74,144.21l-2.029,12.677s-9.49,9.687-26.826-7.692c4.654-3.467,6.43-11.5,5.886-16.693a25.188,25.188,0,0,1,3.472,2.728,13.756,13.756,0,0,0,1.456,1.015c4.582,3.117,11.6,7.172,18.041,7.965" transform="translate(21.906 31.937)" fill="#ff9b79"/>
        <path id="Path_2161" data-name="Path 2161" d="M117.923,143.68l-.962,6.01c-5.2-2.317-14.395-7.272-18.535-14.99q.678.484,1.456,1.015c4.582,3.117,11.6,7.172,18.041,7.965" transform="translate(23.724 32.467)" fill="#141944"/>
        <path id="Path_2162" data-name="Path 2162" d="M137.96,127.546c-.269,1.342-.525,2.617-.778,3.831q-.4,1.975-.792,3.727c-1.919,8.775-3.5,13.475-6.061,15.235-12.941,8.9-34.005-9.122-34.683-9.7l-.017-.017c-.016-1.034-.016-2.058,0-3.063a79.225,79.225,0,0,1,3.918-23.3,17.877,17.877,0,0,1,14.895-15.116c8.018-1.208,14.048,3.433,17.82,5.487,5.7,3.105,7.925,11.728,5.7,22.917" transform="translate(23.047 23.849)" fill="#ff9b79"/>
        <path id="Path_2163" data-name="Path 2163" d="M99.184,107.478s9.057-17.42,27.128-12.56,19.03,13.255,19.348,17.451-9.357-3.238-9.357-3.238-.331,8.392-3.557,5.807c-3.955-3.171-8.381-10.015-8.381-10.015s-10.762,10.577-20.99,7.724c-5.808-1.62-4.191-5.169-4.191-5.169" transform="translate(23.857 22.672)" fill="#141944"/>
        <path id="Path_2164" data-name="Path 2164" d="M117.851,136.3a6.088,6.088,0,0,1-4.04-1.706.646.646,0,0,1,.926-.9,4.47,4.47,0,0,0,4.407,1.1.645.645,0,1,1,.418,1.221,5.265,5.265,0,0,1-1.711.29" transform="translate(27.388 32.178)" fill="#f56c63"/>
        <path id="Path_2165" data-name="Path 2165" d="M112.674,127.26s8.716,2.583,13.234,2.583c0,0-2.26,6.456-8.716,4.2a6.639,6.639,0,0,1-4.519-6.779" transform="translate(27.154 30.674)" fill="#fff"/>
        <path id="Path_2168" data-name="Path 2168" d="M116.288,124.269c-.211,1.036-2.513,1.443-5.145.91s-4.593-1.8-4.383-2.841,2.513-1.443,5.143-.91,4.6,1.8,4.386,2.841" transform="translate(25.729 29.212)" fill="#f56c63"/>
        <path id="Path_2169" data-name="Path 2169" d="M136.568,124.455l-7.038-1.2c-.037.3-.109.59-.176.884a.667.667,0,0,1-.05.143l7.088,1.209a.525.525,0,0,0,.606-.429.512.512,0,0,0-.429-.606" transform="translate(31.166 29.708)" fill="#fff"/>
        <path id="Path_2170" data-name="Path 2170" d="M123.463,121.1a7.879,7.879,0,0,0-.065-1.071,8.886,8.886,0,0,0-2.372-5.039,8.782,8.782,0,0,0-4.547-2.565.554.554,0,0,0-.087-.021,8.879,8.879,0,0,0-9.855,4.989,7.578,7.578,0,0,0-.38.984,8.159,8.159,0,0,0-.243.913,8.834,8.834,0,0,0,1.141,6.45,8.924,8.924,0,0,0,5.747,4.028,8.875,8.875,0,0,0,10.477-6.888l0-.024a8.762,8.762,0,0,0,.18-1.757m-10.447,7.64c-.043-.009-.084-.017-.128-.03a7.822,7.822,0,0,1-5.946-9.2,7.94,7.94,0,0,1,.336-1.159.549.549,0,0,0,.027-.071,7.831,7.831,0,0,1,6.823-4.991,7.792,7.792,0,0,1,5.856,2.148,7.811,7.811,0,0,1-6.97,13.308" transform="translate(25.484 27.049)" fill="#fff"/>
        <path id="Path_2171" data-name="Path 2171" d="M135.244,116.655c-.24-.127-.484-.24-.738-.347a8.541,8.541,0,0,0-.925-.318c-.22-.066-.438-.119-.665-.168a8.841,8.841,0,0,0-1.242-.166,8.556,8.556,0,0,0-1.483.032,8.884,8.884,0,0,0-6.785,4.454,8.148,8.148,0,0,0-.505,1.035.307.307,0,0,0-.019.057,8.528,8.528,0,0,0-.443,1.476,8.874,8.874,0,0,0,3.261,8.81A8.784,8.784,0,0,0,128.583,133c.161.048.326.093.493.128.081.025.165.042.249.06a8.768,8.768,0,0,0,2.54.15c.133-.007.267-.022.4-.04a8.715,8.715,0,0,0,1.078-.211,8.866,8.866,0,0,0,1.9-16.431m3.531,9.431c-.035.169-.073.335-.122.5a6.226,6.226,0,0,1-.226.69,7.785,7.785,0,0,1-3.2,3.876,8.01,8.01,0,0,1-1.684.787,7.69,7.69,0,0,1-1.141.279c-.113.019-.223.035-.336.046a7.756,7.756,0,0,1-2.532-.1l-.233-.051c-.047-.012-.094-.025-.141-.034a7.753,7.753,0,0,1-3.275-1.771q-.2-.179-.39-.376a7.8,7.8,0,0,1-2.03-7,8.029,8.029,0,0,1,.547-1.675,7.863,7.863,0,0,1,7.111-4.562c.187,0,.375.011.57.022a7.975,7.975,0,0,1,1.008.143c.243.051.483.11.715.182a7.426,7.426,0,0,1,.943.36,6.976,6.976,0,0,1,.7.364,7.827,7.827,0,0,1,3.711,8.329" transform="translate(29.467 27.872)" fill="#fff"/>
        <path id="Path_2172" data-name="Path 2172" d="M97.428,118.337a.5.5,0,0,1-.176-.072.524.524,0,0,1-.16-.725c3.525-5.508,12-.563,12.08-.513a.525.525,0,0,1-.536.9c-.077-.046-7.682-4.478-10.659.176a.523.523,0,0,1-.549.231" transform="translate(23.382 27.704)" fill="#fff"/>
        <path id="Path_2173" data-name="Path 2173" d="M123.98,120.816a.524.524,0,0,1-.334-.228c-1.127-1.74-3.539-.961-3.563-.952a.525.525,0,0,1-.333-1c1.106-.369,3.525-.556,4.777,1.376a.525.525,0,0,1-.547.8" transform="translate(28.777 28.539)" fill="#fff"/>
        <g id="Group_1336" data-name="Group 1336" transform="translate(155.501 155.072)" opacity="0.8">
          <g id="Group_1335" data-name="Group 1335">
            <g id="Group_1334" data-name="Group 1334" clip-path="url(#clip-path-10)">
              <path id="Path_2174" data-name="Path 2174" d="M130.028,125.108q-.4,1.975-.792,3.727c-2.393-.577-4.118-1.763-3.92-2.738s2.267-1.394,4.712-.989" transform="translate(-125.3 -124.954)" fill="#f56c63"/>
            </g>
          </g>
        </g>
        <path id="Path_2178" data-name="Path 2178" d="M101.444,128.645c-.1.145-2.849,4.1-5.8,4.833h0l-.011-.016c-.02-1.035-.017-2.059,0-3.065a11.117,11.117,0,0,0,5.812-1.752" transform="translate(23.047 31.007)" fill="#141944"/>
        <path id="Path_2179" data-name="Path 2179" d="M102.038,121.28s-4.14-8.791-9.522-3.632c-4.437,4.251-.557,18.459,7.135,15.419Z" transform="translate(21.848 27.966)" fill="#ff9b79"/>
        <path id="Path_2180" data-name="Path 2180" d="M92.629,126.392a7.7,7.7,0,0,0-5.073,5.578,7.29,7.29,0,1,0,8.6-5.7c-.025,0-.047-.006-.071-.011a1.2,1.2,0,0,0,.2,1.205,6.16,6.16,0,1,1-7.615,4.731,5.977,5.977,0,0,1,4.536-4.68Z" transform="translate(21.068 30.432)" fill="#ffc331"/>
        <path id="Path_2181" data-name="Path 2181" d="M98.588,129.867a.575.575,0,0,0,.065.01.6.6,0,0,0,.649-.541A11.173,11.173,0,0,0,94.682,119.2a.6.6,0,0,0-.654,1,9.979,9.979,0,0,1,4.084,9.032.6.6,0,0,0,.475.639" transform="translate(22.599 28.707)" fill="#141944"/>
        <path id="Path_2182" data-name="Path 2182" d="M93.922,124.4a.6.6,0,0,0,.395-.056c.593-.31,2.342-1.01,3.3-.549a.6.6,0,0,0,.521-1.075c-1.669-.807-4.1.422-4.372.565a.6.6,0,0,0,.159,1.114" transform="translate(22.523 29.515)" fill="#141944"/>
        <path id="Path_2183" data-name="Path 2183" d="M105.82,109.038s-5.57,15.128-5.875,18.176c-.415,4.155-5.907-10.085-.379-22.25Z" transform="translate(23.408 25.3)" fill="#141944"/>
        <path id="Path_2184" data-name="Path 2184" d="M207.871,396.1H184.929s-5.309-25.465-7.09-39.744-2.707-48.132-2.707-48.132-18.284,5.938-56.555,3.7c-84.8-4.954-52.645-67.255-52.645-67.255,2.864,3.958,24.355,9.411,36.351,11.3,36.816,3.533,64.8,9.786,83.967,18.052a95.564,95.564,0,0,1,12.309,6.312c4.62,2.847,7.511,11.487,9.252,22.85,5.236,34.156.06,92.915.06,92.915" transform="translate(14.45 58.974)" fill="#141944"/>
        <path id="Path_2185" data-name="Path 2185" d="M186.607,383.643a.821.821,0,0,1-.8-.659c-3.309-16.382-4.419-36.771-5.313-53.153-.741-13.584-1.44-26.415-3.184-27.958-1.414-1.248-7.282-.274-14.712.959-14.779,2.453-37.114,6.162-61.745.431-13.417-3.122-23.279-9.639-29.316-19.371-10.409-16.781-5.663-37.588-5.614-37.8a.821.821,0,0,1,1.6.376c-.047.2-4.633,20.372,5.42,36.566,5.8,9.341,15.314,15.607,28.284,18.625,24.312,5.657,46.453,1.981,61.1-.452,8.774-1.456,14.07-2.336,16.069-.568,2.159,1.908,2.766,11.29,3.738,29.1.89,16.33,2,36.653,5.282,52.918a.826.826,0,0,1-.805.984" transform="translate(15.618 59.164)" fill="#575759"/>
        <path id="Path_2186" data-name="Path 2186" d="M184.61,357.579h-.017l-25.512-.547a.822.822,0,0,1-.8-.839.811.811,0,0,1,.839-.8l25.512.547a.821.821,0,0,1-.017,1.642" transform="translate(38.15 85.66)" fill="#575759"/>
        <path id="Path_2187" data-name="Path 2187" d="M182.715,396.087H166.522l-3.119-19-1.708-10.4h20.118l.319,10.4Z" transform="translate(38.974 88.385)" fill="#ff9b79"/>
        <path id="Path_2188" data-name="Path 2188" d="M182.384,394.068H166.191l-2.323-14.144-.8-4.854H181.8l.155,5.032Z" transform="translate(39.305 90.404)" fill="#ffc331"/>
        <path id="Path_2189" data-name="Path 2189" d="M181.957,380.1l-18.089-.177-.8-4.855H181.8Z" transform="translate(39.306 90.404)" fill="#dc7f21"/>
        <path id="Path_2190" data-name="Path 2190" d="M222.9,416.827H161.647a8.576,8.576,0,0,1-.8-3.4c-.383-5.183,1.267-13.45,2.077-18.663.1-.611.184-1.178.248-1.692a18,18,0,0,0,.184-2.131c0-4.253,3.765-3.526,3.765-3.526,6.2,6.08,13.215-3.033,17.314-.045,0,0,.166.122.541.416.345.271.866.691,1.592,1.3,1.044.872,2.509,2.14,4.494,3.923,4.86,4.375,13.13,7.263,20.172,10.206.9.376,1.73.751,2.5,1.123.587.283,1.139.568,1.662.85,5.755,3.108,7.586,6.077,8,8.237a4.782,4.782,0,0,1-.5,3.4" transform="translate(38.755 93.219)" fill="#00ade5"/>
        <path id="Path_2191" data-name="Path 2191" d="M211.925,404.989c-1.577,1.256-5.086,3.768-7.9,3.768-.124,0-.248,0-.37-.014-1.987-.166-9.285-3.754-15.225-7.017-3.4-1.872-6.51-3.712-8.747-5.188-3.666-2.416-4.3-3.34-4.445-3.98-.536-2.416,3.461-4.1,6.263-4.973.344.271.866.691,1.592,1.3-3.48.948-6.339,2.436-6.206,3.283.341.717,3.965,3.48,12.632,8.224,6.613,3.619,12.886,6.546,14.277,6.662,1.885.153,4.658-1.564,6.466-2.916.587.283,1.141.568,1.663.85" transform="translate(42.226 93.42)" fill="#004ecb"/>
        <path id="Path_2192" data-name="Path 2192" d="M222.884,411.647H161.638a8.558,8.558,0,0,1-.807-3.4h62.555a4.779,4.779,0,0,1-.5,3.4" transform="translate(38.765 98.4)" fill="#004ecb"/>
        <path id="Path_2193" data-name="Path 2193" d="M167.483,415.6h-1.819a13.443,13.443,0,0,0,3.292-9.807,17.267,17.267,0,0,0-6.45-12.256c.1-.609.182-1.178.248-1.692a18.765,18.765,0,0,1,7.66,13.875,14.869,14.869,0,0,1-2.931,9.88" transform="translate(39.169 94.447)" fill="#004ecb"/>
        <path id="Path_2194" data-name="Path 2194" d="M184.538,395.283a1.01,1.01,0,0,1-.243-1.989l3.826-.949a1.009,1.009,0,0,1,.488,1.958l-3.827.951a1.028,1.028,0,0,1-.243.03" transform="translate(44.236 94.56)" fill="#fff"/>
        <path id="Path_2195" data-name="Path 2195" d="M181.474,392.716a1.009,1.009,0,0,1-.242-1.989l3.826-.949a1.009,1.009,0,1,1,.485,1.958l-3.825.951a1.037,1.037,0,0,1-.244.03" transform="translate(43.498 93.941)" fill="#fff"/>
        <path id="Path_2196" data-name="Path 2196" d="M187.62,397.075a1.009,1.009,0,0,1-.242-1.989l3.826-.949a1.01,1.01,0,0,1,.486,1.96l-3.826.949a1.038,1.038,0,0,1-.244.03" transform="translate(44.979 94.992)" fill="#fff"/>
        <path id="Path_2197" data-name="Path 2197" d="M190.7,398.8a1.01,1.01,0,0,1-.242-1.989l3.826-.949a1.009,1.009,0,1,1,.485,1.958l-3.825.951a1.035,1.035,0,0,1-.244.03" transform="translate(45.722 95.407)" fill="#fff"/>
        <path id="Path_2198" data-name="Path 2198" d="M194.065,400.39a1.009,1.009,0,0,1-.242-1.988l3.826-.951a1.009,1.009,0,1,1,.485,1.96l-3.826.949a1.02,1.02,0,0,1-.243.03" transform="translate(46.533 95.791)" fill="#fff"/>
        <path id="Path_2199" data-name="Path 2199" d="M197.71,401.749a1.01,1.01,0,0,1-.242-1.989l3.825-.949a1.009,1.009,0,1,1,.486,1.958l-3.825.951a1.037,1.037,0,0,1-.244.03" transform="translate(47.411 96.118)" fill="#fff"/>
        <path id="Path_2200" data-name="Path 2200" d="M302.155,244.965v5.086c0,2.926-1.768,5.3-3.951,5.3H23.361c-2.18,0-3.949-2.372-3.949-5.3v-5.086c0-2.925,1.768-5.3,3.949-5.3H298.2c2.183,0,3.951,2.37,3.951,5.3" transform="translate(4.679 57.768)" fill="#00b570"/>
        <rect id="Rectangle_578" data-name="Rectangle 578" width="282.743" height="2.327" transform="translate(24.091 304.346)" fill="#007d55"/>
        <path id="Path_2201" data-name="Path 2201" d="M291.169,265.388H32.819a2.094,2.094,0,0,1-2.094-2.094v-11.04H293.263v11.04a2.094,2.094,0,0,1-2.094,2.094" transform="translate(7.406 60.801)" fill="#007d55"/>
        <rect id="Rectangle_579" data-name="Rectangle 579" width="231.038" height="9.004" transform="translate(55.933 391.027)" fill="#007d55"/>
        <path id="Path_2202" data-name="Path 2202" d="M34.7,448.3l44.73-185.46H63.718L18.988,448.3Z" transform="translate(4.577 63.352)" fill="#00b570"/>
        <path id="Path_2203" data-name="Path 2203" d="M253.1,448.3l-44.73-185.46h15.709l44.73,185.46Z" transform="translate(50.223 63.352)" fill="#00b570"/>
        <rect id="Rectangle_580" data-name="Rectangle 580" width="4.907" height="36.994" transform="translate(44.343 255.541) rotate(-8.714)" fill="#ffc331"/>
        <path id="Path_2204" data-name="Path 2204" d="M40.582,206.259l-4.85.743,1.067-3.7.553-1.917,1.1,1.664Z" transform="translate(8.613 48.539)" fill="#ff9b79"/>
        <rect id="Rectangle_581" data-name="Rectangle 581" width="4.907" height="2.688" transform="translate(49.539 289.45) rotate(-8.714)" fill="#141944"/>
        <path id="Path_2205" data-name="Path 2205" d="M45.1,236.943l-4.2.644a.327.327,0,0,1-.372-.273l-.274-1.795,4.85-.743.274,1.795a.326.326,0,0,1-.273.372" transform="translate(9.701 56.588)" fill="#f7536e"/>
        <path id="Path_2206" data-name="Path 2206" d="M38.248,203.044l-1.656.253.554-1.916Z" transform="translate(8.82 48.539)" fill="#141944"/>
        <rect id="Rectangle_582" data-name="Rectangle 582" width="4.906" height="1.928" transform="translate(49.247 287.545) rotate(-8.714)" fill="#dc7f21"/>
        <path id="Path_2207" data-name="Path 2207" d="M36.927,207.3l4.149,27.079a.375.375,0,1,0,.741-.114l-4.149-27.078a.375.375,0,0,0-.741.113" transform="translate(8.899 49.861)" fill="#dc7f21"/>
        <path id="Path_2208" data-name="Path 2208" d="M38.455,207.061,42.6,234.14a.374.374,0,1,0,.74-.114L39.2,206.948a.375.375,0,1,0-.741.113" transform="translate(9.268 49.804)" fill="#dc7f21"/>
        <rect id="Rectangle_583" data-name="Rectangle 583" width="4.907" height="36.993" transform="translate(53.057 254.982) rotate(-0.188)" fill="#00b570"/>
        <path id="Path_2209" data-name="Path 2209" d="M47.659,206.477l-4.907.016,1.6-3.506.831-1.813.844,1.808Z" transform="translate(10.305 48.489)" fill="#ff9b79"/>
        <rect id="Rectangle_584" data-name="Rectangle 584" width="4.907" height="2.688" transform="translate(53.169 289.287) rotate(-0.188)" fill="#141944"/>
        <path id="Path_2210" data-name="Path 2210" d="M47.437,237.4l-4.254.014a.327.327,0,0,1-.328-.325l0-1.816,4.907-.016,0,1.816a.326.326,0,0,1-.325.328" transform="translate(10.328 56.704)" fill="#f7536e"/>
        <path id="Path_2211" data-name="Path 2211" d="M45.72,202.983l-1.675,0,.831-1.813Z" transform="translate(10.616 48.489)" fill="#141944"/>
        <rect id="Rectangle_585" data-name="Rectangle 585" width="4.907" height="1.927" transform="translate(53.163 287.36) rotate(-0.188)" fill="#007d55"/>
        <path id="Path_2212" data-name="Path 2212" d="M43.74,207l.089,27.395a.375.375,0,0,0,.75,0L44.49,207a.375.375,0,1,0-.75,0" transform="translate(10.543 49.803)" fill="#007d55"/>
        <path id="Path_2213" data-name="Path 2213" d="M45.287,206.992l.089,27.395a.375.375,0,1,0,.75,0l-.089-27.395a.375.375,0,0,0-.75,0" transform="translate(10.916 49.801)" fill="#007d55"/>
        <rect id="Rectangle_586" data-name="Rectangle 586" width="36.993" height="4.907" transform="matrix(0.141, -0.99, 0.99, 0.141, 56.37, 291.423)" fill="#00ade5"/>
        <path id="Path_2214" data-name="Path 2214" d="M54.472,206.956l-4.859-.69,2.092-3.238,1.085-1.675.573,1.911Z" transform="translate(11.958 48.532)" fill="#ff9b79"/>
        <rect id="Rectangle_587" data-name="Rectangle 587" width="2.688" height="4.907" transform="matrix(0.141, -0.99, 0.99, 0.141, 56.369, 291.422)" fill="#141944"/>
        <path id="Path_2215" data-name="Path 2215" d="M49.7,237.588l-4.212-.6a.328.328,0,0,1-.277-.369l.256-1.8,4.857.69-.254,1.8a.327.327,0,0,1-.37.277" transform="translate(10.898 56.6)" fill="#f7536e"/>
        <path id="Path_2216" data-name="Path 2216" d="M52.957,203.263l-1.658-.236,1.083-1.675Z" transform="translate(12.365 48.532)" fill="#141944"/>
        <rect id="Rectangle_588" data-name="Rectangle 588" width="1.928" height="4.906" transform="translate(56.747 288.762) rotate(-81.915)" fill="#004ecb"/>
        <path id="Path_2217" data-name="Path 2217" d="M51.129,206.966l-3.853,27.123a.375.375,0,0,0,.742.105l3.853-27.123a.375.375,0,1,0-.742-.105" transform="translate(11.394 49.807)" fill="#004ecb"/>
        <path id="Path_2218" data-name="Path 2218" d="M52.66,207.182,48.807,234.3a.375.375,0,0,0,.742.105L53.4,207.287a.375.375,0,1,0-.742-.105" transform="translate(11.763 49.86)" fill="#004ecb"/>
        <path id="Path_2219" data-name="Path 2219" d="M59.953,217.238l-.256,1.984-.232,1.8-.355,2.738-.228,1.781-.356,2.76L58.3,230.06l-.359,2.782-.223,1.734-.364,2.8-.22,1.714-.365,2.827-.22,1.692-.187,1.463H37.075l-.187-1.463-.22-1.692L36.3,239.1l-.218-1.714-.364-2.8-.223-1.734-.359-2.782L34.91,228.3l-.356-2.76-.23-1.781-.354-2.738-.232-1.8-.256-1.984Z" transform="translate(8.07 52.361)" fill="#f7536e"/>
        <path id="Path_2220" data-name="Path 2220" d="M59.648,218.837l-.233,1.8H33.921l-.233-1.8Z" transform="translate(8.12 52.747)" fill="#ce101d"/>
        <path id="Path_2221" data-name="Path 2221" d="M58.947,222.494l-.228,1.781H34.39l-.23-1.781Z" transform="translate(8.234 53.628)" fill="#ce101d"/>
        <path id="Path_2222" data-name="Path 2222" d="M58.248,226.153l-.228,1.759H34.861l-.228-1.759Z" transform="translate(8.348 54.51)" fill="#ce101d"/>
        <path id="Path_2223" data-name="Path 2223" d="M57.548,229.812l-.225,1.734H35.33l-.225-1.734Z" transform="translate(8.461 55.392)" fill="#ce101d"/>
        <path id="Path_2224" data-name="Path 2224" d="M56.847,233.469l-.22,1.714H35.8l-.22-1.714Z" transform="translate(8.575 56.273)" fill="#ce101d"/>
        <path id="Path_2225" data-name="Path 2225" d="M56.148,237.128l-.22,1.692H36.269l-.22-1.692Z" transform="translate(8.689 57.155)" fill="#ce101d"/>
        <path id="Path_2226" data-name="Path 2226" d="M272.681,161.491l-16.445,69.542-.433,1.829-1.106,4.684a4.487,4.487,0,0,1-4.371,3.46H139.55a4.494,4.494,0,0,1-4.373-5.526l17.984-76.055a4.485,4.485,0,0,1,4.37-3.456H268.307a4.491,4.491,0,0,1,4.373,5.523" transform="translate(32.552 37.593)" fill="#141944"/>
        <path id="Path_2227" data-name="Path 2227" d="M255.123,216.454l-.433,1.828H139.669v-1.828Z" transform="translate(33.665 52.172)" fill="#575759"/>
        <path id="Path_2228" data-name="Path 2228" d="M178.146,171.567a11.255,11.255,0,0,1-10.59,8.926c-4.929,0-8.18-4-7.26-8.926a11.254,11.254,0,0,1,10.59-8.925c4.929,0,8.18,4,7.26,8.925" transform="translate(38.599 39.202)" fill="#ffc331"/>
        <path id="Path_2229" data-name="Path 2229" d="M166.841,168.8c-.184.985-.68,1.785-1.109,1.785s-.627-.8-.443-1.785.681-1.785,1.109-1.785.627.8.443,1.785" transform="translate(39.823 40.257)" fill="#141944"/>
        <path id="Path_2230" data-name="Path 2230" d="M170.594,168.8c-.185.985-.681,1.785-1.111,1.785s-.625-.8-.443-1.785.681-1.785,1.109-1.785.627.8.444,1.785" transform="translate(40.728 40.257)" fill="#141944"/>
        <path id="Path_2231" data-name="Path 2231" d="M167.644,174.18c-3.839,0-4-3.837-4-3.876a.485.485,0,0,1,.383-.462.317.317,0,0,1,.406.3,3.293,3.293,0,0,0,3.358,3.265c3.206,0,4.521-3.132,4.576-3.265a.477.477,0,0,1,.518-.3.323.323,0,0,1,.21.46c-.015.038-1.61,3.876-5.448,3.876" transform="translate(39.443 40.935)" fill="#141944"/>
        <path id="Path_2232" data-name="Path 2232" d="M215.912,204.356c.1,4.617,7.919,10.4,7.919,10.4s9.084-5.781,10.188-10.4c1.2-5.005-4.519-6.54-8.752-2.766-3.409-3.774-9.46-2.239-9.355,2.766" transform="translate(52.041 48.082)" fill="#f7536e"/>
        <path id="Path_2233" data-name="Path 2233" d="M205.956,194.307a9.927,9.927,0,0,1-9.624,8.667,7.613,7.613,0,0,1-7.711-8.667,9.925,9.925,0,0,1,9.62-8.667,7.616,7.616,0,0,1,7.714,8.667" transform="translate(45.451 44.745)" fill="#575759"/>
        <path id="Path_2234" data-name="Path 2234" d="M161.92,155.967,142.774,241h-3.225a4.491,4.491,0,0,1-4.372-5.524l17.981-76.057a4.492,4.492,0,0,1,4.372-3.458Z" transform="translate(32.552 37.593)" fill="#575759"/>
        <path id="Path_2235" data-name="Path 2235" d="M183.21,224.488l-3.361,18.9h11.1l3.359-18.9Z" transform="translate(43.349 54.109)" fill="#fff"/>
        <path id="Path_2236" data-name="Path 2236" d="M166.54,238.07l2.272-3.194a4.326,4.326,0,0,1,3.525-1.818h30.431a4.326,4.326,0,0,1,3.832,2.321l1.533,2.931a2.059,2.059,0,0,1-1.824,3.012H168.218a2.058,2.058,0,0,1-1.678-3.251" transform="translate(40.049 56.174)" fill="#fff"/>
        <path id="Path_2237" data-name="Path 2237" d="M115.375,241.22h91.414l.993-3.449a3.394,3.394,0,0,0-3.261-4.332H120.169a3.394,3.394,0,0,0-3.261,2.455Z" transform="translate(27.809 56.266)" fill="#fff"/>
        <path id="Path_2238" data-name="Path 2238" d="M220.362,143.607l-40.433-.029a2.838,2.838,0,0,1-2.837-2.841l.017-24.842a2.839,2.839,0,0,1,2.841-2.837l40.433.027a2.839,2.839,0,0,1,2.837,2.841L223.2,140.77a2.839,2.839,0,0,1-2.841,2.837" transform="translate(42.685 27.251)" fill="#f7536e"/>
        <path id="Path_2239" data-name="Path 2239" d="M211.986,133.979,208.3,147.9l-6.443-13.087Z" transform="translate(48.653 32.293)" fill="#f7536e"/>
        <path id="Path_2240" data-name="Path 2240" d="M207.887,124.619c-.825,5.219-10.561,11.746-10.561,11.746s-9.372-6.541-9.9-11.759c-.577-5.658,6.121-7.388,10.32-3.121,4.438-4.26,11.04-2.521,10.145,3.134" transform="translate(45.166 28.708)" fill="#fff"/>
        <path id="Path_2241" data-name="Path 2241" d="M235.988,54.017a33.654,33.654,0,1,1-33.652-33.234,33.446,33.446,0,0,1,33.652,33.234" transform="translate(40.659 5.009)" fill="#ccd3e6"/>
        <path id="Path_2242" data-name="Path 2242" d="M235.988,50.531A33.654,33.654,0,1,1,202.337,17.3a33.446,33.446,0,0,1,33.652,33.234" transform="translate(40.659 4.169)" fill="#00ade5"/>
        <path id="Path_2243" data-name="Path 2243" d="M201.114,76.341a27.019,27.019,0,1,1,27.357-27.017,27.22,27.22,0,0,1-27.357,27.017" transform="translate(41.881 5.376)" fill="#fff"/>
        <path id="Path_2244" data-name="Path 2244" d="M228.472,49.323q0,1.08-.084,2.135a27.387,27.387,0,0,0-54.545,0c-.056-.7-.086-1.415-.086-2.135a27.359,27.359,0,0,1,54.715,0" transform="translate(41.881 5.376)" fill="#ccd3e6"/>
        <path id="Path_2245" data-name="Path 2245" d="M198.541,50.069a.688.688,0,0,1-.55-.273L184.571,31.953a.672.672,0,0,1,.141-.946.691.691,0,0,1,.958.14l13.1,17.41,14.882-6.451a.686.686,0,0,1,.9.347.673.673,0,0,1-.351.891l-15.381,6.667a.694.694,0,0,1-.276.057" transform="translate(44.455 7.442)" fill="#141944"/>
      </g>
    </g>
  </g>
</svg>
