<svg id="Group_1342" data-name="Group 1342" xmlns="http://www.w3.org/2000/svg" xmlns:xlink="http://www.w3.org/1999/xlink" width="91.502" height="60.378" viewBox="0 0 91.502 60.378">
  <defs>
    <clipPath id="clip-path">
      <rect id="Rectangle_600" data-name="Rectangle 600" width="91.502" height="60.378" fill="#ffc331"/>
    </clipPath>
  </defs>
  <g id="Group_1341" data-name="Group 1341" clip-path="url(#clip-path)">
    <path id="Path_2247" data-name="Path 2247" d="M0,56.564l.2.421c.086-.474.132-.9.241-1.308a12.865,12.865,0,0,1,7.8-8.832A17.583,17.583,0,0,1,14.9,45.517c.934-.021,1.87-.011,2.8,0a.779.779,0,0,0,.736-.352q1.471-2.206,2.959-4.4a.726.726,0,0,0,.095-.676A24.451,24.451,0,0,1,20.274,33.6c-.016-.334-.243-.41-.489-.5a7.274,7.274,0,0,1-2.232-1.2,3.429,3.429,0,0,1-1.364-2.829c.029-1.495.061-2.994-.007-4.486A3.824,3.824,0,0,1,18,21.045a1.756,1.756,0,0,0,.857-1.706c-.044-2.651-.013-5.3-.009-7.955a5.542,5.542,0,0,1,.023-.611c.1-.867.092-.831-.733-1-2.347-.473-4.687-.978-7.03-1.469l-3.14-.658c-.05-.01-.1-.016-.151-.028-.885-.221-1.4-.732-1.409-1.391s.485-1.189,1.408-1.379c2.526-.523,5.061-1.007,7.591-1.517Q22.172,1.969,28.934.591c.7-.142,1.4-.271,2.094-.43a6.451,6.451,0,0,1,2.729.008c4,.791,8,1.572,11.989,2.374a3.117,3.117,0,0,0,1.34-.162c1.277-.278,2.564-.508,3.845-.768,2.463-.5,4.927-.989,7.383-1.516a6.587,6.587,0,0,1,2.719.125q6.246,1.233,12.494,2.45,5.5,1.073,11,2.139a3.883,3.883,0,0,1,.688.182,1.311,1.311,0,0,1,.887,1.2,1.257,1.257,0,0,1-.748,1.184,3.446,3.446,0,0,1-1.268.358c-.319.037-.427.193-.426.505.007,3.4-.016,6.8.016,10.2a15.991,15.991,0,0,0,.65,3.188c.631,2.9,1.292,5.8,1.893,8.709.229,1.106-.262,1.727-1.4,1.762-1.749.054-3.5.047-5.251,0a1.357,1.357,0,0,1-1.315-1.776c.45-2.091.967-4.169,1.4-6.263.395-1.912.954-3.787,1.249-5.721a11.506,11.506,0,0,0-.043-1.728c.013-2.516.007-5.031.009-7.547,0-.646-.023-.666-.669-.538-2.281.454-4.561.915-6.845,1.356-.443.086-.578.235-.554.738.07,1.492.039,2.99.041,4.486,0,1.479,0,2.957-.011,4.436a.563.563,0,0,0,.412.647,3.1,3.1,0,0,1,2.264,3.293c0,1.87-.029,3.74.011,5.609a3.392,3.392,0,0,1-1.305,2.749,6.633,6.633,0,0,1-2.359,1.281.562.562,0,0,0-.435.589A23.707,23.707,0,0,1,70.222,40a1.234,1.234,0,0,0,.19,1.272q1.359,1.848,2.647,3.748a1.031,1.031,0,0,0,.962.508,32.048,32.048,0,0,1,5.392.2c3.646.61,6.874,2,9.243,4.975a12.878,12.878,0,0,1,2.662,6.257,9.205,9.205,0,0,1,.169,2.128A1.382,1.382,0,0,1,90.4,60.346a1.255,1.255,0,0,1-1.369-.566,2.078,2.078,0,0,1-.228-1.082,10.292,10.292,0,0,0-2.62-6.688,11.361,11.361,0,0,0-7.132-3.578c-1.388-.189-2.795.018-4.171-.149a4.282,4.282,0,0,0-3.226,1c-2.4,1.761-4.845,3.45-7.28,5.156a.57.57,0,0,0-.266.754,13.112,13.112,0,0,1,.574,3.662,1.349,1.349,0,0,1-1.243,1.516,1.369,1.369,0,0,1-1.463-1.422,11.476,11.476,0,0,0-.865-4.265,10.526,10.526,0,0,0-6.327-5.634,12.909,12.909,0,0,0-4.043-.727c-1.29-.038-2.583.045-3.873-.078a1.824,1.824,0,0,0-1.235.4Q39.722,52.819,33.8,56.985l-.249.177a1.574,1.574,0,0,1-2.3.03q-4.912-3.428-9.813-6.874c-.849-.6-1.7-1.19-2.539-1.8a1.234,1.234,0,0,0-.765-.225c-1.581.011-3.17-.084-4.74.052-4.535.393-8.081,2.343-9.967,6.7a11.433,11.433,0,0,0-.74,3.884A1.363,1.363,0,0,1,1.3,60.376a1.209,1.209,0,0,1-.916-.482C.25,59.74.127,59.578,0,59.42V56.564m53.949-42.9h-.011c0-1.564-.009-3.128.007-4.691,0-.439-.123-.563-.572-.47-2.21.463-4.425.9-6.64,1.341-.936.186-.938.178-.9,1.129l0,.1c.109,2.837.125,5.673-.006,8.509a.472.472,0,0,0,.368.567,3.194,3.194,0,0,1,2.37,3.45c.04,1.818.009,3.638.015,5.456a3.445,3.445,0,0,1-1.019,2.479,5.955,5.955,0,0,1-2.645,1.569.5.5,0,0,0-.427.523,27.928,27.928,0,0,1-1.208,6.34,1.079,1.079,0,0,0,.147,1.044q1.389,2.015,2.735,4.059a.877.877,0,0,0,.827.448,41.811,41.811,0,0,1,4.482.091c4.585.527,8.459,2.308,11.1,6.268.187.28.335.351.641.133q3.616-2.568,7.258-5.1c.375-.26.39-.445.13-.8-.976-1.349-1.9-2.733-2.883-4.081a2.012,2.012,0,0,1-.308-1.969,26.5,26.5,0,0,0,1.394-7.895c.033-.952.439-1.338,1.379-1.432a4.714,4.714,0,0,0,2.09-.749,1.072,1.072,0,0,0,.532-1.017c-.025-1.632-.014-3.263-.016-4.9,0-1.59.06-1.239-1.3-1.433a1.5,1.5,0,0,1-1.436-1.506A12.613,12.613,0,0,1,70.08,19.7c.04-.7.032-.723-.674-.562a43.485,43.485,0,0,1-8.414,1.136c-1.155.034-2.312.019-3.467,0-.38-.007-.478.1-.386.472.178.708.324,1.424.483,2.136.535,2.4,1.08,4.8,1.6,7.211.295,1.36-.251,2.022-1.629,2.025q-2.295,0-4.589,0c-1.368-.005-1.961-.739-1.663-2.077.609-2.735,1.252-5.462,1.837-8.2a18.92,18.92,0,0,0,.775-4.248c-.021-1.309,0-2.618,0-3.926M45.872,26.309h0c0-.884.007-1.768,0-2.651-.008-.821-.044-.853-.822-.962-.168-.023-.336-.047-.5-.067a1.47,1.47,0,0,1-1.412-1.517c-.013-.492-.007-.986.013-1.479.025-.622-.011-.666-.63-.521A42.755,42.755,0,0,1,35.524,20.2a45.234,45.234,0,0,1-9.048-.276c-1.432-.193-2.84-.505-4.253-.8-.543-.115-.572-.089-.57.483,0,.442.017.885,0,1.326a1.744,1.744,0,0,1-1.074,1.7,9.042,9.042,0,0,0-1.051.623,1.285,1.285,0,0,0-.655,1.23c.022,1.325.084,2.658-.02,3.975a1.727,1.727,0,0,0,1.195,1.883,4.355,4.355,0,0,0,1.366.389,1.5,1.5,0,0,1,1.551,1.7,21.188,21.188,0,0,0,.112,2.39,19.426,19.426,0,0,0,2.713,8.2c1.99,3.036,4.625,4.352,8.159,3.709A7.14,7.14,0,0,0,38.3,43.919a16.382,16.382,0,0,0,3.074-7.355,25.963,25.963,0,0,0,.434-4.2c.022-1.091.454-1.521,1.534-1.634a4.6,4.6,0,0,0,2.027-.777,1.066,1.066,0,0,0,.506-.991c-.019-.884-.006-1.768-.006-2.651m4.535-20.1a.6.6,0,0,0-.395-.142q-8-1.552-16-3.093a5.093,5.093,0,0,0-1.953-.243q-3.522.69-7.043,1.4-4.593.916-9.187,1.837a2.439,2.439,0,0,0-1.1.328c.43.106.765.2,1.105.271Q22.559,7.982,29.287,9.4a11.594,11.594,0,0,0,5.117.257c5.049-1.141,10.141-2.09,15.214-3.124a1.247,1.247,0,0,0,.788-.321M21.649,13.316h.006c0,.8.016,1.6-.007,2.4-.011.357.125.5.462.594a38.6,38.6,0,0,0,8.56,1.152,44.2,44.2,0,0,0,5.092-.071,40.737,40.737,0,0,0,6.882-1.073.529.529,0,0,0,.484-.59c-.012-1.563,0-3.127.007-4.69,0-.338-.091-.446-.451-.37-2.956.623-5.917,1.22-8.873,1.844a6.061,6.061,0,0,1-2.77.026c-2.95-.733-5.946-1.251-8.91-1.916-.384-.086-.512-.018-.491.4.038.763.011,1.529.011,2.294M77.514,6.171c-.226-.054-.32-.081-.417-.1-5.212-.938-10.4-2.011-15.6-3.012a7.271,7.271,0,0,0-2.97-.247c-1.642.353-3.3.65-4.944.981-.129.026-.3.013-.4.168a2.122,2.122,0,0,0,.606.155c1.434.27,2.871.532,4.3.838a1.378,1.378,0,0,1,1.062,1.284,1.448,1.448,0,0,1-.93,1.227,3.292,3.292,0,0,1-1.033.261c-.4.025-.561.186-.559.6.006,1.073,0,1.046,1.042,1.317a5.406,5.406,0,0,0,2.711.175c.56-.139,1.128-.24,1.694-.355q6.987-1.419,13.973-2.84a3.965,3.965,0,0,0,1.465-.459M43.878,46.46c-.059-.1-.126-.214-.2-.326-.5-.75-1-1.5-1.5-2.248-.281-.425-.352-.436-.623,0A14.738,14.738,0,0,1,39.2,46.822a9.709,9.709,0,0,1-12.021,1.284,12.274,12.274,0,0,1-3.953-4.184c-.284-.468-.421-.494-.684-.1-.533.788-1.045,1.59-1.576,2.379a.372.372,0,0,0,.122.6c.251.175.481.379.731.554q3.192,2.242,6.389,4.476c1.268.886,2.541,1.763,3.809,2.648a.521.521,0,0,0,.72.027c.938-.7,1.9-1.367,2.864-2.042q3.98-2.8,7.962-5.606c.131-.092.321-.145.312-.39M56.639,14.809h.009c0,.662,0,1.325,0,1.987,0,.7.045.763.741.767a54.789,54.789,0,0,0,5.951-.175,45.354,45.354,0,0,0,6.114-1.031.686.686,0,0,0,.617-.8c-.007-1.544-.084-3.09.045-4.633.032-.383-.2-.3-.428-.258-2.328.471-4.66.923-6.983,1.414-1.889.4-3.762.987-5.691.189-.308-.128-.378.09-.377.352,0,.73,0,1.461,0,2.191M55.377,25.057c-.076.083-.129.113-.139.155-.312,1.267-.623,2.534-.925,3.8a.279.279,0,0,0,.29.378c.169.009.339.007.509.007,1.39,0,1.234.113.954-1.192-.222-1.036-.452-2.071-.689-3.151m26.95-.105a2.861,2.861,0,0,0-.176.384q-.448,1.85-.887,3.7c-.07.293.11.357.343.359.406,0,.814-.007,1.22,0,.33.009.424-.16.362-.449-.275-1.289-.555-2.578-.862-4" transform="translate(0 0)" fill="#ffc331"/>
  </g>
</svg>
