<svg xmlns="http://www.w3.org/2000/svg" xmlns:xlink="http://www.w3.org/1999/xlink" width="47.421" height="55.826" viewBox="0 0 47.421 55.826">
  <defs>
    <clipPath id="clip-path">
      <rect id="Rectangle_535" data-name="Rectangle 535" width="47.421" height="55.826" transform="translate(0 0)" fill="#141944"/>
    </clipPath>
  </defs>
  <g id="Group_1276" data-name="Group 1276" transform="translate(0 0.001)">
    <g id="Group_1276-2" data-name="Group 1276" transform="translate(0 -0.001)" clip-path="url(#clip-path)">
      <path id="Path_1779" data-name="Path 1779" d="M18.332,55.825c.119-.091.277-.163.017-.295a3.164,3.164,0,0,1-1.7-3.139q.007-9.957.011-19.914a2.176,2.176,0,0,0-.326-1.212q-3.271-5.22-6.527-10.45-3-4.8-6.016-9.589C2.9,9.812,1.929,8.445,1.114,6.982A7.031,7.031,0,0,1,0,3.69,3.541,3.541,0,0,1,3.471.007C3.693,0,3.917,0,4.14,0H43.187a7.9,7.9,0,0,1,1.165.075,3.633,3.633,0,0,1,2.817,5.017A16.156,16.156,0,0,1,45.6,8.041q-4.931,7.9-9.875,15.789c-1.551,2.471-3.128,4.927-4.7,7.384a1.853,1.853,0,0,0-.307,1.047q.016,6,.013,11.993a6.506,6.506,0,0,1-2.4,5.075c-2.062,1.792-4.108,3.6-6.253,5.3a5.263,5.263,0,0,1-1.325.912c-.167.064-.2.153-.079.288Zm5.351-51.3H21.843q-8.2,0-16.4.008c-.162,0-.36-.067-.476.075s.043.272.117.391q3.4,5.4,6.813,10.8,4.269,6.77,8.544,13.535a4.481,4.481,0,0,1,.714,2.522c-.021,5.653-.01,11.306-.005,16.959,0,.176-.093.419.093.515s.323-.134.457-.243c1.207-.991,2.391-2.009,3.613-2.98a2.371,2.371,0,0,0,.935-2.027c-.02-4.2-.009-8.405-.011-12.608a2.879,2.879,0,0,1,.388-1.6q3.321-5.257,6.632-10.519,4.46-7.077,8.917-14.157c.112-.178.347-.374.22-.586-.107-.178-.379-.083-.577-.083q-9.065-.005-18.131,0" transform="translate(0 0.001)" fill="#141944"/>
    </g>
  </g>
</svg>
