<svg id="Group_1404" data-name="Group 1404" xmlns="http://www.w3.org/2000/svg" xmlns:xlink="http://www.w3.org/1999/xlink" width="911.724" height="644.547" viewBox="0 0 911.724 644.547">
  <defs>
    <clipPath id="clip-path">
      <rect id="Rectangle_702" data-name="Rectangle 702" width="911.724" height="644.547" fill="none"/>
    </clipPath>
    <clipPath id="clip-path-2">
      <rect id="Rectangle_701" data-name="Rectangle 701" width="911.724" height="644.545" fill="none"/>
    </clipPath>
    <clipPath id="clip-path-3">
      <rect id="Rectangle_662" data-name="Rectangle 662" width="911.724" height="634.319" fill="none"/>
    </clipPath>
    <clipPath id="clip-path-4">
      <rect id="Rectangle_664" data-name="Rectangle 664" width="62.679" height="42.86" fill="none"/>
    </clipPath>
    <clipPath id="clip-path-5">
      <rect id="Rectangle_670" data-name="Rectangle 670" width="105.203" height="123.353" fill="none"/>
    </clipPath>
    <clipPath id="clip-path-6">
      <rect id="Rectangle_675" data-name="Rectangle 675" width="10.822" height="93.589" fill="none"/>
    </clipPath>
  </defs>
  <g id="Group_1403" data-name="Group 1403" clip-path="url(#clip-path)">
    <g id="Group_1402" data-name="Group 1402" transform="translate(0 0.002)">
      <g id="Group_1401" data-name="Group 1401" clip-path="url(#clip-path-2)">
        <g id="Group_1373" data-name="Group 1373" transform="translate(0 -0.002)" opacity="0.39">
          <g id="Group_1372" data-name="Group 1372">
            <g id="Group_1371" data-name="Group 1371" clip-path="url(#clip-path-3)">
              <path id="Path_2380" data-name="Path 2380" d="M182.76,634.321S122.7,581.373,43.1,405.621-6.2,22.929,136.848,3.031,390.963,67.858,390.963,67.858,550.507,16.887,677.856,51.746,792.672,257.418,792.672,257.418s80.306,47.431,113.078,155.2-79.971,221.246-79.971,221.246Z" transform="translate(0 -0.002)" fill="#ccd3e6"/>
            </g>
          </g>
        </g>
        <path id="Path_2381" data-name="Path 2381" d="M933.872,690.839H422.712c-8.856,0-16.035-6.7-16.035-14.959l-9.724-349.946c0-8.261,7.179-14.959,16.034-14.959h535.47c8.855,0,16.035,6.7,16.035,14.959L949.907,675.88c0,8.262-7.179,14.959-16.035,14.959" transform="translate(-199.448 -156.25)" fill="#eae9f3"/>
        <path id="Path_2382" data-name="Path 2382" d="M970.805,317.252a14.192,14.192,0,0,1,2.695,8.3L958.914,675.5c0,8.261-7.179,14.958-16.035,14.958H431.72a16.715,16.715,0,0,1-9.807-3.123,16.349,16.349,0,0,0,13.339,6.656h511.16c8.855,0,16.034-6.7,16.034-14.96l14.586-349.946a14.609,14.609,0,0,0-6.228-11.835" transform="translate(-211.988 -159.404)" fill="#fff"/>
        <path id="Path_2383" data-name="Path 2383" d="M451.356,660.23l-9.724-313.682c0-8.262,7.179-14.959,16.034-14.959h496.6c8.855,0,16.035,6.7,16.035,14.959L955.713,660.23c0,8.261-7.179,14.959-16.034,14.959H467.39c-8.856,0-16.035-6.7-16.035-14.959" transform="translate(-221.896 -166.607)" fill="#6cbde1"/>
        <path id="Path_2384" data-name="Path 2384" d="M449.891,675.692,440.167,362.01c0-8.262,7.179-14.959,16.034-14.959H952.8c8.855,0,16.035,6.7,16.035,14.959L954.248,675.692c0,8.261-7.179,14.959-16.034,14.959H465.925c-8.856,0-16.035-6.7-16.035-14.959" transform="translate(-221.16 -174.376)" fill="#00ade5"/>
        <path id="Path_2385" data-name="Path 2385" d="M876.175,648.87c-60.251,105.971-165.2,59.233-307.97,37.39-47.96-7.338-84.972,8.264-112.98,32.223l2.232,71.99c0,8.261,7.179,14.959,16.034,14.959H945.779c8.855,0,16.034-6.7,16.034-14.959l10-214.978c-44.063,21-79.793,45.512-95.635,73.375" transform="translate(-228.726 -289.157)" fill="#00ade5"/>
        <path id="Path_2386" data-name="Path 2386" d="M954.733,690.837h-8.949a.486.486,0,0,1,0-.972h8.02l.126-2.71a.474.474,0,0,1,.508-.462.484.484,0,0,1,.462.508Zm-20.61,0H922.461a.486.486,0,0,1,0-.972h11.662a.486.486,0,0,1,0,.972m-23.323,0H899.138a.486.486,0,0,1,0-.972H910.8a.486.486,0,0,1,0,.972m-23.323,0H875.816a.486.486,0,0,1,0-.972h11.662a.486.486,0,0,1,0,.972m-23.323,0H852.493a.486.486,0,0,1,0-.972h11.662a.486.486,0,0,1,0,.972m-23.323,0H829.17a.486.486,0,0,1,0-.972h11.662a.486.486,0,0,1,0,.972m-23.323,0H805.847a.486.486,0,0,1,0-.972h11.662a.486.486,0,0,1,0,.972m-23.323,0H782.524a.486.486,0,0,1,0-.972h11.662a.486.486,0,0,1,0,.972m-23.323,0H759.2a.486.486,0,0,1,0-.972h11.662a.486.486,0,0,1,0,.972m-23.323,0H735.879a.486.486,0,0,1,0-.972H747.54a.486.486,0,0,1,0,.972m-23.323,0H712.556a.486.486,0,1,1,0-.972h11.662a.486.486,0,0,1,0,.972m-23.323,0H689.233a.486.486,0,1,1,0-.972h11.661a.486.486,0,1,1,0,.972m-23.323,0H665.91a.486.486,0,0,1,0-.972h11.661a.486.486,0,1,1,0,.972m-23.322,0H642.587a.486.486,0,0,1,0-.972h11.662a.486.486,0,1,1,0,.972m-23.323,0H619.265a.486.486,0,1,1,0-.972h11.661a.486.486,0,1,1,0,.972m-23.323,0H595.942a.486.486,0,1,1,0-.972H607.6a.486.486,0,1,1,0,.972m-23.323,0H572.619a.486.486,0,1,1,0-.972H584.28a.486.486,0,1,1,0,.972m-23.323,0H549.3a.486.486,0,1,1,0-.972h11.661a.486.486,0,1,1,0,.972m-23.323,0H525.973a.486.486,0,1,1,0-.972h11.661a.486.486,0,1,1,0,.972m-23.323,0H502.65a.486.486,0,1,1,0-.972h11.661a.486.486,0,1,1,0,.972m-23.323,0H488l-.376-12.126a.487.487,0,0,1,.471-.5.494.494,0,0,1,.5.471l.346,11.185h2.051a.486.486,0,1,1,0,.972m463.969-14.823h-.023a.484.484,0,0,1-.462-.507l.541-11.649a.485.485,0,0,1,.97.045l-.541,11.649a.485.485,0,0,1-.485.463m-467.215-8.488a.487.487,0,0,1-.486-.471L486.9,655.4a.486.486,0,1,1,.971-.03l.361,11.656a.486.486,0,0,1-.47.5Zm468.3-14.809h-.023a.484.484,0,0,1-.462-.508l.542-11.649a.476.476,0,0,1,.507-.462.485.485,0,0,1,.462.508l-.542,11.649a.485.485,0,0,1-.485.463m-469.02-8.5a.486.486,0,0,1-.486-.471l-.362-11.656a.486.486,0,0,1,.471-.5.492.492,0,0,1,.5.471l.361,11.656a.486.486,0,0,1-.47.5Zm470.1-14.795H957.1a.485.485,0,0,1-.462-.508l.542-11.648a.486.486,0,0,1,.97.046l-.542,11.648a.486.486,0,0,1-.485.464M486.3,620.9a.487.487,0,0,1-.486-.471l-.361-11.656a.486.486,0,0,1,.471-.5.5.5,0,0,1,.5.471l.362,11.656a.487.487,0,0,1-.471.5Zm471.91-14.78h-.023a.484.484,0,0,1-.462-.507l.542-11.649a.469.469,0,0,1,.508-.462.485.485,0,0,1,.462.508l-.542,11.649a.485.485,0,0,1-.485.462m-472.632-8.531a.486.486,0,0,1-.485-.471l-.361-11.656a.486.486,0,0,1,.47-.5.469.469,0,0,1,.5.47l.361,11.656a.486.486,0,0,1-.47.5Zm473.716-14.767h-.023a.485.485,0,0,1-.462-.507l.542-11.648a.474.474,0,0,1,.508-.463.485.485,0,0,1,.462.508l-.542,11.648a.486.486,0,0,1-.485.463m-474.438-8.544a.486.486,0,0,1-.485-.471l-.361-11.656a.486.486,0,0,1,.471-.5.477.477,0,0,1,.5.471l.362,11.656a.486.486,0,0,1-.471.5Zm475.522-14.752h-.023a.484.484,0,0,1-.462-.508l.542-11.649a.478.478,0,0,1,.507-.462.484.484,0,0,1,.462.507l-.542,11.649a.485.485,0,0,1-.484.463M484.13,550.968a.487.487,0,0,1-.486-.471l-.361-11.656a.487.487,0,0,1,.471-.5.472.472,0,0,1,.5.471l.36,11.656a.486.486,0,0,1-.47.5Zm477.327-14.739h-.022a.485.485,0,0,1-.462-.508l.542-11.648a.476.476,0,0,1,.507-.463.486.486,0,0,1,.463.508l-.542,11.649a.485.485,0,0,1-.485.463m-478.049-8.573a.485.485,0,0,1-.485-.47l-.362-11.656a.486.486,0,1,1,.972-.03l.361,11.656a.486.486,0,0,1-.471.5Zm479.133-14.724h-.023a.486.486,0,0,1-.462-.508l.542-11.649a.511.511,0,0,1,.508-.463.485.485,0,0,1,.462.508l-.542,11.649a.486.486,0,0,1-.485.464m-479.856-8.587a.487.487,0,0,1-.486-.471l-.361-11.655a.486.486,0,0,1,.47-.5.47.47,0,0,1,.5.47l.361,11.656a.485.485,0,0,1-.47.5h-.016m480.941-14.711H963.6a.486.486,0,0,1-.462-.508l.541-11.649a.486.486,0,1,1,.97.045l-.541,11.649a.485.485,0,0,1-.484.463m-481.663-8.6a.485.485,0,0,1-.485-.471l-.362-11.656a.487.487,0,0,1,.471-.5.494.494,0,0,1,.5.471l.361,11.655a.486.486,0,0,1-.471.5Zm482.746-14.7h-.023a.484.484,0,0,1-.462-.508l.542-11.649a.485.485,0,1,1,.97.045l-.542,11.649a.485.485,0,0,1-.484.463M481.24,457.721a.487.487,0,0,1-.486-.471l-.361-11.655a.486.486,0,0,1,.471-.5.491.491,0,0,1,.5.47l.362,11.656a.487.487,0,0,1-.471.5h-.015m484.552-14.683h-.022a.485.485,0,0,1-.462-.508l.541-11.649a.491.491,0,0,1,.507-.463.486.486,0,0,1,.463.508l-.541,11.649a.485.485,0,0,1-.485.464m-485.275-8.629a.485.485,0,0,1-.485-.471l-.361-11.656a.486.486,0,0,1,.47-.5.471.471,0,0,1,.5.471L481,433.908a.485.485,0,0,1-.47.5Zm486.358-14.668h-.023a.486.486,0,0,1-.462-.508l.542-11.649a.476.476,0,0,1,.508-.462.484.484,0,0,1,.462.508l-.542,11.649a.486.486,0,0,1-.485.463M479.795,411.1a.487.487,0,0,1-.486-.471l-.361-11.656a.485.485,0,0,1,.471-.5.48.48,0,0,1,.5.47l.362,11.656a.486.486,0,0,1-.471.5h-.015m488.164-14.655h-.024a.486.486,0,0,1-.462-.508l.456-9.826h-.807a.486.486,0,0,1,0-.972h1.825l-.5,10.842a.485.485,0,0,1-.484.464m-488.886-8.657a.486.486,0,0,1-.486-.471l-.068-2.178H489a.486.486,0,1,1,0,.972h-9.482l.036,1.176a.486.486,0,0,1-.47.5Zm476.388-1.677H943.8a.486.486,0,0,1,0-.972h11.662a.486.486,0,0,1,0,.972m-23.323,0H920.476a.486.486,0,0,1,0-.972h11.662a.486.486,0,0,1,0,.972m-23.323,0H897.153a.486.486,0,0,1,0-.972h11.662a.486.486,0,0,1,0,.972m-23.323,0H873.83a.486.486,0,0,1,0-.972h11.662a.486.486,0,1,1,0,.972m-23.323,0H850.508a.486.486,0,0,1,0-.972h11.662a.486.486,0,0,1,0,.972m-23.323,0H827.185a.486.486,0,0,1,0-.972h11.662a.486.486,0,0,1,0,.972m-23.323,0H803.862a.486.486,0,0,1,0-.972h11.662a.486.486,0,0,1,0,.972m-23.323,0H780.539a.486.486,0,0,1,0-.972H792.2a.486.486,0,0,1,0,.972m-23.323,0H757.216a.486.486,0,0,1,0-.972h11.662a.486.486,0,0,1,0,.972m-23.323,0H733.893a.486.486,0,1,1,0-.972h11.662a.486.486,0,0,1,0,.972m-23.323,0H710.571a.486.486,0,0,1,0-.972h11.661a.486.486,0,0,1,0,.972m-23.322,0H687.248a.486.486,0,0,1,0-.972H698.91a.486.486,0,1,1,0,.972m-23.323,0H663.925a.486.486,0,0,1,0-.972h11.662a.486.486,0,1,1,0,.972m-23.323,0H640.6a.486.486,0,0,1,0-.972h11.662a.486.486,0,1,1,0,.972m-23.323,0H617.279a.486.486,0,0,1,0-.972h11.662a.486.486,0,1,1,0,.972m-23.323,0H593.957a.486.486,0,0,1,0-.972h11.662a.486.486,0,1,1,0,.972m-23.323,0H570.634a.486.486,0,1,1,0-.972H582.3a.486.486,0,1,1,0,.972m-23.323,0H547.311a.486.486,0,1,1,0-.972h11.661a.486.486,0,1,1,0,.972m-23.323,0H523.988a.486.486,0,0,1,0-.972H535.65a.486.486,0,1,1,0,.972m-23.323,0H500.666a.486.486,0,1,1,0-.972h11.661a.486.486,0,1,1,0,.972" transform="translate(-240.43 -193.512)" fill="#ccd3e6"/>
        <path id="Path_2387" data-name="Path 2387" d="M926.687,471.105s6.908,69.969,3.939,93.778L913.568,745.635h147.225s-8.26-154.028-8.26-165.69-2.43-108.84-2.43-108.84l-23.079-11.661-58.064-.729Z" transform="translate(-459.018 -230.481)" fill="#004ecb"/>
        <path id="Path_2388" data-name="Path 2388" d="M990.669,460.911l-29.058,8.136s11.633,58.089,18.576,65.031-1.179,12.147,4.652,17.978,38.142,49.642,38.142,49.642Z" transform="translate(-483.157 -231.585)" fill="#87a2c2"/>
        <path id="Path_2389" data-name="Path 2389" d="M1114.594,464.737l-29.639,138.884s31.514-55.693,34.209-58.388,0-14.091,0-19.436,16.761-51.813,16.761-51.813-15.3-9.247-21.331-9.247" transform="translate(-545.131 -233.507)" fill="#87a2c2"/>
        <path id="Path_2390" data-name="Path 2390" d="M993.493,458.714l-31.1,3.159s11.243,57.2,18.185,64.138-1.179,12.147,4.652,17.978,38.142,56.606,38.142,56.606Z" transform="translate(-483.552 -230.481)" fill="#ccd3e6"/>
        <path id="Path_2391" data-name="Path 2391" d="M1113.136,460.179l-28.182,141.152s31.514-62.656,34.209-65.352,0-14.091,0-19.436,17.053-49.561,17.053-49.561-17.053-6.8-23.08-6.8" transform="translate(-545.13 -231.217)" fill="#ccd3e6"/>
        <path id="Path_2392" data-name="Path 2392" d="M1076.654,888.909l4.13-145.039-.85,145.039Z" transform="translate(-540.96 -373.756)" fill="#7696b5"/>
        <rect id="Rectangle_663" data-name="Rectangle 663" width="110.784" height="11.661" transform="translate(440.459 534.589)" fill="#8088c2"/>
        <path id="Path_2393" data-name="Path 2393" d="M993.178,1151.729h-91.83l-2.917-53.855H996.1Z" transform="translate(-451.413 -551.624)" fill="#fff"/>
        <path id="Path_2394" data-name="Path 2394" d="M996.1,1097.874H898.431l2.917,53.855h12.077c1.188-8.381,3.555-17.31,8.086-24.473,8.188-12.948,48.6-18.037,74.075-19.979Z" transform="translate(-451.413 -551.624)" fill="#ccd3e6"/>
        <path id="Path_2395" data-name="Path 2395" d="M1003.16,1235.267H753.411a29.154,29.154,0,0,1,29.154-29.154H974.007a29.154,29.154,0,0,1,29.154,29.154" transform="translate(-378.548 -606.008)" fill="#fff"/>
        <path id="Path_2396" data-name="Path 2396" d="M667.8,467.553l-8.485-30.377-37.29,9.563s5.317,16.545,9.029,18.817l15.118,9.25,33.337,66.13L703.5,511.3Z" transform="translate(-312.535 -219.659)" fill="#f56c63"/>
        <path id="Path_2397" data-name="Path 2397" d="M1043.116,155.279s28.425-3.476,40.572,2.318,35.956,29.2,29.639,74.63c0,0,5.1,1.623,6.56,8.575s1.579,19.353-10.446,30.825-32.312,10.2-42.759,10.2-39.843-8.807-47.375-25.031,23.809-101.516,23.809-101.516" transform="translate(-511.559 -77.501)" fill="#26004a"/>
        <path id="Path_2398" data-name="Path 2398" d="M1057.4,169.381c-7.622-.718-13.974,2.784-19.078,8.533-6.45,18.982-16.769,51.458-19.16,71.5a58.9,58.9,0,0,0,7.552,22.385q1,1.652,2.1,3.155c10.074,7.924,24.9,12.712,34,14.011,28.335-3.808,36.306-29.974,35.6-58.817-.19-7.771,5.366-31.966-6.662-47.6-8.08-10.5-22-14.38-34.354-13.163" transform="translate(-512.071 -84.999)" fill="#130025"/>
        <path id="Path_2399" data-name="Path 2399" d="M1031.941,354.148s1.458,19.679,0,28.668a37.109,37.109,0,0,1-7.046,15.792l29.882,141.881,28.182-141.152s-7-4.288-8.989-16.52-1.944-43.73-1.944-43.73Z" transform="translate(-514.954 -170.374)" fill="#ff9b79"/>
        <path id="Path_2400" data-name="Path 2400" d="M1060.984,630.062l21.937-109.878c-16.727,1.821-33.321-.284-45.674-2.823Z" transform="translate(-521.16 -259.948)" fill="#00158e"/>
        <path id="Path_2401" data-name="Path 2401" d="M1082.921,520.185l-.467.049c-5.494,22.447-18.04,72.215-22.321,76.5-4.11,4.11-16.648-50.723-22.859-79.362l-.028-.005,23.737,112.7Z" transform="translate(-521.16 -259.948)" fill="#000f6b"/>
        <path id="Path_2402" data-name="Path 2402" d="M1051.736,351.777c4.291,16.724,14.694,32.424,34.5,27.218.239-.063.47-.135.7-.2-1.464-13.981-1.423-39.706-1.423-39.706Z" transform="translate(-528.44 -170.374)" fill="#f56c63"/>
        <path id="Path_2403" data-name="Path 2403" d="M1076.737,177.255s17.249-2.672,26.724,11.176,5.1,37.171,5.1,43,2.794,48.1-24.784,54.663-36.925-23.566-36.925-41.787,6.772-64.774,29.883-67.053" transform="translate(-525.987 -88.959)" fill="#ff9b79"/>
        <path id="Path_2404" data-name="Path 2404" d="M1065.878,205.63c-.968,2.106-1.871,4.339-2.7,6.66a218.716,218.716,0,0,1,28.934-6.64c3.9,13.474,12.12,22.723,25.633,22.723a66.994,66.994,0,0,0-1.521-17.107c-15.814-6.472-33.755-15.729-50.342-5.635" transform="translate(-534.186 -101.074)" fill="#f56c63"/>
        <path id="Path_2405" data-name="Path 2405" d="M662.234,415.6c-.331-.408-27.929-26.676-33.387-25.032-9.081,2.367,11.1,17.427,13.286,20.252a30.436,30.436,0,0,1,2.911,4.865c-.715.2-1.384.39-1.986.535-5.2,1.251-19.066,3.842-21.039,7.065,0,0-.373,18.165,4.4,18.266s9.6-1.645,14.722-1.129c2.561.258,5.194-1,7.187-2.325.32-.212.621-.426.906-.636a3.714,3.714,0,0,0-.159,3.736c2.446,4.972,19.373-3.6,20.108-6.778s-3.041-14.012-6.947-18.818m-3.874,16.426a21.86,21.86,0,0,0-6.8,3.063c-.653-1.714-3.89-10.45-3.358-13.935l0,0c2.356-2.491,7.5-2.565,10.022-1.486a2.38,2.38,0,0,1,.7,1.228c.8,3.307,2.5,10.392-.568,11.132" transform="translate(-312.528 -196.202)" fill="#ff9b79"/>
        <path id="Path_2406" data-name="Path 2406" d="M698.724,530.748s39.358,101.066,54.42,108.84S823.412,563.3,823.412,563.3s2.13-79.679-4.672-79.679-34.769,33.265-42.814,53.274c-8.185,20.355-7.9,30.642-18.894,10.864-11.235-20.206-30.976-47.348-30.976-47.348-11.338,11.338-27.332,30.341-27.332,30.341" transform="translate(-351.071 -242.993)" fill="#ccd3e6"/>
        <path id="Path_2407" data-name="Path 2407" d="M1049.3,157.734s-9.718-1.215-15.548,3.4-18.707,6.8-26.238,42.516-1.458,39.843-1.458,39.843,8,16.52-2.314,29.154-30.567,7.86-41.9,1.215c-16.486-9.664-13.552-43.184-6.614-65.115a64.913,64.913,0,0,1,2.578-7.438c2.178-4.931,2.9-10.6,6.052-15.788,10.2-16.787,28.781-32.129,61.635-31.3,0,0,14.82-.859,23.808,3.514" transform="translate(-477.167 -77.455)" fill="#141944"/>
        <path id="Path_2408" data-name="Path 2408" d="M963.147,229.387c-2.05,6.154-1.759,5.251-3.307,10.147q-.495,1.562-.96,3.2c6.463-3.73,7.734-4.756,15.113-8.531a223.263,223.263,0,0,1,42.824-16.476q.444-1.194.9-2.3c-18.966,1.781-37.8,5.208-54.567,13.963" transform="translate(-481.785 -108.241)" fill="#130025"/>
        <path id="Path_2409" data-name="Path 2409" d="M967.547,199.4c36.046-18.85,60.272-20.547,101.587-17.856V191.5c-34.688.128-68.962,9.554-97.772,24.244-7.747,3.964-11.9,6.671-11.937,6.693Z" transform="translate(-482.059 -90.713)" fill="#00ade5"/>
        <path id="Path_2410" data-name="Path 2410" d="M1177.079,165.571c0,16.121-12.222,29.19-27.3,29.19s-27.3-13.069-27.3-29.19,12.222-29.19,27.3-29.19,27.3,13.069,27.3,29.19" transform="translate(-563.986 -68.526)" fill="#fff"/>
        <path id="Path_2411" data-name="Path 2411" d="M1178.759,165.571c0,16.121-11.849,29.19-26.466,29.19s-26.467-13.069-26.467-29.19,11.85-29.19,26.467-29.19,26.466,13.069,26.466,29.19" transform="translate(-565.666 -68.526)" fill="#eae9f3"/>
        <path id="Path_2412" data-name="Path 2412" d="M1177.079,165.571c0,16.121-12.222,29.19-27.3,29.19s-27.3-13.069-27.3-29.19,12.222-29.19,27.3-29.19,27.3,13.069,27.3,29.19" transform="translate(-563.986 -68.526)" fill="#7881b6"/>
        <path id="Path_2413" data-name="Path 2413" d="M1178.759,165.571c0,16.121-11.849,29.19-26.466,29.19s-26.467-13.069-26.467-29.19,11.85-29.19,26.467-29.19,26.466,13.069,26.466,29.19" transform="translate(-565.666 -68.526)" fill="#6cbde1"/>
        <path id="Path_2414" data-name="Path 2414" d="M1142.19,160a30.182,30.182,0,0,1,10.9-23.6c-.264-.009-.528-.014-.793-.014-14.617,0-26.467,13.069-26.467,29.19s11.85,29.19,26.467,29.19a24.743,24.743,0,0,0,15.571-5.586c-14.25-.463-25.674-13.348-25.674-29.176" transform="translate(-565.666 -68.526)" fill="#eae9f3"/>
        <path id="Path_2415" data-name="Path 2415" d="M1179.884,188.183a3.949,3.949,0,1,1-3.93-4.334,4.146,4.146,0,0,1,3.93,4.334" transform="translate(-588.878 -92.376)" fill="#fff"/>
        <path id="Path_2416" data-name="Path 2416" d="M562.929,356.161a1.823,1.823,0,0,1-1.5-2.86l69.234-100.326a1.825,1.825,0,0,1,3,2.073L564.432,355.373a1.822,1.822,0,0,1-1.5.788" transform="translate(-281.925 -126.712)" fill="#2c46e6"/>
        <path id="Path_2417" data-name="Path 2417" d="M324.187,587.568a1.824,1.824,0,0,1-1.332-3.071l114.911-122.85a1.824,1.824,0,1,1,2.665,2.493L325.52,586.99a1.822,1.822,0,0,1-1.333.578" transform="translate(-161.97 -231.664)" fill="#2c46e6"/>
        <path id="Path_2418" data-name="Path 2418" d="M461.8,397.819a1.815,1.815,0,0,1-1.061-.342L368.315,331.23a1.824,1.824,0,0,1,2.125-2.966l92.427,66.248a1.824,1.824,0,0,1-1.064,3.307" transform="translate(-184.675 -164.765)" fill="#2c46e6"/>
        <path id="Path_2419" data-name="Path 2419" d="M604.435,676.122a1.825,1.825,0,0,1-1.775-1.41l-49.3-211.4a1.824,1.824,0,1,1,3.553-.829l49.3,211.4a1.825,1.825,0,0,1-1.778,2.239" transform="translate(-278.01 -231.664)" fill="#2c46e6"/>
        <path id="Path_2420" data-name="Path 2420" d="M556.78,444.012a20.524,20.524,0,1,1-20.524-20.524,20.524,20.524,0,0,1,20.524,20.524" transform="translate(-259.127 -212.782)" fill="#2c46e6"/>
        <path id="Path_2421" data-name="Path 2421" d="M556.853,449.492a13.079,13.079,0,1,1-13.079-13.079,13.079,13.079,0,0,1,13.079,13.079" transform="translate(-266.645 -219.276)" fill="#ccd3e6"/>
        <path id="Path_2422" data-name="Path 2422" d="M265.019,331.134H177.512a9.5,9.5,0,0,1-9.5-9.5V248.06a9.5,9.5,0,0,1,9.5-9.5h87.506a9.5,9.5,0,0,1,9.5,9.5v73.575a9.5,9.5,0,0,1-9.5,9.5" transform="translate(-84.418 -119.866)" fill="#ccd3e6"/>
        <path id="Path_2423" data-name="Path 2423" d="M270.22,240.537a9.45,9.45,0,0,1,.984,4.209v73.576a9.5,9.5,0,0,1-9.5,9.5H174.2a9.463,9.463,0,0,1-4.209-.983,9.5,9.5,0,0,0,8.515,5.29h87.506a9.5,9.5,0,0,0,9.5-9.5V249.053a9.5,9.5,0,0,0-5.29-8.516" transform="translate(-85.411 -120.859)" fill="#2c46e6"/>
        <path id="Path_2424" data-name="Path 2424" d="M265.019,697.467H177.512a9.5,9.5,0,0,1-9.5-9.5V614.393a9.5,9.5,0,0,1,9.5-9.5h87.506a9.5,9.5,0,0,1,9.5,9.5v73.575a9.5,9.5,0,0,1-9.5,9.5" transform="translate(-84.418 -303.928)" fill="#ccd3e6"/>
        <path id="Path_2425" data-name="Path 2425" d="M270.22,606.87a9.451,9.451,0,0,1,.984,4.209v73.576a9.5,9.5,0,0,1-9.5,9.5H174.2a9.45,9.45,0,0,1-4.209-.984,9.5,9.5,0,0,0,8.515,5.29h87.506a9.5,9.5,0,0,0,9.5-9.5V615.386a9.5,9.5,0,0,0-5.29-8.516" transform="translate(-85.411 -304.921)" fill="#2c46e6"/>
        <path id="Path_2426" data-name="Path 2426" d="M583.2,194.592H684.423a10.146,10.146,0,0,0,10.146-10.146V112.165a10.146,10.146,0,0,0-10.146-10.146H583.2a10.146,10.146,0,0,0-10.146,10.146v72.281A10.146,10.146,0,0,0,583.2,194.592" transform="translate(-287.927 -51.261)" fill="#ccd3e6"/>
        <path id="Path_2427" data-name="Path 2427" d="M579.087,104a8.515,8.515,0,0,0-1.122,4.209v73.575c0,5.246,4.852,9.5,10.838,9.5h99.842a12.052,12.052,0,0,0,4.8-.983,11.065,11.065,0,0,1-9.716,5.289H583.89c-5.985,0-10.838-4.253-10.838-9.5V112.511A9.469,9.469,0,0,1,579.087,104" transform="translate(-287.927 -52.254)" fill="#2c46e6"/>
        <path id="Path_2428" data-name="Path 2428" d="M557.538,825.545H658.763a10.146,10.146,0,0,1,10.146,10.146v72.281a10.146,10.146,0,0,1-10.146,10.146H557.538a10.146,10.146,0,0,1-10.146-10.146V835.691a10.146,10.146,0,0,1,10.146-10.146" transform="translate(-275.035 -414.793)" fill="#ccd3e6"/>
        <path id="Path_2429" data-name="Path 2429" d="M553.427,917.134a8.514,8.514,0,0,1-1.122-4.209V839.35c0-5.246,4.852-9.5,10.838-9.5h99.842a12.043,12.043,0,0,1,4.8.984,11.065,11.065,0,0,0-9.716-5.289H558.23c-5.986,0-10.838,4.253-10.838,9.5v73.576a9.469,9.469,0,0,0,6.035,8.515" transform="translate(-275.035 -414.793)" fill="#2c46e6"/>
        <path id="Path_2430" data-name="Path 2430" d="M239.15,291.167a3.142,3.142,0,1,1-3.142-3.142,3.142,3.142,0,0,1,3.142,3.142" transform="translate(-117.003 -144.719)" fill="#7686e6"/>
        <path id="Path_2431" data-name="Path 2431" d="M312.338,274.6a1.974,1.974,0,1,1-1.974-1.974,1.974,1.974,0,0,1,1.974,1.974" transform="translate(-154.949 -136.98)" fill="#7686e6"/>
        <path id="Path_2432" data-name="Path 2432" d="M243.24,334.026A27.4,27.4,0,0,1,222.879,288.3l.69-.763.508.894a3.926,3.926,0,0,0,1.252,1.337l.719.473-.572.643A23.735,23.735,0,1,0,266.9,308.513a9.835,9.835,0,0,1-7.921-9.639V281.439l2.121-3.233.64.8a2.74,2.74,0,0,0,1.425.937l.993.267-1.521,2.318v16.343a6.165,6.165,0,0,0,12.331,0V282.589l-1.751-2.363.976-.322a2.75,2.75,0,0,0,1.371-1.017l.593-.839,2.47,3.334v17.493a9.82,9.82,0,0,1-8.06,9.664,27.344,27.344,0,0,1-27.325,25.487" transform="translate(-108.452 -139.706)" fill="#7686e6"/>
        <path id="Path_2433" data-name="Path 2433" d="M331.381,274.6a1.974,1.974,0,1,1-1.974-1.974,1.974,1.974,0,0,1,1.974,1.974" transform="translate(-164.517 -136.98)" fill="#7686e6"/>
        <path id="Path_2434" data-name="Path 2434" d="M270.358,316.834h-7.429V309.4h-8.2v7.429H247.3v8.2h7.429v7.429h8.2v-7.429h7.429Z" transform="translate(-124.254 -155.461)" fill="#7686e6"/>
        <path id="Path_2435" data-name="Path 2435" d="M661.514,179.624h-2.371l-4.914-6.777-3.714,15.292L647.656,161.6l-7.685,17.288-3.371-6.128-4.3,7.721-5.861-7.166-2.64,13.049-2.477-22.433-8.432,15.227H592.607a.923.923,0,1,0,0,1.846h22.255l4.6-8.307,3.511,31.788,5.108-25.251,4.705,5.754,3.8-6.814,3.674,6.677,5.7-12.821,3.48,32.3,6.148-25.316,1.779,2.452h5.388a19.9,19.9,0,0,1-1.236-1.846" transform="translate(-297.289 -81.2)" fill="#7686e6"/>
        <path id="Path_2436" data-name="Path 2436" d="M749.163,168.477a11.97,11.97,0,0,1,9.372-4.366,9.391,9.391,0,0,1,9.372,9.7c0,6.041-5.212,13.189-18.744,19.4-13.532-6.213-18.744-13.361-18.744-19.4a9.391,9.391,0,0,1,9.372-9.7,11.971,11.971,0,0,1,9.372,4.366" transform="translate(-366.996 -82.459)" fill="#fd6100"/>
        <g id="Group_1376" data-name="Group 1376" transform="translate(302.33 429.356)" opacity="0.66">
          <g id="Group_1375" data-name="Group 1375">
            <g id="Group_1374" data-name="Group 1374" clip-path="url(#clip-path-4)">
              <path id="Path_2437" data-name="Path 2437" d="M660.744,905.752l-48.226-6.173a5.594,5.594,0,0,1-4.839-6.259l3.263-25.5a5.594,5.594,0,0,1,6.26-4.838l48.226,6.173a5.594,5.594,0,0,1,4.838,6.259L667,900.913a5.594,5.594,0,0,1-6.259,4.839" transform="translate(-607.633 -862.937)" fill="#fff"/>
            </g>
          </g>
        </g>
        <path id="Path_2438" data-name="Path 2438" d="M626.836,878.3l-1.316-2.967a2.376,2.376,0,0,0-2.171-1.413H601.093a2.376,2.376,0,0,0-2.376,2.376v15.112h.039v28.483a2.375,2.375,0,0,0,2.376,2.375h65.652a2.375,2.375,0,0,0,2.376-2.375v-37.8a2.376,2.376,0,0,0-2.376-2.376H629.008a2.376,2.376,0,0,1-2.172-1.413" transform="translate(-300.823 -439.098)" fill="#7686e6"/>
        <path id="Path_2439" data-name="Path 2439" d="M671.849,916.031a13.116,13.116,0,1,1-13.116-13.116,13.115,13.115,0,0,1,13.116,13.116" transform="translate(-324.387 -453.668)" fill="#eae9f3"/>
        <path id="Path_2440" data-name="Path 2440" d="M671.877,915.431h-6.585v-6.585h-7.269v6.585h-6.585V922.7h6.585v6.586h7.269V922.7h6.585Z" transform="translate(-327.312 -456.648)" fill="#fd6100"/>
        <path id="Path_2441" data-name="Path 2441" d="M251.519,662.459a6.519,6.519,0,1,0,6.519-6.519,6.519,6.519,0,0,0-6.519,6.519" transform="translate(-126.375 -329.576)" fill="#00ade5"/>
        <rect id="Rectangle_665" data-name="Rectangle 665" width="9.445" height="9.089" transform="translate(141.592 341.492)" fill="#7686e6"/>
        <rect id="Rectangle_666" data-name="Rectangle 666" width="6.651" height="2.555" transform="translate(142.989 351.11)" fill="#7686e6"/>
        <path id="Path_2442" data-name="Path 2442" d="M280.758,651.459a9.887,9.887,0,0,0-1.7-5.551v-6.271a2.732,2.732,0,0,0,2.732-2.731v-4.978h9.47v4.978a2.731,2.731,0,0,0,2.731,2.731v16.133a2.548,2.548,0,0,1-2.548,2.548h-9.837a2.548,2.548,0,0,1-2.363-1.594,9.885,9.885,0,0,0,1.512-5.266" transform="translate(-140.213 -317.512)" fill="#7686e6"/>
        <rect id="Rectangle_667" data-name="Rectangle 667" width="14.008" height="3.348" transform="translate(139.311 311.07)" fill="#7686e6"/>
        <path id="Path_2443" data-name="Path 2443" d="M236.819,669.277q-.045.468-.045.948a9.962,9.962,0,0,0,7.859,9.725,8.6,8.6,0,0,0-3.1,4.016,11.474,11.474,0,0,0,.755,8.929,18.485,18.485,0,0,0,7.439,7.711l-1.178,4.153c-16.316-4.635-23.247-22.732-11.724-35.481" transform="translate(-116.12 -336.277)" fill="#7686e6"/>
        <rect id="Rectangle_668" data-name="Rectangle 668" width="13.655" height="9.162" transform="translate(124.836 364.192)" fill="#7686e6"/>
        <path id="Path_2444" data-name="Path 2444" d="M228,755.272h50.685V753.76a3.377,3.377,0,0,0-3.376-3.377H231.375A3.377,3.377,0,0,0,228,753.76Z" transform="translate(-114.557 -377.029)" fill="#8088c2"/>
        <rect id="Rectangle_669" data-name="Rectangle 669" width="26.077" height="4.581" transform="translate(133.352 356.821)" fill="#fff"/>
        <path id="Path_2445" data-name="Path 2445" d="M1185.757,483.321s-5.005,55.539,2.559,97.834c1.9,10.626,31.24,15.344,47.271,27.413,26.72,20.116,45.345,47.267,50.094,58.055,10.831-4.887,10.766-53.665,4.836-73.039-6.447-12.878-104.76-110.263-104.76-110.263" transform="translate(-594.963 -242.844)" fill="#ccd3e6"/>
        <path id="Path_2446" data-name="Path 2446" d="M1331.267,611.345l-103.359-12.5L1163.165,722.2h83.825Z" transform="translate(-584.427 -300.89)" fill="#00158e"/>
        <g id="Group_1379" data-name="Group 1379" transform="translate(641.636 297.957)" opacity="0.44">
          <g id="Group_1378" data-name="Group 1378">
            <g id="Group_1377" data-name="Group 1377" clip-path="url(#clip-path-5)">
              <path id="Path_2447" data-name="Path 2447" d="M1310.505,722.2l84.277-110.855-103.359-12.5-1.846,3.517c16.16,4.231,47.422,14.146,52.062,28.5,4.957,15.333-31.124,69.083-46.755,91.334Z" transform="translate(-1289.578 -598.848)" fill="#000f6b"/>
            </g>
          </g>
        </g>
        <path id="Path_2448" data-name="Path 2448" d="M1219.121,587.568l-65.879,126.76,4.937,2.2,64.743-123.353,103.358,12.5-6.3-4.934Z" transform="translate(-579.441 -295.223)" fill="#141944"/>
        <path id="Path_2449" data-name="Path 2449" d="M1654.711,577.35l5.789,22.1,18.606-7.207-3.343-19.576Z" transform="translate(-831.403 -287.738)" fill="#ff9b79"/>
        <path id="Path_2450" data-name="Path 2450" d="M1472.832,466.2c-1.6-2.286-12.5-16.262-14.357-14.963s4.85,10.7,5.849,12.132a6.054,6.054,0,0,0-5.714,4c-1.264,2.881,6.683,16.6,10.014,22.05,2.908-.91,7.2-4.39,7.055-7.39.007-5.651-1.622-14.074-2.848-15.826" transform="translate(-732.642 -226.682)" fill="#ff9b79"/>
        <path id="Path_2451" data-name="Path 2451" d="M1670.967,574.813l-16.256,3.614,2.11,8.055a15.4,15.4,0,0,0,10.87-7.305,50.1,50.1,0,0,1,3.276-4.364" transform="translate(-831.402 -288.814)" fill="#f56c63"/>
        <path id="Path_2452" data-name="Path 2452" d="M1631.45,1239.079l-2.237,12.665-9.967.712,1.7-22.2Z" transform="translate(-813.583 -618.138)" fill="#ff9b79"/>
        <path id="Path_2453" data-name="Path 2453" d="M1606.834,1267.651s-9.217.166-11.234-1.428-4.152,1.485-7.413,5.612-15.423,3.626-16.907,6.879c-1.124,2.464,34.976,1.739,36.8,1.688,1.285-.037-1.247-12.751-1.247-12.751" transform="translate(-789.47 -635.995)" fill="#00123f"/>
        <path id="Path_2454" data-name="Path 2454" d="M1685.838,1235.1l-2.237,12.665-9.967.712,1.7-22.2Z" transform="translate(-840.911 -616.137)" fill="#ff9b79"/>
        <path id="Path_2455" data-name="Path 2455" d="M1661.73,1263.668s-9.216.166-11.234-1.427-4.153,1.485-7.413,5.612-14.756,4.727-16.379,7.913,34.678,2.671,35.475,1.662-.449-13.759-.449-13.759" transform="translate(-817.304 -633.994)" fill="#00123f"/>
        <path id="Path_2456" data-name="Path 2456" d="M1655.741,859.828l1.045,90.645,7.052,88.143,13.223,2.257s11.011-155.716,22.408-172.919c11.384-17.185-1.515-45.562-1.572-45.614h0Z" transform="translate(-831.92 -413.183)" fill="#03257d"/>
        <path id="Path_2457" data-name="Path 2457" d="M1693.229,868.349a44.793,44.793,0,0,0,7.613-28.38c-.295-3.618-6.1-7.628-6.831-10.684l-38.271,34.032,1.045,90.644,3.928,49.092c7.055-42.286,20.168-103.015,22.8-120.406,1.122-1.558,4.868-6.977,9.718-14.3" transform="translate(-831.919 -416.673)" fill="#001b5e"/>
        <path id="Path_2458" data-name="Path 2458" d="M1617.783,812.555s-6.719,82.713-7.261,110.357c-.554,28.248,2.994,112.974,2.994,112.974l15.569.07s23.121-137.824,26.979-163.595c0,0-2.2,3.711,9.194-13.492,11.384-17.185,3.047-41.394,2.991-41.446L1648,824.981Z" transform="translate(-809.17 -408.267)" fill="#141944"/>
        <path id="Path_2459" data-name="Path 2459" d="M1716.306,670.229l-14.369,24.117,6.26,14.361s38.133-30,34.855-38.222c-2.76-6.922-40.868-47.836-51.163-59.074a6.9,6.9,0,0,0-7.362-1.854l-17.676,6.125s51.016,49.236,49.456,54.546" transform="translate(-837.502 -306.078)" fill="#dda019"/>
        <path id="Path_2460" data-name="Path 2460" d="M1619.432,604.538S1614.9,720.9,1603.289,744.491c0,0,52.68-7.764,76.86-7.758,0,0-.572-98.563-12.259-120.428s-37.089-17.844-48.458-11.767" transform="translate(-805.565 -301.335)" fill="#ffc331"/>
        <path id="Path_2461" data-name="Path 2461" d="M1660.366,665.908c11.277-5.992,14.9-14.272,15.114-24.81.156-7.664-25.563-3.659-42.472-2.6-.312,5.98-.726,13.359-1.252,21.534,6.491,7.119,20.455,10.211,28.61,5.878" transform="translate(-819.869 -319.811)" fill="#dda019"/>
        <path id="Path_2462" data-name="Path 2462" d="M1491.338,562.978s36.473,31.261,65.55,30.087,32.883-8.164,35.38-15.917-14.077-18.38-30.7-21.568-46.259-2.868-50.815-7.071-27.941-35.759-29.914-41.25l-14.1,6Z" transform="translate(-736.957 -254.872)" fill="#ffc331"/>
        <path id="Path_2463" data-name="Path 2463" d="M1649.756,509.69a26.7,26.7,0,0,0-9.135,8.675,42.042,42.042,0,0,1-8.713,9.576l1.975,3.183s-4.495,3.244-4.064,8.176c.949,10.87,17.753,12.776,26.119,6.467,2.274-1.715,9.324-3.866,11.629-7.734,6.175-10.363,4.359-26.311-17.812-28.344" transform="translate(-818.881 -256.094)" fill="#ff9b79"/>
        <path id="Path_2464" data-name="Path 2464" d="M1669.086,517.567s-5.59-10.353-2.951-17.635a26.605,26.605,0,0,1-11.025-2.893c-8.854-5,1.908-23.629,15.206-10.352,0,0-1.143-9.006,8.276-7.4s12.86,5.364,11.161,14.31,2.2,4.984,5.07,10.208-12.233,23.994-19.3,24.687l-7.065.692s10.087-5.65,7.257-9.928-6.631-1.689-6.631-1.689" transform="translate(-829.98 -240.721)" fill="#141944"/>
        <path id="Path_2465" data-name="Path 2465" d="M1244.647,758.847c1.88-1.5,17.618,8.278,26.658,14.122.018-.123.036-.244.054-.365-8.507-6.311-23.4-13.842-19.993-16.009,1.746-1.111,39.128,13.951,39.133,13.954,3.936,1.783,4.117,1.952,8.178,3.747-.964-2.344-10.745-18.268-4.145-17.487l21.834,28.551c3.7,6.072,3.574,9.754,2.654,12.92-1.132,3.9-6.607,14.35-15.53,16.45-8.594,2.022-31.888-11.133-35.535-14.541-3.918-3.371-30.626-26.716-26.36-33.222,0,0,22.267,21.738,24.631,19.042.138-.622-22.017-15.334-23.751-21.081-1.242-4.116,18.131,8.428,26.619,14.716-7.61-6.245-25.745-19.762-24.448-20.8" transform="translate(-623.603 -380.12)" fill="#ff9b79"/>
        <path id="Path_2466" data-name="Path 2466" d="M336.363,1063.744H267.81a27.129,27.129,0,0,1-27.129-27.129V862.442a27.129,27.129,0,0,1,27.129-27.129h68.553a27.129,27.129,0,0,1,27.129,27.129v174.173a27.129,27.129,0,0,1-27.129,27.129" transform="translate(-120.929 -419.701)" fill="#2c46e6"/>
        <path id="Path_2467" data-name="Path 2467" d="M429.465,835.313h-3.486a27.129,27.129,0,0,1,27.129,27.129v174.173a27.129,27.129,0,0,1-27.129,27.129h3.486a27.129,27.129,0,0,0,27.129-27.129V862.442a27.129,27.129,0,0,0-27.129-27.129" transform="translate(-214.031 -419.701)" fill="#2134ad"/>
        <path id="Path_2468" data-name="Path 2468" d="M339.884,842.32H271.331a23.67,23.67,0,0,0-23.643,23.643v174.173a23.67,23.67,0,0,0,23.643,23.643h68.553a23.669,23.669,0,0,0,23.643-23.643V865.963a23.669,23.669,0,0,0-23.643-23.643" transform="translate(-124.45 -423.222)" fill="#cbd4ff"/>
        <path id="Path_2469" data-name="Path 2469" d="M364.685,864.161H341.6a1.273,1.273,0,1,1,0-2.547h23.083a1.273,1.273,0,1,1,0,2.547" transform="translate(-170.996 -432.916)" fill="#8088c2"/>
        <path id="Path_2470" data-name="Path 2470" d="M364.539,880.945H336.771a1.4,1.4,0,1,1,0-2.794h27.768a1.4,1.4,0,1,1,0,2.794" transform="translate(-168.507 -441.225)" fill="#8088c2"/>
        <path id="Path_2471" data-name="Path 2471" d="M318.81,879.022a1.918,1.918,0,1,1-1.918-1.918,1.918,1.918,0,0,1,1.918,1.918" transform="translate(-158.258 -440.699)" fill="#8088c2"/>
        <path id="Path_2472" data-name="Path 2472" d="M363.993,1246.914a10.459,10.459,0,1,1-10.46-10.459,10.46,10.46,0,0,1,10.46,10.459" transform="translate(-172.376 -621.253)" fill="#727586"/>
        <path id="Path_2473" data-name="Path 2473" d="M360.536,1246.914a10.459,10.459,0,1,1-10.459-10.459,10.46,10.46,0,0,1,10.459,10.459" transform="translate(-170.639 -621.253)" fill="#dfe5ff"/>
        <path id="Path_2474" data-name="Path 2474" d="M357.6,1070.8H266.235a5.566,5.566,0,0,1-5.566-5.566V924.3a5.566,5.566,0,0,1,5.566-5.566H357.6a5.566,5.566,0,0,1,5.566,5.566v140.936a5.566,5.566,0,0,1-5.566,5.566" transform="translate(-130.972 -461.617)" fill="#fff"/>
        <path id="Path_2475" data-name="Path 2475" d="M265.341,1067.782V927.262a3.049,3.049,0,0,1,3.049-3.049h91.754a3.049,3.049,0,0,1,3.049,3.049v140.519a3.049,3.049,0,0,1-3.049,3.05H268.39a3.049,3.049,0,0,1-3.049-3.05" transform="translate(-133.319 -464.369)" fill="#fff"/>
        <path id="Path_2476" data-name="Path 2476" d="M360.378,924.213H268.158a3.092,3.092,0,0,0-2.816,3.3V948.74h97.853V927.515a3.092,3.092,0,0,0-2.816-3.3" transform="translate(-133.32 -464.369)" fill="#ccd3e6"/>
        <rect id="Rectangle_671" data-name="Rectangle 671" width="55.628" height="3.74" transform="translate(154.877 488.884)" fill="#6b9ece"/>
        <path id="Path_2477" data-name="Path 2477" d="M284.926,982.744l5.256,3.558v-7.116Z" transform="translate(-143.16 -491.99)" fill="#6b9ece"/>
        <path id="Path_2478" data-name="Path 2478" d="M436.4,982.744l-5.256,3.558v-7.116Z" transform="translate(-216.625 -491.99)" fill="#6b9ece"/>
        <path id="Path_2479" data-name="Path 2479" d="M300.1,948.258h-24.16a4.53,4.53,0,0,1-4.53-4.53v-2.385a4.53,4.53,0,0,1,4.53-4.53H300.1a4.53,4.53,0,0,1,4.53,4.53v2.385a4.53,4.53,0,0,1-4.53,4.53" transform="translate(-136.371 -470.699)" fill="#00ade5"/>
        <path id="Path_2480" data-name="Path 2480" d="M439.326,948.258h-5.881a2.328,2.328,0,0,1-2.328-2.328v-6.79a2.328,2.328,0,0,1,2.328-2.328h5.881a2.328,2.328,0,0,1,2.328,2.328v6.79a2.328,2.328,0,0,1-2.328,2.328" transform="translate(-216.613 -470.699)" fill="#6b9ece"/>
        <rect id="Rectangle_672" data-name="Rectangle 672" width="1.685" height="7.426" transform="translate(218.93 467.986)" fill="#fff"/>
        <rect id="Rectangle_673" data-name="Rectangle 673" width="6.333" height="1.976" transform="translate(216.606 470.712)" fill="#fff"/>
        <g id="Group_1382" data-name="Group 1382" transform="translate(136.903 507.726)" opacity="0.18">
          <g id="Group_1381" data-name="Group 1381">
            <g id="Group_1380" data-name="Group 1380" clip-path="url(#clip-path-6)">
              <rect id="Rectangle_674" data-name="Rectangle 674" width="10.822" height="93.589" fill="#6b9ece"/>
            </g>
          </g>
        </g>
        <g id="Group_1385" data-name="Group 1385" transform="translate(149.891 507.726)" opacity="0.18">
          <g id="Group_1384" data-name="Group 1384">
            <g id="Group_1383" data-name="Group 1383" clip-path="url(#clip-path-6)">
              <rect id="Rectangle_676" data-name="Rectangle 676" width="10.822" height="93.589" fill="#6b9ece"/>
            </g>
          </g>
        </g>
        <g id="Group_1388" data-name="Group 1388" transform="translate(162.979 507.726)" opacity="0.18">
          <g id="Group_1387" data-name="Group 1387">
            <g id="Group_1386" data-name="Group 1386" clip-path="url(#clip-path-6)">
              <rect id="Rectangle_678" data-name="Rectangle 678" width="10.822" height="93.589" fill="#6b9ece"/>
            </g>
          </g>
        </g>
        <g id="Group_1391" data-name="Group 1391" transform="translate(176.068 507.726)" opacity="0.18">
          <g id="Group_1390" data-name="Group 1390">
            <g id="Group_1389" data-name="Group 1389" clip-path="url(#clip-path-6)">
              <rect id="Rectangle_680" data-name="Rectangle 680" width="10.822" height="93.589" fill="#6b9ece"/>
            </g>
          </g>
        </g>
        <g id="Group_1394" data-name="Group 1394" transform="translate(189.156 507.726)" opacity="0.18">
          <g id="Group_1393" data-name="Group 1393">
            <g id="Group_1392" data-name="Group 1392" clip-path="url(#clip-path-6)">
              <rect id="Rectangle_682" data-name="Rectangle 682" width="10.822" height="93.589" fill="#6b9ece"/>
            </g>
          </g>
        </g>
        <g id="Group_1397" data-name="Group 1397" transform="translate(202.245 507.726)" opacity="0.18">
          <g id="Group_1396" data-name="Group 1396">
            <g id="Group_1395" data-name="Group 1395" clip-path="url(#clip-path-6)">
              <rect id="Rectangle_684" data-name="Rectangle 684" width="10.822" height="93.589" transform="translate(-0.001)" fill="#6b9ece"/>
            </g>
          </g>
        </g>
        <g id="Group_1400" data-name="Group 1400" transform="translate(215.333 507.726)" opacity="0.18">
          <g id="Group_1399" data-name="Group 1399">
            <g id="Group_1398" data-name="Group 1398" clip-path="url(#clip-path-6)">
              <rect id="Rectangle_686" data-name="Rectangle 686" width="10.822" height="93.589" transform="translate(0.001)" fill="#6b9ece"/>
            </g>
          </g>
        </g>
        <rect id="Rectangle_688" data-name="Rectangle 688" width="10.822" height="7.108" transform="translate(136.903 496.992)" fill="#6b9ece"/>
        <rect id="Rectangle_689" data-name="Rectangle 689" width="10.822" height="7.108" transform="translate(149.891 496.992)" fill="#6b9ece"/>
        <rect id="Rectangle_690" data-name="Rectangle 690" width="10.822" height="7.108" transform="translate(162.979 496.992)" fill="#6b9ece"/>
        <rect id="Rectangle_691" data-name="Rectangle 691" width="10.822" height="7.108" transform="translate(176.068 496.992)" fill="#6b9ece"/>
        <rect id="Rectangle_692" data-name="Rectangle 692" width="10.822" height="7.108" transform="translate(189.156 496.992)" fill="#6b9ece"/>
        <rect id="Rectangle_693" data-name="Rectangle 693" width="10.822" height="7.108" transform="translate(202.244 496.992)" fill="#fd6100"/>
        <rect id="Rectangle_694" data-name="Rectangle 694" width="10.822" height="7.108" transform="translate(215.334 496.992)" fill="#fd6100"/>
        <rect id="Rectangle_695" data-name="Rectangle 695" width="92.212" height="2.324" transform="translate(135.043 518.51)" fill="#fff"/>
        <rect id="Rectangle_696" data-name="Rectangle 696" width="92.212" height="2.324" transform="translate(135.043 532.477)" fill="#fff"/>
        <rect id="Rectangle_697" data-name="Rectangle 697" width="92.212" height="2.325" transform="translate(135.043 546.443)" fill="#fff"/>
        <rect id="Rectangle_698" data-name="Rectangle 698" width="92.212" height="2.325" transform="translate(135.043 560.409)" fill="#fff"/>
        <rect id="Rectangle_699" data-name="Rectangle 699" width="92.212" height="2.325" transform="translate(135.043 574.376)" fill="#fff"/>
        <rect id="Rectangle_700" data-name="Rectangle 700" width="92.212" height="2.324" transform="translate(134.842 588.343)" fill="#fff"/>
        <path id="Path_2481" data-name="Path 2481" d="M352.231,1064.954l-8.879-3.823,11.127,13.62,9.5-21.317Z" transform="translate(-172.516 -529.295)" fill="#ff1f20"/>
      </g>
    </g>
  </g>
</svg>
