<svg id="Group_1314" data-name="Group 1314" xmlns="http://www.w3.org/2000/svg" xmlns:xlink="http://www.w3.org/1999/xlink" width="760.828" height="690.035" viewBox="0 0 760.828 690.035">
  <defs>
    <clipPath id="clip-path">
      <rect id="Rectangle_565" data-name="Rectangle 565" width="760.828" height="690.035" fill="none"/>
    </clipPath>
    <clipPath id="clip-path-3">
      <rect id="Rectangle_557" data-name="Rectangle 557" width="24.555" height="97.597" fill="none"/>
    </clipPath>
    <clipPath id="clip-path-4">
      <rect id="Rectangle_558" data-name="Rectangle 558" width="22.212" height="122.936" fill="none"/>
    </clipPath>
    <clipPath id="clip-path-5">
      <rect id="Rectangle_559" data-name="Rectangle 559" width="71.328" height="39.108" fill="none"/>
    </clipPath>
    <clipPath id="clip-path-6">
      <rect id="Rectangle_560" data-name="Rectangle 560" width="24.152" height="50.125" fill="none"/>
    </clipPath>
    <clipPath id="clip-path-7">
      <rect id="Rectangle_562" data-name="Rectangle 562" width="98.421" height="20.157" fill="none"/>
    </clipPath>
    <clipPath id="clip-path-8">
      <rect id="Rectangle_563" data-name="Rectangle 563" width="27.946" height="93.637" fill="none"/>
    </clipPath>
  </defs>
  <g id="Group_1313" data-name="Group 1313" clip-path="url(#clip-path)">
    <rect id="Rectangle_543" data-name="Rectangle 543" width="102.529" height="106.878" transform="translate(431.489 0.03)" fill="#e0e0e0"/>
    <rect id="Rectangle_544" data-name="Rectangle 544" width="102.529" height="106.878" transform="translate(424.546 0.03)" fill="#fafafa"/>
    <path id="Path_1802" data-name="Path 1802" d="M255.631.062H358.1V106.877H255.631Zm-.063,106.879H358.159V0H255.568Z" transform="translate(168.946 -0.001)" fill="#e0e0e0"/>
    <rect id="Rectangle_545" data-name="Rectangle 545" width="74.964" height="78.143" transform="translate(438.328 14.398)" fill="#fafafa"/>
    <g id="Group_1312" data-name="Group 1312">
      <g id="Group_1311" data-name="Group 1311" clip-path="url(#clip-path)">
        <path id="Path_1803" data-name="Path 1803" d="M269.331,56.027a12.33,12.33,0,0,1-1.85,2.151c-1.2,1.262-2.879,2.973-4.764,4.83s-3.62,3.513-4.9,4.688a11.982,11.982,0,0,1-2.166,1.806,11.88,11.88,0,0,1,1.84-2.143c1.2-1.264,2.884-2.977,4.776-4.84s3.628-3.521,4.907-4.7a11.775,11.775,0,0,1,2.156-1.8" transform="translate(168.999 37.034)" fill="#e0e0e0"/>
        <path id="Path_1804" data-name="Path 1804" d="M309.016,55.91a12.332,12.332,0,0,1,2.151,1.85c1.264,1.2,2.973,2.879,4.83,4.764s3.513,3.619,4.688,4.9a11.978,11.978,0,0,1,1.806,2.166,11.882,11.882,0,0,1-2.143-1.84c-1.262-1.2-2.977-2.884-4.84-4.776s-3.521-3.628-4.7-4.907a11.708,11.708,0,0,1-1.8-2.156" transform="translate(204.276 36.958)" fill="#e0e0e0"/>
        <path id="Path_1805" data-name="Path 1805" d="M308.892,14.158a12.236,12.236,0,0,1,1.85-2.151c1.2-1.264,2.879-2.973,4.764-4.83s3.62-3.513,4.9-4.688A11.982,11.982,0,0,1,322.571.684a11.9,11.9,0,0,1-1.839,2.143c-1.2,1.262-2.885,2.977-4.777,4.84s-3.628,3.521-4.907,4.7a11.71,11.71,0,0,1-2.156,1.8" transform="translate(204.195 0.449)" fill="#e0e0e0"/>
        <path id="Path_1806" data-name="Path 1806" d="M269.125,14.354a12.237,12.237,0,0,1-2.151-1.85c-1.262-1.2-2.973-2.879-4.83-4.764s-3.513-3.619-4.688-4.9a11.829,11.829,0,0,1-1.8-2.166,11.979,11.979,0,0,1,2.141,1.84c1.264,1.2,2.977,2.884,4.84,4.776s3.521,3.628,4.7,4.907a11.711,11.711,0,0,1,1.8,2.156" transform="translate(168.999 0.444)" fill="#e0e0e0"/>
        <path id="Path_1807" data-name="Path 1807" d="M338.775,86.943c-.005,0-.01-.133-.017-.38,0-.266-.008-.625-.017-1.09q-.013-1.47-.033-4.219c-.018-3.7-.043-9.088-.076-15.926-.035-13.686-.085-33.183-.146-56.528l.289.289-74.751.043h-.007l.332-.332c-.018,28.682-.033,55.514-.047,78.143l-.286-.286,54.129.146,15.205.075,4.021.033,1.04.015c.236.007.357.012.362.017a2.324,2.324,0,0,1-.331.017l-1.008.015-3.968.033-15.141.075-54.31.146h-.286v-.286c-.013-22.629-.028-49.461-.047-78.143V8.469h.339l74.751.042h.291l0,.289c-.06,23.423-.111,42.983-.146,56.714-.033,6.81-.058,12.174-.076,15.86-.015,1.806-.025,3.2-.033,4.163-.007.452-.013.8-.017,1.06a2.547,2.547,0,0,1-.017.347" transform="translate(174.312 5.599)" fill="#e0e0e0"/>
        <rect id="Rectangle_546" data-name="Rectangle 546" width="25.014" height="25.014" transform="translate(463.304 40.963)" fill="#ebebeb"/>
        <rect id="Rectangle_547" data-name="Rectangle 547" width="144.145" height="150.26" transform="translate(37.256 44.181)" fill="#e0e0e0"/>
        <rect id="Rectangle_548" data-name="Rectangle 548" width="144.145" height="150.26" transform="translate(27.494 44.181)" fill="#fafafa"/>
        <path id="Path_1808" data-name="Path 1808" d="M160.76,176.92H16.525V26.571H160.76Zm-144.145-.09H160.67V26.661H16.615Z" transform="translate(10.924 17.565)" fill="#e0e0e0"/>
        <rect id="Rectangle_549" data-name="Rectangle 549" width="105.391" height="109.861" transform="translate(46.87 64.381)" fill="#fafafa"/>
        <path id="Path_1809" data-name="Path 1809" d="M35.873,105.34a17.167,17.167,0,0,1-2.6,3.025c-1.683,1.777-4.048,4.179-6.7,6.792s-5.088,4.938-6.885,6.591a16.864,16.864,0,0,1-3.046,2.536,16.911,16.911,0,0,1,2.588-3.013c1.683-1.776,4.055-4.184,6.714-6.8s5.1-4.952,6.9-6.6a16.673,16.673,0,0,1,3.033-2.526" transform="translate(10.997 69.632)" fill="#e0e0e0"/>
        <path id="Path_1810" data-name="Path 1810" d="M91.668,105.177a17.178,17.178,0,0,1,3.023,2.6c1.777,1.683,4.181,4.048,6.792,6.7s4.938,5.088,6.591,6.885a16.774,16.774,0,0,1,2.536,3.046,16.963,16.963,0,0,1-3.012-2.588c-1.776-1.683-4.186-4.055-6.805-6.714s-4.95-5.1-6.6-6.9a16.523,16.523,0,0,1-2.525-3.033" transform="translate(60.594 69.525)" fill="#e0e0e0"/>
        <path id="Path_1811" data-name="Path 1811" d="M91.494,46.476a17.272,17.272,0,0,1,2.6-3.023c1.683-1.777,4.048-4.181,6.7-6.792s5.088-4.938,6.885-6.591a16.773,16.773,0,0,1,3.046-2.536,16.9,16.9,0,0,1-2.586,3.012c-1.684,1.776-4.055,4.184-6.716,6.8s-5.1,4.952-6.9,6.6a16.507,16.507,0,0,1-3.031,2.525" transform="translate(60.48 18.197)" fill="#e0e0e0"/>
        <path id="Path_1812" data-name="Path 1812" d="M35.584,46.752a17.18,17.18,0,0,1-3.023-2.6c-1.777-1.683-4.181-4.048-6.792-6.7s-4.94-5.088-6.591-6.885a16.872,16.872,0,0,1-2.536-3.045,16.722,16.722,0,0,1,3.012,2.586c1.776,1.683,4.186,4.055,6.8,6.714s4.952,5.1,6.6,6.9a16.485,16.485,0,0,1,2.525,3.031" transform="translate(10.997 18.19)" fill="#e0e0e0"/>
        <path id="Path_1813" data-name="Path 1813" d="M133.506,148.806a5.024,5.024,0,0,1-.023-.533c0-.375-.013-.88-.023-1.535q-.017-2.066-.047-5.93c-.025-5.2-.061-12.775-.106-22.389-.05-19.242-.121-46.653-.208-79.474l.407.405-105.092.061H28.4l.467-.467c-.025,40.324-.048,78.047-.066,109.861l-.4-.4c31.494.085,57.715.156,76.1.2l21.376.1,5.656.047,1.462.023a4.358,4.358,0,0,1,.508.022,3.621,3.621,0,0,1-.463.023l-1.419.022-5.58.047-21.285.1-76.356.2-.4,0,0-.4c-.018-31.814-.042-69.537-.065-109.861l0-.467h.478l105.092.06h.407v.407c-.086,32.929-.156,60.429-.206,79.733-.047,9.576-.083,17.116-.108,22.3q-.03,3.81-.047,5.854c-.01.635-.018,1.125-.023,1.488a3.582,3.582,0,0,1-.023.488" transform="translate(18.467 25.436)" fill="#e0e0e0"/>
        <rect id="Rectangle_550" data-name="Rectangle 550" width="35.168" height="35.168" transform="translate(81.982 101.727)" fill="#ebebeb"/>
        <rect id="Rectangle_551" data-name="Rectangle 551" width="150.715" height="157.108" transform="translate(570.186 87.257)" fill="#e0e0e0"/>
        <rect id="Rectangle_552" data-name="Rectangle 552" width="150.715" height="157.108" transform="translate(559.979 87.257)" fill="#fafafa"/>
        <path id="Path_1814" data-name="Path 1814" d="M487.9,209.7H337.093V52.5H487.9Zm-150.715-.093H487.808V52.6H337.186Z" transform="translate(222.839 34.708)" fill="#e0e0e0"/>
        <rect id="Rectangle_553" data-name="Rectangle 553" width="110.195" height="114.867" transform="translate(580.239 108.378)" fill="#fafafa"/>
        <path id="Path_1815" data-name="Path 1815" d="M357.323,134.862a18.068,18.068,0,0,1-2.719,3.161c-1.759,1.857-4.232,4.37-7,7.1s-5.32,5.164-7.2,6.892a17.672,17.672,0,0,1-3.184,2.653,17.455,17.455,0,0,1,2.7-3.149c1.759-1.857,4.239-4.377,7.02-7.114s5.334-5.178,7.212-6.9,3.085-2.742,3.171-2.639" transform="translate(222.916 89.147)" fill="#e0e0e0"/>
        <path id="Path_1816" data-name="Path 1816" d="M415.661,134.691a18.109,18.109,0,0,1,3.163,2.719c1.857,1.761,4.37,4.232,7.1,7s5.164,5.32,6.892,7.2a17.575,17.575,0,0,1,2.653,3.184,17.608,17.608,0,0,1-3.149-2.7c-1.855-1.759-4.375-4.239-7.114-7.02s-5.176-5.334-6.9-7.212-2.742-3.085-2.639-3.171" transform="translate(274.773 89.036)" fill="#e0e0e0"/>
        <path id="Path_1817" data-name="Path 1817" d="M415.479,73.315a17.953,17.953,0,0,1,2.718-3.163c1.761-1.857,4.232-4.37,7-7.1s5.32-5.164,7.2-6.892a17.643,17.643,0,0,1,3.184-2.653,17.484,17.484,0,0,1-2.7,3.148c-1.757,1.859-4.239,4.377-7.02,7.116s-5.334,5.176-7.212,6.9-3.085,2.742-3.169,2.639" transform="translate(274.654 35.368)" fill="#e0e0e0"/>
        <path id="Path_1818" data-name="Path 1818" d="M357.022,73.6a18.076,18.076,0,0,1-3.161-2.719c-1.857-1.759-4.37-4.232-7.1-7s-5.164-5.32-6.892-7.2a17.67,17.67,0,0,1-2.653-3.184,17.524,17.524,0,0,1,3.149,2.7c1.857,1.759,4.375,4.239,7.114,7.02s5.178,5.334,6.9,7.212,2.742,3.085,2.639,3.171" transform="translate(222.916 35.361)" fill="#e0e0e0"/>
        <path id="Path_1819" data-name="Path 1819" d="M459.407,180.308a4.235,4.235,0,0,1-.025-.558c-.007-.392-.015-.919-.025-1.6-.012-1.44-.028-3.512-.05-6.2-.025-5.442-.063-13.358-.111-23.411-.051-20.119-.126-48.779-.216-83.095l.427.425-109.884.061h-.01L350,65.44c-.027,42.161-.05,81.6-.07,114.867l-.419-.419,79.57.214c9.6.047,17.157.083,22.35.11l5.913.048,1.528.023a5.055,5.055,0,0,1,.533.023,3.291,3.291,0,0,1-.487.023l-1.483.025c-1.355.01-3.3.027-5.834.048-5.169.025-12.692.061-22.253.11l-79.837.213-.419,0v-.42c-.018-33.264-.045-72.706-.07-114.867v-.488h.5l109.884.063h.425l0,.425c-.09,34.429-.163,63.182-.216,83.367-.048,10.011-.086,17.9-.111,23.315q-.032,3.982-.05,6.119c-.01.663-.018,1.176-.023,1.556a4.35,4.35,0,0,1-.023.51" transform="translate(230.727 42.937)" fill="#e0e0e0"/>
        <rect id="Rectangle_554" data-name="Rectangle 554" width="36.769" height="36.771" transform="translate(616.952 147.426)" fill="#ebebeb"/>
        <path id="Path_1820" data-name="Path 1820" d="M21.135,368.979v76.935h236.6V368.979Z" transform="translate(13.971 243.918)" fill="#f5f5f5"/>
        <path id="Path_1821" data-name="Path 1821" d="M15.158,356.03v21.509h254.8V356.03H15.158Z" transform="translate(10.021 235.358)" fill="#e0e0e0"/>
        <path id="Path_1822" data-name="Path 1822" d="M93.831,454.474H212.958V377.539h8.272V356.03H88.867v19.519Z" transform="translate(58.746 235.358)" fill="#e0e0e0"/>
        <rect id="Rectangle_555" data-name="Rectangle 555" width="47.981" height="11.581" transform="translate(68.197 625.304)" fill="#e0e0e0"/>
        <rect id="Rectangle_556" data-name="Rectangle 556" width="61.61" height="24.454" transform="translate(62.022 651.364)" fill="#fff"/>
        <path id="Path_1823" data-name="Path 1823" d="M265.373,289.69s-3.884-16.883-19.547-16.036-19.466.845-26.24,0-17.252-8.993-20.217-6.453-1.307,8.044,4.2,12.94,14.953,8.224,14.953,8.224L198.5,291.806s-18.034-9.624-22.268-7.93-3.9,6.378-3.9,6.378-7.483-3.365-9.6-.4-2.633,4.942-.517,6.634c0,0-1.389-1.372-5.277-.226-3.322.982-3.038,7.106.007,8.757l1.027.59s28.363,16.34,29.23,16.454c5.01.664,35.582-.636,51.322-1.367a16.093,16.093,0,0,1,14.363,7.5l25.351,40.179,28.625-32.967Z" transform="translate(102.168 176.313)" fill="#b78876"/>
        <path id="Path_1824" data-name="Path 1824" d="M208.1,290.1a31.1,31.1,0,0,1-4.634,1.023c-2.928.555-7.061,1.289-11.867,2.106l-.123.02-.12-.055-6.408-2.937-15.3-7.083-4.614-2.2a7.763,7.763,0,0,1-1.643-.915,7.965,7.965,0,0,1,1.779.608l4.726,1.95,6.965,2.993,8.447,3.862,6.4,2.975-.242-.033c4.812-.762,8.963-1.389,11.915-1.8a31.192,31.192,0,0,1,4.719-.513" transform="translate(108.011 185.131)" fill="#aa6550"/>
        <path id="Path_1825" data-name="Path 1825" d="M190.639,290.645c.078.256-3.231,1.09-6.413,3.654-3.221,2.518-4.784,5.553-5.015,5.418-.211-.047,1.076-3.427,4.477-6.1,3.37-2.7,6.955-3.193,6.952-2.977" transform="translate(118.455 192.105)" fill="#aa6550"/>
        <path id="Path_1826" data-name="Path 1826" d="M212.888,276.392c.1-.012.179,1.027.731,2.694a13.97,13.97,0,0,0,3.859,5.943l.578.52-.772.146A40.644,40.644,0,0,0,209.511,288,41.057,41.057,0,0,0,198.6,294.7c-2.513,2.139-3.834,3.726-3.95,3.624a4.728,4.728,0,0,1,.827-1.2,30.11,30.11,0,0,1,2.714-2.884A36.754,36.754,0,0,1,209.18,287.2a37.169,37.169,0,0,1,7.97-2.269l-.2.666a13.4,13.4,0,0,1-3.777-6.383,6.588,6.588,0,0,1-.289-2.824" transform="translate(128.673 182.712)" fill="#aa6550"/>
        <path id="Path_1827" data-name="Path 1827" d="M203.147,279.284c.075.246-4.769,1.794-10.913,2.932-3.071.576-5.874.965-7.91,1.166a12.128,12.128,0,0,1-3.317.131c-.03-.254,4.96-.993,11.066-2.148,2.855-.563,5.448-1.076,7.805-1.543a15.226,15.226,0,0,1,3.269-.538" transform="translate(119.657 184.606)" fill="#aa6550"/>
        <path id="Path_1828" data-name="Path 1828" d="M191.185,297.743a40.892,40.892,0,0,1-4.744-1.9c-2.905-1.208-6.971-2.742-11.5-4.365s-8.624-3.146-11.533-4.39a25.12,25.12,0,0,1-4.6-2.244,37.167,37.167,0,0,1,4.827,1.676l11.6,4.144c4.535,1.626,8.594,3.261,11.453,4.621a23.537,23.537,0,0,1,4.5,2.453" transform="translate(104.98 188.294)" fill="#aa6550"/>
        <path id="Path_1829" data-name="Path 1829" d="M187.507,292.219c.078.211-2.551,1.292-6.011,1.628s-6.251-.194-6.216-.415c.027-.252,2.777-.1,6.129-.447,3.354-.321,6.023-1.007,6.1-.766" transform="translate(115.871 193.142)" fill="#aa6550"/>
        <path id="Path_1830" data-name="Path 1830" d="M315.754,233.784s-25.32,14.566-30.623,59.081c-2.764,23.207-12.872,66.364-12.872,66.364l-20.785-23.368-31.432,35.994s33.967,72.5,53.232,92.267,57.243,25.856,57.243,25.856l7.648-121.165Z" transform="translate(145.461 154.546)" fill="#f7536e"/>
        <path id="Path_1831" data-name="Path 1831" d="M474.553,225.8,416.039,215.56l-74.595,3.7s-62.124,25.643-58.964,26.567l-12.1,119.932,30.01,57.946-7.4,123.394H498.821l-10.744-85.809-13.47-103.4,25.559,80.048L504.042,547.1h57.313c6.051-47.538,7.95-113.585,7.95-113.585L522.531,280.732a89.139,89.139,0,0,0-39.618-50.8,49.054,49.054,0,0,0-8.36-4.133" transform="translate(178.735 142.499)" fill="#f7536e"/>
        <path id="Path_1832" data-name="Path 1832" d="M277.265,270.205a3.285,3.285,0,0,1,.143.61c.083.449.194,1.045.336,1.8.282,1.638.686,3.967,1.2,6.945,1.02,6.035,2.473,14.77,4.146,25.587s3.555,23.712,5.345,38.075c1.772,14.362,3.475,30.195,4.432,46.878.088,1.551.174,3.1.254,4.531l0,.015v.017c-.875,32.371-1.869,61.456-2.777,82.447-.458,10.495-.88,18.964-1.242,24.81-.193,2.882-.344,5.136-.452,6.722-.06.732-.106,1.309-.143,1.744a3.023,3.023,0,0,1-.078.593,3.36,3.36,0,0,1-.008-.6c.015-.437.035-1.015.06-1.749.07-1.588.168-3.845.292-6.729.231-5.9.561-14.36.97-24.816.754-20.992,1.649-50.081,2.513-82.445l0,.032c-.081-1.432-.168-2.975-.256-4.523-.955-16.655-2.631-32.475-4.36-46.832-1.746-14.357-3.568-27.256-5.158-38.08-1.631-10.784-2.952-19.526-3.875-25.625-.445-2.988-.8-5.327-1.042-6.97-.1-.764-.188-1.365-.249-1.817a3.367,3.367,0,0,1-.056-.623" transform="translate(183.286 178.622)" fill="#141944"/>
        <path id="Path_1833" data-name="Path 1833" d="M385.8,300.3a2.647,2.647,0,0,1-.186-.762c-.1-.608-.223-1.339-.367-2.219-.076-.5-.158-1.032-.246-1.61-.068-.59-.09-1.236-.14-1.93a42,42,0,0,1-.154-4.717q.03-1.318.06-2.747c.031-.955.178-1.942.267-2.967a62.478,62.478,0,0,1,.995-6.5,65.687,65.687,0,0,1,12.647-27.1,62.153,62.153,0,0,1,4.344-4.937c.728-.728,1.39-1.473,2.1-2.11s1.405-1.233,2.068-1.812a42.1,42.1,0,0,1,3.714-2.91c.563-.409,1.073-.806,1.57-1.133l1.39-.845,1.937-1.143a2.728,2.728,0,0,1,.7-.347,2.758,2.758,0,0,1-.615.5c-.5.347-1.111.769-1.842,1.276l-1.34.9c-.478.345-.97.759-1.515,1.181a45.626,45.626,0,0,0-3.6,2.985q-.964.88-2.01,1.834c-.693.643-1.336,1.392-2.045,2.121-1.45,1.435-2.781,3.163-4.232,4.932a67.5,67.5,0,0,0-12.5,26.775c-.424,2.247-.892,4.377-1.061,6.41-.1,1.012-.266,1.985-.314,2.93s-.078,1.847-.115,2.718a46.021,46.021,0,0,0,.025,4.678c.027.688.025,1.332.068,1.92.061.576.116,1.111.169,1.606.081.885.149,1.621.206,2.232a2.767,2.767,0,0,1,.013.789" transform="translate(254.299 155.026)" fill="#141944"/>
        <path id="Path_1834" data-name="Path 1834" d="M422.088,388.6a5.034,5.034,0,0,1-.382-.99c-.242-.746-.553-1.7-.938-2.884-.821-2.618-1.953-6.226-3.339-10.641-2.812-8.986-6.682-21.4-11.124-35.063s-8.569-26.011-11.888-34.8c-1.724-4.367-3.405-7.789-4.433-10.219-.522-1.209-.909-2.158-1.156-2.806a4.792,4.792,0,0,1-.336-1.007,4.944,4.944,0,0,1,.495.937l1.3,2.736c1.118,2.38,2.885,5.764,4.693,10.129,3.483,8.777,7.689,21.087,12.144,34.758s8.224,26.12,10.887,35.153c1.332,4.518,2.375,8.182,3.078,10.722.321,1.2.58,2.173.782,2.93a4.829,4.829,0,0,1,.214,1.04" transform="translate(256.814 191.837)" fill="#141944"/>
        <path id="Path_1835" data-name="Path 1835" d="M450.316,348.144c-.043.148-2.224-.492-5.825-1.051a53.977,53.977,0,0,0-27.939,3.05c-3.4,1.324-5.387,2.417-5.462,2.282a5.77,5.77,0,0,1,1.332-.89,34.436,34.436,0,0,1,3.9-1.958,48.4,48.4,0,0,1,28.276-3.086,34.548,34.548,0,0,1,4.229,1.071,5.778,5.778,0,0,1,1.492.583" transform="translate(271.755 228.482)" fill="#141944"/>
        <path id="Path_1836" data-name="Path 1836" d="M296.765,363.651a20.745,20.745,0,0,1-1.548-2.309c-1.017-1.468-2.515-3.575-4.521-6.063-3.965-5.015-9.794-11.667-16.268-18.983s-12.347-13.948-16.484-18.841c-2.065-2.452-3.722-4.445-4.832-5.854a16.91,16.91,0,0,1-1.664-2.234,17.408,17.408,0,0,1,1.922,2.017c1.287,1.45,2.985,3.36,5.036,5.669,4.36,4.882,10.207,11.43,16.67,18.669,6.478,7.32,12.245,14.049,16.1,19.182a72.96,72.96,0,0,1,4.324,6.257c.462.771.761,1.407.98,1.826a2.3,2.3,0,0,1,.282.664" transform="translate(166.22 204.51)" fill="#141944"/>
        <g id="Group_1295" data-name="Group 1295" transform="translate(451.224 546.926)" opacity="0.3">
          <g id="Group_1294" data-name="Group 1294">
            <g id="Group_1293" data-name="Group 1293" clip-path="url(#clip-path-3)">
              <path id="Path_1837" data-name="Path 1837" d="M294.846,426.86c.943-33.545,2.681-64.474-.359-97.6-1.357,29.4-12.064,63.8-22.84,91.184Z" transform="translate(-271.648 -329.263)"/>
            </g>
          </g>
        </g>
        <g id="Group_1298" data-name="Group 1298" transform="translate(644.363 479.03)" opacity="0.3">
          <g id="Group_1297" data-name="Group 1297">
            <g id="Group_1296" data-name="Group 1296" clip-path="url(#clip-path-4)">
              <path id="Path_1838" data-name="Path 1838" d="M396.9,309.747s-9.553-21.36-8.9-21.36c-.94,39.973,7.2,85.849,22.137,122.937Z" transform="translate(-387.921 -288.389)"/>
            </g>
          </g>
        </g>
        <path id="Path_1839" data-name="Path 1839" d="M422.246,369.448a7.869,7.869,0,0,1-1.145.731q-1.256.728-3.359,1.95c-2.9,1.716-7.1,4.194-12.244,7.352-5.153,3.133-11.262,6.917-18.214,10.85a161.278,161.278,0,0,1-23.494,11.1c-8.7,3.063-17.383,5.159-25.452,5.179a38.2,38.2,0,0,1-11.284-1.593,26.812,26.812,0,0,1-8.8-4.611,22.344,22.344,0,0,1-7.9-11.8,16.877,16.877,0,0,1-.513-3.87,7.97,7.97,0,0,1,.076-1.357,25.031,25.031,0,0,0,.762,5.141,22.422,22.422,0,0,0,7.95,11.4,26.418,26.418,0,0,0,8.628,4.407,37.988,37.988,0,0,0,11.069,1.482c7.93-.061,16.531-2.158,25.16-5.2a166.124,166.124,0,0,0,23.4-10.983c6.953-3.885,13.092-7.613,18.287-10.681,5.182-3.09,9.438-5.492,12.393-7.121l3.442-1.809a7.762,7.762,0,0,1,1.228-.578" transform="translate(204.83 244.227)" fill="#141944"/>
        <path id="Path_1840" data-name="Path 1840" d="M395.765,340.162a19.257,19.257,0,0,1-.641,2.892,34.247,34.247,0,0,1-.968,3.339c-.432,1.284-.862,2.772-1.528,4.345-.616,1.593-1.309,3.332-2.2,5.138-.806,1.842-1.857,3.716-2.927,5.707a85.118,85.118,0,0,1-18.571,22.635c-1.746,1.437-3.377,2.835-5.028,3.985-1.6,1.222-3.168,2.241-4.609,3.156-1.414.962-2.789,1.673-3.963,2.349a34.52,34.52,0,0,1-3.085,1.6,19.184,19.184,0,0,1-2.711,1.193,19.474,19.474,0,0,1,2.555-1.492c.84-.444,1.859-1,3-1.723s2.49-1.453,3.87-2.44c1.41-.942,2.948-1.982,4.513-3.219,1.62-1.164,3.219-2.571,4.933-4.011a88.982,88.982,0,0,0,18.4-22.429c1.078-1.963,2.144-3.807,2.97-5.623.909-1.776,1.628-3.487,2.276-5.053.7-1.548,1.164-3.012,1.638-4.274s.834-2.367,1.1-3.279a19.5,19.5,0,0,1,.965-2.8" transform="translate(231.065 224.868)" fill="#141944"/>
        <path id="Path_1841" data-name="Path 1841" d="M294.347,297.421c-.052.234-8.7-1.475-19.323-3.815s-19.192-4.427-19.14-4.661,8.7,1.475,19.326,3.817,19.189,4.427,19.137,4.659" transform="translate(169.154 190.996)" fill="#fafafa"/>
        <path id="Path_1842" data-name="Path 1842" d="M293.729,290.856a31.218,31.218,0,0,1-5.47-.616c-3.359-.513-7.978-1.335-13.066-2.3l-13.013-2.551a39.011,39.011,0,0,1-5.364-1.219,31.257,31.257,0,0,1,5.47.616c3.359.513,7.978,1.336,13.068,2.3l13.011,2.551a39.093,39.093,0,0,1,5.364,1.219" transform="translate(169.772 187.831)" fill="#fafafa"/>
        <path id="Path_1843" data-name="Path 1843" d="M452.011,289.489c0,.239-37.392.151-83.5-.194S285,288.472,285,288.235s37.386-.153,83.513.194c46.111.346,83.5.821,83.5,1.06" transform="translate(188.402 190.452)" fill="#fafafa"/>
        <path id="Path_1844" data-name="Path 1844" d="M455.609,294.211c0,.239-38.475.432-85.927.432-47.468,0-85.937-.193-85.937-.432s38.469-.432,85.937-.432c47.452,0,85.927.193,85.927.432" transform="translate(187.574 194.206)" fill="#fafafa"/>
        <path id="Path_1845" data-name="Path 1845" d="M454.329,282.2c0-.017.066-.028.2-.037-.071.189-.151.06-.251.1l-.078,0-.042,0h-.03l.007-.159h.012l.188,0,.528-.007-.507.186c-3.068,1.126-15.916,5.478-31.089,11.255-8.662,3.33-16.5,6.344-22.353,8.6-2.754,1.053-5.038,1.927-6.78,2.595a15.946,15.946,0,0,1-2.528.85,15.636,15.636,0,0,1,2.4-1.163c1.568-.694,3.849-1.673,6.679-2.85,5.661-2.36,13.519-5.526,22.276-8.838,15.187-5.784,28.157-9.868,31.339-10.623l.023.179-.186-.02-.01,0h0l.008-.159,0,0h0l.022,0,.042,0,.078.01c.1.053.186-.07.241.128-.131-.022-.2-.042-.2-.056" transform="translate(258.875 186.486)" fill="#fafafa"/>
        <path id="Path_1846" data-name="Path 1846" d="M454.584,275.705c.076.226-14.508,5.332-32.57,11.4s-32.774,10.809-32.851,10.581,14.506-5.33,32.575-11.4,32.769-10.807,32.846-10.581" transform="translate(257.261 182.253)" fill="#fafafa"/>
        <path id="Path_1847" data-name="Path 1847" d="M394.709,216.31a7.811,7.811,0,0,1,.153,1.339,31.816,31.816,0,0,1,.1,3.87,41.749,41.749,0,0,1-2.943,13.9A42.9,42.9,0,0,1,379.7,252.431a42.275,42.275,0,0,1-48.729,2.978,42.912,42.912,0,0,1-14.3-15.391,41.777,41.777,0,0,1-4.613-13.435,32.206,32.206,0,0,1-.372-3.852,7.913,7.913,0,0,1-.01-1.349,7.83,7.83,0,0,1,.184,1.335c.062.879.248,2.163.53,3.807a43.429,43.429,0,0,0,4.815,13.2A42.823,42.823,0,0,0,331.4,254.735a41.78,41.78,0,0,0,47.8-2.92,42.834,42.834,0,0,0,12.259-16.629,43.364,43.364,0,0,0,3.174-13.684c.08-1.668.11-2.963.063-3.844a7.788,7.788,0,0,1,.02-1.349" transform="translate(206.024 142.994)" fill="#fafafa"/>
        <path id="Path_1848" data-name="Path 1848" d="M251.718,297.315a7.453,7.453,0,0,1-.874,1.606c-.608,1-1.533,2.428-2.717,4.163a163.4,163.4,0,0,1-21.184,25c-1.517,1.452-2.769,2.6-3.663,3.36a7.394,7.394,0,0,1-1.44,1.126,7.5,7.5,0,0,1,1.209-1.37l3.462-3.55c2.915-3,6.863-7.226,10.993-12.093s7.641-9.456,10.124-12.823q1.729-2.352,2.937-4a7.4,7.4,0,0,1,1.153-1.417" transform="translate(146.648 196.542)" fill="#fafafa"/>
        <g id="Group_1301" data-name="Group 1301" transform="translate(547.576 585.07)" opacity="0.3">
          <g id="Group_1300" data-name="Group 1300">
            <g id="Group_1299" data-name="Group 1299" clip-path="url(#clip-path-5)">
              <path id="Path_1849" data-name="Path 1849" d="M368.1,385.525c-8.388,4.766-19.7,5.525-29.8,5.792a12.829,12.829,0,0,1-5.619-.743,4.754,4.754,0,0,1-3.017-4.43c.2-2.281,2.478-3.752,4.595-4.628,8.154-3.375,17.312-3.181,25.871-5.334,14.6-3.669,29.484-14.086,40.849-23.957-8.669,14.616-18.2,24.5-32.882,33.3" transform="translate(-329.654 -352.227)"/>
            </g>
          </g>
        </g>
        <path id="Path_1850" data-name="Path 1850" d="M359.67,318.289h0a37.484,37.484,0,0,1-34.5-37.694c.081-9.333.179-16.8.179-16.8s-30.074-4.676-30.444-34.743,4.84-99.112,4.84-99.112a104.5,104.5,0,0,1,105.006,13.2l4.455,3.43-9.161,136.86a37.481,37.481,0,0,1-40.38,34.859" transform="translate(194.942 80.285)" fill="#b78876"/>
        <path id="Path_1851" data-name="Path 1851" d="M313.23,211.319s19,1.546,39.2-11.141c0,0-9.265,21.64-39.269,18.931Z" transform="translate(207.018 132.33)" fill="#aa6550"/>
        <path id="Path_1852" data-name="Path 1852" d="M361.952,155.7c.513-.223,20.66-6.111,20,14.446S360.8,185.8,360.779,185.211s1.173-29.512,1.173-29.512" transform="translate(238.497 102.3)" fill="#b78876"/>
        <path id="Path_1853" data-name="Path 1853" d="M364.717,174.946c.093-.063.35.262.947.56a3.588,3.588,0,0,0,2.674.14c2.2-.728,4.136-4.116,4.354-7.819a11.836,11.836,0,0,0-.837-5.159,4.141,4.141,0,0,0-2.606-2.835,1.824,1.824,0,0,0-2.144.914c-.294.566-.178.982-.287,1.013-.058.05-.43-.359-.238-1.2a2.285,2.285,0,0,1,.85-1.262,2.706,2.706,0,0,1,2-.46c1.581.161,2.962,1.664,3.639,3.307a12.158,12.158,0,0,1,1.058,5.769c-.264,4.138-2.508,7.947-5.506,8.711a3.843,3.843,0,0,1-3.259-.648c-.62-.528-.714-.992-.641-1.027" transform="translate(241.087 104.979)" fill="#aa6550"/>
        <path id="Path_1854" data-name="Path 1854" d="M304.389,157.13a4.3,4.3,0,0,0,4.141,4.332,4.105,4.105,0,0,0,4.425-3.872,4.3,4.3,0,0,0-4.136-4.335,4.112,4.112,0,0,0-4.43,3.875" transform="translate(201.218 101.307)" fill="#141944"/>
        <path id="Path_1855" data-name="Path 1855" d="M301.27,153.822c.531.56,3.786-1.847,8.407-1.835,4.616-.053,8.006,2.324,8.508,1.757.246-.251-.3-1.261-1.772-2.337a11.782,11.782,0,0,0-6.812-2.1,11.3,11.3,0,0,0-6.689,2.159c-1.422,1.09-1.9,2.1-1.641,2.354" transform="translate(199.113 98.703)" fill="#141944"/>
        <path id="Path_1856" data-name="Path 1856" d="M331.1,157.736a4.3,4.3,0,0,0,4.141,4.332,4.105,4.105,0,0,0,4.425-3.872,4.293,4.293,0,0,0-4.136-4.334,4.109,4.109,0,0,0-4.43,3.874" transform="translate(218.875 101.708)" fill="#141944"/>
        <path id="Path_1857" data-name="Path 1857" d="M328.614,154.341c.533.56,3.79-1.847,8.408-1.835,4.614-.053,8.006,2.324,8.508,1.757.246-.251-.291-1.261-1.774-2.335a11.776,11.776,0,0,0-6.81-2.1,11.307,11.307,0,0,0-6.691,2.159c-1.417,1.091-1.9,2.1-1.641,2.354" transform="translate(217.19 99.046)" fill="#141944"/>
        <path id="Path_1858" data-name="Path 1858" d="M323.176,188.5c.022-.261-2.85-.757-7.5-1.352-1.179-.123-2.3-.357-2.5-1.161-.277-.855.216-2.124.789-3.5q1.664-4.283,3.488-8.985c4.847-12.792,8.354-23.31,7.837-23.5s-4.864,10.023-9.709,22.815q-1.749,4.734-3.344,9.038c-.445,1.342-1.214,2.864-.611,4.633a2.961,2.961,0,0,0,1.94,1.724,8,8,0,0,0,2,.279c4.684.251,7.589.272,7.608.008" transform="translate(205.857 99.157)" fill="#141944"/>
        <path id="Path_1859" data-name="Path 1859" d="M327.879,143.021c.455,1.256,5.07.661,10.49,1.314,5.435.545,9.807,2.131,10.526,1,.321-.538-.442-1.721-2.209-2.937a18.383,18.383,0,0,0-16.011-1.767c-1.99.8-2.992,1.789-2.8,2.385" transform="translate(216.732 92.257)" fill="#141944"/>
        <path id="Path_1860" data-name="Path 1860" d="M302.313,145.88c.812,1.05,3.995-.04,7.824-.091,3.825-.186,7.069.706,7.815-.392.327-.533-.183-1.585-1.6-2.578a11.33,11.33,0,0,0-12.6.39c-1.352,1.078-1.8,2.159-1.438,2.671" transform="translate(199.769 93.272)" fill="#141944"/>
        <path id="Path_1861" data-name="Path 1861" d="M289.017,125.254c-.322-3.727,1.065-7.727,4.1-9.917s7.737-2.051,10.2.762c-1.412-5.021,2.693-10.812,7.9-11.142,4.9-.311,9.084,3.394,13.823,4.692,4.626,1.269,9.591.171,14.039-1.62s8.609-4.266,13.114-5.912A38.451,38.451,0,0,1,401.37,124.7c6.576-2.056,14.048,1.282,18.1,6.854s5.1,12.885,4.289,19.727a62.6,62.6,0,0,1-3.438,13.493c0,.387.04.766.031,1.153-.311,16.534-2.179,35.952-9.234,36.06-12.294.188-9.365-22.976-9.365-22.976-15.089-5.83-9.466-28.436-13.24-31.866s-11.664-11.4-43.254,4.747c-12.267,6.269-28.577,6.075-37.48,4.055-.261-.056-.525-.1-.786-.159-.055-.015-.128-.025-.183-.038-.1-.025-.166-.078-.261-.1a28.468,28.468,0,0,1-8.1-3.437,16.017,16.017,0,0,1-6.676-7.423c-1.213-3.163-.757-7.108,1.724-9.413a19.266,19.266,0,0,1-4.48-10.114" transform="translate(191.028 65.989)" fill="#141944"/>
        <path id="Path_1862" data-name="Path 1862" d="M316.386,183.795a20.676,20.676,0,0,0,2.679,5.252,6.983,6.983,0,0,0,4.96,2.879,6.263,6.263,0,0,0,5.3-2.889,9.991,9.991,0,0,0,1.475-6.02c-.085-1.9-.955-4.164-2.842-4.389a4.748,4.748,0,0,0-2.291.508l-9.918,4.021" transform="translate(208.727 118.073)" fill="#aa6550"/>
        <path id="Path_1863" data-name="Path 1863" d="M321.1,192.361c.051-.311,2.227.573,5.289-.653a7.563,7.563,0,0,0,4-3.634,7.958,7.958,0,0,0,.13-6.488,7.1,7.1,0,0,0-.864-1.482c-.394-.412-.321-.394-.749-.331-.4.11-1.056.415-1.59.623l-1.628.664c-2.123.859-4.045,1.608-5.669,2.216-3.247,1.213-5.3,1.85-5.4,1.626s1.787-1.271,4.908-2.777c1.561-.756,3.432-1.625,5.52-2.566l1.6-.718a17.54,17.54,0,0,1,1.812-.746,2.319,2.319,0,0,1,1.472.042,2.716,2.716,0,0,1,1.093.865,8.5,8.5,0,0,1,1.116,1.88,9.293,9.293,0,0,1-.3,7.935,8.483,8.483,0,0,1-5.033,4.07,8,8,0,0,1-4.3.168c-.987-.259-1.448-.6-1.41-.694" transform="translate(207.977 117.666)" fill="#141944"/>
        <path id="Path_1864" data-name="Path 1864" d="M381.689,133.536a18.062,18.062,0,0,0,.015-3.636,14.187,14.187,0,0,0-4.7-8.446c-3.027-2.885-8.01-4.606-13.536-4.47-5.563.047-11.476,1.874-17.589,3.933-3.071,1.012-6.1,1.977-9.1,2.641a47.207,47.207,0,0,1-8.792,1.07,47.75,47.75,0,0,1-14.813-1.948,46.125,46.125,0,0,1-9.27-3.93c-1.041-.578-1.814-1.083-2.329-1.438a3.768,3.768,0,0,1-.764-.573c.048-.078,1.146.643,3.256,1.706a50.913,50.913,0,0,0,9.282,3.634,48.65,48.65,0,0,0,14.614,1.734,47.228,47.228,0,0,0,8.628-1.1c2.952-.663,5.948-1.625,9.018-2.634,6.1-2.055,12.137-3.905,17.855-3.908,5.674-.1,10.88,1.759,13.971,4.827a14.207,14.207,0,0,1,4.618,8.865,8.254,8.254,0,0,1-.357,3.676" transform="translate(198.851 76.791)" fill="#455a64"/>
        <path id="Path_1865" data-name="Path 1865" d="M371.024,180.557c-.028.013-.163-.2-.4-.633s-.555-1.07-.935-1.917a38.661,38.661,0,0,1-2.4-7.473,41.22,41.22,0,0,1-.774-11.622c.277-4.42,1.651-9.083,2.683-13.97,1.071-4.87,1.319-9.721.028-13.818a13.983,13.983,0,0,0-2.882-5.237,10.525,10.525,0,0,0-4.32-2.834,9.861,9.861,0,0,0-7.42.189,14.132,14.132,0,0,0-2.309,1.618,5.728,5.728,0,0,1,2.151-1.924,9.975,9.975,0,0,1,7.779-.477,11.041,11.041,0,0,1,4.663,2.932,14.549,14.549,0,0,1,3.116,5.486c1.4,4.272,1.144,9.319.062,14.244-1.047,4.95-2.425,9.541-2.737,13.857a42.529,42.529,0,0,0,.576,11.433,44.991,44.991,0,0,0,2.1,7.466,27.193,27.193,0,0,1,1.012,2.679" transform="translate(232.895 80.586)" fill="#455a64"/>
        <path id="Path_1866" data-name="Path 1866" d="M385.85,138.617a6.214,6.214,0,0,1,.013-1.206c.032-.877.075-2.021.128-3.448a39.982,39.982,0,0,0-1.389-12.486,22.1,22.1,0,0,0-4.016-7.588,15.523,15.523,0,0,0-8.061-5.324,20.366,20.366,0,0,0-10.76.44A49.872,49.872,0,0,0,351,113.881a88.579,88.579,0,0,1-10.669,5.491,32.6,32.6,0,0,1-11,2.206,34.717,34.717,0,0,1-10.071-1.234,39.006,39.006,0,0,1-8.169-3.367,33.383,33.383,0,0,1-9.674-8.259,21.163,21.163,0,0,1-1.96-2.855,6.234,6.234,0,0,1-.583-1.06,6.313,6.313,0,0,1,.733.963,26.119,26.119,0,0,0,2.078,2.736,34.649,34.649,0,0,0,9.711,7.928,39.038,39.038,0,0,0,8.056,3.2,34.307,34.307,0,0,0,9.858,1.128,32.037,32.037,0,0,0,10.7-2.2,90.335,90.335,0,0,0,10.556-5.455,50.04,50.04,0,0,1,10.958-4.943,21.121,21.121,0,0,1,11.209-.394,16.228,16.228,0,0,1,8.418,5.649A22.488,22.488,0,0,1,385.2,121.3a38.143,38.143,0,0,1,1.133,12.681c-.088,1.5-.2,2.663-.294,3.448a6.051,6.051,0,0,1-.191,1.191" transform="translate(197.577 69.281)" fill="#455a64"/>
        <path id="Path_1867" data-name="Path 1867" d="M758.118,415.329c0,.239-168.805.432-376.991.432-208.256,0-377.026-.193-377.026-.432s168.771-.432,377.026-.432c208.186,0,376.991.193,376.991.432" transform="translate(2.71 274.273)" fill="#141944"/>
        <path id="Path_1868" data-name="Path 1868" d="M178.931,392.913c3.208,4.528,9.383,2.987,12.235.2s4.04-6.817,5.121-10.656c2.47-8.774,4.958-17.978,3.033-26.889a14.935,14.935,0,0,0-3.473-7.282,7.8,7.8,0,0,0-7.4-2.419c-3.115.841-5.035,3.907-6.418,6.82a64.061,64.061,0,0,0-6.173,27.522c.012,4.428.56,9.068,3.078,12.707" transform="translate(116.25 228.498)" fill="#f7536e"/>
        <g id="Group_1304" data-name="Group 1304" transform="translate(292.104 574.151)" opacity="0.2">
          <g id="Group_1303" data-name="Group 1303">
            <g id="Group_1302" data-name="Group 1302" clip-path="url(#clip-path-6)">
              <path id="Path_1869" data-name="Path 1869" d="M178.931,392.913c3.208,4.528,9.383,2.987,12.235.2s4.04-6.817,5.121-10.656c2.47-8.774,4.958-17.978,3.033-26.889a14.935,14.935,0,0,0-3.473-7.282,7.8,7.8,0,0,0-7.4-2.419c-3.115.841-5.035,3.907-6.418,6.82a64.061,64.061,0,0,0-6.173,27.522c.012,4.428.56,9.068,3.078,12.707" transform="translate(-175.855 -345.653)"/>
            </g>
          </g>
        </g>
        <path id="Path_1870" data-name="Path 1870" d="M187.421,388.965c5.188-2.714,11.314-3.1,17.1-2.178,3.106.5,6.347,1.405,8.471,3.726s2.55,6.418.136,8.435c-1.437,1.2-3.448,1.394-5.32,1.384-4.523-.028-9.544-.8-13.142,1.947-2.051,1.565-3.41,4.153-5.87,4.93-2.407.761-5.134-.646-6.427-2.816a9.96,9.96,0,0,1-.767-7.344,11.223,11.223,0,0,1,5.824-8.084" transform="translate(119.814 255.393)" fill="#f7536e"/>
        <path id="Path_1871" data-name="Path 1871" d="M187.126,393.554c3.432-4.119,4.053-10.1,2.485-15.232s-5.065-9.476-9.088-13.021a48.509,48.509,0,0,0-16.192-9.43,17.233,17.233,0,0,0-7.266-1.193A7.622,7.622,0,0,0,151,358.4c-1.681,3.249-.03,7.169,1.751,10.365a122.943,122.943,0,0,0,10.692,16.081c3.2,4.078,6.864,8.1,11.715,9.922s9.882,1.576,12.43-1.8" transform="translate(99.355 234.429)" fill="#f7536e"/>
        <path id="Path_1872" data-name="Path 1872" d="M177.839,432.059a9.819,9.819,0,0,0,.276-2.066c.138-1.5.311-3.392.517-5.639a81.474,81.474,0,0,1,1.221-8.272,63.79,63.79,0,0,1,2.947-9.774,36.047,36.047,0,0,1,4.932-8.857A18.6,18.6,0,0,1,194,392.179a17.575,17.575,0,0,1,5.294-1.681,9.748,9.748,0,0,0,2.055-.311,9.815,9.815,0,0,0-2.093-.02,16.072,16.072,0,0,0-5.521,1.472,18.557,18.557,0,0,0-6.614,5.319,35.176,35.176,0,0,0-5.111,9.035,59.641,59.641,0,0,0-2.927,9.933,70,70,0,0,0-1.051,8.377c-.164,2.4-.221,4.332-.246,5.673a9.623,9.623,0,0,0,.055,2.085" transform="translate(117.52 257.906)" fill="#141944"/>
        <path id="Path_1873" data-name="Path 1873" d="M178.237,449.86a4.107,4.107,0,0,0,.05-.958c-.007-.719-.013-1.626-.023-2.741-.02-2.377-.038-5.819.065-10.068.161-8.5.826-20.235,2.164-33.138s3.171-24.521,4.844-32.854c.394-2.09.792-3.97,1.168-5.616.359-1.649.664-3.071.96-4.222.254-1.085.462-1.967.626-2.668a4.107,4.107,0,0,0,.161-.947,4.128,4.128,0,0,0-.327.9c-.206.691-.463,1.561-.781,2.631-.345,1.139-.7,2.555-1.1,4.2-.42,1.639-.862,3.516-1.3,5.6a311.1,311.1,0,0,0-5.1,32.887c-1.342,12.931-1.912,24.7-1.92,33.22-.027,4.261.085,7.707.206,10.088.075,1.113.136,2.018.184,2.737a4.043,4.043,0,0,0,.121.95" transform="translate(117.485 235.766)" fill="#141944"/>
        <path id="Path_1874" data-name="Path 1874" d="M190.214,424.313a18.358,18.358,0,0,0-.037-2.862c-.116-1.839-.384-4.5-.922-7.749a102.07,102.07,0,0,0-2.586-11.285,100.377,100.377,0,0,0-4.8-13.342,71.22,71.22,0,0,0-14-21.524,35.313,35.313,0,0,0-3.281-3.015c-.5-.42-.948-.84-1.4-1.173l-1.271-.865a18.339,18.339,0,0,0-2.418-1.53c-.136.188,3.427,2.257,7.938,7a75.067,75.067,0,0,1,13.652,21.449,106.77,106.77,0,0,1,4.827,13.219,114.9,114.9,0,0,1,2.747,11.171c.61,3.221.967,5.85,1.184,7.671a18.6,18.6,0,0,0,.367,2.834" transform="translate(105.435 238.621)" fill="#141944"/>
        <path id="Path_1875" data-name="Path 1875" d="M225.122,288.688l-70.476-3V215.207h70.476Z" transform="translate(102.231 142.266)" fill="#f7536e"/>
        <rect id="Rectangle_561" data-name="Rectangle 561" width="70.476" height="70.476" transform="translate(284.822 337.317)" fill="#f7536e"/>
        <path id="Path_1876" data-name="Path 1876" d="M197.074,293.7l27.946-20.155V203.073l-27.946,20.155Z" transform="translate(130.278 134.244)" fill="#f7536e"/>
        <path id="Path_1877" data-name="Path 1877" d="M154.646,223.229l27.946-20.157h70.476l-27.946,20.157Z" transform="translate(102.231 134.243)" fill="#f7536e"/>
        <path id="Path_1878" data-name="Path 1878" d="M197.074,296.71l27.946-23.162V203.072l-27.946,20.157Z" transform="translate(130.278 134.244)" fill="#f7536e"/>
        <g id="Group_1307" data-name="Group 1307" transform="translate(256.877 337.315)" opacity="0.3">
          <g id="Group_1306" data-name="Group 1306">
            <g id="Group_1305" data-name="Group 1305" clip-path="url(#clip-path-7)">
              <path id="Path_1879" data-name="Path 1879" d="M154.646,223.229l27.946-20.157h70.476l-27.946,20.157Z" transform="translate(-154.646 -203.072)" fill="#fff"/>
            </g>
          </g>
        </g>
        <g id="Group_1310" data-name="Group 1310" transform="translate(327.352 337.315)" opacity="0.4">
          <g id="Group_1309" data-name="Group 1309">
            <g id="Group_1308" data-name="Group 1308" clip-path="url(#clip-path-8)">
              <path id="Path_1880" data-name="Path 1880" d="M197.074,296.71l27.946-23.162V203.072l-27.946,20.157Z" transform="translate(-197.074 -203.072)"/>
            </g>
          </g>
        </g>
        <path id="Path_1881" data-name="Path 1881" d="M221.15,247.122c.239,0,.432,1.859.432,4.153-.342.689-.095.191-.173.346v0l0,0,0,0-.012.008-.02.017-.043.032-.086.065-.168.126-.334.242-.636.452c-.41.282-.786.527-1.108.723-.648.39-1.083.585-1.154.49s.233-.462.784-.978c.276-.257.615-.553,1-.87.218-.174.415-.336.606-.49l.326-.254.166-.13.086-.065.042-.032.022-.017.012-.008,0,0,0,0h0c-.076.153.173-.345-.169.344,0-2.294.193-4.153.432-4.153" transform="translate(143.998 163.363)" fill="#f7536e"/>
        <path id="Path_1882" data-name="Path 1882" d="M220,236.4c.239,0,.432,1.993.432,4.452s-.193,4.452-.432,4.452-.432-1.992-.432-4.452.193-4.452.432-4.452" transform="translate(145.148 156.276)" fill="#f7536e"/>
        <path id="Path_1883" data-name="Path 1883" d="M220,225.68c.239,0,.432,1.993.432,4.452s-.193,4.452-.432,4.452-.432-1.993-.432-4.452.193-4.452.432-4.452" transform="translate(145.148 149.189)" fill="#f7536e"/>
        <path id="Path_1884" data-name="Path 1884" d="M220,214.96c.239,0,.432,1.993.432,4.452s-.193,4.452-.432,4.452-.432-1.992-.432-4.452.193-4.452.432-4.452" transform="translate(145.148 142.102)" fill="#f7536e"/>
        <path id="Path_1885" data-name="Path 1885" d="M220,204.239c.239,0,.432,1.993.432,4.452s-.193,4.452-.432,4.452-.432-1.993-.432-4.452.193-4.452.432-4.452" transform="translate(145.148 135.015)" fill="#f7536e"/>
        <path id="Path_1886" data-name="Path 1886" d="M217.328,196.551c0-.239,1.859-.432,4.153-.432.864.864.239.239.432.434v.211l0,.211-.007.414c-.008.246-.017.5-.025.779-.022.5-.053.945-.093,1.321-.078.751-.186,1.216-.306,1.216s-.228-.465-.306-1.216c-.04-.375-.071-.824-.093-1.321-.008-.277-.017-.533-.025-.779l-.007-.414,0-.211v-.211c.193.193-.432-.434.432.43-2.294,0-4.153-.193-4.153-.432" transform="translate(143.667 129.647)" fill="#f7536e"/>
        <path id="Path_1887" data-name="Path 1887" d="M207.738,196.551c0-.239,1.784-.432,3.982-.432s3.983.193,3.983.432-1.782.432-3.983.432-3.982-.193-3.982-.432" transform="translate(137.328 129.647)" fill="#f7536e"/>
        <path id="Path_1888" data-name="Path 1888" d="M198.147,196.551c0-.239,1.784-.432,3.982-.432s3.983.193,3.983.432-1.782.432-3.983.432-3.982-.193-3.982-.432" transform="translate(130.988 129.647)" fill="#f7536e"/>
        <path id="Path_1889" data-name="Path 1889" d="M188.557,196.551c0-.239,1.784-.432,3.982-.432s3.983.193,3.983.432-1.782.432-3.983.432-3.982-.193-3.982-.432" transform="translate(124.648 129.647)" fill="#f7536e"/>
        <path id="Path_1890" data-name="Path 1890" d="M178.966,196.551c0-.239,1.784-.432,3.982-.432s3.983.193,3.983.432-1.782.432-3.983.432-3.982-.193-3.982-.432" transform="translate(118.308 129.647)" fill="#f7536e"/>
        <path id="Path_1891" data-name="Path 1891" d="M169.582,197.478c-.085-.1.269-.553.9-1.183l.065-.063.148-.013c.679-.063,1.565-.1,2.531-.1,2.2,0,3.983.193,3.983.432s-1.782.432-3.983.432c-.967,0-1.852-.037-2.531-.1l.213-.076c-.736.508-1.244.774-1.329.671" transform="translate(112.096 129.647)" fill="#f7536e"/>
        <path id="Path_1892" data-name="Path 1892" d="M162.2,205.094c-.153-.184,1.1-1.472,2.789-2.875s3.188-2.4,3.34-2.211-1.1,1.472-2.789,2.875-3.188,2.4-3.34,2.211" transform="translate(107.217 132.203)" fill="#f7536e"/>
        <path id="Path_1893" data-name="Path 1893" d="M154.821,211.219c-.153-.184,1.1-1.472,2.789-2.877s3.188-2.394,3.34-2.209-1.095,1.472-2.789,2.875-3.188,2.4-3.34,2.211" transform="translate(102.338 136.252)" fill="#f7536e"/>
        <path id="Path_1894" data-name="Path 1894" d="M149.335,219.06c-.239,0-.414-1.864-.392-4.156.312-.658.088-.183.158-.331l0,0,0,0,0,0,.01-.008.022-.018.042-.033.081-.068.164-.133.321-.259.616-.478c.4-.3.761-.561,1.075-.771.63-.42,1.055-.635,1.131-.542s-.211.472-.741,1.012c-.264.271-.588.58-.955.914-.209.184-.4.354-.585.518l-.312.267-.163.136-.081.068-.042.035-.02.017-.01.008,0,0,0,0,0,0c.07-.146-.156.329.156-.327-.023,2.292-.234,4.149-.473,4.148" transform="translate(98.459 140.301)" fill="#f7536e"/>
        <path id="Path_1895" data-name="Path 1895" d="M149.238,229.542c-.239,0-.415-1.849-.392-4.123s.234-4.118.473-4.116.414,1.849.392,4.124-.234,4.116-.473,4.114" transform="translate(98.395 146.295)" fill="#f7536e"/>
        <path id="Path_1896" data-name="Path 1896" d="M149.141,239.461c-.239,0-.415-1.849-.392-4.123s.234-4.118.472-4.116.415,1.849.394,4.124-.234,4.116-.473,4.114" transform="translate(98.331 152.852)" fill="#f7536e"/>
        <path id="Path_1897" data-name="Path 1897" d="M149.044,249.38c-.239,0-.414-1.849-.392-4.123s.234-4.118.473-4.116.414,1.849.392,4.124-.234,4.116-.473,4.114" transform="translate(98.267 159.409)" fill="#f7536e"/>
        <path id="Path_1898" data-name="Path 1898" d="M148.947,259.3c-.241,0-.415-1.849-.394-4.123s.236-4.118.475-4.116.412,1.849.39,4.124-.233,4.116-.472,4.114" transform="translate(98.202 165.966)" fill="#f7536e"/>
        <path id="Path_1899" data-name="Path 1899" d="M153.056,265.2c0,.239-1.867.4-4.159.364-.85-.872-.236-.242-.425-.437v-.053l0-.053,0-.106,0-.211.01-.412c.01-.247.022-.5.033-.779.027-.5.063-.945.1-1.321.086-.749.2-1.214.319-1.213s.223.467.294,1.219c.035.375.063.824.08,1.321.007.279.012.533.017.781l0,.412v.211l0,.106v.106c-.191-.194.424.437-.425-.435,2.292.037,4.148.261,4.144.5" transform="translate(98.123 172.524)" fill="#f7536e"/>
        <path id="Path_1900" data-name="Path 1900" d="M163.82,263.876c0,.239-1.769.4-3.94.367s-3.932-.257-3.927-.5,1.767-.4,3.94-.367,3.93.257,3.927.5" transform="translate(103.095 174.107)" fill="#f7536e"/>
        <path id="Path_1901" data-name="Path 1901" d="M173.293,264.032c0,.239-1.769.4-3.94.369s-3.932-.259-3.927-.5,1.767-.4,3.94-.367,3.93.257,3.927.5" transform="translate(109.357 174.21)" fill="#f7536e"/>
        <path id="Path_1902" data-name="Path 1902" d="M182.766,264.188c0,.239-1.769.4-3.94.367s-3.932-.258-3.927-.5,1.767-.4,3.94-.367,3.93.257,3.927.5" transform="translate(115.619 174.313)" fill="#f7536e"/>
        <path id="Path_1903" data-name="Path 1903" d="M192.239,264.343c0,.239-1.769.4-3.942.367s-3.93-.257-3.927-.5,1.769-.4,3.942-.367,3.93.257,3.927.5" transform="translate(121.881 174.415)" fill="#f7536e"/>
        <path id="Path_1904" data-name="Path 1904" d="M201.712,264.5c0,.239-1.769.4-3.94.367s-3.932-.257-3.927-.5,1.767-.4,3.94-.367,3.93.257,3.927.5" transform="translate(128.144 174.518)" fill="#f7536e"/>
        <path id="Path_1905" data-name="Path 1905" d="M209,259.718c.145.191-1.145,1.409-2.875,2.719s-3.254,2.221-3.4,2.03,1.143-1.407,2.875-2.719,3.254-2.221,3.4-2.03" transform="translate(134.01 171.673)" fill="#f7536e"/>
        <path id="Path_1906" data-name="Path 1906" d="M216.559,254c.145.191-1.144,1.409-2.875,2.719s-3.254,2.221-3.4,2.03,1.143-1.407,2.875-2.719,3.254-2.221,3.4-2.03" transform="translate(139.004 167.893)" fill="#f7536e"/>
        <path id="Path_1907" data-name="Path 1907" d="M208.741,192.926c.233.053.218,1-.035,2.121s-.646,1.982-.879,1.93-.218-1,.035-2.121.646-1.983.879-1.93" transform="translate(137.278 127.535)" fill="#f7536e"/>
        <path id="Path_1908" data-name="Path 1908" d="M211.4,182.758c.233.053-.005,1.985-.53,4.317s-1.143,4.179-1.375,4.128,0-1.987.532-4.319,1.141-4.179,1.374-4.126" transform="translate(138.43 120.814)" fill="#f7536e"/>
        <path id="Path_1909" data-name="Path 1909" d="M213.694,172.59c.233.053,0,1.985-.532,4.317s-1.141,4.179-1.374,4.128,0-1.985.53-4.319,1.143-4.179,1.375-4.126" transform="translate(139.946 114.092)" fill="#f7536e"/>
        <path id="Path_1910" data-name="Path 1910" d="M215.989,162.423c.233.053-.005,1.985-.53,4.317s-1.143,4.179-1.375,4.128,0-1.987.532-4.319,1.141-4.179,1.374-4.126" transform="translate(141.464 107.371)" fill="#f7536e"/>
        <path id="Path_1911" data-name="Path 1911" d="M218.283,152.256c.233.053-.005,1.985-.532,4.317s-1.141,4.179-1.374,4.128.005-1.987.532-4.319,1.141-4.179,1.374-4.126" transform="translate(142.98 100.65)" fill="#f7536e"/>
        <path id="Path_1912" data-name="Path 1912" d="M220.577,142.089c.233.053,0,1.985-.532,4.317s-1.141,4.179-1.374,4.128.005-1.985.532-4.319,1.141-4.179,1.374-4.126" transform="translate(144.496 93.929)" fill="#f7536e"/>
        <path id="Path_1913" data-name="Path 1913" d="M221.911,134.567c.233.053.218,1-.035,2.121s-.646,1.982-.879,1.93-.218-1,.035-2.121.646-1.983.879-1.93" transform="translate(145.983 88.956)" fill="#f7536e"/>
        <path id="Path_1914" data-name="Path 1914" d="M169.156,194.15c.213-.108.8.636,1.321,1.659s.761,1.942.546,2.05-.8-.636-1.319-1.659-.761-1.942-.548-2.05" transform="translate(111.772 128.338)" fill="#f7536e"/>
        <path id="Path_1915" data-name="Path 1915" d="M164.758,185.443c.213-.108,1.2,1.424,2.206,3.42s1.648,3.7,1.435,3.81-1.2-1.425-2.208-3.422-1.646-3.7-1.434-3.809" transform="translate(108.889 122.586)" fill="#f7536e"/>
        <path id="Path_1916" data-name="Path 1916" d="M160.374,176.737c.214-.108,1.2,1.423,2.206,3.42s1.648,3.7,1.435,3.81-1.2-1.424-2.208-3.422-1.646-3.7-1.433-3.809" transform="translate(105.99 116.831)" fill="#f7536e"/>
        <path id="Path_1917" data-name="Path 1917" d="M155.991,168.032c.213-.108,1.2,1.424,2.206,3.42s1.648,3.7,1.435,3.81-1.2-1.425-2.208-3.422-1.646-3.7-1.434-3.809" transform="translate(103.093 111.076)" fill="#f7536e"/>
        <path id="Path_1918" data-name="Path 1918" d="M151.608,159.326c.213-.108,1.2,1.424,2.206,3.42s1.648,3.7,1.435,3.81-1.2-1.425-2.208-3.422-1.646-3.7-1.434-3.809" transform="translate(100.196 105.321)" fill="#f7536e"/>
        <path id="Path_1919" data-name="Path 1919" d="M147.224,150.621c.213-.108,1.2,1.424,2.206,3.42s1.648,3.7,1.435,3.81-1.2-1.424-2.208-3.422-1.646-3.7-1.434-3.809" transform="translate(97.297 99.566)" fill="#f7536e"/>
        <path id="Path_1920" data-name="Path 1920" d="M142.841,141.916c.214-.108,1.2,1.424,2.206,3.42s1.648,3.7,1.435,3.81-1.2-1.424-2.208-3.422-1.646-3.7-1.434-3.809" transform="translate(94.4 93.812)" fill="#f7536e"/>
        <path id="Path_1921" data-name="Path 1921" d="M138.458,133.21c.213-.108,1.2,1.424,2.206,3.42s1.648,3.7,1.435,3.81-1.2-1.424-2.208-3.422-1.646-3.7-1.433-3.809" transform="translate(91.503 88.057)" fill="#f7536e"/>
        <path id="Path_1922" data-name="Path 1922" d="M135.157,126.626c.213-.106.8.638,1.321,1.661s.761,1.942.546,2.048-.8-.635-1.319-1.661-.761-1.938-.548-2.048" transform="translate(89.296 83.701)" fill="#f7536e"/>
        <path id="Path_1923" data-name="Path 1923" d="M92.461,209.52c-.018.237-.96.359-2.1.269s-2.056-.355-2.036-.593.96-.359,2.1-.269,2.055.355,2.036.593" transform="translate(58.386 138.094)" fill="#f7536e"/>
        <path id="Path_1924" data-name="Path 1924" d="M104.336,210.416c-.018.238-1.924.284-4.254.1s-4.206-.525-4.188-.762,1.924-.282,4.256-.1,4.2.525,4.186.762" transform="translate(63.392 138.52)" fill="#f7536e"/>
        <path id="Path_1925" data-name="Path 1925" d="M114.5,211.211c-.018.238-1.924.284-4.254.1s-4.206-.525-4.188-.762,1.924-.282,4.256-.1,4.2.523,4.186.761" transform="translate(70.11 139.047)" fill="#f7536e"/>
        <path id="Path_1926" data-name="Path 1926" d="M124.662,212.008c-.018.238-1.924.284-4.254.1s-4.206-.525-4.188-.762,1.923-.282,4.256-.1,4.2.523,4.186.761" transform="translate(76.829 139.573)" fill="#f7536e"/>
        <path id="Path_1927" data-name="Path 1927" d="M134.825,212.8c-.018.238-1.923.284-4.254.1s-4.206-.525-4.188-.762,1.924-.282,4.256-.1,4.2.523,4.186.761" transform="translate(83.547 140.098)" fill="#f7536e"/>
        <path id="Path_1928" data-name="Path 1928" d="M144.988,213.6c-.018.237-1.924.284-4.254.1s-4.206-.525-4.188-.762,1.923-.282,4.256-.1,4.2.525,4.186.762" transform="translate(90.265 140.625)" fill="#f7536e"/>
        <path id="Path_1929" data-name="Path 1929" d="M150.849,214.092c-.018.238-.96.359-2.1.269s-2.056-.355-2.036-.593.96-.359,2.1-.269,2.055.355,2.036.593" transform="translate(96.984 141.116)" fill="#f7536e"/>
        <path id="Path_1930" data-name="Path 1930" d="M216.669,118.486a73.137,73.137,0,1,1-73.137-73.137,73.137,73.137,0,0,1,73.137,73.137" transform="translate(46.536 29.979)" fill="#fff" fill-rule="evenodd"/>
        <path id="Path_1931" data-name="Path 1931" d="M216.841,118.625s-.05-.4-.1-1.184q-.075-1.213-.218-3.472-.067-1.149-.149-2.556c-.1-.937-.3-1.952-.462-3.055s-.362-2.292-.563-3.561a39.818,39.818,0,0,0-.953-3.988,69.693,69.693,0,0,0-8.1-19.408,72.662,72.662,0,0,0-18.526-20.667l-3.148-2.345c-1.106-.726-2.272-1.39-3.423-2.1-1.176-.669-2.291-1.482-3.551-2.053l-3.781-1.814-1.922-.912-2.02-.734-4.1-1.493c-1.39-.46-2.847-.756-4.287-1.148a36.657,36.657,0,0,0-4.405-1,67.781,67.781,0,0,0-9.2-1.066c-1.57-.053-3.149-.206-4.744-.183l-4.814.249c-.807.056-1.623.05-2.43.158l-2.427.372c-1.62.269-3.266.458-4.893.8a77.1,77.1,0,0,0-9.7,2.845,75.845,75.845,0,0,0-9.485,4.169c-1.536.832-3.008,1.8-4.53,2.7-.744.477-1.538.884-2.247,1.42l-2.141,1.6a82.077,82.077,0,0,0-8.249,7.011l-3.7,4.071-.93,1.023-.836,1.106-1.664,2.227-1.673,2.237-1.463,2.392-1.462,2.409-.734,1.208L79.2,85.163q-1.231,2.554-2.47,5.128-.982,2.681-1.972,5.385A77.671,77.671,0,0,0,71,118.614a77.733,77.733,0,0,0,3.749,22.948l1.972,5.387q1.241,2.576,2.47,5.129l.621,1.272.733,1.209,1.463,2.409,1.463,2.394,1.673,2.237,1.664,2.227.836,1.106.93,1.025q1.856,2.046,3.7,4.071a81.494,81.494,0,0,0,8.25,7.013l2.141,1.6c.708.538,1.5.943,2.247,1.42,1.522.9,2.993,1.872,4.53,2.706a75.868,75.868,0,0,0,9.486,4.169,77.121,77.121,0,0,0,9.7,2.845c1.628.337,3.274.527,4.893.8l2.427.372c.807.106,1.625.1,2.43.158l4.815.249c1.595.023,3.174-.13,4.744-.184a67.546,67.546,0,0,0,9.2-1.065,36.807,36.807,0,0,0,4.405-1c1.44-.392,2.9-.688,4.287-1.148l4.1-1.493,2.02-.736,1.922-.912,3.781-1.812c1.261-.573,2.375-1.385,3.55-2.055,1.153-.709,2.319-1.374,3.423-2.1l3.149-2.345A72.727,72.727,0,0,0,206.3,155.846a69.723,69.723,0,0,0,8.093-19.408,39.711,39.711,0,0,0,.953-3.988q.3-1.9.563-3.56c.164-1.1.364-2.118.462-3.055q.082-1.408.149-2.556.142-2.257.218-3.47c.055-.784.1-1.184.1-1.184s.01.4-.015,1.184q-.047,1.218-.133,3.482c-.033.767-.07,1.625-.11,2.566-.083.94-.271,1.96-.42,3.07s-.339,2.3-.527,3.58a39.359,39.359,0,0,1-.919,4.015,69.441,69.441,0,0,1-8,19.572A72.894,72.894,0,0,1,188.145,177l-3.168,2.377c-1.111.736-2.284,1.41-3.445,2.129-1.183.679-2.306,1.5-3.575,2.085l-3.809,1.842-1.937.925-2.036.749q-2.046.752-4.131,1.518c-1.4.47-2.872.774-4.327,1.173a37.7,37.7,0,0,1-4.445,1.02,68.517,68.517,0,0,1-9.29,1.1c-1.585.058-3.183.216-4.792.194q-2.414-.117-4.865-.239c-.816-.055-1.639-.05-2.457-.154q-1.221-.187-2.452-.372c-1.638-.267-3.3-.457-4.948-.794a77.574,77.574,0,0,1-9.812-2.86,76.472,76.472,0,0,1-9.6-4.2c-1.555-.84-3.045-1.819-4.585-2.729-.752-.482-1.556-.892-2.274-1.435l-2.168-1.618a82.328,82.328,0,0,1-8.352-7.084l-3.744-4.116-.942-1.035-.845-1.118L84.461,162.1l-1.693-2.264-1.483-2.419L79.8,154.981l-.742-1.223-.63-1.287-2.5-5.187q-.994-2.716-2-5.45a78.472,78.472,0,0,1-3.8-23.22,78.463,78.463,0,0,1,3.8-23.21q1-2.733,2-5.448,1.256-2.6,2.5-5.187l.63-1.286.742-1.221,1.482-2.437,1.483-2.418,1.693-2.262,1.686-2.252L87,71.773l.942-1.035q1.881-2.066,3.742-4.113a82.656,82.656,0,0,1,8.35-7.083l2.168-1.62c.718-.542,1.522-.952,2.276-1.433,1.538-.91,3.028-1.889,4.583-2.729a76.444,76.444,0,0,1,9.6-4.2,77.35,77.35,0,0,1,9.81-2.859c1.646-.339,3.311-.528,4.948-.8.819-.125,1.638-.247,2.452-.372.816-.1,1.641-.1,2.457-.154q2.449-.12,4.864-.239c1.61-.022,3.208.135,4.791.194a68.249,68.249,0,0,1,9.29,1.1,37.308,37.308,0,0,1,4.447,1.018c1.453.4,2.922.7,4.325,1.173q2.085.765,4.131,1.518l2.036.749,1.937.925,3.809,1.842c1.269.58,2.392,1.4,3.576,2.083,1.159.719,2.332,1.394,3.445,2.129l3.166,2.377A72.9,72.9,0,0,1,206.71,81.153a69.321,69.321,0,0,1,8.006,19.574,39.365,39.365,0,0,1,.92,4.013q.282,1.916.525,3.581c.151,1.11.337,2.129.422,3.07q.06,1.415.11,2.568c.056,1.51.1,2.668.133,3.48.025.784.015,1.186.015,1.186" transform="translate(46.364 29.839)" fill="#f7536e"/>
        <path id="Path_1932" data-name="Path 1932" d="M120.334,73.318a2.083,2.083,0,0,1,.674-.145,8.357,8.357,0,0,1,1.982-.043,10.666,10.666,0,0,1,6.568,3.02,11.023,11.023,0,0,1-.053,15.788,11.047,11.047,0,0,1-13.048,1.771A11.023,11.023,0,0,1,112.2,78.5a10.653,10.653,0,0,1,5.526-4.658,8.417,8.417,0,0,1,1.92-.488,2.073,2.073,0,0,1,.689-.04c.018.091-.938.186-2.485.84a10.684,10.684,0,0,0-5.119,4.648,10.431,10.431,0,0,0-.083,9.913,10.233,10.233,0,0,0,4.216,4.246,10.271,10.271,0,0,0,12.053-1.636,10.212,10.212,0,0,0,2.932-5.214,10.428,10.428,0,0,0-2.721-9.533,10.678,10.678,0,0,0-6.173-3.116c-1.666-.219-2.611-.055-2.62-.148" transform="translate(73.185 48.32)" fill="#141944"/>
        <path id="Path_1933" data-name="Path 1933" d="M132.309,67.267a1.666,1.666,0,0,1-.159-.337l-.43-1.055q-.588-1.5-1.653-4.212l.148.09-9.887,1.422.189-.2c-.149,1.824-.316,3.849-.495,6.013l-.012.153-.143.06a24.315,24.315,0,0,0-5.55,3.271l-.135.1-.158-.071-5.5-2.482.374-.093L102.873,77.9l-.01-.424,3.89,4.616.14.164-.083.2a24.271,24.271,0,0,0-1.623,6.206l-.027.224-.213.08L99.3,91.086l.247-.412,1.359,9.895-.364-.347,6.011.522.247.022.1.229a24.288,24.288,0,0,0,3.231,5.526l.156.2-.106.231c-.782,1.721-1.636,3.6-2.5,5.495l-.128-.512,7.95,6.043-.535.013c1.46-1.226,3.036-2.548,4.626-3.879l.2-.169.243.1a24.183,24.183,0,0,0,6.178,1.631h0l.354.279,0,0,0,.012.008.022.017.045.033.09.066.178.133.355.266.711.53,1.417q.528,1.415,1.053,2.819l-.463-.277,9.9-1.339-.369.385q.269-3.035.533-6.01l.022-.256.238-.1a24.006,24.006,0,0,0,5.531-3.217l.2-.156.231.106q2.786,1.273,5.49,2.508l-.5.126,6.058-7.938.013.5q-1.971-2.357-3.87-4.634l-.151-.179.09-.218a24.129,24.129,0,0,0,1.651-6.192l.028-.226.211-.08,5.658-2.1-.231.384c-.462-3.482-.9-6.769-1.312-9.9l.3.286c-2.111-.194-4.095-.375-6.008-.55l-.188-.018-.071-.173a24.321,24.321,0,0,0-3.219-5.57l-.106-.138.073-.154,2.528-5.482.078.311c-3.06-2.36-5.669-4.372-7.91-6.1l.243,0-4.661,3.835-.066.055-.076-.033a25.791,25.791,0,0,0-4.661-1.467l-1.189-.234a1.86,1.86,0,0,1-.392-.09,2.3,2.3,0,0,1,.4.018c.266.028.669.073,1.2.166a23.4,23.4,0,0,1,4.741,1.349l-.143.022,4.591-3.918.116-.1.126.095c2.261,1.7,4.9,3.678,7.985,6l.163.121-.085.188c-.767,1.7-1.578,3.5-2.478,5.5l-.035-.292a24.8,24.8,0,0,1,3.344,5.679l-.259-.189,6.013.51.262.022.037.262c.434,3.129.887,6.413,1.37,9.893l.038.284-.269.1-5.648,2.126.241-.3a24.831,24.831,0,0,1-1.676,6.4l-.061-.4q1.909,2.267,3.885,4.619l.2.243-.193.254-6.036,7.956-.2.261-.3-.136-5.495-2.5.43-.051a24.859,24.859,0,0,1-5.719,3.34l.259-.354q-.259,2.975-.525,6.011l-.03.341-.339.047q-4.881.663-9.9,1.347l-.342.047-.12-.324q-.526-1.4-1.055-2.819l-.53-1.417-.266-.711-.131-.355-.066-.178-.035-.09-.017-.043-.008-.023,0-.012,0-.005c.7.555.193.154.35.277H126.1a24.957,24.957,0,0,1-6.4-1.693l.442-.068-4.629,3.877-.264.221-.272-.209-7.943-6.053-.271-.206.141-.307c.865-1.9,1.724-3.771,2.51-5.491l.05.43a25.088,25.088,0,0,1-3.329-5.722l.344.251-6.01-.538-.321-.03-.043-.317c-.46-3.437-.91-6.79-1.327-9.9l-.04-.306.287-.108,5.658-2.1-.239.3a24.8,24.8,0,0,1,1.7-6.387l.056.365c-1.35-1.62-2.669-3.2-3.865-4.638l-.174-.209.164-.216q3.2-4.171,6.073-7.927l.151-.2.223.1,5.483,2.526-.292.035a24.767,24.767,0,0,1,5.7-3.291l-.154.213c.2-2.163.392-4.186.563-6.008l.017-.176.173-.022,9.907-1.262.111-.015.037.1q.964,2.713,1.5,4.211c.156.453.279.814.375,1.1a2.218,2.218,0,0,1,.113.392" transform="translate(65.275 40.631)" fill="#141944"/>
        <path id="Path_1934" data-name="Path 1934" d="M115.679,101.575a13.52,13.52,0,0,1,3.475.917l2.553-2.139,4.387,3.339-1.382,3.031a13.556,13.556,0,0,1,1.811,3.1l3.317.292.741,5.463-3.119,1.166a13.443,13.443,0,0,1-.919,3.473l2.141,2.555-3.339,4.385-3.031-1.38a13.551,13.551,0,0,1-3.1,1.809l-.292,3.317-5.463.743-1.166-3.119a13.51,13.51,0,0,1-3.473-.919l-2.555,2.141-4.387-3.339,1.384-3.033a13.5,13.5,0,0,1-1.811-3.1l-3.317-.292-.742-5.462,3.119-1.166a13.522,13.522,0,0,1,.919-3.475l-2.139-2.553,3.337-4.387,3.033,1.382a13.556,13.556,0,0,1,3.1-1.811l.292-3.317,5.462-.741Zm-2.242,7.584a5.913,5.913,0,1,0,6.654,5.065,5.912,5.912,0,0,0-6.654-5.065" transform="translate(64.378 65.086)" fill="#f7536e" fill-rule="evenodd"/>
        <path id="Path_1935" data-name="Path 1935" d="M337.022,122.847A73.137,73.137,0,1,1,263.886,49.71a73.137,73.137,0,0,1,73.137,73.137" transform="translate(126.097 32.861)" fill="#fff" fill-rule="evenodd"/>
        <path id="Path_1936" data-name="Path 1936" d="M337.194,122.986s-.05-.4-.1-1.184q-.075-1.213-.218-3.472l-.15-2.556c-.1-.937-.3-1.952-.462-3.055s-.362-2.292-.563-3.561a39.818,39.818,0,0,0-.953-3.988,69.694,69.694,0,0,0-8.1-19.408,72.687,72.687,0,0,0-18.526-20.667q-1.555-1.159-3.149-2.345c-1.1-.726-2.271-1.39-3.423-2.1-1.174-.668-2.289-1.482-3.55-2.053l-3.781-1.814-1.922-.912-2.02-.734-4.1-1.493c-1.39-.46-2.847-.756-4.287-1.148a36.658,36.658,0,0,0-4.405-1,67.52,67.52,0,0,0-9.2-1.065c-1.57-.055-3.151-.208-4.744-.184l-4.814.249c-.807.056-1.623.051-2.432.158l-2.425.372c-1.62.269-3.266.458-4.893.8a77.1,77.1,0,0,0-9.7,2.845,75.849,75.849,0,0,0-9.485,4.169c-1.536.832-3.008,1.8-4.53,2.7-.744.477-1.538.884-2.247,1.42l-2.141,1.6a82.075,82.075,0,0,0-8.249,7.011l-3.7,4.071L208,76.672l-.836,1.106L205.5,80.006l-1.673,2.237-1.463,2.392L200.9,87.044l-.733,1.208-.621,1.272q-1.231,2.554-2.47,5.128-.982,2.681-1.972,5.385a77.617,77.617,0,0,0-3.754,22.938,77.732,77.732,0,0,0,3.747,22.948q.992,2.7,1.973,5.387,1.241,2.576,2.47,5.129l.621,1.272.733,1.209,1.463,2.409,1.463,2.394,1.673,2.237,1.664,2.227.836,1.108.93,1.023,3.7,4.071a81.516,81.516,0,0,0,8.252,7.013l2.141,1.6c.708.538,1.5.943,2.247,1.42,1.52.9,2.993,1.872,4.53,2.706a75.869,75.869,0,0,0,9.486,4.169,77.1,77.1,0,0,0,9.7,2.845c1.63.337,3.276.527,4.9.8l2.427.372c.807.106,1.623.1,2.43.158l4.815.249c1.593.023,3.174-.13,4.744-.184a67.572,67.572,0,0,0,9.2-1.065,36.7,36.7,0,0,0,4.4-1c1.442-.392,2.9-.688,4.289-1.148l4.1-1.493,2.02-.734q.964-.461,1.922-.914L298,187.374c1.262-.573,2.375-1.385,3.551-2.055,1.153-.709,2.319-1.374,3.423-2.1l3.149-2.345a72.727,72.727,0,0,0,18.524-20.667,69.725,69.725,0,0,0,8.093-19.408,39.71,39.71,0,0,0,.953-3.988q.3-1.9.563-3.56c.164-1.1.364-2.118.462-3.055l.15-2.556q.142-2.257.218-3.47c.055-.784.1-1.184.1-1.184s.01.4-.015,1.184q-.047,1.218-.133,3.482c-.033.767-.07,1.625-.11,2.566-.085.94-.271,1.96-.422,3.07s-.337,2.3-.525,3.58a39.384,39.384,0,0,1-.92,4.015,69.381,69.381,0,0,1-8,19.572A72.919,72.919,0,0,1,308.5,181.361l-3.168,2.377c-1.111.736-2.286,1.41-3.445,2.129-1.183.679-2.306,1.5-3.576,2.085l-3.807,1.842-1.937.925-2.036.749-4.131,1.518c-1.4.47-2.874.774-4.327,1.173a37.687,37.687,0,0,1-4.445,1.02,68.542,68.542,0,0,1-9.292,1.1c-1.583.06-3.181.216-4.79.2q-2.414-.12-4.865-.241c-.816-.055-1.639-.05-2.457-.154q-1.221-.187-2.452-.372c-1.638-.267-3.3-.457-4.948-.794a77.572,77.572,0,0,1-9.812-2.86,76.131,76.131,0,0,1-9.6-4.2c-1.555-.84-3.046-1.819-4.585-2.729-.752-.482-1.558-.892-2.274-1.435l-2.169-1.618a82.5,82.5,0,0,1-8.35-7.084q-1.864-2.048-3.744-4.114l-.942-1.036-.845-1.118-1.686-2.252-1.693-2.264-1.485-2.419-1.48-2.437-.743-1.223-.63-1.286q-1.246-2.586-2.5-5.189-.994-2.716-2-5.45a78.472,78.472,0,0,1-3.8-23.22,78.411,78.411,0,0,1,3.8-23.21l2-5.447q1.253-2.606,2.5-5.189l.63-1.286.742-1.221,1.482-2.437,1.483-2.419,1.693-2.262,1.686-2.252.845-1.118.942-1.035,3.742-4.113a82.471,82.471,0,0,1,8.35-7.083l2.168-1.62c.718-.542,1.522-.952,2.274-1.433,1.54-.91,3.03-1.889,4.585-2.727a76.213,76.213,0,0,1,9.6-4.2,77.351,77.351,0,0,1,9.81-2.859c1.646-.339,3.311-.528,4.947-.8l2.453-.372c.816-.1,1.641-.1,2.455-.154q2.452-.12,4.865-.239c1.61-.022,3.208.135,4.791.194a68.251,68.251,0,0,1,9.29,1.1,37.46,37.46,0,0,1,4.447,1.018c1.453.4,2.922.7,4.325,1.173q2.085.765,4.131,1.518l2.035.749q.974.463,1.938.925l3.807,1.842c1.271.581,2.394,1.4,3.576,2.083,1.161.719,2.334,1.394,3.445,2.129l3.168,2.377a72.9,72.9,0,0,1,18.571,20.906,69.32,69.32,0,0,1,8.006,19.574,39.384,39.384,0,0,1,.92,4.015q.279,1.914.525,3.58c.151,1.11.337,2.129.422,3.07q.06,1.415.11,2.568.085,2.265.133,3.48c.025.784.015,1.186.015,1.186" transform="translate(125.925 32.722)" fill="#f7536e"/>
        <path id="Path_1937" data-name="Path 1937" d="M211.407,106.207a36.8,36.8,0,1,1,34.314,39.136,36.8,36.8,0,0,1-34.314-39.136" transform="translate(139.7 47.473)" fill="#f5f5f5"/>
        <path id="Path_1938" data-name="Path 1938" d="M211.44,106.334a3.106,3.106,0,0,1,.035.6c0,.437.01,1.017.017,1.749,0,.389,0,.817,0,1.287.022.472.091.987.141,1.546a26.858,26.858,0,0,0,.532,3.83,35.166,35.166,0,0,0,3.45,9.973A36.465,36.465,0,0,0,258.3,143.676a33.464,33.464,0,0,0,9.511-4.345,33.286,33.286,0,0,0,8.179-7.209,35.26,35.26,0,0,0,5.844-9.659,36.066,36.066,0,0,0,1.507-22.908,35.253,35.253,0,0,0-4.53-10.345,33.41,33.41,0,0,0-7.167-8.219,33.5,33.5,0,0,0-8.863-5.553,36.56,36.56,0,0,0-44.719,12.621,35.174,35.174,0,0,0-4.724,9.436,26.951,26.951,0,0,0-1.027,3.727c-.123.546-.259,1.048-.342,1.515-.061.465-.118.889-.169,1.274l-.246,1.732a3.076,3.076,0,0,1-.113.59,2.988,2.988,0,0,1,.025-.6c.04-.437.093-1.015.161-1.747q.057-.583.128-1.289c.071-.47.194-.977.3-1.531a26.046,26.046,0,0,1,.958-3.777,34.843,34.843,0,0,1,4.646-9.608A37.068,37.068,0,0,1,243.711,71.87a37.229,37.229,0,0,1,19.39,2.839,34.215,34.215,0,0,1,9.076,5.653,33.99,33.99,0,0,1,7.349,8.393,36.01,36.01,0,0,1,4.648,10.583,36.832,36.832,0,0,1-1.541,23.449,35.985,35.985,0,0,1-5.993,9.882,34,34,0,0,1-8.38,7.357,34.1,34.1,0,0,1-9.737,4.417,37.227,37.227,0,0,1-19.591.281,37.08,37.08,0,0,1-23.747-19.184,34.878,34.878,0,0,1-3.35-10.132,26.192,26.192,0,0,1-.457-3.872c-.035-.563-.091-1.083-.1-1.558q.022-.708.04-1.294c.03-.736.053-1.316.07-1.754a2.952,2.952,0,0,1,.053-.595" transform="translate(139.667 47.346)" fill="#141944"/>
        <path id="Path_1939" data-name="Path 1939" d="M250.372,103.285a7.379,7.379,0,0,1-1.3.086l-3.576.071c-3.036.043-7.265.071-12.039.078h-.236v-.236c0-.764,0-1.57,0-2.387,0-5.332.027-10.157.07-13.651.032-1.684.056-3.078.075-4.136a9.681,9.681,0,0,1,.093-1.518,9.185,9.185,0,0,1,.093,1.518c.02,1.058.045,2.452.076,4.136.043,3.493.07,8.319.07,13.651,0,.817,0,1.623,0,2.387l-.238-.236c4.774.007,9,.035,12.039.078l3.576.071a7.383,7.383,0,0,1,1.3.086" transform="translate(154.172 53.938)" fill="#141944"/>
        <path id="Path_1940" data-name="Path 1940" d="M233.524,75.453a10.261,10.261,0,0,1,.238,3.091,10.261,10.261,0,0,1-.238,3.091,10.262,10.262,0,0,1-.238-3.091,10.262,10.262,0,0,1,.238-3.091" transform="translate(154.217 49.879)" fill="#141944"/>
        <path id="Path_1941" data-name="Path 1941" d="M245.242,78.445a9.972,9.972,0,0,1-1.987,2.322,9.874,9.874,0,0,1-2.322,1.987,9.96,9.96,0,0,1,1.987-2.322,9.923,9.923,0,0,1,2.322-1.987" transform="translate(159.268 51.852)" fill="#141944"/>
        <path id="Path_1942" data-name="Path 1942" d="M251.5,84.9a12.88,12.88,0,0,1-2.536,1.693,12.7,12.7,0,0,1-2.671,1.472A13.55,13.55,0,0,1,251.5,84.9" transform="translate(162.814 56.112)" fill="#141944"/>
        <path id="Path_1943" data-name="Path 1943" d="M256.243,94.555a37.53,37.53,0,0,1-8.432,0,37.532,37.532,0,0,1,8.432,0" transform="translate(163.818 62.349)" fill="#141944"/>
        <path id="Path_1944" data-name="Path 1944" d="M220.862,94.216a33.488,33.488,0,0,1-7.963,0,33.488,33.488,0,0,1,7.963,0" transform="translate(140.739 62.125)" fill="#141944"/>
        <path id="Path_1945" data-name="Path 1945" d="M222.7,101.249a17.35,17.35,0,0,1-3.008,2.729,17.5,17.5,0,0,1-3.307,2.359,17.425,17.425,0,0,1,3.008-2.729,17.547,17.547,0,0,1,3.307-2.359" transform="translate(143.039 66.927)" fill="#141944"/>
        <path id="Path_1946" data-name="Path 1946" d="M228.008,106.756a27,27,0,0,1-2.048,3.55,27.051,27.051,0,0,1-2.173,3.473,13.379,13.379,0,0,1,1.764-3.719,13.385,13.385,0,0,1,2.457-3.3" transform="translate(147.929 70.571)" fill="#141944"/>
        <path id="Path_1947" data-name="Path 1947" d="M233.524,117.218a18.909,18.909,0,0,1-.238-4.216,18.909,18.909,0,0,1,.238-4.216,18.906,18.906,0,0,1,.238,4.216,18.906,18.906,0,0,1-.238,4.216" transform="translate(154.217 71.914)" fill="#141944"/>
        <path id="Path_1948" data-name="Path 1948" d="M246.882,112.671a18.187,18.187,0,0,1-6.309-5.5,38.914,38.914,0,0,1,3.146,2.759,38.807,38.807,0,0,1,3.163,2.741" transform="translate(159.03 70.844)" fill="#141944"/>
        <path id="Path_1949" data-name="Path 1949" d="M251.593,107.04a14.655,14.655,0,0,1-2.792-2.455,14.557,14.557,0,0,1-2.453-2.791,14.686,14.686,0,0,1,2.791,2.453,14.656,14.656,0,0,1,2.455,2.792" transform="translate(162.847 67.289)" fill="#141944"/>
        <path id="Path_1950" data-name="Path 1950" d="M221.779,89.127A11.256,11.256,0,0,1,219.315,87a11.322,11.322,0,0,1-2.128-2.465,11.323,11.323,0,0,1,2.465,2.128,11.255,11.255,0,0,1,2.126,2.463" transform="translate(143.57 55.879)" fill="#141944"/>
        <path id="Path_1951" data-name="Path 1951" d="M228.082,82.41a10.8,10.8,0,0,1-2.422-2.075,10.822,10.822,0,0,1-2.085-2.412A10.887,10.887,0,0,1,226,80a10.821,10.821,0,0,1,2.085,2.412" transform="translate(147.793 51.508)" fill="#141944"/>
        <path id="Path_1952" data-name="Path 1952" d="M277.341,83.137a19.308,19.308,0,1,1-19.308-19.308,19.308,19.308,0,0,1,19.308,19.308" transform="translate(157.812 42.195)" fill="#f7536e"/>
        <path id="Path_1953" data-name="Path 1953" d="M263.3,71.83a17.368,17.368,0,0,1-2.364,3.093c-1.541,1.835-3.717,4.334-6.159,7.055l-1.965,2.176-.282.312-.311-.279c-2.2-1.977-4.093-3.727-5.42-5a11.587,11.587,0,0,1-2.022-2.154,11.653,11.653,0,0,1,2.382,1.747c1.427,1.164,3.392,2.835,5.618,4.779l-.593.033,1.95-2.188c2.442-2.722,4.689-5.156,6.347-6.887A17.471,17.471,0,0,1,263.3,71.83" transform="translate(161.809 47.481)" fill="#fafafa"/>
        <path id="Path_1954" data-name="Path 1954" d="M145,269.041c-.159-.178,1.093-1.565,2.8-3.1s3.217-2.634,3.379-2.457-1.093,1.565-2.8,3.1-3.217,2.633-3.377,2.455" transform="translate(95.848 174.169)" fill="#f7536e"/>
        <path id="Path_1955" data-name="Path 1955" d="M137.569,275.728c-.159-.178,1.093-1.565,2.8-3.1s3.217-2.634,3.377-2.457-1.093,1.565-2.8,3.1-3.217,2.633-3.377,2.455" transform="translate(90.933 178.589)" fill="#f7536e"/>
        <path id="Path_1956" data-name="Path 1956" d="M130.134,282.416c-.159-.178,1.093-1.565,2.8-3.1s3.216-2.634,3.377-2.457-1.093,1.565-2.8,3.1-3.217,2.633-3.377,2.455" transform="translate(86.018 183.01)" fill="#f7536e"/>
        <path id="Path_1957" data-name="Path 1957" d="M122.7,289.1c-.159-.178,1.093-1.565,2.8-3.1s3.216-2.634,3.375-2.455-1.091,1.563-2.8,3.1-3.217,2.633-3.377,2.455" transform="translate(81.102 187.431)" fill="#f7536e"/>
        <path id="Path_1958" data-name="Path 1958" d="M115.263,295.79c-.159-.178,1.093-1.565,2.8-3.1s3.216-2.634,3.377-2.457-1.093,1.565-2.8,3.1-3.217,2.633-3.377,2.455" transform="translate(76.187 191.851)" fill="#f7536e"/>
        <path id="Path_1959" data-name="Path 1959" d="M190.563,358.37a73.137,73.137,0,1,1-73.137-73.137,73.137,73.137,0,0,1,73.137,73.137" transform="translate(29.278 188.557)" fill="#fff" fill-rule="evenodd"/>
        <path id="Path_1960" data-name="Path 1960" d="M190.735,358.509s-.05-.4-.1-1.184q-.075-1.213-.218-3.472-.067-1.149-.15-2.556c-.1-.937-.3-1.952-.462-3.055s-.362-2.292-.563-3.561a39.816,39.816,0,0,0-.953-3.988,69.693,69.693,0,0,0-8.1-19.408,72.663,72.663,0,0,0-18.526-20.667l-3.148-2.345c-1.106-.726-2.272-1.39-3.423-2.1-1.176-.668-2.291-1.482-3.551-2.053l-3.781-1.814-1.922-.912-2.02-.734-4.1-1.493c-1.39-.46-2.847-.756-4.287-1.148a36.99,36.99,0,0,0-4.405-1,67.771,67.771,0,0,0-9.2-1.063c-1.57-.055-3.151-.208-4.744-.184l-4.814.249c-.807.056-1.623.05-2.432.158l-2.425.372c-1.62.269-3.266.458-4.893.8a77.1,77.1,0,0,0-9.7,2.845,75.854,75.854,0,0,0-9.485,4.169c-1.536.832-3.008,1.8-4.53,2.7-.744.477-1.538.882-2.247,1.42l-2.141,1.6a82.061,82.061,0,0,0-8.249,7.011l-3.7,4.071-.93,1.023-.836,1.106-1.664,2.227-1.673,2.237-1.463,2.392-1.462,2.409-.734,1.208-.621,1.272q-1.231,2.554-2.47,5.128-.982,2.681-1.972,5.385a72.029,72.029,0,0,0,0,45.885l1.972,5.387q1.241,2.574,2.47,5.129l.621,1.272.733,1.208,1.463,2.41,1.463,2.394,1.673,2.237L60.7,403.71l.836,1.106.93,1.025q1.856,2.046,3.7,4.071a81.311,81.311,0,0,0,8.251,7.013l2.141,1.6c.708.538,1.5.943,2.247,1.42,1.522.9,2.993,1.872,4.53,2.706a75.876,75.876,0,0,0,9.486,4.169,77.1,77.1,0,0,0,9.7,2.845c1.63.337,3.276.527,4.9.8l2.427.372c.807.106,1.625.1,2.43.158l4.815.249c1.593.023,3.174-.13,4.744-.184a67.544,67.544,0,0,0,9.2-1.065,36.7,36.7,0,0,0,4.4-1c1.442-.392,2.9-.688,4.289-1.148l4.1-1.493,2.02-.736,1.922-.912,3.781-1.812c1.261-.573,2.375-1.385,3.55-2.055,1.153-.709,2.319-1.374,3.423-2.1l3.149-2.345a72.727,72.727,0,0,0,18.524-20.667,69.723,69.723,0,0,0,8.093-19.408,39.712,39.712,0,0,0,.953-3.988q.3-1.9.563-3.56c.164-1.1.364-2.118.462-3.055q.082-1.408.15-2.556.142-2.257.218-3.47c.055-.782.1-1.184.1-1.184s.01.4-.015,1.184q-.047,1.218-.133,3.482c-.033.767-.07,1.625-.11,2.566-.085.94-.271,1.96-.42,3.07s-.339,2.3-.527,3.58a39.382,39.382,0,0,1-.92,4.015,69.429,69.429,0,0,1-8,19.572,72.893,72.893,0,0,1-18.569,20.906l-3.168,2.377c-1.111.736-2.286,1.41-3.445,2.129-1.183.679-2.306,1.5-3.576,2.085l-3.807,1.842-1.937.925-2.036.749-4.131,1.52c-1.4.468-2.874.772-4.327,1.171a37.684,37.684,0,0,1-4.445,1.02,68.516,68.516,0,0,1-9.29,1.1c-1.585.06-3.183.216-4.792.194q-2.414-.117-4.865-.239c-.816-.055-1.639-.05-2.457-.155l-2.452-.372c-1.638-.267-3.3-.457-4.948-.794a77.584,77.584,0,0,1-9.812-2.86,76.49,76.49,0,0,1-9.6-4.2c-1.555-.841-3.045-1.819-4.585-2.729-.752-.482-1.556-.892-2.274-1.435l-2.169-1.618a82.5,82.5,0,0,1-8.35-7.084l-3.744-4.116-.942-1.035-.845-1.118-1.686-2.252-1.693-2.262-1.483-2.42L53.7,394.865l-.742-1.223-.63-1.287-2.5-5.188q-.994-2.716-2-5.45a72.849,72.849,0,0,1,0-46.43q1-2.733,2-5.448,1.256-2.6,2.5-5.187l.63-1.286.743-1.221,1.482-2.437,1.483-2.418,1.693-2.262,1.686-2.252.845-1.118.942-1.035,3.742-4.113a82.671,82.671,0,0,1,8.35-7.083l2.168-1.62c.718-.542,1.522-.952,2.276-1.434,1.538-.91,3.028-1.889,4.583-2.729a76.439,76.439,0,0,1,9.6-4.2,77.641,77.641,0,0,1,9.81-2.86c1.646-.337,3.31-.527,4.948-.794l2.452-.372c.816-.1,1.641-.1,2.457-.154q2.449-.12,4.864-.239c1.61-.022,3.208.135,4.79.194a68.256,68.256,0,0,1,9.29,1.1,37.308,37.308,0,0,1,4.447,1.018c1.453.4,2.922.7,4.325,1.173l4.131,1.518,2.036.749,1.937.925,3.809,1.842c1.269.58,2.392,1.4,3.575,2.083,1.161.719,2.334,1.394,3.447,2.13l3.166,2.377A72.9,72.9,0,0,1,180.6,321.037a69.319,69.319,0,0,1,8.006,19.574,39.456,39.456,0,0,1,.92,4.013q.279,1.916.525,3.581c.151,1.11.337,2.13.422,3.07q.06,1.415.11,2.566.085,2.267.133,3.482c.025.784.015,1.186.015,1.186" transform="translate(29.107 188.417)" fill="#f7536e"/>
        <path id="Path_1961" data-name="Path 1961" d="M139.612,375.2a7.77,7.77,0,0,1-1.41.095c-1.012.02-2.359.052-4.046.086l-14.876.148-49.083.136H66.7l-.463,0V375.2c.056-18.333.106-34.774.145-46.746.06-5.87.108-10.641.143-14.048.037-1.585.065-2.849.085-3.805a7.3,7.3,0,0,1,.091-1.324,7.232,7.232,0,0,1,.09,1.324c.022.957.05,2.221.085,3.805.035,3.407.085,8.176.145,14.048.037,11.971.088,28.412.143,46.746l-.462-.462c1.11,0,2.3,0,3.5,0,19.124.055,36.437.1,49.083.138l14.876.146c1.689.037,3.035.066,4.046.086a8.558,8.558,0,0,1,1.41.093" transform="translate(43.784 204.453)" fill="#141944"/>
        <path id="Path_1962" data-name="Path 1962" d="M128.624,318.91a18.806,18.806,0,0,1-2.176,2.078c-1.571,1.38-3.646,3.2-6.156,5.405-5.224,4.531-12.481,10.744-20.536,17.562l-1.219,1.031-.314.266-.3-.279-9.134-8.486.57.013L75.947,347.563l-3.892,3.113a8.549,8.549,0,0,1-1.455,1.04,8.684,8.684,0,0,1,1.274-1.254l3.734-3.3,13.2-11.318.287-.247.282.261c2.855,2.625,5.943,5.465,9.177,8.44l-.613-.013,1.219-1.033c8.053-6.817,15.378-12.951,20.71-17.355,2.588-2.111,4.726-3.857,6.347-5.181a18.842,18.842,0,0,1,2.409-1.8" transform="translate(46.67 210.818)" fill="#141944"/>
        <path id="Path_1963" data-name="Path 1963" d="M112.381,334.512a22.841,22.841,0,0,1-.321-4.55c-.083-2.82-.136-6.729-.143-11.084l.463.462-.787,0c-4.536,0-8.643-.053-11.614-.136a25.015,25.015,0,0,1-4.81-.327,24.843,24.843,0,0,1,4.81-.327c2.972-.085,7.078-.136,11.614-.136h1.251v.463c-.007,4.355-.06,8.264-.143,11.084a22.837,22.837,0,0,1-.321,4.55" transform="translate(62.913 210.492)" fill="#141944"/>
        <path id="Path_1964" data-name="Path 1964" d="M146.533,235.054A73.137,73.137,0,1,1,73.4,161.917a73.137,73.137,0,0,1,73.137,73.137" transform="translate(0.172 107.037)" fill="#fff" fill-rule="evenodd"/>
        <path id="Path_1965" data-name="Path 1965" d="M146.705,235.193s-.05-.4-.1-1.184q-.075-1.213-.218-3.472-.067-1.149-.149-2.556c-.1-.937-.3-1.952-.462-3.056s-.362-2.291-.563-3.56a39.842,39.842,0,0,0-.955-3.988,69.683,69.683,0,0,0-8.094-19.408A72.688,72.688,0,0,0,117.633,177.3q-1.557-1.159-3.149-2.345c-1.1-.726-2.271-1.39-3.423-2.1-1.174-.668-2.289-1.482-3.55-2.053l-3.781-1.814q-.957-.454-1.922-.91l-2.02-.736-4.1-1.493c-1.39-.46-2.847-.756-4.287-1.148a36.99,36.99,0,0,0-4.405-1,68.054,68.054,0,0,0-9.2-1.065c-1.57-.053-3.151-.206-4.744-.183l-4.814.249c-.807.056-1.623.05-2.432.158l-2.425.372c-1.62.269-3.266.458-4.893.8a77.1,77.1,0,0,0-9.7,2.845,75.845,75.845,0,0,0-9.485,4.169c-1.536.832-3.008,1.8-4.53,2.7-.744.477-1.538.884-2.247,1.42l-2.141,1.6a82.073,82.073,0,0,0-8.249,7.011l-3.7,4.071-.93,1.023-.836,1.106-1.664,2.228-1.673,2.237-1.463,2.392-1.463,2.409-.733,1.208-.621,1.272q-1.231,2.554-2.47,5.128-.982,2.681-1.972,5.385a72.044,72.044,0,0,0-.007,45.885q.992,2.7,1.973,5.387,1.238,2.576,2.47,5.129l.621,1.272.733,1.209,1.463,2.409,1.463,2.392,1.673,2.239,1.664,2.227.836,1.106.93,1.025,3.7,4.071a81.667,81.667,0,0,0,8.25,7.013l2.143,1.6c.708.538,1.5.943,2.247,1.42,1.52.9,2.993,1.872,4.53,2.706a75.875,75.875,0,0,0,9.486,4.169,77.105,77.105,0,0,0,9.7,2.845c1.63.337,3.276.527,4.9.8l2.427.372c.807.106,1.623.1,2.43.158l4.815.249c1.593.023,3.174-.13,4.744-.184A67.575,67.575,0,0,0,87,306.68a36.705,36.705,0,0,0,4.4-1c1.442-.392,2.9-.688,4.289-1.148l4.1-1.493,2.02-.736,1.922-.912,3.779-1.812c1.262-.573,2.375-1.385,3.551-2.055,1.153-.709,2.317-1.374,3.423-2.1l3.149-2.345a72.749,72.749,0,0,0,18.524-20.667,69.723,69.723,0,0,0,8.093-19.408,39.7,39.7,0,0,0,.953-3.988q.3-1.9.563-3.56c.164-1.1.364-2.118.462-3.055q.082-1.408.149-2.556.142-2.257.218-3.472c.055-.781.1-1.183.1-1.183s.01.4-.015,1.184q-.047,1.218-.133,3.482c-.033.767-.07,1.625-.11,2.566-.085.94-.271,1.96-.422,3.07s-.337,2.3-.525,3.58a39.384,39.384,0,0,1-.92,4.015,69.431,69.431,0,0,1-8,19.572,72.92,72.92,0,0,1-18.569,20.906l-3.168,2.377c-1.111.736-2.286,1.41-3.445,2.13-1.183.679-2.306,1.5-3.576,2.085L104.012,302q-.964.461-1.938.925l-2.035.749q-2.046.752-4.131,1.518c-1.4.47-2.874.774-4.327,1.173a37.684,37.684,0,0,1-4.445,1.02,68.531,68.531,0,0,1-9.292,1.1c-1.583.06-3.181.216-4.791.2q-2.414-.12-4.865-.241c-.816-.055-1.639-.05-2.457-.154q-1.221-.187-2.452-.372c-1.638-.267-3.3-.457-4.948-.794a77.584,77.584,0,0,1-9.812-2.86,76.375,76.375,0,0,1-9.6-4.2c-1.555-.84-3.046-1.819-4.585-2.729-.752-.482-1.558-.892-2.274-1.435l-2.169-1.618a82.489,82.489,0,0,1-8.35-7.084L17.8,283.073l-.942-1.035-.845-1.118-1.686-2.252-1.693-2.262-1.485-2.42-1.48-2.437-.742-1.223-.63-1.287-2.5-5.187q-.994-2.716-2-5.452a72.844,72.844,0,0,1,0-46.428q1-2.733,2-5.448,1.253-2.6,2.5-5.187l.63-1.286.742-1.221,1.482-2.437,1.483-2.418,1.693-2.262,1.686-2.252.845-1.118.942-1.035,3.742-4.113a82.476,82.476,0,0,1,8.35-7.083l2.168-1.62c.718-.542,1.522-.952,2.274-1.434,1.54-.91,3.03-1.889,4.585-2.729a76.448,76.448,0,0,1,9.6-4.2,77.349,77.349,0,0,1,9.81-2.859c1.646-.339,3.31-.528,4.947-.8l2.453-.372c.816-.1,1.641-.1,2.455-.154q2.452-.12,4.865-.239c1.61-.022,3.208.136,4.791.194a68.25,68.25,0,0,1,9.29,1.1,37.462,37.462,0,0,1,4.447,1.018c1.453.4,2.922.7,4.325,1.173q2.085.765,4.131,1.518l2.035.747,1.938.927,3.807,1.842c1.271.581,2.394,1.4,3.576,2.083,1.161.719,2.334,1.394,3.445,2.129L118,176.815a72.927,72.927,0,0,1,18.571,20.906,69.321,69.321,0,0,1,8.006,19.574,38.99,38.99,0,0,1,.919,4.013q.282,1.916.527,3.581c.151,1.11.337,2.129.422,3.07q.06,1.415.11,2.568.085,2.265.133,3.48c.025.784.015,1.186.015,1.186" transform="translate(0 106.898)" fill="#f7536e"/>
        <path id="Path_1966" data-name="Path 1966" d="M58.427,187.258l7.923,16.056A2.058,2.058,0,0,0,67.9,204.44l17.719,2.575a2.06,2.06,0,0,1,1.141,3.513l-12.82,12.5a2.063,2.063,0,0,0-.593,1.824L76.375,242.5a2.059,2.059,0,0,1-2.988,2.171l-15.848-8.332a2.059,2.059,0,0,0-1.917,0l-15.848,8.332a2.06,2.06,0,0,1-2.988-2.171l3.026-17.647a2.062,2.062,0,0,0-.591-1.824L26.4,210.528a2.06,2.06,0,0,1,1.141-3.513l17.719-2.575a2.058,2.058,0,0,0,1.551-1.126l7.923-16.056a2.059,2.059,0,0,1,3.694,0" transform="translate(17.038 123.03)" fill="#fafafa"/>
        <path id="Path_1967" data-name="Path 1967" d="M58.566,187.294c-.027.015-.093-.166-.339-.424a2,2,0,0,0-3.32.643l-1.541,3.213-4.257,8.794q-.625,1.286-1.292,2.658-.339.69-.689,1.4a2.333,2.333,0,0,1-1.375,1.1c-2.2.377-4.412.674-6.8,1.041l-7.443,1.11-3.928.6a1.709,1.709,0,0,0-.932,2.724l12.875,12.516a2.554,2.554,0,0,1,.781,2.523q-.2,1.186-.405,2.387-.406,2.4-.826,4.854-.835,4.906-1.706,10.01a1.644,1.644,0,0,0,.721,1.82,1.572,1.572,0,0,0,.985.248,2.617,2.617,0,0,0,1.053-.4l4.693-2.47q4.729-2.489,9.588-5.043l1.228-.643a2.471,2.471,0,0,1,1.61-.191,5.956,5.956,0,0,1,1.344.6l1.2.631q2.4,1.263,4.764,2.507l9.287,4.879a1.619,1.619,0,0,0,1.867-.415,1.566,1.566,0,0,0,.407-.909,4.944,4.944,0,0,0-.133-1.148q-.426-2.5-.844-4.958l-1.633-9.6q-.2-1.174-.4-2.329A2.544,2.544,0,0,1,74,222.6l3.279-3.183,6.271-6.083,2.985-2.892a1.737,1.737,0,0,0-.224-2.852,6.137,6.137,0,0,0-1.769-.382q-.952-.142-1.882-.281l-3.639-.543-6.764-1.015-3.111-.468a15.234,15.234,0,0,1-1.52-.264,2.3,2.3,0,0,1-1.246-.99c-1.661-3.42-3.1-6.373-4.277-8.809-1.136-2.38-2.028-4.247-2.659-5.573-.281-.606-.5-1.088-.673-1.458a2.534,2.534,0,0,1-.2-.51,2.639,2.639,0,0,1,.282.472c.189.36.437.829.749,1.42l2.8,5.5c1.213,2.405,2.684,5.325,4.389,8.7a1.81,1.81,0,0,0,.988.769c.394.108.957.148,1.44.228l3.114.435,6.774.953,3.643.515,1.884.267a6.45,6.45,0,0,1,2,.445,2.38,2.38,0,0,1,1.214,1.854,2.436,2.436,0,0,1-.832,2.08l-2.967,2.909-6.242,6.114q-1.61,1.575-3.266,3.2a1.742,1.742,0,0,0-.654,1.734q.2,1.156.4,2.329.812,4.684,1.661,9.593.424,2.454.855,4.957a5.345,5.345,0,0,1,.143,1.374,2.417,2.417,0,0,1-.615,1.387,2.47,2.47,0,0,1-2.832.63l-9.35-4.9-4.766-2.5-1.2-.633a5.5,5.5,0,0,0-1.125-.522,1.619,1.619,0,0,0-1.051.125l-1.2.63L45.221,242.4q-2.365,1.243-4.694,2.465a3.427,3.427,0,0,1-1.387.5,2.436,2.436,0,0,1-1.5-.379,2.508,2.508,0,0,1-1.1-2.684q.882-5.1,1.728-10.006.424-2.452.839-4.852c.14-.8.276-1.595.414-2.384a1.733,1.733,0,0,0-.545-1.817L26.093,210.6a2.413,2.413,0,0,1-.389-2.319,2.373,2.373,0,0,1,1.723-1.533l3.988-.581,7.452-1.053q3.536-.508,6.732-.965a1.792,1.792,0,0,0,1.063-.834q.351-.7.691-1.37.683-1.363,1.322-2.643l4.39-8.729q.9-1.781,1.611-3.178a2.178,2.178,0,0,1,2.188-1.331,2.041,2.041,0,0,1,1.432.744,1.274,1.274,0,0,1,.271.482" transform="translate(16.899 122.994)" fill="#141944"/>
        <path id="Path_1968" data-name="Path 1968" d="M146.533,235.054A73.137,73.137,0,1,1,73.4,161.917a73.137,73.137,0,0,1,73.137,73.137" transform="translate(0.172 107.037)" fill="#fff" fill-rule="evenodd"/>
        <path id="Path_1969" data-name="Path 1969" d="M146.705,235.193s-.05-.4-.1-1.184q-.075-1.213-.218-3.472-.067-1.149-.149-2.556c-.1-.937-.3-1.952-.462-3.056s-.362-2.291-.563-3.56a39.842,39.842,0,0,0-.955-3.988,69.683,69.683,0,0,0-8.094-19.408A72.688,72.688,0,0,0,117.633,177.3q-1.557-1.159-3.149-2.345c-1.1-.726-2.271-1.39-3.423-2.1-1.174-.668-2.289-1.482-3.55-2.053l-3.781-1.814q-.957-.454-1.922-.91l-2.02-.736-4.1-1.493c-1.39-.46-2.847-.756-4.287-1.148a36.99,36.99,0,0,0-4.405-1,68.054,68.054,0,0,0-9.2-1.065c-1.57-.053-3.151-.206-4.744-.183l-4.814.249c-.807.056-1.623.05-2.432.158l-2.425.372c-1.62.269-3.266.458-4.893.8a77.1,77.1,0,0,0-9.7,2.845,75.845,75.845,0,0,0-9.485,4.169c-1.536.832-3.008,1.8-4.53,2.7-.744.477-1.538.884-2.247,1.42l-2.141,1.6a82.073,82.073,0,0,0-8.249,7.011l-3.7,4.071-.93,1.023-.836,1.106-1.664,2.228-1.673,2.237-1.463,2.392-1.463,2.409-.733,1.208-.621,1.272q-1.231,2.554-2.47,5.128-.982,2.681-1.972,5.385a72.044,72.044,0,0,0-.007,45.885q.992,2.7,1.973,5.387,1.238,2.576,2.47,5.129l.621,1.272.733,1.209,1.463,2.409,1.463,2.392,1.673,2.239,1.664,2.227.836,1.106.93,1.025,3.7,4.071a81.667,81.667,0,0,0,8.25,7.013l2.143,1.6c.708.538,1.5.943,2.247,1.42,1.52.9,2.993,1.872,4.53,2.706a75.875,75.875,0,0,0,9.486,4.169,77.105,77.105,0,0,0,9.7,2.845c1.63.337,3.276.527,4.9.8l2.427.372c.807.106,1.623.1,2.43.158l4.815.249c1.593.023,3.174-.13,4.744-.184A67.575,67.575,0,0,0,87,306.68a36.705,36.705,0,0,0,4.4-1c1.442-.392,2.9-.688,4.289-1.148l4.1-1.493,2.02-.736,1.922-.912,3.779-1.812c1.262-.573,2.375-1.385,3.551-2.055,1.153-.709,2.317-1.374,3.423-2.1l3.149-2.345a72.749,72.749,0,0,0,18.524-20.667,69.723,69.723,0,0,0,8.093-19.408,39.7,39.7,0,0,0,.953-3.988q.3-1.9.563-3.56c.164-1.1.364-2.118.462-3.055q.082-1.408.149-2.556.142-2.257.218-3.472c.055-.781.1-1.183.1-1.183s.01.4-.015,1.184q-.047,1.218-.133,3.482c-.033.767-.07,1.625-.11,2.566-.085.94-.271,1.96-.422,3.07s-.337,2.3-.525,3.58a39.384,39.384,0,0,1-.92,4.015,69.431,69.431,0,0,1-8,19.572,72.92,72.92,0,0,1-18.569,20.906l-3.168,2.377c-1.111.736-2.286,1.41-3.445,2.13-1.183.679-2.306,1.5-3.576,2.085L104.012,302q-.964.461-1.938.925l-2.035.749q-2.046.752-4.131,1.518c-1.4.47-2.874.774-4.327,1.173a37.684,37.684,0,0,1-4.445,1.02,68.531,68.531,0,0,1-9.292,1.1c-1.583.06-3.181.216-4.791.2q-2.414-.12-4.865-.241c-.816-.055-1.639-.05-2.457-.154q-1.221-.187-2.452-.372c-1.638-.267-3.3-.457-4.948-.794a77.584,77.584,0,0,1-9.812-2.86,76.375,76.375,0,0,1-9.6-4.2c-1.555-.84-3.046-1.819-4.585-2.729-.752-.482-1.558-.892-2.274-1.435l-2.169-1.618a82.489,82.489,0,0,1-8.35-7.084L17.8,283.073l-.942-1.035-.845-1.118-1.686-2.252-1.693-2.262-1.485-2.42-1.48-2.437-.742-1.223-.63-1.287-2.5-5.187q-.994-2.716-2-5.452a72.844,72.844,0,0,1,0-46.428q1-2.733,2-5.448,1.253-2.6,2.5-5.187l.63-1.286.742-1.221,1.482-2.437,1.483-2.418,1.693-2.262,1.686-2.252.845-1.118.942-1.035,3.742-4.113a82.476,82.476,0,0,1,8.35-7.083l2.168-1.62c.718-.542,1.522-.952,2.274-1.434,1.54-.91,3.03-1.889,4.585-2.729a76.448,76.448,0,0,1,9.6-4.2,77.349,77.349,0,0,1,9.81-2.859c1.646-.339,3.31-.528,4.947-.8l2.453-.372c.816-.1,1.641-.1,2.455-.154q2.452-.12,4.865-.239c1.61-.022,3.208.136,4.791.194a68.25,68.25,0,0,1,9.29,1.1,37.462,37.462,0,0,1,4.447,1.018c1.453.4,2.922.7,4.325,1.173q2.085.765,4.131,1.518l2.035.747,1.938.927,3.807,1.842c1.271.581,2.394,1.4,3.576,2.083,1.161.719,2.334,1.394,3.445,2.129L118,176.815a72.927,72.927,0,0,1,18.571,20.906,69.321,69.321,0,0,1,8.006,19.574,38.99,38.99,0,0,1,.919,4.013q.282,1.916.527,3.581c.151,1.11.337,2.129.422,3.07q.06,1.415.11,2.568.085,2.265.133,3.48c.025.784.015,1.186.015,1.186" transform="translate(0 106.898)" fill="#f7536e"/>
        <path id="Path_1970" data-name="Path 1970" d="M58.427,187.258l7.923,16.056A2.058,2.058,0,0,0,67.9,204.44l17.719,2.575a2.06,2.06,0,0,1,1.141,3.513l-12.82,12.5a2.063,2.063,0,0,0-.593,1.824L76.375,242.5a2.059,2.059,0,0,1-2.988,2.171l-15.848-8.332a2.059,2.059,0,0,0-1.917,0l-15.848,8.332a2.06,2.06,0,0,1-2.988-2.171l3.026-17.647a2.062,2.062,0,0,0-.591-1.824L26.4,210.528a2.06,2.06,0,0,1,1.141-3.513l17.719-2.575a2.058,2.058,0,0,0,1.551-1.126l7.923-16.056a2.059,2.059,0,0,1,3.694,0" transform="translate(17.038 123.03)" fill="#fafafa"/>
        <path id="Path_1971" data-name="Path 1971" d="M58.566,187.294c-.027.015-.093-.166-.339-.424a2,2,0,0,0-3.32.643l-1.541,3.213-4.257,8.794q-.625,1.286-1.292,2.658-.339.69-.689,1.4a2.333,2.333,0,0,1-1.375,1.1c-2.2.377-4.412.674-6.8,1.041l-7.443,1.11-3.928.6a1.709,1.709,0,0,0-.932,2.724l12.875,12.516a2.554,2.554,0,0,1,.781,2.523q-.2,1.186-.405,2.387-.406,2.4-.826,4.854-.835,4.906-1.706,10.01a1.644,1.644,0,0,0,.721,1.82,1.572,1.572,0,0,0,.985.248,2.617,2.617,0,0,0,1.053-.4l4.693-2.47q4.729-2.489,9.588-5.043l1.228-.643a2.471,2.471,0,0,1,1.61-.191,5.956,5.956,0,0,1,1.344.6l1.2.631q2.4,1.263,4.764,2.507l9.287,4.879a1.619,1.619,0,0,0,1.867-.415,1.566,1.566,0,0,0,.407-.909,4.944,4.944,0,0,0-.133-1.148q-.426-2.5-.844-4.958l-1.633-9.6q-.2-1.174-.4-2.329A2.544,2.544,0,0,1,74,222.6l3.279-3.183,6.271-6.083,2.985-2.892a1.737,1.737,0,0,0-.224-2.852,6.137,6.137,0,0,0-1.769-.382q-.952-.142-1.882-.281l-3.639-.543-6.764-1.015-3.111-.468a15.234,15.234,0,0,1-1.52-.264,2.3,2.3,0,0,1-1.246-.99c-1.661-3.42-3.1-6.373-4.277-8.809-1.136-2.38-2.028-4.247-2.659-5.573-.281-.606-.5-1.088-.673-1.458a2.534,2.534,0,0,1-.2-.51,2.639,2.639,0,0,1,.282.472c.189.36.437.829.749,1.42l2.8,5.5c1.213,2.405,2.684,5.325,4.389,8.7a1.81,1.81,0,0,0,.988.769c.394.108.957.148,1.44.228l3.114.435,6.774.953,3.643.515,1.884.267a6.45,6.45,0,0,1,2,.445,2.38,2.38,0,0,1,1.214,1.854,2.436,2.436,0,0,1-.832,2.08l-2.967,2.909-6.242,6.114q-1.61,1.575-3.266,3.2a1.742,1.742,0,0,0-.654,1.734q.2,1.156.4,2.329.812,4.684,1.661,9.593.424,2.454.855,4.957a5.345,5.345,0,0,1,.143,1.374,2.417,2.417,0,0,1-.615,1.387,2.47,2.47,0,0,1-2.832.63l-9.35-4.9-4.766-2.5-1.2-.633a5.5,5.5,0,0,0-1.125-.522,1.619,1.619,0,0,0-1.051.125l-1.2.63L45.221,242.4q-2.365,1.243-4.694,2.465a3.427,3.427,0,0,1-1.387.5,2.436,2.436,0,0,1-1.5-.379,2.508,2.508,0,0,1-1.1-2.684q.882-5.1,1.728-10.006.424-2.452.839-4.852c.14-.8.276-1.595.414-2.384a1.733,1.733,0,0,0-.545-1.817L26.093,210.6a2.413,2.413,0,0,1-.389-2.319,2.373,2.373,0,0,1,1.723-1.533l3.988-.581,7.452-1.053q3.536-.508,6.732-.965a1.792,1.792,0,0,0,1.063-.834q.351-.7.691-1.37.683-1.363,1.322-2.643l4.39-8.729q.9-1.781,1.611-3.178a2.178,2.178,0,0,1,2.188-1.331,2.041,2.041,0,0,1,1.432.744,1.274,1.274,0,0,1,.271.482" transform="translate(16.899 122.994)" fill="#141944"/>
      </g>
    </g>
  </g>
</svg>
