<svg id="Group_1370" data-name="Group 1370" xmlns="http://www.w3.org/2000/svg" xmlns:xlink="http://www.w3.org/1999/xlink" width="777.739" height="560.004" viewBox="0 0 777.739 560.004">
  <defs>
    <clipPath id="clip-path">
      <rect id="Rectangle_661" data-name="Rectangle 661" width="777.739" height="560.004" fill="none"/>
    </clipPath>
    <clipPath id="clip-path-2">
      <rect id="Rectangle_632" data-name="Rectangle 632" width="777.739" height="560.005" fill="none"/>
    </clipPath>
    <clipPath id="clip-path-3">
      <path id="Path_2270" data-name="Path 2270" d="M793.024,357.126a56.526,56.526,0,1,1,46.719,0,56.688,56.688,0,0,1-46.719,0m-36.316-51.488a59.837,59.837,0,0,0,35.012,54.356,59.847,59.847,0,0,0,49.328,0,59.682,59.682,0,1,0-84.339-54.356" transform="translate(-756.708 -245.962)" fill="none"/>
    </clipPath>
    <linearGradient id="linear-gradient" x1="-2.216" y1="3.972" x2="-2.213" y2="3.972" gradientUnits="objectBoundingBox">
      <stop offset="0" stop-color="#7db3e0"/>
      <stop offset="1" stop-color="#fff"/>
    </linearGradient>
    <clipPath id="clip-path-5">
      <rect id="Rectangle_640" data-name="Rectangle 640" width="173.926" height="264.106" fill="none"/>
    </clipPath>
    <clipPath id="clip-path-6">
      <rect id="Rectangle_654" data-name="Rectangle 654" width="41.814" height="78.729" fill="none"/>
    </clipPath>
  </defs>
  <g id="Group_1369" data-name="Group 1369" clip-path="url(#clip-path)">
    <g id="Group_1358" data-name="Group 1358" transform="translate(0 0)">
      <g id="Group_1357" data-name="Group 1357" clip-path="url(#clip-path-2)">
        <path id="Path_2262" data-name="Path 2262" d="M1288.057,141.085a57.663,57.663,0,0,0,8.212,13.856l-4.884,10.241,9.86,7.4,9.859,7.4,8.465-7.555a57.673,57.673,0,0,0,15.6,4.006l3.785,10.686,12.2-1.742,12.2-1.742.644-11.318a57.691,57.691,0,0,0,13.856-8.212l10.24,4.884,7.4-9.86,7.4-9.86-7.554-8.465a57.693,57.693,0,0,0,4.006-15.6l10.686-3.785-1.742-12.2-1.742-12.2-11.318-.644a57.694,57.694,0,0,0-8.212-13.856l4.884-10.241-9.86-7.4-9.86-7.4-8.464,7.554a57.7,57.7,0,0,0-15.6-4.006l-3.785-10.686-12.2,1.742-12.2,1.742-.643,11.318a57.684,57.684,0,0,0-13.856,8.212l-10.24-4.884-7.4,9.86-7.4,9.86,7.554,8.465a57.673,57.673,0,0,0-4.006,15.6l-10.685,3.785,1.742,12.2,1.743,12.2Zm47.479-65.115a43.188,43.188,0,1,1-36.65,48.859,43.188,43.188,0,0,1,36.65-48.859" transform="translate(-828.152 -32.741)" fill="#ffc331"/>
        <path id="Path_2263" data-name="Path 2263" d="M1632.846,33.984a21.606,21.606,0,0,0,3.075,5.189l-1.829,3.835,3.693,2.77,3.692,2.77,3.17-2.829a21.591,21.591,0,0,0,5.842,1.5l1.418,4,4.569-.652,4.57-.652.241-4.239a21.618,21.618,0,0,0,5.19-3.076l3.835,1.829,2.77-3.693,2.77-3.692-2.829-3.171a21.608,21.608,0,0,0,1.5-5.842l4-1.418-.653-4.57-.652-4.569-4.239-.241a21.589,21.589,0,0,0-3.076-5.189l1.829-3.835-3.693-2.77-3.692-2.769-3.17,2.829a21.618,21.618,0,0,0-5.842-1.5l-1.418-4-4.57.652-4.57.653-.241,4.239a21.6,21.6,0,0,0-5.189,3.075l-3.835-1.829-2.77,3.692-2.77,3.693,2.829,3.17a21.607,21.607,0,0,0-1.5,5.843l-4,1.418.653,4.569.653,4.569ZM1650.627,9.6A16.174,16.174,0,1,1,1636.9,27.9a16.175,16.175,0,0,1,13.726-18.3" transform="translate(-1058.432 0.001)" fill="#ffc331"/>
        <rect id="Rectangle_606" data-name="Rectangle 606" width="2.333" height="244.759" transform="translate(365.834 214.511)" fill="#f3f3f3"/>
        <rect id="Rectangle_607" data-name="Rectangle 607" width="25.149" height="6.38" transform="translate(367 184.351)" fill="#fff"/>
        <rect id="Rectangle_608" data-name="Rectangle 608" width="20.123" height="6.38" transform="translate(367 196.144)" fill="#fff"/>
        <rect id="Rectangle_609" data-name="Rectangle 609" width="26.391" height="8.507" transform="translate(368.167 473.77)" fill="#fff"/>
        <path id="Path_2264" data-name="Path 2264" d="M1274.507,369.509s51.044,60.524,18.664,99.715-41.29.764-41.29.764-19.378,3.6,14.188-45.422c15.821-23.105,8.437-55.057,8.437-55.057" transform="translate(-810.631 -240.336)" fill="#141944"/>
        <path id="Path_2265" data-name="Path 2265" d="M1454.115,234.418s37.921,55.97-28.1,120.444S1364.9,457.789,1364.9,457.789s-67.5-132.137,89.215-223.371" transform="translate(-878.356 -152.47)" fill="#00b570"/>
        <path id="Path_2266" data-name="Path 2266" d="M1337.331,561.066c-27.7,2.5,4.439-72.4,47.713-91.948s79.885-17.893,105.188-38.524c0,0-16.5,118.162-152.9,130.471" transform="translate(-863.112 -280.068)" fill="#00b570"/>
        <rect id="Rectangle_610" data-name="Rectangle 610" width="2.333" height="244.759" transform="translate(134.026 214.511)" fill="#00b570"/>
        <rect id="Rectangle_611" data-name="Rectangle 611" width="2.333" height="244.759" transform="translate(299.902 214.511)" fill="#f3f3f3"/>
        <rect id="Rectangle_612" data-name="Rectangle 612" width="2.333" height="244.759" transform="translate(465.777 214.511)" fill="#f3f3f3"/>
        <rect id="Rectangle_613" data-name="Rectangle 613" width="39.73" height="6.38" transform="translate(135.192 184.351)" fill="#e0e0e0"/>
        <rect id="Rectangle_614" data-name="Rectangle 614" width="56.357" height="6.38" transform="translate(135.192 196.144)" fill="#e0e0e0"/>
        <rect id="Rectangle_615" data-name="Rectangle 615" width="46.646" height="6.38" transform="translate(299.28 184.351)" fill="#fff"/>
        <rect id="Rectangle_616" data-name="Rectangle 616" width="29.825" height="6.38" transform="translate(299.28 196.144)" fill="#fff"/>
        <rect id="Rectangle_617" data-name="Rectangle 617" width="28.905" height="6.38" transform="translate(468.11 184.351)" fill="#fff"/>
        <rect id="Rectangle_618" data-name="Rectangle 618" width="33.69" height="6.38" transform="translate(468.11 196.144)" fill="#fff"/>
        <rect id="Rectangle_619" data-name="Rectangle 619" width="26.391" height="8.507" transform="translate(301.068 473.77)" fill="#fff"/>
        <rect id="Rectangle_620" data-name="Rectangle 620" width="26.39" height="8.507" transform="translate(468.11 473.77)" fill="#fff"/>
        <path id="Path_2267" data-name="Path 2267" d="M1029.273,731.13v14.619a166.557,166.557,0,0,0-36.324-22.467C915.306,688.956,842.843,743.4,756.707,809.26a197.306,197.306,0,0,1-18.392,12.568c-20.679,12.41-39.177,17.472-56.122,17.472-16.236,0-31.039-4.641-44.974-11.911-18.852-9.833-36.114-24.466-53.165-38.913-22.48-19.062-45.8-38.559-72.726-48.169-82.179-29.343-124.221,24.229-124.6,24.7V748.72c.447-.565,7.94-10.294,29.645-19.6,19.746-8.466,52.888-15.211,98.6.684,28.962,10.07,53.02,30.473,76.276,50.193,25.124,21.3,48.406,41.03,75.369,46.7h.013a76.951,76.951,0,0,0,39.019-2.051c13.488-4.088,28.121-11.819,44.317-24.215,53.6-40.978,104.12-80.05,153.84-94.313,31.986-9.19,64.865-7.9,97.127,7.559a163.331,163.331,0,0,1,28.344,17.458" transform="translate(-251.534 -455.521)" fill="#ffc331"/>
        <rect id="Rectangle_621" data-name="Rectangle 621" width="7.971" height="34.418" transform="translate(39.111 305.563)" fill="#e0e0e0"/>
        <rect id="Rectangle_622" data-name="Rectangle 622" width="7.971" height="48.401" transform="translate(58.903 291.58)" fill="#e0e0e0"/>
        <rect id="Rectangle_623" data-name="Rectangle 623" width="7.971" height="55.696" transform="translate(78.695 284.285)" fill="#e0e0e0"/>
        <rect id="Rectangle_624" data-name="Rectangle 624" width="7.971" height="58.736" transform="translate(98.488 281.245)" fill="#e0e0e0"/>
        <rect id="Rectangle_625" data-name="Rectangle 625" width="7.971" height="21.593" transform="translate(39.111 318.388)" fill="#ffc331"/>
        <rect id="Rectangle_626" data-name="Rectangle 626" width="7.971" height="30.365" transform="translate(58.903 309.615)" fill="#ffc331"/>
        <rect id="Rectangle_627" data-name="Rectangle 627" width="7.971" height="34.942" transform="translate(78.695 305.038)" fill="#ffc331"/>
        <rect id="Rectangle_628" data-name="Rectangle 628" width="7.971" height="36.849" transform="translate(98.488 303.131)" fill="#ffc331"/>
        <path id="Path_2268" data-name="Path 2268" d="M681.769,698.045H931.293a20.955,20.955,0,0,0,20.955-20.956V333.418a20.956,20.956,0,0,0-20.955-20.956H681.769a20.956,20.956,0,0,0-20.956,20.956V677.09a20.956,20.956,0,0,0,20.956,20.956" transform="translate(-429.807 -203.232)" fill="#141944"/>
        <path id="Path_2269" data-name="Path 2269" d="M967.089,191.086H724.214a14.072,14.072,0,0,0-14.072,14.072V602.807H967.089Z" transform="translate(-461.891 -124.286)" fill="#f5f5f5"/>
        <rect id="Rectangle_629" data-name="Rectangle 629" width="75.762" height="9.582" transform="translate(405.492 143.883)" fill="#141944"/>
        <rect id="Rectangle_630" data-name="Rectangle 630" width="69.546" height="9.582" transform="translate(405.492 184.051)" fill="#141944"/>
        <rect id="Rectangle_631" data-name="Rectangle 631" width="60.173" height="9.583" transform="translate(405.492 163.967)" fill="#141944"/>
      </g>
    </g>
    <g id="Group_1360" data-name="Group 1360" transform="translate(264.529 85.983)">
      <g id="Group_1359" data-name="Group 1359" clip-path="url(#clip-path-3)">
        <rect id="Rectangle_633" data-name="Rectangle 633" width="119.351" height="119.351" transform="translate(0 0)" fill="url(#linear-gradient)"/>
      </g>
    </g>
    <g id="Group_1368" data-name="Group 1368" transform="translate(0 0)">
      <g id="Group_1367" data-name="Group 1367" clip-path="url(#clip-path-2)">
        <rect id="Rectangle_634" data-name="Rectangle 634" width="87.052" height="8.544" transform="translate(264.529 229.357)" fill="#e0e0e0"/>
        <rect id="Rectangle_635" data-name="Rectangle 635" width="87.052" height="8.544" transform="translate(264.529 252.344)" fill="#e0e0e0"/>
        <rect id="Rectangle_636" data-name="Rectangle 636" width="87.052" height="8.544" transform="translate(264.529 275.331)" fill="#e0e0e0"/>
        <rect id="Rectangle_637" data-name="Rectangle 637" width="14.531" height="8.544" transform="translate(369.35 229.357)" fill="#4e7ed6"/>
        <rect id="Rectangle_638" data-name="Rectangle 638" width="14.531" height="8.544" transform="translate(369.35 252.344)" fill="#4e7ed6"/>
        <rect id="Rectangle_639" data-name="Rectangle 639" width="14.531" height="8.544" transform="translate(369.35 275.331)" fill="#4e7ed6"/>
        <path id="Path_2271" data-name="Path 2271" d="M1029.273,888.512v11.845a176.363,176.363,0,0,1-36.522,3.379c-49.1,0-92.1-20.154-136.434-42.122q-3.569-1.775-7.165-3.563c-57.884-28.791-117.74-58.555-197.487-50.4-50.929,5.206-82.889,25.952-111.088,44.238-25.544,16.578-49.681,31.144-82.376,32.38-52.836,2.012-71.175-20.522-71.477-21.9V847.9c.065.25,11.477,25.254,70.412,25.254h1.013c29.461-.157,51.192-14.264,76.368-30.592,29.264-18.983,62.42-40.491,116.018-45.973C733.477,788.112,794.792,818.6,854.1,848.1c5.929,2.945,11.831,5.877,17.734,8.743,49.917,24.295,99.125,44.067,157.443,31.67" transform="translate(-251.534 -517.183)" fill="#f7536e"/>
        <g id="Group_1363" data-name="Group 1363" transform="translate(404.616 220.75)" style="mix-blend-mode: hard-light;isolation: isolate">
          <g id="Group_1362" data-name="Group 1362">
            <g id="Group_1361" data-name="Group 1361" clip-path="url(#clip-path-5)">
              <path id="Path_2272" data-name="Path 2272" d="M1305.246,895.579H1183.569a26.123,26.123,0,0,1-26.124-26.124V657.6a26.123,26.123,0,0,1,26.124-26.124h121.677a26.123,26.123,0,0,1,26.123,26.124V869.455a26.123,26.123,0,0,1-26.123,26.124" transform="translate(-1157.443 -631.473)" fill="#f5f5f5"/>
            </g>
          </g>
        </g>
        <path id="Path_2273" data-name="Path 2273" d="M1493.945,708.694a28.47,28.47,0,1,0-53.614,19.175c.215.6.45,1.2.7,1.775a28.47,28.47,0,0,0,52.913-20.95m-19.619,29.686a21.322,21.322,0,0,1-26.76-11.581c-.188-.434-.365-.879-.526-1.331a21.345,21.345,0,1,1,27.286,12.911" transform="translate(-935.735 -448.663)" fill="#e0e0e0"/>
        <path id="Path_2274" data-name="Path 2274" d="M1449.18,711.943l-6.8-2.124a28.511,28.511,0,0,1,26.327-19.979l.213,7.123a21.378,21.378,0,0,0-19.737,14.98" transform="translate(-938.154 -448.686)" fill="#537ffd"/>
        <path id="Path_2275" data-name="Path 2275" d="M1447.566,764l-6.534,2.844c-.251-.579-.486-1.172-.7-1.775a28.347,28.347,0,0,1-.371-18.074l6.8,2.124a21.248,21.248,0,0,0,.278,13.549q.242.678.526,1.331" transform="translate(-935.735 -485.859)" fill="#4ba6f3"/>
        <path id="Path_2276" data-name="Path 2276" d="M1449.858,805.564a28.332,28.332,0,0,1-4.414-7.087l6.534-2.844a21.22,21.22,0,0,0,3.308,5.314Z" transform="translate(-940.148 -517.496)" fill="#46bbed"/>
        <rect id="Rectangle_641" data-name="Rectangle 641" width="15.347" height="50.319" transform="translate(515.805 425.233)" fill="#46bbed"/>
        <rect id="Rectangle_642" data-name="Rectangle 642" width="15.347" height="36.206" transform="translate(492.99 439.346)" fill="#46bbed"/>
        <rect id="Rectangle_643" data-name="Rectangle 643" width="15.347" height="73.64" transform="translate(537.937 401.912)" fill="#46bbed"/>
        <path id="Path_2277" data-name="Path 2277" d="M1221.431,1013.031l-1.334-1.025,25.007-32.538,30.865,1.675,23.274-37.063,25.073-2.587,15.067-29.8,1.5.759L1325.4,943.07l-25.171,2.6-23.365,37.207-30.969-1.68Z" transform="translate(-793.577 -592.983)" fill="#46bbed"/>
        <path id="Path_2278" data-name="Path 2278" d="M1268.727,720.167h-43.641a4.989,4.989,0,1,1,0-9.978h43.641a4.989,4.989,0,1,1,0,9.978" transform="translate(-793.577 -461.922)" fill="#4e7ed6"/>
        <path id="Path_2279" data-name="Path 2279" d="M1268.727,769.958h-43.641a4.989,4.989,0,1,1,0-9.978h43.641a4.989,4.989,0,1,1,0,9.978" transform="translate(-793.577 -494.307)" fill="#e0e0e0"/>
        <path id="Path_2280" data-name="Path 2280" d="M1268.727,819.748h-43.641a4.989,4.989,0,1,1,0-9.978h43.641a4.989,4.989,0,1,1,0,9.978" transform="translate(-793.577 -526.691)" fill="#e0e0e0"/>
        <path id="Path_2281" data-name="Path 2281" d="M204.92,1116.905h17.569l-5.378-11.153H199.542Z" transform="translate(-129.787 -719.204)" fill="#ffc331"/>
        <path id="Path_2282" data-name="Path 2282" d="M181.4,1116.905h4.187l-5.378-11.153h-4.187Z" transform="translate(-114.49 -719.204)" fill="#ffc331"/>
        <rect id="Rectangle_644" data-name="Rectangle 644" width="34.783" height="6.301" transform="translate(373.353 32.743)" fill="#ffc331"/>
        <rect id="Rectangle_645" data-name="Rectangle 645" width="34.783" height="1.186" transform="translate(373.353 29.802)" fill="#ffc331"/>
        <rect id="Rectangle_646" data-name="Rectangle 646" width="15.551" height="65.396" transform="translate(316.429 112.961)" fill="#141944"/>
        <rect id="Rectangle_647" data-name="Rectangle 647" width="65.396" height="15.551" transform="translate(291.506 137.883)" fill="#141944"/>
        <path id="Path_2283" data-name="Path 2283" d="M177.635,494.068A37.106,37.106,0,1,0,145.9,561.15c.754.357,1.516.688,2.281.99a37.107,37.107,0,0,0,29.458-68.072m9.278,45.44a27.788,27.788,0,0,1-35.335,13.99q-.862-.34-1.712-.742a27.82,27.82,0,1,1,37.047-13.248" transform="translate(-81.075 -319.027)" fill="#e0e0e0"/>
        <path id="Path_2284" data-name="Path 2284" d="M137.123,562.229,128.9,566.54a37.159,37.159,0,0,1,5.85-42.676l6.76,6.369a27.864,27.864,0,0,0-4.384,32" transform="translate(-81.075 -340.732)" fill="#2d5bad"/>
        <path id="Path_2285" data-name="Path 2285" d="M159.479,646.583l-3.4,8.643c-.765-.3-1.528-.633-2.281-.99a36.944,36.944,0,0,1-17-16.315l8.226-4.311a27.7,27.7,0,0,0,12.743,12.231q.849.4,1.712.741" transform="translate(-88.976 -412.113)" fill="#5d96ff"/>
        <path id="Path_2286" data-name="Path 2286" d="M202.55,681.827a36.892,36.892,0,0,1-10.6-2.464l3.4-8.643a27.68,27.68,0,0,0,7.947,1.849Z" transform="translate(-124.849 -436.25)" fill="#5d96ff"/>
        <path id="Path_2287" data-name="Path 2287" d="M69.29,715.276H0V713.9H67.913V684.545H69.29Z" transform="translate(0 -445.242)" fill="#5d96ff"/>
        <rect id="Rectangle_648" data-name="Rectangle 648" width="36.473" height="8.263" transform="translate(0 254.323)" fill="#e0e0e0"/>
        <rect id="Rectangle_649" data-name="Rectangle 649" width="56.634" height="3.362" transform="translate(203.31 389.882)" fill="#e2d2ca"/>
        <rect id="Rectangle_650" data-name="Rectangle 650" width="4.962" height="152.891" transform="translate(210.9 401.993)" fill="#141944"/>
        <rect id="Rectangle_651" data-name="Rectangle 651" width="39.366" height="4.801" transform="translate(251.08 388.929)" fill="#ccbdb7"/>
        <rect id="Rectangle_652" data-name="Rectangle 652" width="14.907" height="45.278" transform="translate(263.31 347.965)" fill="#998e89"/>
        <rect id="Rectangle_653" data-name="Rectangle 653" width="218.113" height="8.693" transform="translate(182.994 393.3)" fill="#b59074"/>
        <g id="Group_1366" data-name="Group 1366" transform="translate(123.418 326.08)" style="mix-blend-mode: hard-light;isolation: isolate">
          <g id="Group_1365" data-name="Group 1365">
            <g id="Group_1364" data-name="Group 1364" clip-path="url(#clip-path-6)">
              <path id="Path_2288" data-name="Path 2288" d="M370.763,947.383s-2.386,33.454,4.151,37.457c4.095,2.508,20.421,10.968,19.937,12.554s-9.218,14.115-9.218,14.115-31.361-20.652-32.371-27.16c-.988-6.358,1.544-48.983,5.853-50.946,3.229-1.471,4.933-.255,9,2.766,5.71,4.239,2.647,11.212,2.647,11.212" transform="translate(-353.048 -932.78)" fill="#f5f5f5"/>
            </g>
          </g>
        </g>
        <path id="Path_2289" data-name="Path 2289" d="M490.256,1525.953s-.975,6.769-1.1,7.785-10.848-.6-10.848-.6l-.868-8.058s11.473-.084,12.814.871" transform="translate(-310.538 -991.944)" fill="#141944"/>
        <path id="Path_2290" data-name="Path 2290" d="M486.154,1546.534s3.4,4.079,6.685,5.857,8.453,2.482,10.4,4.322c1.4,1.329,5.11,7.048-8.541,6.932s-20.234.808-21.7-1.385,2.117-16.184,2.117-16.184,3.233,1.164,11.04.459" transform="translate(-307.419 -1005.6)" fill="#141944"/>
        <path id="Path_2291" data-name="Path 2291" d="M686.845,1526.136s-.975,6.769-1.1,7.785-10.848-.6-10.848-.6l-.868-8.058s11.473-.083,12.814.872" transform="translate(-438.404 -992.063)" fill="#141944"/>
        <path id="Path_2292" data-name="Path 2292" d="M682.743,1546.718s3.4,4.079,6.686,5.856,15.383,3.238,17.327,5.078c1.4,1.328,3.737,6.676-15.472,6.176-13.647-.355-20.234.808-21.7-1.385s2.117-16.184,2.117-16.184,3.046,1.242,11.04.458" transform="translate(-435.285 -1005.72)" fill="#141944"/>
        <path id="Path_2293" data-name="Path 2293" d="M397.035,1193.1s39,6.6,47.805,7.982,56.566,13.267,62.539,16.889c4.754,2.882-2.494,72.11-4.187,98.522H484.381l-1.364-79.229c-22.573.564-38.681-5.281-55.119-2.784s-30.142,6.045-40.587-7.966c0,0-.387-30.354,9.723-33.415" transform="translate(-251.914 -776.018)" fill="#141944"/>
        <path id="Path_2294" data-name="Path 2294" d="M421.2,1332.249l-18.332-1.133-1.787-78.159c-9.718.243-13.049-.374-20.913-1.327l-14.8-34.4c12.971,2.593,54.531,13.075,60.073,16.436,4.754,2.884-2.548,72.174-4.241,98.587" transform="translate(-237.646 -791.709)" fill="#141944"/>
        <path id="Path_2295" data-name="Path 2295" d="M448.212,773.678s14.3-3.951,19.75,7.146,2.981,32.136-4.224,34.116-17.566-.3-20.557-7.207-5.376-16.722-4.661-23.078,5.9-9.459,9.691-10.978" transform="translate(-285.14 -502.772)" fill="#eea886"/>
        <path id="Path_2296" data-name="Path 2296" d="M464.612,868.552s-.158,8.44.773,10.239-19.906,1.348-19.906,1.348S448.763,870,446.9,861.37c-1.843-8.546,17.712,7.183,17.712,7.183" transform="translate(-289.749 -558.598)" fill="#eea886"/>
        <path id="Path_2297" data-name="Path 2297" d="M439.627,799.717s1.113,2.265,6.507,1.9,12.507-6.872,14.8-7.454,2.426-1.884,2.426-1.884l1.212,2.154,2.346.357s-1.594-6.521,1.879-8.817-1.564-20.79-19.151-16.33c0,0-13.422,2.458-13.6,9.952s.981,16.152,3.586,20.123" transform="translate(-283.598 -500.141)" fill="#141944"/>
        <path id="Path_2298" data-name="Path 2298" d="M466.988,904.995s-.058-3.438-1.616-3.767-16.38-2.368-18.292-1.616l-.821,4.539s3.685,2.268,20.729.844" transform="translate(-290.256 -585.018)" fill="#e2d2ca"/>
        <path id="Path_2299" data-name="Path 2299" d="M506.661,824.183c-.4-2.818-3.6-6.054-5.438-1.665s1.239,10.78,3.3,10.437,2.684-4.949,2.141-8.772" transform="translate(-325.641 -533.584)" fill="#eea886"/>
        <path id="Path_2300" data-name="Path 2300" d="M683.086,1031.5a.037.037,0,0,0-.026,0c.107.047.122.051.026,0" transform="translate(-444.277 -670.91)" fill="#141944"/>
        <path id="Path_2301" data-name="Path 2301" d="M438.3,780.7s-17.43-.82-3.042,26.39Z" transform="translate(-279.402 -507.783)" fill="#141944"/>
        <path id="Path_2302" data-name="Path 2302" d="M343.459,1534.241l1.3,3.647,54.786-16.976-2.626-7.386Z" transform="translate(-223.393 -984.43)" fill="#918783"/>
        <rect id="Rectangle_655" data-name="Rectangle 655" width="6.227" height="59.564" transform="translate(171.801 474.321)" fill="#918783"/>
        <rect id="Rectangle_656" data-name="Rectangle 656" width="36.728" height="3.51" transform="translate(156.55 471.156)" fill="#141944"/>
        <path id="Path_2303" data-name="Path 2303" d="M554.287,1533.378l-1.3,3.648L498.2,1520.05l2.408-7.849Z" transform="translate(-324.043 -983.567)" fill="#918783"/>
        <path id="Path_2304" data-name="Path 2304" d="M515.687,1536.635v4.243L498.2,1520.05l2.408-7.85Z" transform="translate(-324.043 -983.567)" fill="#918783"/>
        <path id="Path_2305" data-name="Path 2305" d="M654.228,1577.767a5.12,5.12,0,1,1-5.12-5.12,5.12,5.12,0,0,1,5.12,5.12" transform="translate(-418.863 -1022.883)" fill="#bfb2ac"/>
        <path id="Path_2306" data-name="Path 2306" d="M530.405,1577.767a5.12,5.12,0,1,1-5.12-5.12,5.12,5.12,0,0,1,5.12,5.12" transform="translate(-338.326 -1022.883)" fill="#bfb2ac"/>
        <path id="Path_2307" data-name="Path 2307" d="M339.053,1577.767a5.12,5.12,0,1,1-5.12-5.12,5.12,5.12,0,0,1,5.12,5.12" transform="translate(-213.867 -1022.883)" fill="#bfb2ac"/>
        <path id="Path_2308" data-name="Path 2308" d="M457.617,1323.045H382.587a5.99,5.99,0,0,1-5.99-5.99v-1.314a5.99,5.99,0,0,1,5.99-5.99h75.029a5.99,5.99,0,0,1,5.99,5.99v1.314a5.99,5.99,0,0,1-5.99,5.99" transform="translate(-244.947 -851.889)" fill="#e2d2ca"/>
        <rect id="Rectangle_657" data-name="Rectangle 657" width="4.962" height="152.891" transform="translate(368.238 401.993)" fill="#141944"/>
        <path id="Path_2309" data-name="Path 2309" d="M713.178,888.822H596.407a5.975,5.975,0,0,1-5.976-5.976V803.991a5.976,5.976,0,0,1,5.976-5.976H713.178a5.976,5.976,0,0,1,5.976,5.976v78.856a5.976,5.976,0,0,1-5.976,5.976" transform="translate(-384.029 -519.046)" fill="#b8aba5"/>
        <rect id="Rectangle_658" data-name="Rectangle 658" width="118.64" height="71.669" transform="translate(211.443 283.878)" fill="#f5f7ff"/>
        <path id="Path_2310" data-name="Path 2310" d="M911.358,1029.545c0,2.037-2.141,3.689-4.782,3.689s-4.782-1.652-4.782-3.689,2.141-3.69,4.782-3.69,4.782,1.652,4.782,3.69" transform="translate(-586.546 -667.238)" fill="#918681"/>
        <path id="Path_2311" data-name="Path 2311" d="M787.352,1103.691v-1.616s-2.272-10.051-18.341-10.051-15.744,11.667-15.744,11.667Z" transform="translate(-489.94 -710.275)" fill="#998e89"/>
        <path id="Path_2312" data-name="Path 2312" d="M746.1,1084.712s3.49-.271,4.769-1.043,8.931-5.918,10.728-5.094,13.759,4.488,13.344,6.237-1.522,1.581-2.366,1.271-9.529-2.133-10.3-1.826c0,0,8.531,3.112,8.566,5.384s-1.785,2.824-2.595,3.683-1.78,2.991-3.979,3.155-12.926-3.569-15.135-3.739-6.3.136-6.573-.223,3.537-7.8,3.537-7.8" transform="translate(-482.972 -701.47)" fill="#eea886"/>
        <path id="Path_2313" data-name="Path 2313" d="M435.538,918.511c-11.131-1.956-22.846-4.765-22.846-4.765l-20.729-.845s-19.025,4.188-26.518,7.572c-.711.321-.714,16.972-2.664,21.339l6.212,13.105s3.588,25.96,4.333,37.506c.343,5.3-.967,51.223-.967,51.223s1.863.919,16.01,2.478,49.5-.564,49.719-2.234-6.845-62.221-7.159-65.357c-.48-4.812,1.39-27.05,1.39-27.05,2.665,3.58,9.461,19.75,16.544,27.444,4.167,4.526,24.8,7.3,28.687,7.43,8.465.282,23.908,1.967,24.359,1.144.361-.495,1.346-13.707.377-14.03-.847-.283-29.523-1.933-36.869-5.831C462.73,966.215,454.7,948.7,454.7,948.7s-13.017-27.424-19.157-30.184" transform="translate(-235.96 -593.771)" fill="#dbdff0"/>
        <path id="Path_2314" data-name="Path 2314" d="M366.955,1128.491h-37a11.5,11.5,0,0,1-11.5-11.5v-60.1a11.5,11.5,0,0,1,11.5-11.5h37a11.5,11.5,0,0,1,11.5,11.5v60.1a11.5,11.5,0,0,1-11.5,11.5" transform="translate(-207.129 -679.941)" fill="#e2d2ca"/>
        <path id="Path_2315" data-name="Path 2315" d="M401.483,1246.5c-8.845,0-16.02-2.971-21.328-8.831-11.994-13.243-9.839-36.522-9.742-37.507a3.338,3.338,0,0,1,6.644.657c-.026.266-1.937,21.367,8.059,32.382,4.043,4.456,9.4,6.622,16.366,6.622a3.339,3.339,0,0,1,0,6.677" transform="translate(-240.788 -778.653)" fill="#e2d2ca"/>
        <path id="Path_2316" data-name="Path 2316" d="M662.809,832.171H629.769a.856.856,0,0,1-.856-.857v-2.073a.856.856,0,0,1,.856-.856h33.039a.857.857,0,0,1,.857.856v2.073a.857.857,0,0,1-.857.857" transform="translate(-409.058 -538.799)" fill="#dfe1e8"/>
        <path id="Path_2317" data-name="Path 2317" d="M662.809,855.4H629.769a.856.856,0,0,1-.856-.856v-2.073a.857.857,0,0,1,.856-.856h33.039a.857.857,0,0,1,.857.856v2.073a.857.857,0,0,1-.857.856" transform="translate(-409.058 -553.91)" fill="#dfe1e8"/>
        <path id="Path_2318" data-name="Path 2318" d="M660.785,921.078H631.793a2.88,2.88,0,0,1-2.88-2.88V881.143a2.881,2.881,0,0,1,2.88-2.881h28.992a2.881,2.881,0,0,1,2.881,2.881V918.2a2.88,2.88,0,0,1-2.881,2.88" transform="translate(-409.058 -571.24)" fill="#dfe1e8"/>
        <path id="Path_2319" data-name="Path 2319" d="M805.725,888.637H752.957a4.56,4.56,0,0,1-4.56-4.56V832.946a4.56,4.56,0,0,1,4.56-4.56h52.768a4.56,4.56,0,0,1,4.56,4.56v51.132a4.56,4.56,0,0,1-4.56,4.56" transform="translate(-486.773 -538.799)" fill="#dfe1e8"/>
        <path id="Path_2320" data-name="Path 2320" d="M1360.319,912.5s2.309-4.992,2.685-5.743,2.582-1.945,5.2-2.605c2.546-.641,6.01-1.927,6.406-1.68a2.242,2.242,0,0,1,1.329,1.381,4.539,4.539,0,0,1,.265,2.288,2.764,2.764,0,0,1,.854,2.528,2.407,2.407,0,0,1,.416,2.645,2.016,2.016,0,0,1,.452,2.176,18.242,18.242,0,0,0-2.677,1.808c-.632.648-5.05,2.77-9.6,4.153,0,0-4.741-.148-5.332-6.952" transform="translate(-884.78 -586.965)" fill="#8e4f3a"/>
        <path id="Path_2321" data-name="Path 2321" d="M1360.066,934.12s-5.644.985-7.558-.117.314-6.851.314-6.851l3.574-2.16Z" transform="translate(-879.195 -601.634)" fill="#8e4f3a"/>
        <path id="Path_2322" data-name="Path 2322" d="M1380.589,924.3a13.508,13.508,0,0,1-.5,3.524c-.416.763,5.206,1.952,5.206,1.952s-1.35-5.281-4.7-5.476" transform="translate(-897.623 -601.182)" fill="#141944"/>
        <path id="Path_2323" data-name="Path 2323" d="M1386.758,902.711s-6.164,2.994-5.8,4.047a1.743,1.743,0,0,0,1.13,1.221l-1.979,2.384s-.418,2.318,2.228,2.1c0,0-.616,2.124,1.914,1.606,0,0,.219,1.583,1.434,1.549s5.1-2.124,5.1-2.124.7-.847-.371-2.213a2.354,2.354,0,0,0-.4-2.652,3.845,3.845,0,0,0-.91-3.162,3.3,3.3,0,0,0-1.691-3.023s-.4.142-.657.27" transform="translate(-897.634 -586.966)" fill="#7a4432"/>
        <path id="Path_2324" data-name="Path 2324" d="M1367.529,914.458s4.7.1,7.246,1.283c.575.268,1.084.632,1.052,1.266s-.991,1.4-3.03,1.456a17.2,17.2,0,0,0-4.647,1.072s-2.114-.552-.621-5.077" transform="translate(-889.123 -594.783)" fill="#8e4f3a"/>
        <path id="Path_2325" data-name="Path 2325" d="M1389.941,905.452s-7.039,2.408-7.517,2.99-1.383-1.987-.939-2.455a53.112,53.112,0,0,1,6.525-3.552c.6-.161,2.672,1.251,1.931,3.017" transform="translate(-898.469 -586.955)" fill="#8e4f3a"/>
        <path id="Path_2326" data-name="Path 2326" d="M1391.218,900.817s10.959-2.245,11.182-.91-.837,1.56-9.818,4.18c-8.731,2.548-1.363-3.27-1.363-3.27" transform="translate(-902.988 -585.043)" fill="#8e4f3a"/>
        <path id="Path_2327" data-name="Path 2327" d="M1158.866,1544.48s3.493,5.225,8.392,6.354,9.724,2.924,9.761,6.016-14.164,4.935-19.77,1.819c-8.367-4.652-9.218-3.249-10.145-5.574s1.114-8.542,1.054-9.282c-.074-.914,10.709.668,10.709.668" transform="translate(-745.943 -1003.943)" fill="#141944"/>
        <path id="Path_2328" data-name="Path 2328" d="M1160.72,1536.054a22.348,22.348,0,0,1,.543,2.578c-.095.053-11.04,1.357-10.709-.668.268-1.643.652-3.428.652-3.428Z" transform="translate(-748.34 -998.094)" fill="#141944"/>
        <path id="Path_2329" data-name="Path 2329" d="M1053.571,1542.85s2.491,5,6.748,6.7c4.549,1.82,8.2,3.911,8.116,6.924s-11.123,6.064-19.153.284c-5.074-3.653-6.683-3.67-7.5-5.97s1.413-8.277,1.383-9c-.037-.893,10.4,1.063,10.4,1.063" transform="translate(-677.482 -1002.659)" fill="#141944"/>
        <path id="Path_2330" data-name="Path 2330" d="M1056.593,1534.221a24.532,24.532,0,0,1-.124,2.6c-.094.048-10.672.92-10.4-1.062a16.312,16.312,0,0,1,1.026-3.476Z" transform="translate(-680.379 -996.626)" fill="#141944"/>
        <path id="Path_2331" data-name="Path 2331" d="M1087.749,1079.461s9.828,43.349,12.073,56.553c1.911,11.239,3.433,22.941,2.518,31.054-1.133,10.045-15.352,62.1-14.758,65.047s-16.952,1.154-16.952,1.154,12.887-58.751,10.727-69.558c-1.6-8-15.618-61.178-17.766-58.451s-4.812,50.183-6.4,58.061-6.475,70.122-6.475,70.122-10.921,1.612-13.838-.857c0,0-1.328-53.15-.314-67.919.387-5.629-6.595-67.487,2.357-92.39,4.731-13.161,48.833,7.183,48.833,7.183" transform="translate(-672.75 -694.55)" fill="#141944"/>
        <path id="Path_2332" data-name="Path 2332" d="M1237.546,868.939s-34.046,7.548-40.821,5.882c-3.131-.77-7.256-5.093-11.176-10.176-1.292-1.674-2.56-3.431-3.766-5.169a.012.012,0,0,1,0-.007c-4.81-6.944-8.578-13.6-8.578-13.6s-14.215-16.659-2.808-24.085c0,0,4.14-1.551,7.941,2.523s8.268,12.6,9.266,14.773,14.96,22.31,15.683,22.764,6.825-1.152,11.717-1.559c7.977-.666,19.93-3.772,19.93-3.772Z" transform="translate(-758.366 -534.317)" fill="#dbdff0"/>
        <path id="Path_2333" data-name="Path 2333" d="M1069.941,811.693s14.634,3.026,16.37,4.564c1.885,1.637,5.21,17.665,5.408,22.129s-1.764,23.115-3.65,30.06-1.539,41.151-.348,50.775c0,0-29.465,8.369-58.435,4.6,0,0,4.857-35.988,3.7-45.5-1.486-12.192-5.06-40.281-5.06-40.281s2.565-19.566,5.144-21.749,20.354-4.592,20.354-4.592Z" transform="translate(-668.584 -527.942)" fill="#bcc0cf"/>
        <path id="Path_2334" data-name="Path 2334" d="M1103.811,680.7s17.6-6.514,16.5,16.879-5.225,25.77-16.8,22.5-12.55-18.031-14.058-25.133,8.6-13.228,14.36-14.249" transform="translate(-708.503 -442.201)" fill="#8e4f3a"/>
        <path id="Path_2335" data-name="Path 2335" d="M1117.674,775.988s-3.623,2.4-17.358-3.655a62.189,62.189,0,0,0-2.306-18.213c-2.695-8.8,18.433,11.727,18.433,11.727-.222.157-.264,1.036-.138,2.262a24.875,24.875,0,0,0,.678,3.635c.771,2.94.692,1.677.692,4.244" transform="translate(-714.014 -489.07)" fill="#8e4f3a"/>
        <path id="Path_2336" data-name="Path 2336" d="M1086.344,698.88s-.05-6.249,2.548-6.824a3.571,3.571,0,0,0,2.942-2.653l1.491.346s-.273-1.1,2.2-2.552,17.3-.177,19.158-2.308-.837-14.795-4.881-16.037-13.436-1.129-22.018,1.282a9.987,9.987,0,0,0-7.008,9.312c-.319,4.964,3.449,16.047,5.564,19.435" transform="translate(-702.95 -434.527)" fill="#141944"/>
        <path id="Path_2337" data-name="Path 2337" d="M1123.487,789.683c-13.644-2.294-15.683-10.053-15.714-10.174,5.3,6.84,15.036,6.54,15.036,6.54a24.92,24.92,0,0,0,.678,3.635" transform="translate(-720.519 -507.009)" fill="#6d3829"/>
        <path id="Path_2338" data-name="Path 2338" d="M1146.056,829.541s2.485,3.665,3.984,13.074,1.246,25.618,1.246,25.618l-3.455.42s-5.229-33.057-4.329-38.816Z" transform="translate(-743.69 -539.551)" fill="#141944"/>
        <path id="Path_2339" data-name="Path 2339" d="M1103.6,726.64c-.777-2.061-5.168-1.8-4.719,1.466s4.078,8.3,5.535,7.357.255-5.981-.817-8.823" transform="translate(-714.713 -471.764)" fill="#8e4f3a"/>
        <path id="Path_2340" data-name="Path 2340" d="M1171.861,817.808s8.315,11,5.234,39.783c-5.566,52.01,9.011,135.5,9.011,135.5l-15.038,4.706s-14.371-106.731-10.711-145.466c1.667-17.652,6.617-23.525-1.191-38.231,0,0,7.6.385,12.7,3.706" transform="translate(-753.946 -529.509)" fill="#dbdff0"/>
        <path id="Path_2341" data-name="Path 2341" d="M1040.737,813.411s23.8,24.043,25.666,42.27,4.9,141.668,4.9,141.668l-56.667-3.3s5.208-65.162,6.479-73.313,3.9-54.955-1.835-76.673c-3.081-11.668.585-26.47,7.624-28.085s13.831-2.567,13.831-2.567" transform="translate(-659.942 -529.059)" fill="#dbdff0"/>
        <path id="Path_2342" data-name="Path 2342" d="M1026.26,821.3s9.167,2.525,4.123,19.35c-3.95,13.178-4.483,16.008-4.483,16.008l-21.153-5.284s6.2-28.947,16.323-30.5c0,0,3.223-.459,5.19.429" transform="translate(-653.509 -533.835)" fill="#dbdff0"/>
        <path id="Path_2343" data-name="Path 2343" d="M1136.271,1025.609l-41.462,42.907-27.539-26.612,40.386-43.947Z" transform="translate(-694.174 -649.092)" fill="#141944"/>
        <path id="Path_2344" data-name="Path 2344" d="M1139.42,1033.806l-36.823,38.108-24.459-23.635,35.868-39.031Z" transform="translate(-701.244 -656.436)" fill="#e0cec7"/>
        <path id="Path_2345" data-name="Path 2345" d="M1210.052,1038.529l2.585-2.675-9.889-9.555-2.971,2.3Z" transform="translate(-780.361 -667.526)" fill="#141944"/>
        <path id="Path_2346" data-name="Path 2346" d="M1102.331,802.849s7.18,4.331,14.285,5.307l-3.78,6.029-11.973-8.245Z" transform="translate(-716.025 -522.19)" fill="#a7aab8"/>
        <path id="Path_2347" data-name="Path 2347" d="M1148.3,808.613s-.757,2.482-2.376,3.292l3.549,4.949-.13-6.564Z" transform="translate(-745.335 -525.939)" fill="#a7aab8"/>
        <path id="Path_2348" data-name="Path 2348" d="M1140.719,818.03l2.81,3.919s-1.778,2.25-5.609.545Z" transform="translate(-740.127 -532.064)" fill="#141944"/>
        <path id="Path_2349" data-name="Path 2349" d="M1214.98,904.923v0c-1.293-1.674-2.56-3.431-3.765-5.169a.011.011,0,0,1,0-.007s.453-12.682.057-16.325c0,0,4.143,13.661,3.711,21.5" transform="translate(-787.798 -574.599)" fill="#a7aab8"/>
        <path id="Path_2350" data-name="Path 2350" d="M1041.151,920.878s-2.764,17.985-2.57,19.138-12.511-3.612,2.57-19.138" transform="translate(-672.38 -598.958)" fill="#a7aab8"/>
        <rect id="Rectangle_659" data-name="Rectangle 659" width="6.68" height="10.199" transform="translate(412.01 315.483)" fill="#c6cad9"/>
        <path id="Path_2351" data-name="Path 2351" d="M1100.714,1042.131a3.763,3.763,0,0,0,1.628,1.618c1.755.7,4.561-.413,5.647,2.1s-5.914,8.409-7.669,8.715-4.24-2.565-5.86-8.1,6.255-4.328,6.255-4.328" transform="translate(-711.717 -677.751)" fill="#8e4f3a"/>
        <path id="Path_2352" data-name="Path 2352" d="M1112.294,1050.713a76.768,76.768,0,0,1,5.993,6.119c2.613,3.005,5.129,7.042,4.679,7.8-1,1.693-3.431-2.088-6.225-4.885a26.315,26.315,0,0,0-2.147-2.124s0-.274,2.242,3.1c2.415,3.629,4.519,7.61,3.948,8.494-.278.431-1.4,1.483-1.941-.252.482.811.568.612.245.859-1.67,1.273-6.059-3.474-7.8-5.36,1.329,1.457,2.146,2.676.64,2.8-1.723.141-7.62-6.865-9.977-9.162-2.571-2.5,10.346-7.393,10.346-7.393" transform="translate(-716.51 -683.406)" fill="#8e4f3a"/>
        <path id="Path_2353" data-name="Path 2353" d="M1017.316,824.182c1.919.743,2.645,4.149,1.857,14.021a33.263,33.263,0,0,1-5.56,16.7c-1.3,2.284-8.427,16.359-7.146,18.211s13.388,13.8,14.088,14.768,14.216,13.207,14.216,13.207l-6.881,9.616s-29.186-22.8-31.463-25.073-9.083-7.058-6.566-15.009c2.559-8.081,7.157-27,7.974-28.479s6.793-22.869,19.481-17.957" transform="translate(-643.469 -535.59)" fill="#dbdff0"/>
        <path id="Path_2354" data-name="Path 2354" d="M1753.956,1487.488a25.2,25.2,0,0,1-2.941,4.917c-1.41,1.84-5.795,9.395-7.726,9.921s-7.9,1.581-8.428,4.917-.79,5.707,5.093,5.97,9.745.615,12.554-3.512a30.59,30.59,0,0,1,7.287-7.112v10.767h2.283s1.054-11.206,1.668-12,2.195-9.394-3.249-13.872-6.541,0-6.541,0" transform="translate(-1128.225 -966.199)" fill="#141944"/>
        <path id="Path_2355" data-name="Path 2355" d="M1759.444,1503.827s5.267,1.317,7.287,0,8.884-12.92,11.158-13.615c0,0-2.2-4.471-7.778-1.222,0,0-9.175,12.906-10.667,14.837" transform="translate(-1144.38 -967.7)" fill="#eea886"/>
        <path id="Path_2356" data-name="Path 2356" d="M1782.221,748.389s-11.357,23.947-3.54,25.379c10.735,1.966,15.078-17.869,15.078-17.869Z" transform="translate(-1155.106 -486.768)" fill="#141944"/>
        <path id="Path_2357" data-name="Path 2357" d="M1587.757,897.273s-3.55-1.114-3.837-3.218c-.243-1.79-1.85-3.926-2.343-4.585-.66-.881-1.678-4.341-2.8-3.52s1.4,5.784,1.725,6.93-4.535-1.035-5.737-.735-4.359,8.549-.852,9.66,7.986-.016,8.564.3a22.564,22.564,0,0,0,2.519.91Z" transform="translate(-1022.664 -576.159)" fill="#eea886"/>
        <path id="Path_2358" data-name="Path 2358" d="M1551.869,899.807s-10.961-2.689-11.841-2.257-.991,1.034.023,1.329,10.515,2.905,10.515,2.905-13.507-1-14.306-.807c-.468.115-.751,1.269-.223,1.476s13.859,1.968,13.859,1.968-12.613-.914-13.232-.551a.871.871,0,0,0,.394,1.574c.931.132,12.589,1.643,12.589,1.643s-9.222-.089-9.564.528c-.209.377-.5,1.363,1.88,1.311s8.009.416,8.009.416Z" transform="translate(-998.886 -583.754)" fill="#eea886"/>
        <path id="Path_2359" data-name="Path 2359" d="M1847.686,1510.764s-5.882,8.736-8.253,10.843c0,0-5.268,1.931-5.795,5.619s-.439,6.148,5.795,6.323,10.32-.944,11.462-4.719a17.183,17.183,0,0,1,3.639-6.345v7.9h1.4s.351-7.639.439-9.043,1.009-6.806-1.954-9.2a8.221,8.221,0,0,0-6.738-1.382" transform="translate(-1192.508 -982.495)" fill="#141944"/>
        <path id="Path_2360" data-name="Path 2360" d="M1842.861,1023.022s7.428,9.658,9.443,21.115-1.19,49.913-1.1,55.576,5.356,19.754,4.3,30.422-5.211,63.76-5.211,63.76l-11.382-2.258s.659-54.127,0-58.6-1.98-20.8-2.243-22.643-16.721-50.257-16.721-58.518,5-42.326,22.915-28.849" transform="translate(-1183.732 -663.366)" fill="#141944"/>
        <path id="Path_2361" data-name="Path 2361" d="M1746.756,1035.125s-12.2,46.576-13.653,53.029-3.547,11.775-3.547,14.515c0,6.357,2.362,16.565,2.362,16.565l15.5,74.117h14.759s-8.223-44.465-8.445-53.16c-.222-8.714-6.93-21.088-5.612-24.776s21.2-46.225,21.2-46.225,15.057-47.586-22.564-34.065" transform="translate(-1124.941 -671.694)" fill="#141944"/>
        <path id="Path_2362" data-name="Path 2362" d="M1850.585,1522s6.024,3.368,9.9-.957a30.561,30.561,0,0,0,5.088-8.5l-6.738-1.382Z" transform="translate(-1203.66 -982.888)" fill="#eea886"/>
        <path id="Path_2363" data-name="Path 2363" d="M1669.88,813.207a15.23,15.23,0,0,0-8.834,4.548,58.308,58.308,0,0,0-8.365,12.741c-1,2.173-14.953,22.306-15.677,22.758s-6.824-1.151-11.712-1.558c-7.975-.665-19.907-4.728-19.907-4.728l-1.771,9.013s29.345,9.47,36.117,7.8c8.281-2.04,27.344-26.5,27.344-26.5s14.212-16.656,2.806-24.078" transform="translate(-1043.024 -528.927)" fill="#dbdff0"/>
        <path id="Path_2364" data-name="Path 2364" d="M1777.425,802.474s-6.518,3.078-8.78,3.53-11.043,11.858-12.582,16.022,0,10.41,3.168,17.742.181,9.776,1.63,17.108.982,34.761.711,38.835,42.369,10.248,50.787,2.825c0,0-5.7-24.721-12.447-31.776-1.459-1.526-1.3-11.695-.309-14.229s12.221-21.453,12.221-21.453.824-19.188-4.074-22.991c-4.254-3.3-15.85-4.482-17.931-5.206s-8.138-1.04-12.392-.406" transform="translate(-1141.789 -521.724)" fill="#141944"/>
        <path id="Path_2365" data-name="Path 2365" d="M1809.394,765s1.3,11.956,1.028,15.848c0,0,6.772,6.787,14.475-7.921a20.191,20.191,0,0,1-.8-14.323c2.439-8.26-14.7,6.4-14.7,6.4" transform="translate(-1176.868 -491.768)" fill="#eea886"/>
        <path id="Path_2366" data-name="Path 2366" d="M1753.872,885.082s-1.631-10.843.1-17.437a42.11,42.11,0,0,0,3.109,13.722Z" transform="translate(-1140.304 -564.334)" fill="#aaadba"/>
        <path id="Path_2367" data-name="Path 2367" d="M1865.214,715.952s1.494-1.794,2.051.013-1.268,7.179-1.469,7.957c0,0-.906,3.015-1.267,2.63s.684-10.6.684-10.6" transform="translate(-1212.68 -465.154)" fill="#eea987"/>
        <path id="Path_2368" data-name="Path 2368" d="M1787.945,716.591s-1.494-1.794-2.052.013,1.268,7.179,1.469,7.957c0,0,.906,3.015,1.267,2.63s-.684-10.6-.684-10.6" transform="translate(-1161.514 -465.57)" fill="#eea987"/>
        <path id="Path_2369" data-name="Path 2369" d="M1800.429,668.07s-13.715,2.112-11.707,23.716,14.113,19.889,14.921,19.871,12.144.449,13.124-25.912c0,0,.458-19.495-16.338-17.675" transform="translate(-1163.292 -434.449)" fill="#eea987"/>
        <path id="Path_2370" data-name="Path 2370" d="M1814.159,683.639s-15.222,4.527-22.51,3.079c0,0-.465,2.688-1.512,2.854s-1.581-5.14-1.581-5.14-.357-17.568,15.536-17.734,12.664,19.029,12.664,19.029l-.216,3.28s-2.276.9-2.381-5.37" transform="translate(-1163.314 -433.634)" fill="#141944"/>
        <path id="Path_2371" data-name="Path 2371" d="M1824.526,787.08s-4.8,4.55-12.19.374a7.7,7.7,0,0,0,6.324,3.554,6.975,6.975,0,0,0,5.866-3.928" transform="translate(-1178.782 -511.933)" fill="#a77860"/>
        <path id="Path_2372" data-name="Path 2372" d="M1821.588,805s-4.658,13.759-17.449,12.747-6.064-11.618-6.064-11.618a28.188,28.188,0,0,1,4.085-2c.9-.173,14.142-.341,14.142-.341Z" transform="translate(-1168.357 -522.803)" fill="#eea886"/>
        <path id="Path_2373" data-name="Path 2373" d="M1757.1,810.489s-6.7,18.531-6.7,37.417-.54,49.653-2.879,59.368-9,39.762-9,39.762l-5.217-2.7s12.547-47.953,13.494-51.411-.72-39.987-1.619-43.046-4.726-16.673-4.131-20.451c.75-4.762,5.205-11.808,12.4-17.866Z" transform="translate(-1127.382 -527.159)" fill="#dbdff0"/>
        <path id="Path_2374" data-name="Path 2374" d="M1849.116,805.6a192.684,192.684,0,0,0-6.274,30.407c-2.11,17.076,6.477,96.334,12.234,114.326l22.31-3.6s-4.8-56.024-11.321-66.22-8.594-19.216-1.557-40.5-3.085-31.819-3.085-31.819-10.351-2.38-12.307-2.6" transform="translate(-1198.411 -523.98)" fill="#dbdff0"/>
        <path id="Path_2375" data-name="Path 2375" d="M1792.545,933.769l27.051,46.853,30.072-17.362-25.876-47.531Z" transform="translate(-1165.909 -595.609)" fill="#141944"/>
        <path id="Path_2376" data-name="Path 2376" d="M1801.873,942.135l24.024,41.611,26.707-15.42-22.981-42.214Z" transform="translate(-1171.976 -602.363)" fill="#e0cec7"/>
        <path id="Path_2377" data-name="Path 2377" d="M1824.088,944.219,1822.4,941.3l10.8-6.234,2.109,2.677Z" transform="translate(-1185.329 -608.185)" fill="#141944"/>
        <path id="Path_2378" data-name="Path 2378" d="M1821.432,1029.249a5.589,5.589,0,0,0,1.769-.255s.945-.548,1.64-.9a5.345,5.345,0,0,1,.548-.246,10.257,10.257,0,0,0,3.016-1.275,68.693,68.693,0,0,0,5.432-5.734l-2-3.042-1.467-3.115s-8.894.574-10.1,1.218a3.464,3.464,0,0,0-.333.2,13.053,13.053,0,0,0-1.882,1.925c-.172.146-1.775,1.716-1.719,2.384a2.189,2.189,0,0,0,1.066,1.845,5.24,5.24,0,0,0,1.122,2.654,3.257,3.257,0,0,0,1.567,2.41s.351,1.682,1.34,1.926" transform="translate(-1181.384 -659.972)" fill="#eea886"/>
        <path id="Path_2379" data-name="Path 2379" d="M1863.564,812.695s8.215-2.353,12.922,6.7,4.684,12.914,5.313,17.334c.594,4.174,3.275,15.568,3.547,16.745s6.344,15.209,3.559,20.113c-2.8,4.93-31.232,19.441-31.051,20.527s-4.924-10.971-4.924-10.971,11.5-6.412,13.389-8.387c3.061-3.207,9.517-6.663,8.191-10.641-1.559-4.674-6.239-20.441-7.325-22.749s-10.546-25.729-3.621-28.671" transform="translate(-1205.186 -528.414)" fill="#dbdff0"/>
      </g>
    </g>
  </g>
</svg>
