<svg xmlns="http://www.w3.org/2000/svg" width="49.437" height="47.04" viewBox="0 0 49.437 47.04">
  <path id="Icon_awesome-icons" data-name="Icon awesome-icons" d="M11.263,20.153a1.568,1.568,0,0,0,2.187,0l9.342-9.172a6.369,6.369,0,0,0-.474-9.544,6.845,6.845,0,0,0-9.007.625l-.952.932-.951-.932A6.846,6.846,0,0,0,2.4,1.437a6.38,6.38,0,0,0-.483,9.544Zm13.9,9.233H20.525l-.684-1.308a2.643,2.643,0,0,0-2.478-1.634H10.44a2.643,2.643,0,0,0-2.478,1.634l-.676,1.308H2.651A2.589,2.589,0,0,0,0,31.908v12.61A2.588,2.588,0,0,0,2.649,47.04H25.16a2.589,2.589,0,0,0,2.649-2.522V31.908a2.588,2.588,0,0,0-2.649-2.523ZM13.9,43a4.783,4.783,0,1,1,0-9.555A4.783,4.783,0,1,1,13.9,43ZM48.22,32.349H42.371l2.159-4.663c.2-.611-.379-1.214-1.176-1.214h-7.3a1.161,1.161,0,0,0-1.207.836l-1.622,9.824c-.1.579.471,1.092,1.207,1.092H40.45l-2.337,7.626c-.182.611.406,1.185,1.181,1.185a1.305,1.305,0,0,0,1.054-.482L49.27,33.792c.471-.635-.112-1.442-1.05-1.442ZM46.162.03l-14.345,2.1a2.917,2.917,0,0,0-2.463,2.909v9.81a8.433,8.433,0,0,0-1.545-.156c-3.413,0-6.18,1.973-6.18,4.41s2.766,4.41,6.18,4.41,6.154-1.959,6.18-4.379V9.156L44.8,7.574v4.335a8.433,8.433,0,0,0-1.545-.156c-3.413,0-6.18,1.973-6.18,4.41s2.766,4.41,6.18,4.41,6.154-1.959,6.18-4.379V2.94A2.892,2.892,0,0,0,46.162.03Z" transform="translate(0 0)" fill="#b2b2b2"/>
</svg>
