<svg id="Group_3" data-name="Group 3" xmlns="http://www.w3.org/2000/svg" xmlns:xlink="http://www.w3.org/1999/xlink" width="301.213" height="82.518" viewBox="0 0 301.213 82.518">
  <defs>
    <clipPath id="clip-path">
      <rect id="Rectangle_1" data-name="Rectangle 1" width="300.671" height="82.518" fill="none"/>
    </clipPath>
  </defs>
  <g id="Group_2" data-name="Group 2">
    <g id="Group_1" data-name="Group 1" clip-path="url(#clip-path)">
      <path id="Path_1" data-name="Path 1" d="M104.156,239.569a3.352,3.352,0,0,1,.365-1.521l9.027-17.772h6l9.027,17.772a3.365,3.365,0,1,1-6,3.047l-6.027-11.866L110.521,241.1a3.365,3.365,0,0,1-6.365-1.526" transform="translate(-75.853 -160.419)" fill="#ffc331"/>
      <path id="Path_2" data-name="Path 2" d="M0,180.92a3.365,3.365,0,0,1,3.184-3.357l19.9-1.068,3,5.2-10.878,16.7a3.365,3.365,0,0,1-5.639-3.673l7.263-11.153-13.29.714A3.365,3.365,0,0,1,0,181.1c0-.061,0-.123,0-.183" transform="translate(0 -128.535)" fill="#f7536e"/>
      <path id="Path_3" data-name="Path 3" d="M0,59.961c0-.061,0-.122,0-.183a3.365,3.365,0,0,1,3.54-3.18l13.29.714L9.573,46.159a3.365,3.365,0,0,1,5.639-3.672l10.878,16.7-3,5.2-19.9-1.068A3.365,3.365,0,0,1,0,59.961" transform="translate(-0.001 -29.828)" fill="#f7536e"/>
      <path id="Path_4" data-name="Path 4" d="M104.157,3.368a3.365,3.365,0,0,1,6.365-1.526l6.027,11.866,6.027-11.866a3.365,3.365,0,1,1,6,3.047l-9.027,17.772h-6L104.522,4.889a3.352,3.352,0,0,1-.365-1.521" transform="translate(-75.854 0)" fill="#00ade5"/>
      <path id="Path_5" data-name="Path 5" d="M203.513,59.191l10.878-16.7a3.365,3.365,0,1,1,5.639,3.672l-7.263,11.153,13.29-.714a3.365,3.365,0,0,1,.361,6.72l-19.9,1.068Z" transform="translate(-148.212 -29.828)" fill="#71c556"/>
      <path id="Path_6" data-name="Path 6" d="M203.513,181.69l3-5.2,19.9,1.069a3.365,3.365,0,0,1-.361,6.72l-13.29-.714,7.263,11.153a3.365,3.365,0,1,1-5.639,3.672Z" transform="translate(-148.212 -128.535)" fill="#71c556"/>
      <path id="Path_7" data-name="Path 7" d="M.679,142.73a3.365,3.365,0,0,1,3.429-3.287l16.3.318a3.365,3.365,0,0,1,3.3,3.43s0,.008,0,.011a3.364,3.364,0,0,1-3.429,3.287l-16.3-.318a3.365,3.365,0,0,1-3.3-3.43v-.011" transform="translate(-0.493 -101.551)" fill="#f7536e"/>
      <path id="Path_8" data-name="Path 8" d="M71.289,23.852A3.365,3.365,0,0,1,77.6,22.3l7.877,14.279a3.365,3.365,0,1,1-5.892,3.251L71.707,25.551a3.351,3.351,0,0,1-.418-1.7" transform="translate(-51.916 -14.973)" fill="#00ade5"/>
      <path id="Path_9" data-name="Path 9" d="M178.537,39.52a3.349,3.349,0,0,1,.484-1.659L187.448,23.9a3.365,3.365,0,1,1,5.761,3.478l-8.427,13.961a3.365,3.365,0,0,1-6.245-1.818" transform="translate(-130.021 -16.221)" fill="#00ade5"/>
      <path id="Path_10" data-name="Path 10" d="M217.2,144.988a3.365,3.365,0,0,1,3.429-3.287l16.3.318a3.365,3.365,0,0,1,3.3,3.43s0,.008,0,.011a3.364,3.364,0,0,1-3.429,3.287l-16.3-.318a3.365,3.365,0,0,1-3.3-3.43v-.011" transform="translate(-158.176 -103.195)" fill="#71c556"/>
      <path id="Path_11" data-name="Path 11" d="M176.091,212.576a3.365,3.365,0,0,1,6.209-1.917l8.695,13.8a3.365,3.365,0,0,1-5.693,3.588l-8.695-13.8a3.35,3.35,0,0,1-.516-1.671" transform="translate(-128.24 -152.272)" fill="#ffc331"/>
      <path id="Path_12" data-name="Path 12" d="M68.322,225.9a3.349,3.349,0,0,1,.484-1.659l8.427-13.961a3.365,3.365,0,0,1,5.761,3.477l-8.427,13.961a3.365,3.365,0,0,1-6.245-1.818" transform="translate(-49.756 -151.957)" fill="#ffc331"/>
    </g>
  </g>
  <text id="bloombyte" transform="translate(93.213 54.918)" fill="#fff" font-size="45" font-family="PublicaPlay-Regular, Publica Play"><tspan x="0" y="0" letter-spacing="-0.04em">b</tspan><tspan y="0" letter-spacing="-0.039em">loo</tspan><tspan y="0" letter-spacing="-0.049em">m</tspan><tspan y="0" letter-spacing="-0.04em">b</tspan><tspan y="0" letter-spacing="-0.039em">y</tspan><tspan y="0" letter-spacing="-0.047em">t</tspan><tspan y="0">e</tspan></text>
</svg>
