<svg xmlns="http://www.w3.org/2000/svg" width="50.96" height="51.023" viewBox="0 0 50.96 51.023">
  <g id="transfer" transform="translate(-0.3)">
    <g id="Group_1289" data-name="Group 1289" transform="translate(0.3 0)">
      <path id="Path_1794" data-name="Path 1794" d="M295.642.375a1.27,1.27,0,0,0-1.8,0L289.975,4.24a1.27,1.27,0,0,0,0,1.8l3.865,3.865a1.278,1.278,0,0,0,1.813-1.8l-1.688-1.688h6.448a7.46,7.46,0,0,1,7.448,7.448v4.563a1.281,1.281,0,1,0,2.563,0V13.865a10.016,10.016,0,0,0-10-10h-6.448l1.688-1.688A1.289,1.289,0,0,0,295.642.375Z" transform="translate(-259.463 0)" fill="#141944"/>
      <path id="Path_1795" data-name="Path 1795" d="M249.6,252.181v22.324a1.28,1.28,0,0,0,1.281,1.281h22.324a1.28,1.28,0,0,0,1.281-1.281V252.181a1.28,1.28,0,0,0-1.281-1.281H250.871A1.292,1.292,0,0,0,249.6,252.181Zm2.552,1.281h19.761v19.772H252.152Z" transform="translate(-223.63 -224.764)" fill="#141944"/>
      <path id="Path_1796" data-name="Path 1796" d="M.3,306.444a10.016,10.016,0,0,0,10,10h6.448l-1.688,1.688a1.278,1.278,0,0,0,1.813,1.8l3.865-3.865a1.283,1.283,0,0,0,0-1.813l-3.865-3.865a1.274,1.274,0,0,0-1.8,1.8l1.688,1.688H10.311a7.46,7.46,0,0,1-7.448-7.448v-4.552a1.281,1.281,0,1,0-2.563,0v4.563Z" transform="translate(-0.3 -269.286)" fill="#141944"/>
      <path id="Path_1797" data-name="Path 1797" d="M24.805,0H2.481A1.28,1.28,0,0,0,1.2,1.281V23.605a1.28,1.28,0,0,0,1.281,1.281H24.805a1.28,1.28,0,0,0,1.281-1.281V1.281A1.294,1.294,0,0,0,24.805,0ZM23.524,22.324H3.763V2.552H23.534V22.324Z" transform="translate(-1.106 0)" fill="#141944"/>
    </g>
  </g>
</svg>
